<svg width="23" height="22" viewBox="0 0 23 22" fill="none" xmlns="http://www.w3.org/2000/svg">
<path fill-rule="evenodd" clip-rule="evenodd" d="M20.6655 0.292893C21.056 -0.0976311 21.6891 -0.0976311 22.0797 0.292893C22.4702 0.683417 22.4702 1.31658 22.0797 1.70711L12.7868 11L22.0797 20.2929C22.4702 20.6834 22.4702 21.3166 22.0797 21.7071C21.6891 22.0976 21.056 22.0976 20.6655 21.7071L11.3726 12.4142L2.07967 21.7071C1.68914 22.0976 1.05598 22.0976 0.665452 21.7071C0.274928 21.3166 0.274928 20.6834 0.665452 20.2929L9.95835 11L0.665452 1.70711C0.274928 1.31658 0.274928 0.683417 0.665452 0.292893C1.05598 -0.0976311 1.68914 -0.0976311 2.07967 0.292893L11.3726 9.58579L20.6655 0.292893Z" fill="#C4C4C4"/>
</svg>
