<svg width="15" height="15" viewBox="0 0 15 15" fill="none" xmlns="http://www.w3.org/2000/svg">
<path fill-rule="evenodd" clip-rule="evenodd" d="M12.967 0.559007C13.3575 0.168482 13.9907 0.168482 14.3812 0.559007C14.7717 0.949531 14.7717 1.5827 14.3812 1.97322L9.03555 7.31885L14.3814 12.6647C14.772 13.0552 14.772 13.6884 14.3814 14.0789C13.9909 14.4695 13.3577 14.4695 12.9672 14.0789L7.62134 8.73306L2.27547 14.0789C1.88494 14.4695 1.25178 14.4695 0.861252 14.0789C0.470728 13.6884 0.470728 13.0552 0.861252 12.6647L6.20713 7.31885L0.8615 1.97322C0.470976 1.5827 0.470976 0.949531 0.8615 0.559007C1.25202 0.168482 1.88519 0.168482 2.27571 0.559007L7.62134 5.90463L12.967 0.559007Z" fill="white"/>
</svg>
