<svg width="16" height="16" viewBox="0 0 16 16" fill="none" xmlns="http://www.w3.org/2000/svg">
<path d="M7.79248 15.9051C11.9346 15.9051 15.2925 12.5472 15.2925 8.40509C15.2925 4.26295 11.9346 0.90509 7.79248 0.90509C3.65035 0.90509 0.29248 4.26295 0.29248 8.40509C0.29248 12.5472 3.65035 15.9051 7.79248 15.9051Z" fill="#627EEA"/>
<path d="M8.02588 2.78015V6.93815L11.54 8.50851L8.02588 2.78015Z" fill="white" fill-opacity="0.6"/>
<path d="M8.026 2.78015L4.51123 8.50834L8.026 6.93798V2.78015Z" fill="white"/>
<path d="M8.02588 11.2026V14.0278L11.5424 9.1626L8.02588 11.2026Z" fill="white" fill-opacity="0.6"/>
<path d="M8.026 14.0278V11.2022L4.51123 9.16241L8.026 14.0278Z" fill="white"/>
<path d="M8.02588 10.5488L11.54 8.50832L8.02588 6.93927V10.5488Z" fill="white" fill-opacity="0.2"/>
<path d="M4.51123 8.50831L8.026 10.5488V6.9389L4.51123 8.50831Z" fill="white" fill-opacity="0.6"/>
</svg>
