<svg width="17" height="16" viewBox="0 0 17 16" fill="none" xmlns="http://www.w3.org/2000/svg">
<path fill-rule="evenodd" clip-rule="evenodd" d="M5.82643 9.82296C5.06539 8.99004 4.57776 7.94399 4.42914 6.82557C4.39367 6.56543 4.39368 6.30529 4.44098 6.08063V1.09075C4.44098 0.688723 4.61833 0.511369 5.02036 0.511369H12.7299C12.8072 0.499247 12.8862 0.505555 12.9606 0.529791C13.035 0.554026 13.1026 0.595493 13.158 0.65082C13.2133 0.706147 13.2548 0.773772 13.279 0.848169C13.3032 0.922566 13.3095 1.00163 13.2974 1.07893V6.3053C13.2516 7.52781 12.8004 8.70033 12.0147 9.63804C11.229 10.5757 10.1535 11.2253 8.95789 11.4844C8.86812 11.5022 8.77566 11.5022 8.68588 11.4844C7.58538 11.2357 6.58747 10.6559 5.82643 9.82296ZM10.0234 2.76595C9.66951 2.52948 9.2534 2.40325 8.82777 2.40325C8.25701 2.40325 7.70965 2.62999 7.30606 3.03357C6.90248 3.43716 6.6758 3.98454 6.6758 4.5553C6.6758 4.98093 6.80199 5.397 7.03845 5.7509C7.27492 6.1048 7.611 6.38063 8.00424 6.54351C8.39747 6.70639 8.8302 6.749 9.24765 6.66597C9.66511 6.58293 10.0486 6.37797 10.3495 6.077C10.6505 5.77604 10.8554 5.39258 10.9385 4.97513C11.0215 4.55767 10.9789 4.12498 10.8161 3.73174C10.6532 3.33851 10.3773 3.00241 10.0234 2.76595ZM10.7474 13.7763C11.2059 14.1633 11.7683 14.4065 12.3643 14.4755C12.5535 14.4992 12.5889 14.5819 12.6244 14.712V15.2796C12.6244 15.5279 12.5772 15.5279 12.3643 15.5279H12.3643H5.39976C5.12782 15.5279 5.12782 15.4451 5.12782 15.256V15.2559V14.7002C5.12782 14.5465 5.18693 14.4637 5.34065 14.4637C5.84626 14.4018 6.32809 14.2133 6.74147 13.9156C7.15486 13.618 7.48644 13.2208 7.70552 12.761C7.8468 12.4305 7.9653 12.0907 8.06024 11.7441C8.31087 11.8581 8.58301 11.9171 8.85837 11.9171C9.13372 11.9171 9.40586 11.8581 9.6565 11.7441C9.67261 11.8126 9.69285 11.8783 9.71254 11.9423C9.75062 12.066 9.78662 12.1829 9.78662 12.2998C9.95473 12.8758 10.2889 13.3893 10.7474 13.7763ZM16.5253 1.89487C16.4101 1.78665 16.2744 1.70265 16.1261 1.64781C15.9778 1.59297 15.8201 1.56842 15.6622 1.5756H13.5811V3.04183H15.4139V3.3256V5.27663C15.4052 5.63279 15.3218 5.98315 15.1691 6.305C15.0163 6.62685 14.7975 6.913 14.527 7.14488C14.2112 7.3925 13.8704 7.60649 13.5101 7.78339C13.2796 8.50759 12.9011 9.176 12.3987 9.74624C13.5108 9.47082 14.5537 8.96752 15.4612 8.26819C15.8794 7.9106 16.2199 7.47122 16.4619 6.97707C16.7039 6.48292 16.8422 5.94446 16.8683 5.39486V3.3256V2.75804C16.8724 2.59846 16.8441 2.43972 16.7852 2.29137C16.7262 2.14302 16.6378 2.00815 16.5253 1.89487ZM3.2234 7.1209C3.53923 7.36852 3.8801 7.58251 4.24035 7.7594C4.47081 8.48469 4.84477 9.15623 5.34 9.73407C4.22787 9.45866 3.185 8.95535 2.27746 8.25602C1.85929 7.89844 1.51874 7.45905 1.27675 6.9649C1.03476 6.47075 0.896446 5.93231 0.870361 5.38271V3.31345V2.76952C0.863177 2.61161 0.887767 2.45387 0.942604 2.30561C0.99744 2.15735 1.08143 2.02158 1.18964 1.90635C1.30668 1.79306 1.44588 1.70517 1.59849 1.6482C1.75109 1.59123 1.91382 1.56639 2.07647 1.57527H4.15757V3.01784H2.33657V3.30163V5.25265C2.34523 5.60881 2.42867 5.95917 2.58144 6.28102C2.73422 6.60286 2.95292 6.88901 3.2234 7.1209Z" fill="url(#paint0_linear_392_22320)"/>
<defs>
<linearGradient id="paint0_linear_392_22320" x1="25.8967" y1="-8.26188" x2="25.8967" y2="26.8488" gradientUnits="userSpaceOnUse">
<stop offset="0.13" stop-color="#85FF00"/>
<stop offset="1" stop-color="#009930"/>
</linearGradient>
</defs>
</svg>
