<svg width="20" height="19" viewBox="0 0 20 19" fill="none" xmlns="http://www.w3.org/2000/svg">
<path fill-rule="evenodd" clip-rule="evenodd" d="M12.6716 4.56996C12.6716 4.21851 12.4676 4.01536 12.1165 4.01494H10.0787H9.88597C10.1499 3.52819 10.237 3.03433 10.0996 2.51407C9.97288 2.01059 9.65453 1.57651 9.21241 1.30433C8.49695 0.850682 7.44974 0.843561 6.65344 1.68468C5.85002 0.843561 4.83339 0.852357 4.19082 1.25239C3.11764 1.92261 2.89605 2.86719 3.39494 4.01494H1.2071C0.830108 4.01494 0.633231 4.2093 0.632812 4.58211V6.46709C0.632812 6.82942 0.833877 7.03049 1.19537 7.03049H12.1061C12.4709 7.03049 12.672 6.83194 12.6728 6.47086C12.6728 5.83862 12.6724 5.20499 12.6716 4.56996ZM5.79184 4.01334H5.79184C5.5315 4.01895 5.27655 4.02444 5.02398 4.00195C4.48194 3.9542 4.10704 3.47332 4.14432 2.92919C4.16325 2.67026 4.28223 2.42887 4.47606 2.25615C4.66989 2.08343 4.92335 1.99295 5.18274 2.00387C5.43904 2.01143 5.68248 2.11787 5.86207 2.30089C6.04166 2.48392 6.14347 2.72933 6.14617 2.98574C6.15216 3.22515 6.15109 3.46435 6.14999 3.71006C6.14955 3.80827 6.1491 3.90752 6.1491 4.00823C6.02873 4.00823 5.90973 4.0108 5.79184 4.01334ZM8.24897 4.00823C8.00273 4.02323 7.7553 4.01956 7.50271 4.01583H7.50269C7.38834 4.01413 7.27293 4.01242 7.1561 4.01242C7.1561 3.89391 7.15461 3.77758 7.15314 3.66278V3.66275C7.14993 3.41238 7.14682 3.16922 7.15945 2.92625C7.18752 2.39427 7.64285 1.99549 8.18153 2.00471C8.43504 2.01011 8.67699 2.11178 8.85825 2.28908C9.03952 2.46638 9.14652 2.70602 9.15753 2.95935C9.18057 3.50557 8.78724 3.97263 8.24897 4.00698V4.00823ZM1.63414 8.2092V12.4785C1.63414 12.8706 1.82808 13.0624 2.22351 13.0624H6.14092V8.04207H1.63414V8.2092ZM11.0749 13.0625H7.16463V8.04634H11.6685V12.4668C11.6685 12.874 11.4808 13.0625 11.0749 13.0625Z" fill="url(#paint0_linear_392_22325)"/>
<path d="M14.0875 18.2342C13.6237 18.1458 13.1662 18.0269 12.7181 17.8782C11.9198 17.5767 11.2247 17.0527 10.715 16.3683C10.2053 15.6839 9.90251 14.8677 9.84238 14.0165C9.75813 13.1088 9.94302 12.1964 10.374 11.3931C10.8049 10.5898 11.4628 9.93108 12.2656 9.49924C13.0685 9.06739 13.9807 8.88148 14.8885 8.9647C15.7963 9.04792 16.6595 9.39658 17.3705 9.9672C18.0814 10.5378 18.6086 11.3052 18.8863 12.1735C19.164 13.0418 19.1799 13.9726 18.932 14.8498C18.6841 15.7271 18.1834 16.512 17.4923 17.1065C16.8013 17.7011 15.9504 18.079 15.046 18.1932C15.0099 18.1854 14.9726 18.1854 14.9365 18.1932L14.0875 18.2342ZM14.9502 13.1402V12.8389C14.9502 12.1405 14.9502 11.4695 14.9502 10.73C14.9591 10.6431 14.9471 10.5554 14.9151 10.474C14.8832 10.3927 14.8322 10.3202 14.7666 10.2626C14.7009 10.2049 14.6224 10.1638 14.5376 10.1427C14.4528 10.1216 14.3642 10.1211 14.2792 10.1412C14.0053 10.1412 13.8547 10.4151 13.841 10.7711V13.5099C13.841 13.5099 13.841 13.6058 13.841 13.6605C13.8444 13.7866 13.896 13.9065 13.9852 13.9956C14.0743 14.0847 14.1942 14.1364 14.3202 14.1398H16.4017C16.5187 14.134 16.6299 14.0867 16.7152 14.0064C16.8005 13.9261 16.8544 13.8181 16.8673 13.7016C16.8817 13.6209 16.8778 13.538 16.8559 13.4591C16.834 13.3801 16.7947 13.307 16.7408 13.2452C16.687 13.1835 16.6199 13.1346 16.5446 13.1022C16.4694 13.0698 16.3877 13.0547 16.3058 13.058L14.9502 13.1402Z" fill="url(#paint1_linear_392_22325)"/>
<defs>
<linearGradient id="paint0_linear_392_22325" x1="19.4666" y1="-12.9498" x2="-4.31204" y2="17.3842" gradientUnits="userSpaceOnUse">
<stop offset="0.13" stop-color="#85FF00"/>
<stop offset="1" stop-color="#009930"/>
</linearGradient>
<linearGradient id="paint1_linear_392_22325" x1="24.3458" y1="-1.77924" x2="6.06076" y2="21.5996" gradientUnits="userSpaceOnUse">
<stop offset="0.13" stop-color="#85FF00"/>
<stop offset="1" stop-color="#009930"/>
</linearGradient>
</defs>
</svg>
