<svg width="18" height="17" viewBox="0 0 18 17" fill="none" xmlns="http://www.w3.org/2000/svg">
<path fill-rule="evenodd" clip-rule="evenodd" d="M4.4278 8.88214L4.78076 8.69957C4.76795 8.74723 4.74741 8.79245 4.71992 8.83344C4.62715 9.40037 4.52564 9.91494 4.4228 10.4363C4.4042 10.5306 4.38556 10.6251 4.36691 10.7202C4.35325 10.8094 4.35812 10.9004 4.38118 10.9877C4.40424 11.0749 4.44498 11.1565 4.50094 11.2273C4.55689 11.2981 4.62684 11.3566 4.7064 11.3992C4.78595 11.4418 4.87344 11.4675 4.96338 11.4748H6.82573C6.91583 11.471 7.00406 11.448 7.08453 11.4073C7.16501 11.3666 7.23586 11.3092 7.29233 11.2388C7.34881 11.1685 7.38959 11.087 7.41198 10.9996C7.43437 10.9123 7.43785 10.8212 7.42216 10.7323L7.16655 9.38121C7.15355 9.29885 7.13437 9.21649 7.11506 9.13358C7.08015 8.98368 7.04482 8.83198 7.04482 8.67523L7.1787 8.74827C7.77003 9.08187 8.46491 9.18173 9.12627 9.0282C9.60471 8.91996 10.0453 8.68523 10.402 8.34849C10.7587 8.01175 11.0184 7.58538 11.154 7.11396C11.2896 6.64253 11.2961 6.14332 11.1728 5.66854C11.0495 5.19375 10.8009 4.76083 10.453 4.41495C9.14655 3.10846 7.83603 1.80197 6.52143 0.49548C6.44297 0.412983 6.34856 0.347275 6.24394 0.302391C6.13931 0.257507 6.02666 0.234375 5.91281 0.234375C5.79897 0.234375 5.68631 0.257507 5.58169 0.302391C5.47706 0.347275 5.38265 0.412983 5.3042 0.49548L4.28174 1.51794C3.95292 1.84676 3.62274 2.17422 3.29257 2.50169C2.63272 3.15612 1.97287 3.81054 1.32385 4.47579C1.02583 4.77433 0.804784 5.14076 0.679687 5.54361C0.554591 5.94647 0.52919 6.37368 0.605691 6.78851C0.670871 7.20443 0.830646 7.59985 1.0727 7.9443C1.31475 8.28875 1.63263 8.57302 2.00185 8.77527C2.37108 8.97752 2.78181 9.09237 3.2024 9.11089C3.62298 9.12942 4.04222 9.05114 4.4278 8.88214ZM11.8777 15.9178C12.276 16.0499 12.6826 16.1557 13.0949 16.2343L13.8496 16.1977C13.8817 16.1908 13.9148 16.1908 13.9469 16.1977C14.7509 16.0963 15.5072 15.7603 16.1214 15.2319C16.7357 14.7034 17.1808 14.0057 17.4011 13.2259C17.6215 12.4461 17.6074 11.6187 17.3605 10.8469C17.1137 10.0751 16.645 9.393 16.0131 8.88578C15.3812 8.37856 14.6139 8.06864 13.8069 7.99466C13 7.92069 12.1891 8.08594 11.4755 8.46981C10.7618 8.85367 10.177 9.43915 9.79399 10.1532C9.41094 10.8673 9.24659 11.6783 9.32148 12.4852C9.37493 13.2418 9.64411 13.9673 10.0971 14.5756C10.5502 15.184 11.1681 15.6498 11.8777 15.9178ZM13.8617 11.4384V11.7062L15.0668 11.6332C15.1396 11.6302 15.2121 11.6436 15.279 11.6724C15.346 11.7012 15.4056 11.7447 15.4534 11.7996C15.5013 11.8545 15.5363 11.9194 15.5558 11.9896C15.5752 12.0599 15.5787 12.1335 15.5659 12.2052C15.5544 12.3088 15.5065 12.4048 15.4306 12.4762C15.3548 12.5476 15.256 12.5896 15.152 12.5948H13.3018C13.1898 12.5917 13.0832 12.5458 13.004 12.4666C12.9247 12.3873 12.8789 12.2808 12.8758 12.1687V12.0348V9.60037C12.888 9.28389 13.0218 9.04046 13.2653 9.04046C13.3409 9.02258 13.4196 9.02303 13.495 9.04179C13.5704 9.06056 13.6401 9.0971 13.6985 9.14833C13.7569 9.19956 13.8022 9.264 13.8306 9.33629C13.859 9.40858 13.8697 9.48659 13.8617 9.56386V11.4384Z" fill="url(#paint0_linear_392_22332)"/>
<defs>
<linearGradient id="paint0_linear_392_22332" x1="27.1459" y1="-18.2383" x2="-3.83835" y2="23.8596" gradientUnits="userSpaceOnUse">
<stop offset="0.13" stop-color="#85FF00"/>
<stop offset="1" stop-color="#009930"/>
</linearGradient>
</defs>
</svg>
