<svg width="21" height="21" viewBox="0 0 21 21" fill="none" xmlns="http://www.w3.org/2000/svg">
<path d="M10.5765 20.5117C7.43208 20.5117 4.52065 19.117 2.59003 16.7685C2.53503 16.7019 2.49398 16.6249 2.46933 16.5422C2.44468 16.4594 2.43693 16.3725 2.44653 16.2867C2.45614 16.2009 2.48291 16.1179 2.52526 16.0426C2.5676 15.9674 2.62465 15.9014 2.69301 15.8486C2.83218 15.7396 3.00836 15.689 3.18419 15.7076C3.36002 15.7263 3.52167 15.8127 3.63483 15.9486C4.47903 16.9712 5.53969 17.7936 6.74028 18.3566C7.94087 18.9195 9.25145 19.209 10.5775 19.204C15.4915 19.204 19.4757 15.3127 19.4757 10.5137C19.4757 5.71463 15.4915 1.82339 10.5775 1.82339C9.23235 1.81825 7.90333 2.11603 6.689 2.69463C5.47468 3.27324 4.4062 4.11782 3.56284 5.16573C3.45159 5.303 3.29126 5.39156 3.11583 5.41264C2.9404 5.43373 2.76365 5.3857 2.62303 5.27871C2.55407 5.22685 2.49623 5.16166 2.45296 5.087C2.4097 5.01235 2.38187 4.92977 2.37115 4.84415C2.36042 4.75854 2.36701 4.67164 2.39053 4.58862C2.41405 4.5056 2.45401 4.42816 2.50805 4.36089C4.43567 1.95136 7.38609 0.515647 10.5765 0.515647C16.2324 0.515647 20.8145 4.99177 20.8145 10.5137C20.8145 16.0356 16.2314 20.5117 10.5765 20.5117ZM3.71981 13.3531L1.01434 10.6467C0.752393 10.3857 0.747395 9.96679 1.00235 9.71084L3.64583 7.06836C3.77126 6.94562 3.94031 6.87771 4.1158 6.87959C4.2913 6.88146 4.45886 6.95296 4.58164 7.07836C4.64395 7.13911 4.69366 7.21154 4.72794 7.29153C4.76222 7.37151 4.78039 7.45747 4.78141 7.54448C4.78243 7.6315 4.76629 7.71786 4.7339 7.79863C4.7015 7.87939 4.6535 7.95298 4.59264 8.01517L3.04594 9.56187L13.3539 9.56187C13.4408 9.56081 13.5271 9.57689 13.6078 9.60918C13.6885 9.64147 13.7621 9.68934 13.8243 9.75006C13.8865 9.81078 13.9361 9.88315 13.9704 9.96306C14.0046 10.043 14.0227 10.1288 14.0238 10.2157C14.0238 10.5777 13.7238 10.8706 13.3539 10.8706L3.08693 10.8706L4.64463 12.4283C4.77016 12.551 4.84184 12.7184 4.8439 12.8939C4.84596 13.0694 4.77824 13.2386 4.65563 13.3641C4.53006 13.4867 4.36093 13.5545 4.18544 13.5524C4.00995 13.5503 3.84246 13.4787 3.71981 13.3531Z" fill="#AEAEB3"/>
</svg>
