<svg width="21" height="17" viewBox="0 0 21 17" fill="none" xmlns="http://www.w3.org/2000/svg">
<path d="M20.3379 5.10455V12.995C20.3379 13.7995 20.0203 14.5735 19.4502 15.1583C18.8801 15.743 18.1007 16.0942 17.2719 16.1398L17.0879 16.1446H3.58789C2.75775 16.1447 1.95906 15.8369 1.35566 15.2844C0.752257 14.7319 0.389889 13.9765 0.342891 13.1733L0.337891 12.995V5.10455L9.98989 10.0044C10.0973 10.0589 10.2167 10.0873 10.3379 10.0873C10.4591 10.0873 10.5785 10.0589 10.6859 10.0044L20.3379 5.10455ZM3.58789 0.638916H17.0879C17.8935 0.638822 18.6704 0.928674 19.2679 1.45225C19.8655 1.97583 20.2411 2.69583 20.3219 3.47258L10.3379 8.541L0.353891 3.47258C0.431414 2.72667 0.780941 2.03202 1.33964 1.5135C1.89834 0.994974 2.62957 0.686583 3.40189 0.643762L3.58789 0.638916H17.0879H3.58789Z" fill="url(#paint0_linear_392_22275)"/>
<defs>
<linearGradient id="paint0_linear_392_22275" x1="23.7334" y1="-5.24244" x2="-8.82793" y2="24.8465" gradientUnits="userSpaceOnUse">
<stop stop-color="#FA29FE"/>
<stop offset="1" stop-color="#00F0FF"/>
</linearGradient>
</defs>
</svg>
