<svg width="21" height="17" viewBox="0 0 21 17" fill="none" xmlns="http://www.w3.org/2000/svg">
<path d="M20.457 4.62424V12.7662C20.4571 13.5964 20.1395 14.3951 19.5694 14.9985C18.9992 15.6019 18.2198 15.9642 17.391 16.0112L17.207 16.0162H3.70703C2.87689 16.0163 2.0782 15.6987 1.4748 15.1286C0.871398 14.5584 0.50903 13.779 0.462031 12.9502L0.457031 12.7662V4.62424L10.109 9.68023C10.2164 9.73648 10.3358 9.76586 10.457 9.76586C10.5782 9.76586 10.6977 9.73648 10.805 9.68023L20.457 4.62424ZM3.70703 0.0162354H17.207C18.0126 0.0161383 18.7895 0.315231 19.3871 0.855503C19.9846 1.39577 20.3602 2.13872 20.441 2.94024L10.457 8.17024L0.473031 2.94024C0.550555 2.17055 0.900081 1.45375 1.45878 0.918698C2.01748 0.383644 2.74871 0.0654223 3.52103 0.0212355L3.70703 0.0162354H17.207H3.70703Z" fill="url(#paint0_linear_302_2296)"/>
<defs>
<linearGradient id="paint0_linear_302_2296" x1="20.4569" y1="34.0163" x2="8.42124" y2="-5.59632" gradientUnits="userSpaceOnUse">
<stop stop-color="#FEF529"/>
<stop offset="1" stop-color="#00FFFF"/>
</linearGradient>
</defs>
</svg>
