<svg width="17" height="15" viewBox="0 0 17 15" fill="none" xmlns="http://www.w3.org/2000/svg">
<path fill-rule="evenodd" clip-rule="evenodd" d="M4.33827 5.72102L7.75969 1.83544L7.57629 1.57166C7.51707 1.4983 7.44369 1.4376 7.36054 1.39317C7.27738 1.34874 7.18616 1.32149 7.09226 1.31306L4.43998 1.0412L3.77691 0.981523C3.69695 0.969636 3.61531 0.976422 3.53841 1.00133C3.46152 1.02624 3.39143 1.0686 3.33363 1.12511C3.27584 1.18162 3.23193 1.25074 3.2053 1.32706C3.17867 1.40338 3.17004 1.48483 3.18013 1.56503C3.21173 1.92449 3.2504 2.28159 3.28911 2.63915L3.28911 2.63917C3.31539 2.88181 3.34168 3.12465 3.36581 3.36858C3.38014 3.50117 3.39496 3.63328 3.40974 3.76503C3.44965 4.12085 3.48927 4.4741 3.5183 4.82734C3.52327 4.92463 3.5496 5.0196 3.59544 5.10556C3.64128 5.19151 3.70552 5.26632 3.78354 5.32464L4.33827 5.72102ZM4.76443 11.6435C4.75239 11.6616 4.74156 11.6784 4.73139 11.6942L4.73138 11.6943C4.70797 11.7307 4.68807 11.7616 4.66496 11.7894C4.44748 12.0068 4.22429 12.2307 3.99797 12.4578L3.99729 12.4585C3.5338 12.9234 3.05718 13.4016 2.58954 13.8648C2.47309 13.9818 2.33465 14.0748 2.18217 14.1382C2.02969 14.2016 1.86619 14.2342 1.70105 14.2342C1.53592 14.2342 1.37242 14.2016 1.21994 14.1382C1.06746 14.0748 0.928978 13.9818 0.812521 13.8648C0.695033 13.7499 0.601703 13.6127 0.537969 13.4613C0.474235 13.3098 0.441406 13.1472 0.441406 12.9829C0.441406 12.8186 0.474235 12.6559 0.537969 12.5045C0.601703 12.353 0.695033 12.2159 0.812521 12.101C1.50653 11.3981 2.20499 10.6997 2.90785 10.0057C2.96123 9.9675 3.01656 9.93209 3.07361 9.89962C2.99251 9.82229 2.91409 9.74871 2.83804 9.67737L2.83803 9.67735C2.64674 9.49789 2.47048 9.33253 2.30443 9.15698C2.01071 8.84462 1.84719 8.43199 1.84719 8.00323C1.84719 7.57446 2.01071 7.16185 2.30443 6.84949C2.35521 6.78346 2.42048 6.72997 2.49521 6.69317C2.56994 6.65637 2.65214 6.63724 2.73544 6.63724C2.81874 6.63724 2.90091 6.65637 2.97563 6.69317C3.05036 6.72997 3.11567 6.78346 3.16645 6.84949C3.44494 7.12135 3.72342 7.39985 4.0218 7.70486L4.08809 7.59876L9.31972 1.63113C9.37928 1.5587 9.45286 1.49905 9.53604 1.45575C9.61921 1.41246 9.71026 1.3864 9.80375 1.37916L12.456 1.1073C12.5727 1.1073 12.6894 1.09127 12.8104 1.07462C12.9096 1.06099 13.0116 1.04696 13.1191 1.04099C13.1985 1.03023 13.2794 1.03785 13.3554 1.06327C13.4315 1.08869 13.5007 1.13123 13.5577 1.1876C13.6147 1.24397 13.658 1.31266 13.6843 1.38841C13.7106 1.46416 13.7191 1.54493 13.7092 1.6245C13.6783 2.02668 13.6356 2.42887 13.5928 2.83106L13.5928 2.83114V2.83115C13.5715 3.03233 13.5501 3.23351 13.5302 3.43468C13.5132 3.59005 13.4955 3.74541 13.4777 3.90099L13.4777 3.90111L13.4777 3.90125C13.4402 4.2303 13.4026 4.56033 13.3711 4.89343C13.3633 4.98936 13.3364 5.08278 13.2919 5.16818C13.2475 5.25358 13.1865 5.32923 13.1125 5.39073C12.0597 6.30083 11.0106 7.21824 9.96242 8.13483L9.96237 8.13487C9.59778 8.45368 9.23331 8.7724 8.86884 9.09067L7.13823 10.6025L7.03876 10.6953C7.15569 10.8147 7.27263 10.9313 7.38886 11.0473L7.38892 11.0473L7.38897 11.0474C7.58248 11.2403 7.77404 11.4314 7.96043 11.6302C8.04834 11.7121 8.11442 11.8147 8.15271 11.9286C8.18151 12.0281 8.18056 12.1339 8.14992 12.2329C8.11928 12.3319 8.0603 12.4197 7.98031 12.4856C7.66327 12.7884 7.24177 12.9573 6.80338 12.9573C6.36499 12.9573 5.94345 12.7884 5.62642 12.4856C5.34198 12.236 5.11854 12.0067 4.87154 11.7533L4.76443 11.6435ZM13.9689 9.93301C14.6762 10.627 15.3768 11.3255 16.0708 12.0283C16.1889 12.1437 16.2826 12.2817 16.3464 12.434C16.4102 12.5863 16.4427 12.7498 16.4421 12.9149C16.4414 13.08 16.4077 13.2433 16.3428 13.3951C16.2779 13.547 16.1831 13.6842 16.0642 13.7987C15.8281 14.0336 15.5087 14.1654 15.1757 14.1654C14.8427 14.1654 14.5232 14.0336 14.2872 13.7987C13.5932 13.1091 12.9013 12.4151 12.2118 11.7167C12.1717 11.674 12.1362 11.6274 12.1057 11.5774C12.0056 11.6775 11.9102 11.7744 11.8177 11.8685C11.6403 12.0488 11.4733 12.2185 11.3034 12.3797C10.9871 12.684 10.5653 12.854 10.1264 12.854C9.68755 12.854 9.26571 12.684 8.94946 12.3797C8.86933 12.3155 8.81015 12.2288 8.77944 12.1308C8.74874 12.0328 8.7479 11.9279 8.77706 11.8294C8.81525 11.7151 8.87872 11.6108 8.96274 11.5244C9.16594 11.3167 9.37208 11.1121 9.57921 10.9064C9.68298 10.8034 9.78699 10.7001 9.89101 10.5961L9.78494 10.4966L9.19211 9.93301L12.4677 7.06854L12.7886 7.52606C12.816 7.55688 12.8404 7.59017 12.8616 7.62552L13.7169 6.77017C13.7685 6.70527 13.834 6.65285 13.9086 6.61681C13.9832 6.58078 14.0651 6.56205 14.1479 6.56205C14.2308 6.56205 14.3126 6.58078 14.3872 6.61681C14.4619 6.65285 14.5274 6.70527 14.5789 6.77017C14.8712 7.08327 15.0337 7.49561 15.0337 7.92391C15.0337 8.35221 14.8712 8.76455 14.5789 9.07764C14.3609 9.30175 14.1373 9.5148 13.8829 9.75721C13.8588 9.78017 13.8344 9.8034 13.8098 9.82692C13.8673 9.85507 13.9208 9.89075 13.9689 9.93301Z" fill="url(#paint0_linear_392_22335)"/>
<defs>
<linearGradient id="paint0_linear_392_22335" x1="23.1488" y1="-14.68" x2="6.02427" y2="14.2357" gradientUnits="userSpaceOnUse">
<stop offset="0.13" stop-color="#85FF00"/>
<stop offset="1" stop-color="#009930"/>
</linearGradient>
</defs>
</svg>
