<svg width="17" height="17" viewBox="0 0 17 17" fill="none" xmlns="http://www.w3.org/2000/svg">
<path fill-rule="evenodd" clip-rule="evenodd" d="M16.4037 8.00714L15.6249 7.22838C15.2563 6.85759 15.0122 6.38129 14.9264 5.86553C14.886 5.53868 14.8631 5.20991 14.8576 4.88062V4.27364C14.8592 4.09574 14.8252 3.91933 14.7579 3.75468C14.6905 3.59003 14.591 3.44045 14.4652 3.31465C14.3394 3.18886 14.1899 3.08937 14.0252 3.022C13.8606 2.95463 13.6842 2.92071 13.5063 2.92223H12.4526C12.091 2.92567 11.7323 2.85649 11.3979 2.71879C11.0635 2.58108 10.7601 2.37765 10.5057 2.12056C10.4213 2.03615 10.3381 1.95174 10.2554 1.86776L10.2554 1.86775L10.2554 1.8677C10.0913 1.70104 9.9288 1.53607 9.76128 1.37616C9.6372 1.24588 9.48795 1.14216 9.32258 1.07129C9.15722 1.00042 8.97919 0.963867 8.79927 0.963867C8.61936 0.963867 8.44133 1.00042 8.27596 1.07129C8.1106 1.14216 7.96135 1.24588 7.83727 1.37616L7.05851 2.14347C6.66194 2.56089 6.13051 2.82457 5.55823 2.88788H4.09232C3.91442 2.88635 3.73799 2.92027 3.57334 2.98764C3.40869 3.05502 3.25911 3.1545 3.13332 3.2803C3.00752 3.40609 2.90805 3.55567 2.84068 3.72032C2.77331 3.88497 2.73937 4.06139 2.7409 4.23928V5.29291C2.74433 5.65456 2.67516 6.01321 2.53745 6.34763C2.39975 6.68206 2.19633 6.98545 1.93924 7.23983C1.85949 7.31958 1.77848 7.39933 1.69704 7.4795L1.69694 7.4796L1.69693 7.47961C1.53282 7.64116 1.36698 7.80442 1.20627 7.97278C1.07387 8.09801 0.968437 8.24894 0.896364 8.41632C0.82429 8.5837 0.787109 8.76402 0.787109 8.94625C0.787109 9.12849 0.82429 9.30881 0.896364 9.47618C0.968437 9.64356 1.07387 9.79448 1.20627 9.9197L1.96214 10.687C2.38032 11.0817 2.64082 11.6149 2.69511 12.1873V13.596C2.68536 13.784 2.71502 13.9721 2.78221 14.148C2.84939 14.324 2.95259 14.4839 3.08523 14.6177C3.21786 14.7514 3.37701 14.8559 3.55241 14.9245C3.7278 14.9931 3.91559 15.0243 4.10375 15.0161H5.13446C5.48262 15.0141 5.82778 15.0808 6.15008 15.2125C6.47238 15.3442 6.76551 15.5382 7.01269 15.7834L7.79145 16.5507C7.91653 16.6813 8.06676 16.7853 8.23308 16.8563C8.39939 16.9273 8.57835 16.9639 8.75918 16.9639C8.94002 16.9639 9.11901 16.9273 9.28533 16.8563C9.45164 16.7853 9.60184 16.6813 9.72692 16.5507L10.4828 15.7949C10.8811 15.3798 11.4116 15.1166 11.9831 15.0504H13.4719C13.8263 15.0474 14.1654 14.9053 14.4161 14.6547C14.6667 14.404 14.8088 14.0649 14.8118 13.7105V12.634C14.808 12.2739 14.877 11.9169 15.0148 11.5843C15.1526 11.2516 15.3562 10.9503 15.6135 10.6985L16.335 9.97697C16.4755 9.85631 16.5895 9.70782 16.6697 9.5409C16.75 9.37397 16.7947 9.19222 16.8012 9.00712C16.8077 8.82202 16.7757 8.63759 16.7072 8.46548C16.6388 8.29336 16.5355 8.1373 16.4037 8.00714ZM4.76801 6.28927C4.76574 5.88738 4.88299 5.49389 5.10486 5.15878C5.32673 4.82368 5.64319 4.56209 6.01405 4.40725C6.38492 4.25241 6.79344 4.2113 7.18772 4.28915C7.582 4.367 7.94425 4.5603 8.22843 4.84448C8.51261 5.12866 8.7059 5.49091 8.78375 5.88519C8.8616 6.27947 8.8205 6.68799 8.66566 7.05885C8.51081 7.42972 8.24923 7.7462 7.91412 7.96807C7.57902 8.18993 7.18551 8.30718 6.78362 8.30492C6.24904 8.30492 5.73636 8.09254 5.35835 7.71454C4.98035 7.33653 4.76801 6.82385 4.76801 6.28927ZM6.82944 11.9239C6.76312 12.0059 6.67939 12.072 6.5843 12.1176C6.48922 12.1632 6.38515 12.187 6.27971 12.1873C6.15563 12.1904 6.03333 12.1574 5.92762 12.0924C5.82191 12.0273 5.73735 11.933 5.68419 11.8208C5.61667 11.7169 5.58074 11.5955 5.58074 11.4715C5.58074 11.3475 5.61667 11.2262 5.68419 11.1222L5.78726 11.0191L10.7806 6.01442C10.8613 5.9249 10.9639 5.85781 11.0783 5.81968C11.1927 5.78155 11.315 5.77367 11.4333 5.79682C11.5452 5.82103 11.649 5.87323 11.7351 5.94854C11.8213 6.02385 11.8869 6.1198 11.9258 6.22739C11.9647 6.33498 11.9757 6.45068 11.9577 6.56366C11.9396 6.67664 11.8932 6.78321 11.8227 6.87335L11.6853 7.01078L6.82944 11.9239ZM10.8264 13.699C10.424 13.699 10.0307 13.5792 9.69669 13.3549C9.36263 13.1306 9.10287 12.8119 8.9505 12.4395C8.79814 12.0671 8.76007 11.6578 8.84111 11.2637C8.92215 10.8695 9.11865 10.5085 9.40559 10.2264C9.69253 9.9443 10.0569 9.75399 10.4524 9.6797C10.8478 9.60541 11.2564 9.65048 11.6262 9.80919C11.9959 9.9679 12.3101 10.2331 12.5287 10.5709C12.7472 10.9087 12.8603 11.304 12.8535 11.7063C12.8474 12.2389 12.6308 12.7474 12.251 13.1208C11.8712 13.4942 11.359 13.7021 10.8264 13.699ZM7.4589 6.28931C7.47139 6.19398 7.4634 6.09709 7.43544 6.00509C7.40749 5.9131 7.36025 5.82813 7.29683 5.75586C7.23342 5.68359 7.15528 5.62569 7.0677 5.58602C6.98011 5.54635 6.88508 5.52584 6.78893 5.52584C6.69279 5.52584 6.59775 5.54635 6.51017 5.58602C6.42259 5.62569 6.34449 5.68359 6.28107 5.75586C6.21766 5.82813 6.17038 5.9131 6.14243 6.00509C6.11447 6.09709 6.10648 6.19398 6.11897 6.28931C6.12198 6.46652 6.19449 6.63547 6.32088 6.75972C6.44728 6.88397 6.61743 6.95358 6.79467 6.95355C6.96902 6.94783 7.13469 6.87601 7.25804 6.75266C7.38139 6.62931 7.45317 6.46366 7.4589 6.28931ZM10.4683 11.1093C10.5821 11.0384 10.7145 11.0029 10.8485 11.0075C10.9367 11.0089 11.0237 11.028 11.1045 11.0634C11.1853 11.0989 11.2582 11.1501 11.319 11.2141C11.3798 11.2781 11.4272 11.3535 11.4585 11.436C11.4898 11.5185 11.5043 11.6064 11.5013 11.6946C11.4989 11.8287 11.4567 11.959 11.38 12.0691C11.3034 12.1791 11.1957 12.2638 11.0707 12.3125C10.9458 12.3611 10.8091 12.3715 10.6782 12.3422C10.5474 12.3129 10.4282 12.2454 10.3358 12.1482C10.2434 12.0509 10.1821 11.9284 10.1596 11.7962C10.1371 11.664 10.1544 11.5281 10.2094 11.4058C10.2643 11.2835 10.3545 11.1803 10.4683 11.1093Z" fill="url(#paint0_linear_392_22313)"/>
<defs>
<linearGradient id="paint0_linear_392_22313" x1="25.8387" y1="-17.509" x2="-5.6461" y2="22.8039" gradientUnits="userSpaceOnUse">
<stop offset="0.13" stop-color="#85FF00"/>
<stop offset="1" stop-color="#009930"/>
</linearGradient>
</defs>
</svg>
