<svg width="21" height="21" viewBox="0 0 21 21" fill="none" xmlns="http://www.w3.org/2000/svg">
<path d="M12.2452 20.083H8.60518C8.37711 20.0831 8.15588 20.0076 7.97818 19.869C7.80048 19.7305 7.67698 19.5372 7.62818 19.3213L7.22118 17.4955C6.67824 17.265 6.16341 16.9767 5.68618 16.6359L3.84918 17.2029C3.63174 17.2701 3.39713 17.2632 3.1843 17.1833C2.97147 17.1034 2.79323 16.9554 2.67918 16.7639L0.855177 13.7102C0.742323 13.5184 0.69996 13.2953 0.73502 13.0771C0.77008 12.859 0.880486 12.6589 1.04818 12.5095L2.47318 11.2496C2.40837 10.6789 2.40837 10.1031 2.47318 9.53239L1.04818 8.27546C0.880249 8.12599 0.769692 7.92568 0.734626 7.70735C0.699561 7.48902 0.742067 7.26562 0.855177 7.07377L2.67518 4.01818C2.78923 3.8266 2.96747 3.67859 3.1803 3.59874C3.39313 3.51888 3.62774 3.51197 3.84518 3.57917L5.68218 4.1461C5.92618 3.97166 6.18018 3.80885 6.44218 3.66155C6.69518 3.52393 6.95518 3.39892 7.22118 3.28747L7.62918 1.46361C7.67775 1.24769 7.80101 1.05435 7.97852 0.915632C8.15604 0.776915 8.37714 0.70116 8.60518 0.700928H12.2452C12.4732 0.70116 12.6943 0.776915 12.8718 0.915632C13.0493 1.05435 13.1726 1.24769 13.2212 1.46361L13.6332 3.28844C14.1754 3.52032 14.6901 3.80854 15.1682 4.14804L17.0062 3.58111C17.2235 3.51416 17.4579 3.52119 17.6705 3.60104C17.8831 3.68088 18.0612 3.82874 18.1752 4.02011L19.9952 7.0757C20.2272 7.47013 20.1472 7.96922 19.8022 8.27643L18.3772 9.53626C18.442 10.107 18.442 10.6828 18.3772 11.2535L19.8022 12.5134C20.1472 12.8215 20.2272 13.3197 19.9952 13.7141L18.1752 16.7697C18.0611 16.9612 17.8829 17.1093 17.6701 17.1891C17.4572 17.269 17.2226 17.2759 17.0052 17.2087L15.1682 16.6417C14.6913 16.9822 14.1768 17.2702 13.6342 17.5004L13.2212 19.3213C13.1724 19.5371 13.0491 19.7302 12.8716 19.8687C12.6941 20.0072 12.4731 20.0829 12.2452 20.083ZM10.4212 6.51556C9.36031 6.51556 8.3429 6.92397 7.59275 7.65094C6.8426 8.37791 6.42118 9.36389 6.42118 10.392C6.42118 11.4201 6.8426 12.4061 7.59275 13.133C8.3429 13.86 9.36031 14.2684 10.4212 14.2684C11.482 14.2684 12.4995 13.86 13.2496 13.133C13.9998 12.4061 14.4212 11.4201 14.4212 10.392C14.4212 9.36389 13.9998 8.37791 13.2496 7.65094C12.4995 6.92397 11.482 6.51556 10.4212 6.51556Z" fill="url(#paint0_linear_392_22271)"/>
<defs>
<linearGradient id="paint0_linear_392_22271" x1="24.0273" y1="42.7903" x2="3.30799" y2="-4.85675" gradientUnits="userSpaceOnUse">
<stop stop-color="#B529FE"/>
<stop offset="1" stop-color="#00FFFF"/>
</linearGradient>
</defs>
</svg>
