<svg width="21" height="21" viewBox="0 0 21 21" fill="none" xmlns="http://www.w3.org/2000/svg">
<path d="M12.4717 20.9752H8.83174C8.60367 20.9753 8.38244 20.8973 8.20474 20.7544C8.02704 20.6114 7.90355 20.412 7.85474 20.1892L7.44774 18.3052C6.9048 18.0673 6.38997 17.7698 5.91274 17.4182L4.07574 18.0032C3.8583 18.0726 3.62369 18.0654 3.41086 17.983C3.19803 17.9006 3.01979 17.7479 2.90574 17.5502L1.08174 14.3992C0.968885 14.2014 0.926522 13.971 0.961582 13.746C0.996642 13.5209 1.10705 13.3144 1.27474 13.1602L2.69974 11.8602C2.63494 11.2713 2.63494 10.6771 2.69974 10.0882L1.27474 8.79122C1.10681 8.63699 0.996254 8.43029 0.961189 8.205C0.926123 7.97971 0.968629 7.74919 1.08174 7.55122L2.90174 4.39822C3.01579 4.20054 3.19403 4.04781 3.40686 3.96541C3.61969 3.883 3.8543 3.87588 4.07174 3.94522L5.90874 4.53022C6.15274 4.35022 6.40674 4.18222 6.66874 4.03022C6.92174 3.88822 7.18174 3.75922 7.44774 3.64422L7.85574 1.76222C7.90431 1.53942 8.02757 1.33991 8.20509 1.19677C8.3826 1.05363 8.6037 0.97546 8.83174 0.97522H12.4717C12.6998 0.97546 12.9209 1.05363 13.0984 1.19677C13.2759 1.33991 13.3992 1.53942 13.4477 1.76222L13.8597 3.64522C14.402 3.88449 14.9167 4.1819 15.3947 4.53222L17.2327 3.94722C17.45 3.87814 17.6844 3.88539 17.897 3.96778C18.1097 4.05017 18.2877 4.20275 18.4017 4.40022L20.2217 7.55322C20.4537 7.96022 20.3737 8.47522 20.0287 8.79222L18.6037 10.0922C18.6685 10.6811 18.6685 11.2753 18.6037 11.8642L20.0287 13.1642C20.3737 13.4822 20.4537 13.9962 20.2217 14.4032L18.4017 17.5562C18.2877 17.7539 18.1094 17.9066 17.8966 17.989C17.6838 18.0714 17.4492 18.0786 17.2317 18.0092L15.3947 17.4242C14.9179 17.7756 14.4034 18.0727 13.8607 18.3102L13.4477 20.1892C13.399 20.4118 13.2756 20.6111 13.0981 20.7541C12.9206 20.897 12.6996 20.975 12.4717 20.9752ZM10.6477 6.97522C9.58687 6.97522 8.56946 7.39665 7.81931 8.14679C7.06917 8.89694 6.64774 9.91435 6.64774 10.9752C6.64774 12.0361 7.06917 13.0535 7.81931 13.8036C8.56946 14.5538 9.58687 14.9752 10.6477 14.9752C11.7086 14.9752 12.726 14.5538 13.4762 13.8036C14.2263 13.0535 14.6477 12.0361 14.6477 10.9752C14.6477 9.91435 14.2263 8.89694 13.4762 8.14679C12.726 7.39665 11.7086 6.97522 10.6477 6.97522Z" fill="url(#paint0_linear_302_2291)"/>
<defs>
<linearGradient id="paint0_linear_302_2291" x1="20.3535" y1="43.4753" x2="1.99448" y2="-3.4249" gradientUnits="userSpaceOnUse">
<stop stop-color="#FEF529"/>
<stop offset="1" stop-color="#00FFFF"/>
</linearGradient>
</defs>
</svg>
