<svg width="18" height="16" viewBox="0 0 18 16" fill="none" xmlns="http://www.w3.org/2000/svg">
<path fill-rule="evenodd" clip-rule="evenodd" d="M14.7948 3.27083C16.0396 4.54295 16.7949 6.21404 16.9272 7.98899C17.0033 7.99424 17.0817 7.99116 17.1598 7.98809C17.4511 7.97664 17.7389 7.96533 17.8955 8.38625V8.62214C17.8335 8.73387 17.7714 8.84561 17.6969 8.95734L16.083 11.3037C16.0416 11.3905 15.9765 11.4637 15.8952 11.515C15.8139 11.5663 15.7197 11.5935 15.6236 11.5935C15.5275 11.5935 15.4334 11.5663 15.3521 11.515C15.2708 11.4637 15.2057 11.3905 15.1643 11.3037L13.5007 8.82078C13.4305 8.74282 13.3848 8.6459 13.3693 8.54212C13.3539 8.43834 13.3693 8.33232 13.4138 8.23728C13.4639 8.14235 13.542 8.06519 13.6375 8.01631C13.7331 7.96743 13.8414 7.94921 13.9476 7.96415H14.2952C14.195 7.00102 13.8112 6.08932 13.1924 5.34452C12.5735 4.59972 11.7476 4.05535 10.8191 3.78037C9.85496 3.39017 8.78261 3.35984 7.79793 3.6949C6.81326 4.02996 5.98197 4.70806 5.45591 5.60535L5.05863 5.02185C5.02818 4.97786 4.99864 4.93387 4.96928 4.89014C4.89092 4.7734 4.81375 4.65846 4.72344 4.55008C4.59257 4.36577 4.41944 4.21548 4.21856 4.11181C4.01769 4.00813 3.79489 3.95408 3.56884 3.95418H3.48196C4.19467 2.88418 5.19899 2.04075 6.37607 1.52371C7.55316 1.00667 8.85372 0.83766 10.1239 1.03669C11.8955 1.20741 13.5499 1.99871 14.7948 3.27083ZM13.3764 11.1296C13.6247 11.4772 13.8482 11.8 14.0592 12.1228C14.2532 12.4254 14.555 12.6429 14.9034 12.7311C15.0524 12.8056 15.2138 12.8056 15.3876 12.8056H15.3876C14.7544 13.8416 13.8245 14.6634 12.7185 15.1644C11.6169 15.7172 10.3954 15.988 9.16341 15.9525C7.93145 15.9171 6.72754 15.5765 5.65958 14.9613C4.59163 14.3461 3.69299 13.4755 3.04425 12.4276C2.3955 11.3797 2.01688 10.1872 1.94238 8.95702H1.50789C1.40908 8.96391 1.31026 8.94318 1.22256 8.89714C1.13486 8.85109 1.06171 8.78155 1.01127 8.6963C0.968236 8.60886 0.951239 8.51091 0.962243 8.41408C0.973246 8.31724 1.01181 8.22562 1.07337 8.15006L2.81143 5.6671C2.85254 5.58912 2.91413 5.52383 2.98961 5.47829C3.06509 5.43275 3.15159 5.40869 3.23974 5.40869C3.32789 5.40869 3.41436 5.43275 3.48983 5.47829C3.56531 5.52383 3.62695 5.58912 3.66806 5.6671L5.3813 8.15006C5.44619 8.22503 5.48715 8.31769 5.49891 8.41614C5.51066 8.51459 5.49267 8.61431 5.44727 8.70245C5.40186 8.79059 5.3311 8.86312 5.24412 8.9107C5.15713 8.95828 5.05792 8.97873 4.95921 8.96942H4.57431C4.64572 9.70567 4.88445 10.4159 5.27227 11.0457C5.66008 11.6756 6.18672 12.2086 6.81195 12.6038C7.43719 12.9991 8.14452 13.2463 8.87986 13.3264C9.61521 13.4066 10.3591 13.3176 11.0548 13.0663C11.5541 12.9203 12.0179 12.6729 12.4173 12.3397C12.8168 12.0065 13.1433 11.5946 13.3764 11.1296Z" fill="url(#paint0_linear_392_22310)"/>
<defs>
<linearGradient id="paint0_linear_392_22310" x1="27.4521" y1="-16.3627" x2="-1.02476" y2="24.7675" gradientUnits="userSpaceOnUse">
<stop offset="0.13" stop-color="#85FF00"/>
<stop offset="1" stop-color="#009930"/>
</linearGradient>
</defs>
</svg>
