<svg width="14" height="17" viewBox="0 0 14 17" fill="none" xmlns="http://www.w3.org/2000/svg">
<path fill-rule="evenodd" clip-rule="evenodd" d="M6.57652 9.54711H6.08271V9.48538C5.31258 9.35261 4.59326 9.01228 4.00219 8.50104C3.41112 7.9898 2.97068 7.32702 2.72832 6.58406C2.48595 5.8411 2.45084 5.0461 2.62675 4.28467C2.80266 3.52323 3.18293 2.8242 3.72662 2.26284C4.27031 1.70148 4.95683 1.29905 5.71226 1.09888C6.46768 0.898717 7.2634 0.908388 8.01373 1.12687C8.76406 1.34536 9.44058 1.76438 9.97045 2.33881C10.5003 2.91324 10.8635 3.62131 11.0208 4.3868C11.1196 4.59667 11.1196 4.80655 11.1196 5.01642V5.48553L11.0455 5.99168C10.8954 6.84076 10.4939 7.62526 9.89306 8.2437C9.29222 8.86215 8.51964 9.28609 7.67525 9.46069L7.04564 9.54711H6.57652ZM6.00865 8.25086H7.57648L7.52711 4.73247H6.00865V8.25086ZM7.22386 2.62372C7.1018 2.54177 6.95811 2.49801 6.81109 2.49799C6.61676 2.49796 6.4302 2.57429 6.29164 2.71055C6.15308 2.8468 6.07361 3.03205 6.07037 3.22635C6.06792 3.37335 6.10927 3.51776 6.18915 3.64118C6.26904 3.76461 6.38385 3.86147 6.51897 3.91943C6.65408 3.97739 6.80338 3.99383 6.94787 3.96665C7.09236 3.93948 7.2255 3.86993 7.33033 3.76685C7.43516 3.66377 7.50693 3.53181 7.53653 3.3878C7.56612 3.24379 7.5522 3.09423 7.49652 2.95816C7.44084 2.82209 7.34592 2.70567 7.22386 2.62372ZM11.8087 10.3968C12.1611 10.668 12.4485 11.0145 12.65 11.411C13.0693 12.3596 13.316 13.3755 13.3784 14.4108C13.3985 15.0596 13.1623 15.6901 12.721 16.1661C12.2798 16.642 11.6688 16.925 11.0204 16.9539H10.4279H3.02072C2.39005 16.9732 1.76894 16.7964 1.24301 16.4478C0.950564 16.2465 0.706796 15.9825 0.529515 15.6749C0.352234 15.3673 0.245918 15.024 0.218351 14.6701C0.091755 13.7112 0.277926 12.7371 0.749195 11.8924C1.00702 11.1475 1.52994 10.5235 2.21828 10.1394C2.66441 9.89649 3.16732 9.77716 3.67502 9.79373C3.83881 9.80577 3.99646 9.86116 4.13179 9.95423C4.29317 10.0392 4.4487 10.1416 4.60642 10.2455C4.67795 10.2927 4.74994 10.3401 4.82312 10.3863C5.41163 10.7849 6.10609 10.9979 6.81687 10.9979C7.52765 10.9979 8.22211 10.7849 8.81062 10.3863C8.97432 10.295 9.13111 10.1919 9.27975 10.0777C9.46689 9.93452 9.68571 9.83849 9.91776 9.79767C10.1498 9.75685 10.3883 9.77242 10.613 9.8431C11.0478 9.93636 11.4563 10.1255 11.8087 10.3968Z" fill="url(#paint0_linear_392_22317)"/>
<defs>
<linearGradient id="paint0_linear_392_22317" x1="20.8278" y1="-17.5173" x2="-11.5766" y2="16.6801" gradientUnits="userSpaceOnUse">
<stop offset="0.13" stop-color="#85FF00"/>
<stop offset="1" stop-color="#009930"/>
</linearGradient>
</defs>
</svg>
