<svg width="16" height="16" viewBox="0 0 16 16" fill="none" xmlns="http://www.w3.org/2000/svg">
<path d="M7.93645 0.607422H8.81499C9.06586 0.63996 9.31835 0.661761 9.5676 0.70341C11.134 0.963716 12.499 1.63889 13.6225 2.76178C15.3077 4.44564 16.0492 6.49197 15.8351 8.86205C15.6903 10.4528 15.0679 11.8588 14.0042 13.0536C12.5914 14.6399 10.8135 15.494 8.69199 15.5981C7.21248 15.67 5.82147 15.3251 4.55508 14.553C2.60734 13.3657 1.41253 11.6454 0.992138 9.39861C0.939426 9.11748 0.913395 8.83114 0.875 8.54708V7.66855C0.887039 7.56313 0.899404 7.4577 0.911117 7.35228C1.0904 5.73838 1.707 4.31483 2.79476 3.10766C3.94987 1.82598 5.3809 1.02521 7.08362 0.72456C7.36606 0.674126 7.65207 0.645817 7.93645 0.607422ZM8.38255 13.2232C11.2635 13.1939 13.4995 10.8885 13.4859 8.0974C13.4715 5.25616 11.1874 2.98564 8.37735 2.99508C5.53513 3.00452 3.26298 5.28089 3.26624 8.11074C3.26982 10.9731 5.57287 13.2082 8.38255 13.2232Z" fill="url(#paint0_linear_392_22339)"/>
<path d="M6.85922 9.01C6.89491 8.96034 6.93314 8.91255 6.97376 8.86683C8.22952 7.6102 9.48549 6.3539 10.7417 5.09792C11.0524 4.78718 11.2948 4.78751 11.6059 5.09792C11.7927 5.28404 11.9798 5.46951 12.1649 5.65726C12.4187 5.91463 12.4213 6.18503 12.1688 6.43817C10.5235 8.08483 8.87735 9.73083 7.23048 11.3762C6.98319 11.6231 6.70987 11.6225 6.46128 11.3762C5.83221 10.7499 5.204 10.122 4.57666 9.49254C4.3284 9.2433 4.32937 8.97193 4.57504 8.72269C4.78068 8.51401 4.98784 8.30695 5.19652 8.10153C5.4399 7.8627 5.71225 7.86368 5.95596 8.10543C6.2501 8.39568 6.54132 8.69047 6.85922 9.01Z" fill="url(#paint1_linear_392_22339)"/>
<defs>
<linearGradient id="paint0_linear_392_22339" x1="7.06021" y1="-5.80908" x2="-0.878909" y2="35.2097" gradientUnits="userSpaceOnUse">
<stop stop-color="#85FF00"/>
<stop offset="1" stop-color="#009930"/>
</linearGradient>
<linearGradient id="paint1_linear_392_22339" x1="7.67628" y1="2.00059" x2="4.666" y2="20.5082" gradientUnits="userSpaceOnUse">
<stop stop-color="#85FF00"/>
<stop offset="1" stop-color="#009930"/>
</linearGradient>
</defs>
</svg>
