<svg width="16" height="16" viewBox="0 0 16 16" fill="none" xmlns="http://www.w3.org/2000/svg">
<path d="M7.73088 0.674561H8.62563C8.88113 0.707699 9.13829 0.729903 9.39213 0.772321C10.9874 1.03743 12.3776 1.72507 13.5219 2.86869C15.2382 4.58363 15.9934 6.66774 15.7754 9.08158C15.6279 10.7017 14.9939 12.1337 13.9106 13.3505C12.4717 14.9661 10.661 15.836 8.50036 15.942C6.99354 16.0152 5.57685 15.664 4.28708 14.8776C2.30338 13.6683 1.08652 11.9163 0.658363 9.62804C0.604678 9.34172 0.578166 9.0501 0.539062 8.7608V7.86604C0.551324 7.75867 0.563917 7.6513 0.575847 7.54393C0.758442 5.90024 1.38643 4.45041 2.49426 3.22096C3.67069 1.91561 5.12814 1.10006 6.8623 0.793861C7.14995 0.742496 7.44124 0.713665 7.73088 0.674561ZM8.18521 13.5232C11.1193 13.4934 13.3966 11.1455 13.3827 8.30282C13.3681 5.40912 11.0418 3.09669 8.17991 3.1063C5.28522 3.11591 2.97113 5.43431 2.97444 8.3164C2.97809 11.2316 5.32366 13.508 8.18521 13.5232Z" fill="#02EE7D"/>
<path d="M6.63526 9.23264C6.67161 9.18206 6.71055 9.13339 6.75191 9.08683C8.03085 7.807 9.31002 6.52751 10.5894 5.24834C10.9059 4.93186 11.1528 4.9322 11.4696 5.24834C11.6598 5.4379 11.8503 5.62679 12.0389 5.818C12.2974 6.08013 12.3 6.35551 12.0429 6.61334C10.3671 8.29039 8.69065 9.96678 7.01338 11.6425C6.76152 11.894 6.48315 11.8934 6.22997 11.6425C5.58929 11.0047 4.94948 10.3652 4.31057 9.72409C4.05772 9.47024 4.05871 9.19386 4.30891 8.94002C4.51835 8.72749 4.72933 8.51662 4.94186 8.3074C5.18974 8.06416 5.46711 8.06515 5.71533 8.31137C6.0149 8.60697 6.3115 8.90721 6.63526 9.23264Z" fill="#02EE7D"/>
</svg>
