<svg width="17" height="17" viewBox="0 0 17 17" fill="none" xmlns="http://www.w3.org/2000/svg">
<path d="M14.2305 4.32237H1.73047V3.82237L12.7305 2.94237V3.82237H14.2305V2.32237C14.2305 1.22237 13.3395 0.450374 12.2515 0.605374L2.21047 2.03937C1.12147 2.19537 0.230469 3.22237 0.230469 4.32237V14.3224C0.230469 14.8528 0.441182 15.3615 0.816255 15.7366C1.19133 16.1117 1.70004 16.3224 2.23047 16.3224H14.2305C14.7609 16.3224 15.2696 16.1117 15.6447 15.7366C16.0198 15.3615 16.2305 14.8528 16.2305 14.3224V6.32237C16.2305 5.79194 16.0198 5.28323 15.6447 4.90816C15.2696 4.53309 14.7609 4.32237 14.2305 4.32237ZM12.7305 11.3284C12.5334 11.3283 12.3383 11.2894 12.1563 11.214C11.9743 11.1385 11.8089 11.0279 11.6696 10.8885C11.5303 10.7492 11.4198 10.5837 11.3445 10.4016C11.2691 10.2196 11.2304 10.0244 11.2305 9.82737C11.2305 9.63033 11.2694 9.43522 11.3449 9.2532C11.4203 9.07117 11.5309 8.9058 11.6703 8.76651C11.8097 8.62722 11.9751 8.51675 12.1572 8.4414C12.3393 8.36605 12.5344 8.32731 12.7315 8.32737C13.1294 8.32751 13.511 8.48572 13.7923 8.76721C14.0736 9.04871 14.2316 9.43042 14.2315 9.82837C14.2313 10.2263 14.0731 10.6079 13.7916 10.8892C13.5101 11.1705 13.1284 11.3285 12.7305 11.3284Z" fill="url(#paint0_linear_302_434)"/>
<defs>
<linearGradient id="paint0_linear_302_434" x1="25.2588" y1="-17.5834" x2="-5.58736" y2="22.5349" gradientUnits="userSpaceOnUse">
<stop offset="0.13" stop-color="#85FF00"/>
<stop offset="1" stop-color="#009930"/>
</linearGradient>
</defs>
</svg>
