<svg width="16" height="16" viewBox="0 0 16 16" fill="none" xmlns="http://www.w3.org/2000/svg">
<path d="M8.01465 15.6343C12.2949 15.6343 15.7646 12.1645 15.7646 7.88428C15.7646 3.60407 12.2949 0.134277 8.01465 0.134277C3.73444 0.134277 0.264648 3.60407 0.264648 7.88428C0.264648 12.1645 3.73444 15.6343 8.01465 15.6343Z" fill="#627EEA"/>
<path d="M8.25586 2.07178V6.36837L11.8872 7.99108L8.25586 2.07178Z" fill="white" fill-opacity="0.6"/>
<path d="M8.25595 2.07178L4.62402 7.99091L8.25595 6.3682V2.07178Z" fill="white"/>
<path d="M8.25586 10.775V13.6944L11.8896 8.66699L8.25586 10.775Z" fill="white" fill-opacity="0.6"/>
<path d="M8.25595 13.6943V10.7745L4.62402 8.66675L8.25595 13.6943Z" fill="white"/>
<path d="M8.25586 10.0995L11.8872 7.99099L8.25586 6.36963V10.0995Z" fill="white" fill-opacity="0.2"/>
<path d="M4.62402 7.9911L8.25595 10.0996V6.36938L4.62402 7.9911Z" fill="white" fill-opacity="0.6"/>
</svg>
