<svg width="18" height="18" viewBox="0 0 18 18" fill="none" xmlns="http://www.w3.org/2000/svg">
<path d="M11.4015 1.10019C11.8595 1.10019 12.3415 1.17251 12.7995 1.25687C13.5445 1.39652 14.3149 1.25024 14.9568 0.847151C15.2631 0.646244 15.625 0.547368 15.9908 0.564686C16.3567 0.582004 16.7077 0.714576 16.9936 0.943513C17.2176 1.09883 17.4086 1.29706 17.5554 1.52669C17.7023 1.75632 17.8022 2.01276 17.8492 2.28125C17.9097 2.67408 17.8286 3.0757 17.6203 3.4142C17.1867 4.09331 17.0313 4.91341 17.1865 5.70408C17.4659 7.25349 17.2814 8.85085 16.6561 10.2958C16.0584 11.8592 15.0976 13.2581 13.8529 14.3771C12.6082 15.4961 11.1153 16.303 9.4973 16.7314C8.32086 17.0651 7.08263 17.1188 5.88174 16.8881C5.16771 16.7615 4.43222 16.9079 3.82092 17.298C3.54727 17.4783 3.22669 17.5744 2.89893 17.5744C2.57118 17.5744 2.2506 17.4783 1.97695 17.298C1.65191 17.137 1.37887 16.8877 1.18914 16.5786C0.999405 16.2694 0.900663 15.913 0.904317 15.5504C0.898712 15.2438 0.98248 14.9424 1.14537 14.6827C1.57993 14.0129 1.7356 13.1998 1.57922 12.4169C1.28595 10.759 1.50896 9.05103 2.218 7.52393C2.83565 6.0518 3.77731 4.7378 4.97292 3.6799C6.16854 2.622 7.58731 1.84735 9.12369 1.41355C9.86739 1.21689 10.6323 1.11165 11.4015 1.10019ZM12.4741 9.64492C12.5546 9.65675 12.6367 9.65117 12.7148 9.62844C12.7929 9.60571 12.8652 9.56642 12.9267 9.51325C12.9883 9.46007 13.0377 9.3942 13.0716 9.32023C13.1054 9.24626 13.1229 9.1659 13.1229 9.08455C13.1229 9.0032 13.1054 8.92284 13.0716 8.84887C13.0377 8.77489 12.9883 8.70902 12.9267 8.65585C12.8652 8.60267 12.7929 8.56339 12.7148 8.54065C12.6367 8.51792 12.5546 8.51234 12.4741 8.52418C12.3295 8.52638 12.1907 8.58164 12.0841 8.67939C11.9774 8.77713 11.9103 8.91049 11.8956 9.05439C11.894 9.13239 11.9081 9.21003 11.9372 9.28242C11.9663 9.35481 12.0098 9.42056 12.0649 9.47573C12.1201 9.5309 12.1859 9.57433 12.2582 9.60343C12.3306 9.63253 12.4082 9.64656 12.4862 9.64492H12.4741ZM15.6197 9.10264C15.6213 9.02725 15.6078 8.95223 15.5801 8.88211C15.5523 8.81199 15.5108 8.74813 15.4581 8.69425C15.4053 8.64036 15.3424 8.59768 15.2728 8.56846C15.2033 8.53924 15.1287 8.52416 15.0533 8.52418C14.9728 8.51234 14.8907 8.51792 14.8126 8.54065C14.7345 8.56339 14.6621 8.60267 14.6006 8.65585C14.539 8.70902 14.4896 8.77489 14.4557 8.84887C14.4219 8.92284 14.4044 9.0032 14.4044 9.08455C14.4044 9.1659 14.4219 9.24626 14.4557 9.32023C14.4896 9.3942 14.539 9.46007 14.6006 9.51325C14.6621 9.56642 14.7345 9.60571 14.8126 9.62844C14.8907 9.65117 14.9728 9.65675 15.0533 9.64492C15.1271 9.64815 15.2008 9.63659 15.27 9.61093C15.3393 9.58528 15.4027 9.54612 15.4566 9.49559C15.5105 9.44507 15.5538 9.38432 15.5838 9.31685C15.6139 9.24937 15.6302 9.1765 15.6317 9.10264H15.6197ZM14.3301 11.3684C14.3317 11.293 14.3183 11.218 14.2905 11.1479C14.2628 11.0777 14.2213 11.0139 14.1685 10.96C14.1157 10.9061 14.0528 10.8634 13.9833 10.8342C13.9138 10.805 13.8391 10.7899 13.7637 10.7899C13.6186 10.7959 13.481 10.8561 13.3783 10.9588C13.2755 11.0615 13.2152 11.1991 13.2093 11.3443C13.2124 11.4967 13.2743 11.642 13.3822 11.7499C13.49 11.8577 13.6353 11.9197 13.7878 11.9227C13.8606 11.9227 13.9326 11.9085 13.9999 11.8807C14.0672 11.8528 14.1283 11.8119 14.1798 11.7605C14.2313 11.709 14.2721 11.6478 14.2999 11.5805C14.3278 11.5133 14.3422 11.4412 14.3422 11.3684H14.3301Z" fill="url(#paint0_linear_2_9818)"/>
<path d="M1.53147 17.0448C5.85808 12.441 17.0061 0.943513 17.0061 0.943513C16.7202 0.714576 16.3692 0.582004 16.0033 0.564686C15.6375 0.547368 15.2756 0.646244 14.9693 0.847151C14.3274 1.25024 13.557 1.39652 12.812 1.25687C12.354 1.17251 11.872 1.1484 11.414 1.10019C10.6266 1.12341 9.84527 1.24493 9.088 1.46181C7.55162 1.89561 6.13285 2.67025 4.93723 3.72815C3.74162 4.78605 2.79989 6.09991 2.18224 7.57203C1.4732 9.09913 1.25027 10.8072 1.54353 12.4652C1.69991 13.2481 1.54424 14.0611 1.10968 14.7309C0.946793 14.9906 0.863025 15.2921 0.868629 15.5986C0.862399 15.8741 0.918796 16.1475 1.03362 16.398C1.14845 16.6486 1.31869 16.8696 1.53147 17.0448Z" fill="url(#paint1_linear_2_9818)"/>
<defs>
<linearGradient id="paint0_linear_2_9818" x1="12.3777" y1="-8.58942" x2="7.17132" y2="21.9981" gradientUnits="userSpaceOnUse">
<stop offset="0.14" stop-color="#FFF423"/>
<stop offset="1" stop-color="#F88E13"/>
</linearGradient>
<linearGradient id="paint1_linear_2_9818" x1="11.6309" y1="-8.56532" x2="6.52101" y2="21.4678" gradientUnits="userSpaceOnUse">
<stop offset="0.14" stop-color="#FFF491"/>
<stop offset="1" stop-color="#FFFF03"/>
</linearGradient>
</defs>
</svg>
