<svg width="16" height="16" viewBox="0 0 16 16" fill="none" xmlns="http://www.w3.org/2000/svg">
<path d="M8.07459 15.781C12.3548 15.781 15.8246 12.3112 15.8246 8.03101C15.8246 3.7508 12.3548 0.281006 8.07459 0.281006C3.79438 0.281006 0.324585 3.7508 0.324585 8.03101C0.324585 12.3112 3.79438 15.781 8.07459 15.781Z" fill="#627EEA"/>
<path d="M8.3158 2.21851V6.5151L11.9471 8.13781L8.3158 2.21851Z" fill="white" fill-opacity="0.6"/>
<path d="M8.31588 2.21851L4.68396 8.13764L8.31588 6.51493V2.21851Z" fill="white"/>
<path d="M8.3158 10.9218V13.8411L11.9495 8.81372L8.3158 10.9218Z" fill="white" fill-opacity="0.6"/>
<path d="M8.31588 13.8412V10.9214L4.68396 8.8136L8.31588 13.8412Z" fill="white"/>
<path d="M8.3158 10.2462L11.9471 8.13771L8.3158 6.51636V10.2462Z" fill="white" fill-opacity="0.2"/>
<path d="M4.68396 8.13783L8.31588 10.2463V6.51611L4.68396 8.13783Z" fill="white" fill-opacity="0.6"/>
</svg>
