<svg width="15" height="15" viewBox="0 0 15 15" fill="none" xmlns="http://www.w3.org/2000/svg">
<path d="M7.2085 7.3071C9.5185 5.2071 10.7085 4.1291 10.7085 2.7641C10.7085 1.7141 9.8335 0.881104 8.7835 0.881104C8.1815 0.881104 7.6075 1.1331 7.2085 1.5811C6.8095 1.1331 6.2355 0.881104 5.5915 0.881104C4.5415 0.881104 3.7085 1.7561 3.7085 2.8061C3.7085 4.1291 4.8985 5.2071 7.2085 7.3071ZM6.6345 7.8811C4.5345 5.5711 3.4565 4.3811 2.0915 4.3811C1.0415 4.3811 0.208496 5.2561 0.208496 6.3061C0.208496 6.9081 0.460496 7.4821 0.908496 7.8811C0.460496 8.2801 0.208496 8.8541 0.208496 9.4981C0.208496 10.5481 1.0835 11.3811 2.1335 11.3811C3.4565 11.3811 4.5345 10.1911 6.6345 7.8811ZM7.7895 7.8811C9.8825 10.1911 10.9605 11.3811 12.3255 11.3811C13.3755 11.3811 14.2085 10.5061 14.2085 9.4561C14.2085 8.8541 13.9565 8.2801 13.5085 7.8811C13.9565 7.4821 14.2085 6.9081 14.2085 6.2641C14.2085 5.2141 13.3335 4.3811 12.2835 4.3811C10.9605 4.3811 9.8825 5.5711 7.7895 7.8811ZM7.2085 8.4551C4.8985 10.5551 3.7085 11.6331 3.7085 12.9981C3.7085 14.0481 4.5835 14.8811 5.6335 14.8811C6.2355 14.8811 6.8095 14.6291 7.2085 14.1811C7.6075 14.6291 8.1815 14.8811 8.8255 14.8811C9.8755 14.8811 10.7085 14.0061 10.7085 12.9561C10.7085 11.6331 9.5185 10.5551 7.2085 8.4551Z" fill="url(#paint0_linear_122_110)"/>
<defs>
<linearGradient id="paint0_linear_122_110" x1="4.7585" y1="0.881104" x2="10.0085" y2="17.6811" gradientUnits="userSpaceOnUse">
<stop stop-color="#00FF94"/>
<stop offset="1" stop-color="#01A15D"/>
</linearGradient>
</defs>
</svg>
