<svg width="32" height="30" viewBox="0 0 32 30" fill="none" xmlns="http://www.w3.org/2000/svg">
<path d="M29.814 1.28076L18.1511 10.0721L20.3079 4.88533L29.814 1.28076Z" fill="#E2761B" stroke="#E2761B" stroke-linecap="round" stroke-linejoin="round"/>
<path d="M2.89014 1.28076L14.4592 10.1554L12.4079 4.88533L2.89014 1.28076Z" fill="#E4761B" stroke="#E4761B" stroke-linecap="round" stroke-linejoin="round"/>
<path d="M25.6177 21.6592L22.5115 26.4891L29.1575 28.3449L31.0681 21.7662L25.6177 21.6592Z" fill="#E4761B" stroke="#E4761B" stroke-linecap="round" stroke-linejoin="round"/>
<path d="M1.65942 21.7662L3.5583 28.3449L10.2044 26.4891L7.09817 21.6592L1.65942 21.7662Z" fill="#E4761B" stroke="#E4761B" stroke-linecap="round" stroke-linejoin="round"/>
<path d="M9.82879 13.4985L7.97681 16.3417L14.576 16.6391L14.3415 9.44189L9.82879 13.4985Z" fill="#E4761B" stroke="#E4761B" stroke-linecap="round" stroke-linejoin="round"/>
<path d="M22.8749 13.4981L18.3035 9.35815L18.1511 16.6387L24.7386 16.3413L22.8749 13.4981Z" fill="#E4761B" stroke="#E4761B" stroke-linecap="round" stroke-linejoin="round"/>
<path d="M10.2039 26.4892L14.1657 24.5263L10.743 21.814L10.2039 26.4892Z" fill="#E4761B" stroke="#E4761B" stroke-linecap="round" stroke-linejoin="round"/>
<path d="M18.5381 24.5263L22.5117 26.4892L21.9607 21.814L18.5381 24.5263Z" fill="#E4761B" stroke="#E4761B" stroke-linecap="round" stroke-linejoin="round"/>
<path d="M22.5117 26.4893L18.5381 24.5264L18.8546 27.1554L18.8194 28.2618L22.5117 26.4893Z" fill="#D7C1B3" stroke="#D7C1B3" stroke-linecap="round" stroke-linejoin="round"/>
<path d="M10.2039 26.4893L13.8961 28.2618L13.8727 27.1554L14.1657 24.5264L10.2039 26.4893Z" fill="#D7C1B3" stroke="#D7C1B3" stroke-linecap="round" stroke-linejoin="round"/>
<path d="M13.9549 20.077L10.6494 19.0896L12.982 18.0071L13.9549 20.077Z" fill="#233447" stroke="#233447" stroke-linecap="round" stroke-linejoin="round"/>
<path d="M18.7485 20.077L19.7214 18.0071L22.0657 19.0896L18.7485 20.077Z" fill="#233447" stroke="#233447" stroke-linecap="round" stroke-linejoin="round"/>
<path d="M10.2038 26.4891L10.7665 21.6592L7.09766 21.7662L10.2038 26.4891Z" fill="#CD6116" stroke="#CD6116" stroke-linecap="round" stroke-linejoin="round"/>
<path d="M21.9487 21.6592L22.5114 26.4891L25.6175 21.7662L21.9487 21.6592Z" fill="#CD6116" stroke="#CD6116" stroke-linecap="round" stroke-linejoin="round"/>
<path d="M24.7386 16.3416L18.1511 16.639L18.7606 20.077L19.7335 18.007L22.0778 19.0896L24.7386 16.3416Z" fill="#CD6116" stroke="#CD6116" stroke-linecap="round" stroke-linejoin="round"/>
<path d="M10.6493 19.0896L12.9936 18.007L13.9547 20.077L14.576 16.639L7.97681 16.3416L10.6493 19.0896Z" fill="#CD6116" stroke="#CD6116" stroke-linecap="round" stroke-linejoin="round"/>
<path d="M7.97681 16.3416L10.7431 21.8138L10.6493 19.0896L7.97681 16.3416Z" fill="#E4751F" stroke="#E4751F" stroke-linecap="round" stroke-linejoin="round"/>
<path d="M22.0779 19.0896L21.9607 21.8138L24.7387 16.3416L22.0779 19.0896Z" fill="#E4751F" stroke="#E4751F" stroke-linecap="round" stroke-linejoin="round"/>
<path d="M14.5761 16.6389L13.9548 20.0769L14.7284 24.1336L14.9043 18.7921L14.5761 16.6389Z" fill="#E4751F" stroke="#E4751F" stroke-linecap="round" stroke-linejoin="round"/>
<path d="M18.1514 16.6389L17.835 18.7802L17.9756 24.1336L18.761 20.0769L18.1514 16.6389Z" fill="#E4751F" stroke="#E4751F" stroke-linecap="round" stroke-linejoin="round"/>
<path d="M18.7607 20.077L17.9753 24.1336L18.538 24.5262L21.9606 21.8138L22.0778 19.0896L18.7607 20.077Z" fill="#F6851B" stroke="#F6851B" stroke-linecap="round" stroke-linejoin="round"/>
<path d="M10.6494 19.0896L10.7432 21.8138L14.1658 24.5262L14.7285 24.1336L13.9549 20.077L10.6494 19.0896Z" fill="#F6851B" stroke="#F6851B" stroke-linecap="round" stroke-linejoin="round"/>
<path d="M18.8191 28.2618L18.8543 27.1555L18.5612 26.8937H14.1423L13.8727 27.1555L13.8961 28.2618L10.2039 26.4893L11.4932 27.5599L14.1071 29.4038H18.5964L21.222 27.5599L22.5114 26.4893L18.8191 28.2618Z" fill="#C0AD9E" stroke="#C0AD9E" stroke-linecap="round" stroke-linejoin="round"/>
<path d="M18.5379 24.5264L17.9753 24.1338H14.7285L14.1658 24.5264L13.8728 27.1554L14.1424 26.8937H18.5614L18.8544 27.1554L18.5379 24.5264Z" fill="#161616" stroke="#161616" stroke-linecap="round" stroke-linejoin="round"/>
<path d="M30.3064 10.6431L31.3027 5.78945L29.8141 1.28076L18.5381 9.7747L22.875 13.4982L29.0053 15.3184L30.365 13.7124L29.7789 13.2841L30.7167 12.4157L29.9899 11.8447L30.9276 11.119L30.3064 10.6431Z" fill="#763D16" stroke="#763D16" stroke-linecap="round" stroke-linejoin="round"/>
<path d="M1.41284 5.78945L2.40916 10.6431L1.77621 11.119L2.71392 11.8447L1.99891 12.4157L2.93663 13.2841L2.35056 13.7124L3.69852 15.3184L9.82883 13.4982L14.1658 9.7747L2.88974 1.28076L1.41284 5.78945Z" fill="#763D16" stroke="#763D16" stroke-linecap="round" stroke-linejoin="round"/>
<path d="M29.0053 15.3184L22.875 13.4983L24.7387 16.3415L21.9607 21.8138L25.6178 21.7662H31.0682L29.0053 15.3184Z" fill="#F6851B" stroke="#F6851B" stroke-linecap="round" stroke-linejoin="round"/>
<path d="M9.82927 13.4983L3.69895 15.3184L1.65942 21.7662H7.09817L10.7435 21.8138L7.97728 16.3415L9.82927 13.4983Z" fill="#F6851B" stroke="#F6851B" stroke-linecap="round" stroke-linejoin="round"/>
<path d="M18.1512 16.639L18.538 9.77487L20.3197 4.8855H12.4077L14.1659 9.77487L14.5762 16.639L14.7168 18.8041L14.7286 24.1337H17.9754L17.9988 18.8041L18.1512 16.639Z" fill="#F6851B" stroke="#F6851B" stroke-linecap="round" stroke-linejoin="round"/>
</svg>
