<svg width="20" height="20" viewBox="0 0 20 20" fill="none" xmlns="http://www.w3.org/2000/svg">
<path fill-rule="evenodd" clip-rule="evenodd" d="M10.5104 0.147461H9.36033C9.24376 0.163199 9.12698 0.177643 9.01021 0.192087C8.75403 0.223771 8.49786 0.255456 8.2439 0.300806C6.01487 0.69439 4.14151 1.74267 2.62936 3.42052C1.20538 5.00082 0.398195 6.86438 0.163492 8.97713C0.153269 9.06913 0.142668 9.16114 0.132066 9.25314C0.126765 9.29915 0.121465 9.34515 0.116211 9.39116V10.5412C0.132113 10.6589 0.146396 10.7768 0.160676 10.8948C0.191533 11.1496 0.222383 11.4044 0.269556 11.656C0.819892 14.5972 2.38401 16.8492 4.93379 18.4036C6.59161 19.4144 8.41258 19.8659 10.3494 19.7717C13.1266 19.6354 15.4541 18.5173 17.3036 16.4407C18.696 14.8766 19.5109 13.0361 19.7004 10.9536C19.9807 7.8509 19.01 5.17205 16.8039 2.96772C15.3331 1.49775 13.5462 0.613885 11.4957 0.273119C11.2838 0.23772 11.0702 0.213273 10.8565 0.188821C10.7411 0.175612 10.6256 0.162401 10.5104 0.147461ZM13.0079 15.9109C12.0962 16.3807 11.057 16.6514 9.94432 16.6627C6.26618 16.6431 3.25126 13.7172 3.24657 9.97003C3.24529 8.85802 3.51241 7.81129 3.98755 6.89052L13.0079 15.9109ZM15.6255 13.4972L6.40573 4.27743C7.42837 3.64412 8.63738 3.27745 9.9375 3.27313C13.6161 3.26078 16.6063 6.23311 16.625 9.95257C16.6314 11.2491 16.2669 12.4655 15.6255 13.4972Z" fill="white"/>
</svg>
