<svg width="21" height="20" viewBox="0 0 21 20" fill="none" xmlns="http://www.w3.org/2000/svg">
<path d="M9.78953 0.116211H10.9396C11.268 0.158807 11.5986 0.187346 11.9249 0.241869C13.9754 0.582635 15.7623 1.4665 17.2331 2.93647C19.4392 5.1408 20.4099 7.81965 20.1296 10.9223C19.9401 13.0048 19.1252 14.8454 17.7328 16.4095C15.8833 18.486 13.5558 19.6042 10.7786 19.7405C8.84178 19.8346 7.02081 19.3831 5.36299 18.3723C2.81321 16.818 1.24909 14.566 0.698755 11.6247C0.62975 11.2567 0.595673 10.8819 0.54541 10.51V9.35991C0.561171 9.2219 0.577357 9.08389 0.592691 8.94588C0.827394 6.83313 1.63458 4.96957 3.05856 3.38927C4.5707 1.71142 6.44406 0.66314 8.6731 0.269556C9.04283 0.203532 9.41725 0.166474 9.78953 0.116211ZM10.3735 16.6314C14.1449 16.5931 17.0721 13.5752 17.0542 9.92132C17.0355 6.20186 14.0453 3.22953 10.3667 3.24188C6.64597 3.25424 3.67151 6.23423 3.67577 9.93878C3.68045 13.6859 6.69538 16.6118 10.3735 16.6314Z" fill="#02EE7D"/>
<path d="M8.38202 11.1165C8.42874 11.0515 8.47879 10.989 8.53196 10.9291C10.1759 9.28405 11.8201 7.63943 13.4645 5.99524C13.8713 5.58845 14.1887 5.58888 14.5959 5.99524C14.8404 6.23889 15.0853 6.48168 15.3277 6.72746C15.6599 7.06439 15.6633 7.41836 15.3328 7.74976C13.1789 9.90539 11.0239 12.0602 8.86804 14.2141C8.54431 14.5374 8.18651 14.5365 7.86108 14.2141C7.03756 13.3943 6.21518 12.5723 5.39393 11.7482C5.06893 11.4219 5.0702 11.0667 5.3918 10.7404C5.66101 10.4672 5.9322 10.1962 6.20538 9.92725C6.524 9.6146 6.88052 9.61588 7.19956 9.93236C7.58463 10.3123 7.96586 10.6982 8.38202 11.1165Z" fill="#02EE7D"/>
</svg>
