<svg width="35" height="22" viewBox="0 0 35 22" fill="none" xmlns="http://www.w3.org/2000/svg">
<path d="M7.32937 5.00045C12.8703 -0.426583 21.848 -0.426583 27.3982 5.00045L28.0653 5.65287C28.1315 5.71633 28.1841 5.79252 28.22 5.87685C28.256 5.96117 28.2745 6.05189 28.2745 6.14357C28.2745 6.23524 28.256 6.32596 28.22 6.41028C28.1841 6.49461 28.1315 6.5708 28.0653 6.63426L25.7864 8.87086C25.7184 8.93443 25.6287 8.96978 25.5356 8.96978C25.4424 8.96978 25.3528 8.93443 25.2847 8.87086L24.3658 7.97402C22.4906 6.15376 19.9799 5.13564 17.3665 5.13564C14.7531 5.13564 12.2425 6.15376 10.3673 7.97402L9.38587 8.93519C9.3178 8.99875 9.22814 9.03411 9.13501 9.03411C9.04187 9.03411 8.95222 8.99875 8.88415 8.93519L6.60711 6.70042C6.54096 6.63696 6.48832 6.56077 6.45236 6.47645C6.41641 6.39212 6.39787 6.3014 6.39787 6.20972C6.39787 6.11805 6.41641 6.02733 6.45236 5.943C6.48832 5.85868 6.54096 5.7825 6.60711 5.71903L7.32937 5.00045ZM32.1158 9.61517L34.1374 11.6018C34.2036 11.6653 34.2562 11.7415 34.2922 11.8258C34.3281 11.9101 34.3466 12.0009 34.3466 12.0925C34.3466 12.1842 34.3281 12.2749 34.2922 12.3593C34.2562 12.4436 34.2036 12.5198 34.1374 12.5832L24.9851 21.5499C24.8509 21.6808 24.6709 21.754 24.4834 21.754C24.296 21.754 24.1159 21.6808 23.9817 21.5499L17.4869 15.1856C17.4528 15.1535 17.4078 15.1357 17.361 15.1357C17.3142 15.1357 17.2692 15.1535 17.2351 15.1856L10.7422 21.5499C10.608 21.6808 10.4279 21.754 10.2404 21.754C10.053 21.754 9.87293 21.6808 9.73873 21.5499L0.579113 12.5906C0.512961 12.5271 0.460325 12.4509 0.424367 12.3666C0.388409 12.2823 0.369873 12.1916 0.369873 12.0999C0.369873 12.0082 0.388409 11.9175 0.424367 11.8332C0.460325 11.7488 0.512961 11.6727 0.579113 11.6092L2.6007 9.62253C2.7349 9.49163 2.91495 9.41838 3.10242 9.41838C3.28989 9.41838 3.46993 9.49163 3.60414 9.62253L10.1063 15.9868C10.1403 16.0184 10.1849 16.0359 10.2313 16.0359C10.2776 16.0359 10.3222 16.0184 10.3562 15.9868L16.851 9.62253C16.9852 9.49163 17.1653 9.41838 17.3527 9.41838C17.5402 9.41838 17.7203 9.49163 17.8545 9.62253L24.3548 15.9868C24.3888 16.0184 24.4334 16.0359 24.4797 16.0359C24.5261 16.0359 24.5707 16.0184 24.6047 15.9868L31.1069 9.62253C31.1725 9.55553 31.2507 9.50217 31.337 9.46552C31.4233 9.42887 31.516 9.40965 31.6098 9.40896C31.7036 9.40828 31.7966 9.42615 31.8834 9.46154C31.9703 9.49693 32.0492 9.54914 32.1158 9.61517Z" fill="#3A99FB"/>
</svg>
