<svg width="23" height="21" viewBox="0 0 23 21" fill="none" xmlns="http://www.w3.org/2000/svg">
<path d="M8.81709 14.7563L4.41699 13.0991L2.85913 12.5272C2.85913 12.6018 2.85913 12.6433 2.85913 12.6847C2.85913 14.1763 2.85913 15.6761 2.85913 17.1676C2.85913 17.3665 2.96684 17.3997 3.10771 17.4494L9.65403 19.8607L11.0544 20.3746V12.171L9.62915 14.458C9.6054 14.5387 9.56311 14.6126 9.50564 14.674C9.44817 14.7354 9.37711 14.7825 9.29817 14.8115C9.21924 14.8405 9.1346 14.8506 9.05106 14.841C8.96752 14.8314 8.88741 14.8025 8.81709 14.7563Z" fill="url(#paint0_linear_83_1437)"/>
<path d="M10.8064 10.7374L2.56145 7.70457C1.93168 8.72381 1.31018 9.70992 0.672119 10.7291L8.95857 13.7619C9.55519 12.751 10.1684 11.765 10.8064 10.7374Z" fill="url(#paint1_linear_83_1437)"/>
<path d="M20.4517 12.5604L18.8856 13.1321L14.4854 14.7894C14.4186 14.8313 14.3434 14.8578 14.2651 14.8669C14.1868 14.876 14.1075 14.8675 14.0329 14.8421C13.9583 14.8167 13.8903 14.775 13.8338 14.72C13.7774 14.665 13.7339 14.5982 13.7065 14.5243C13.2424 13.7785 12.7701 13.041 12.2729 12.2372V20.4408L13.6817 19.9271L20.228 17.5157C20.3606 17.466 20.4765 17.4328 20.4682 17.234C20.4682 15.7424 20.4682 14.2425 20.4682 12.751C20.4682 12.6764 20.46 12.635 20.4517 12.5604Z" fill="url(#paint2_linear_83_1437)"/>
<path d="M12.4963 10.7374L14.3856 13.7619L22.6721 10.7291C22.0423 9.70992 21.4208 8.72381 20.7827 7.70457L12.4963 10.7374Z" fill="url(#paint3_linear_83_1437)"/>
<path d="M12.3317 4.34012C12.589 4.51978 12.8673 4.6673 13.1604 4.77933C14.0406 5.06311 14.962 5.19754 15.8866 5.17706C16.8267 5.19428 17.7636 5.06286 18.6626 4.78762C18.9896 4.68777 19.2937 4.52449 19.5575 4.30705C19.6109 4.27665 19.6553 4.23262 19.6862 4.17949C19.7171 4.12637 19.7334 4.06605 19.7334 4.0046C19.7334 3.94315 19.7171 3.88273 19.6862 3.8296C19.6553 3.77648 19.6109 3.73245 19.5575 3.70205C19.4294 3.58627 19.284 3.49123 19.1266 3.42034C18.5521 3.14941 17.9356 2.97848 17.3036 2.91488C16.012 2.73218 14.6972 2.80539 13.4338 3.13033C13.0231 3.2232 12.6364 3.40104 12.2986 3.65238C12.0003 3.89269 11.9837 4.12468 12.3317 4.34012Z" fill="url(#paint4_linear_83_1437)"/>
<path d="M19.7065 7.00012L19.2756 7.22377C18.666 7.49418 18.017 7.66493 17.3532 7.72933C16.0748 7.90651 14.7749 7.8503 13.5165 7.56354C13.0021 7.45514 12.511 7.25594 12.0664 6.97523C12.0664 7.34813 12.0664 7.68788 12.0664 8.01934C12.059 8.09905 12.0727 8.17925 12.1062 8.25199C12.1396 8.32472 12.1916 8.38742 12.257 8.43366C12.4625 8.5813 12.6818 8.7089 12.9116 8.8148C13.5091 9.04604 14.1373 9.18843 14.7761 9.23742L19.7479 7.39785C19.7479 7.29841 19.7479 7.20729 19.7479 7.11614C19.7384 7.07607 19.7246 7.03716 19.7065 7.00012Z" fill="url(#paint5_linear_83_1437)"/>
<path d="M12.3808 6.47826L12.6542 6.64394C13.0798 6.84662 13.5317 6.98887 13.9966 7.06656C15.0708 7.26661 16.1695 7.29736 17.2532 7.1577C17.9002 7.08922 18.5323 6.91863 19.1259 6.65224C19.3285 6.59922 19.5035 6.47145 19.6157 6.29466C19.7279 6.11787 19.7691 5.90516 19.7309 5.69928C19.7102 5.45111 19.7102 5.20164 19.7309 4.95348C19.4243 5.08606 19.1342 5.23529 18.8359 5.34302C17.8586 5.65298 16.8361 5.79586 15.8114 5.76563C14.8732 5.77661 13.9392 5.63949 13.0437 5.3595C12.7122 5.25178 12.4056 5.09435 12.0742 4.96177C12.0742 5.26008 12.0742 5.57496 12.0742 5.88155C12.0607 6.00016 12.0826 6.12012 12.1372 6.22628C12.1917 6.33245 12.2765 6.42015 12.3808 6.47826Z" fill="url(#paint6_linear_83_1437)"/>
<path d="M12.0663 10.0329C12.0538 10.0986 12.0538 10.1661 12.0663 10.2318L13.6076 9.66004C13.0573 9.53219 12.5275 9.32863 12.0332 9.05515C12.0663 9.3866 12.0829 9.718 12.0663 10.0329Z" fill="url(#paint7_linear_83_1437)"/>
<path d="M4.71618 2.78228C5.61479 3.06019 6.55163 3.19451 7.49212 3.18012C8.414 3.20092 9.33284 3.06637 10.2101 2.78228C10.504 2.67192 10.7824 2.5244 11.0387 2.34318C11.3536 2.12773 11.3371 1.89564 11.0387 1.65534C10.7058 1.40107 10.3211 1.22287 9.9118 1.13329C8.64833 0.809413 7.33361 0.73621 6.04199 0.91783C5.4087 0.983519 4.79028 1.15151 4.21072 1.4151C4.05736 1.49646 3.91292 1.59365 3.77981 1.7051C3.54779 1.90398 3.55607 2.09455 3.77981 2.31C4.05479 2.53224 4.37402 2.69322 4.71618 2.78228Z" fill="url(#paint8_linear_83_1437)"/>
<path d="M11.1131 8.48349C11.1772 8.43614 11.2283 8.37336 11.2617 8.30091C11.295 8.22846 11.3094 8.14871 11.3036 8.06917C11.3036 7.73771 11.3036 7.39796 11.3036 7.02507C10.8605 7.30855 10.3689 7.50806 9.85351 7.61348C8.59791 7.89877 7.30148 7.95766 6.02517 7.78746C5.36079 7.72129 4.71153 7.54779 4.10271 7.2737C3.95355 7.20741 3.82095 7.13282 3.6718 7.04995C3.66832 7.08855 3.66832 7.12738 3.6718 7.16598V7.44769L8.64367 9.28736C9.28247 9.23836 9.91063 9.09597 10.5081 8.86474C10.7208 8.75614 10.9233 8.62849 11.1131 8.48349Z" fill="url(#paint9_linear_83_1437)"/>
<path d="M4.24319 4.58056C4.83642 4.84801 5.46869 5.01866 6.11593 5.08602C7.1968 5.22563 8.29287 5.19488 9.36421 4.99488C9.83007 4.921 10.2824 4.77858 10.7066 4.57226C10.8033 4.52195 10.8974 4.46667 10.9884 4.40658C11.0927 4.348 11.178 4.26054 11.2338 4.15471C11.2897 4.04887 11.3138 3.92908 11.3033 3.80987C11.3033 3.50328 11.3033 3.19669 11.3033 2.89009C10.9801 3.03096 10.6652 3.1884 10.342 3.29612C9.44689 3.5769 8.51232 3.7113 7.57436 3.69395C6.54665 3.7282 5.52068 3.58524 4.54149 3.27134C4.24317 3.16361 3.96148 3.02267 3.65488 2.89009C3.6714 3.13564 3.6714 3.38204 3.65488 3.6276C3.61595 3.83124 3.65475 4.04211 3.76367 4.21853C3.87259 4.39495 4.04368 4.52412 4.24319 4.58056Z" fill="url(#paint10_linear_83_1437)"/>
<path d="M11.2957 4.96169C10.9725 5.10255 10.6576 5.25999 10.3344 5.36771C9.43885 5.64716 8.50488 5.78417 7.56675 5.77374C6.5388 5.80112 5.51358 5.65554 4.53393 5.34293C4.23562 5.24349 3.95387 5.09427 3.64728 4.96169C3.66379 5.21 3.66379 5.45917 3.64728 5.70749C3.5727 6.20467 3.84613 6.46157 4.25217 6.66045C4.84449 6.92897 5.4774 7.09698 6.12492 7.15761C7.20513 7.30416 8.30186 7.2762 9.37319 7.07477C9.83815 6.99708 10.29 6.85483 10.7156 6.65215C10.8123 6.60184 10.9064 6.54656 10.9974 6.48646C11.1017 6.42789 11.1869 6.34043 11.2428 6.23459C11.2987 6.12876 11.3228 6.00897 11.3122 5.88976C11.2791 5.58316 11.2957 5.26828 11.2957 4.96169Z" fill="url(#paint11_linear_83_1437)"/>
<path d="M11.2954 9.10486C10.8063 9.38312 10.2784 9.58698 9.72925 9.70975L11.2623 10.2816C11.2717 10.2184 11.2717 10.1542 11.2623 10.091C11.2871 9.76783 11.2954 9.4446 11.2954 9.10486Z" fill="url(#paint12_linear_83_1437)"/>
<path d="M20.228 17.4824C20.3606 17.4327 20.4765 17.3996 20.4682 17.2007C20.4682 15.7091 20.4682 14.2093 20.4682 12.7177C20.4682 12.7177 20.4682 12.6349 20.4682 12.5603L12.2896 20.4076L13.6983 19.8938L20.228 17.4824Z" fill="url(#paint13_linear_83_1437)"/>
<path d="M3.08433 17.4824C2.94346 17.4327 2.83569 17.3996 2.83569 17.2007C2.83569 15.7091 2.83569 14.2093 2.83569 12.7177C2.83569 12.7177 2.83569 12.6349 2.83569 12.5603L11.0062 20.4076L9.60576 19.8938L3.08433 17.4824Z" fill="url(#paint14_linear_83_1437)"/>
<defs>
<linearGradient id="paint0_linear_83_1437" x1="6.93607" y1="22.9351" x2="6.93607" y2="-2.49608" gradientUnits="userSpaceOnUse">
<stop offset="0.19" stop-color="#7E0E3B"/>
<stop offset="1" stop-color="#FF004C"/>
</linearGradient>
<linearGradient id="paint1_linear_83_1437" x1="9.86178" y1="3.17193" x2="4.66624" y2="12.7096" gradientUnits="userSpaceOnUse">
<stop offset="0.19" stop-color="#7E0E3B"/>
<stop offset="1" stop-color="#FF004C"/>
</linearGradient>
<linearGradient id="paint2_linear_83_1437" x1="35.4583" y1="5.53346" x2="9.97754" y2="17.8884" gradientUnits="userSpaceOnUse">
<stop offset="0.19" stop-color="#7E0E3B"/>
<stop offset="1" stop-color="#FF004C"/>
</linearGradient>
<linearGradient id="paint3_linear_83_1437" x1="26.7324" y1="-7.68323" x2="15.8276" y2="14.2177" gradientUnits="userSpaceOnUse">
<stop offset="0.19" stop-color="#7E0E3B"/>
<stop offset="1" stop-color="#FF004C"/>
</linearGradient>
<linearGradient id="paint4_linear_83_1437" x1="7.40958" y1="25.6113" x2="16.7814" y2="1.75472" gradientUnits="userSpaceOnUse">
<stop offset="0.18" stop-color="#FF2D73"/>
<stop offset="0.99" stop-color="#FEFF2A"/>
</linearGradient>
<linearGradient id="paint5_linear_83_1437" x1="8.48669" y1="26.0339" x2="17.8586" y2="2.18568" gradientUnits="userSpaceOnUse">
<stop offset="0.18" stop-color="#FF2D73"/>
<stop offset="0.99" stop-color="#FEFF2A"/>
</linearGradient>
<linearGradient id="paint6_linear_83_1437" x1="7.91436" y1="25.8108" x2="17.2865" y2="1.96209" gradientUnits="userSpaceOnUse">
<stop offset="0.18" stop-color="#FF2D73"/>
<stop offset="0.99" stop-color="#FEFF2A"/>
</linearGradient>
<linearGradient id="paint7_linear_83_1437" x1="6.5974" y1="25.2957" x2="15.9686" y2="1.44009" gradientUnits="userSpaceOnUse">
<stop offset="0.18" stop-color="#FF2D73"/>
<stop offset="0.99" stop-color="#FEFF2A"/>
</linearGradient>
<linearGradient id="paint8_linear_83_1437" x1="7.47557" y1="19.8696" x2="7.47557" y2="-0.89696" gradientUnits="userSpaceOnUse">
<stop offset="0.18" stop-color="#FF2D73"/>
<stop offset="0.99" stop-color="#FEFF2A"/>
</linearGradient>
<linearGradient id="paint9_linear_83_1437" x1="7.47529" y1="19.8696" x2="7.47529" y2="-0.897074" gradientUnits="userSpaceOnUse">
<stop offset="0.18" stop-color="#FF2D73"/>
<stop offset="0.99" stop-color="#FEFF2A"/>
</linearGradient>
<linearGradient id="paint10_linear_83_1437" x1="7.46664" y1="19.8692" x2="7.46664" y2="-0.896858" gradientUnits="userSpaceOnUse">
<stop offset="0.18" stop-color="#FF2D73"/>
<stop offset="0.99" stop-color="#FEFF2A"/>
</linearGradient>
<linearGradient id="paint11_linear_83_1437" x1="7.46733" y1="19.8692" x2="7.46733" y2="-0.896907" gradientUnits="userSpaceOnUse">
<stop offset="0.18" stop-color="#FF2D73"/>
<stop offset="0.99" stop-color="#FEFF2A"/>
</linearGradient>
<linearGradient id="paint12_linear_83_1437" x1="10.5165" y1="19.8693" x2="10.5165" y2="-0.897197" gradientUnits="userSpaceOnUse">
<stop offset="0.18" stop-color="#FF2D73"/>
<stop offset="0.99" stop-color="#FEFF2A"/>
</linearGradient>
<linearGradient id="paint13_linear_83_1437" x1="14.5517" y1="22.9846" x2="23.1862" y2="3.32926" gradientUnits="userSpaceOnUse">
<stop offset="0.19" stop-color="#7E0E3B"/>
<stop offset="1" stop-color="#FF004C"/>
</linearGradient>
<linearGradient id="paint14_linear_83_1437" x1="9.64719" y1="10.7705" x2="4.45991" y2="21.7417" gradientUnits="userSpaceOnUse">
<stop offset="0.19" stop-color="#7E0E3B"/>
<stop offset="0.98" stop-color="#570031"/>
</linearGradient>
</defs>
</svg>
