<svg width="27" height="24" viewBox="0 0 27 24" fill="none" xmlns="http://www.w3.org/2000/svg">
<path d="M23.8796 4.06236C23.9381 4.08409 23.9875 4.12508 24.0196 4.1786C24.0517 4.23213 24.0647 4.29494 24.0564 4.3568V9.93282H25.2245C25.2245 9.11802 25.2245 4.72002 25.2245 4.3568C25.2168 4.29371 25.2311 4.2299 25.2651 4.17621C25.2991 4.12251 25.3508 4.08232 25.4111 4.06236C25.7382 3.90943 26.0068 3.65454 26.1767 3.33593C26.3388 3.06624 26.4237 2.75719 26.4221 2.44256C26.4221 1.97131 26.2349 1.51932 25.9017 1.18609C25.5685 0.852869 25.1166 0.665771 24.6454 0.665771C24.1741 0.665771 23.7221 0.852869 23.3889 1.18609C23.0557 1.51932 22.8684 1.97131 22.8684 2.44256C22.8667 2.7007 22.9238 2.95587 23.0354 3.18865C23.201 3.57299 23.5012 3.88368 23.8796 4.06236Z" fill="url(#paint0_linear_83_1459)"/>
<path d="M20.9341 2.69769H1.42804C1.22756 2.69769 1.03527 2.77739 0.893514 2.91915C0.751755 3.06091 0.672119 3.25313 0.672119 3.45361V22.9597C0.674663 23.1594 0.755119 23.3502 0.89633 23.4914C1.03754 23.6326 1.22835 23.7131 1.42804 23.7156H20.9341C21.1338 23.7131 21.3246 23.6326 21.4658 23.4914C21.607 23.3502 21.6875 23.1594 21.69 22.9597V3.45361C21.69 3.25313 21.6103 3.06091 21.4686 2.91915C21.3268 2.77739 21.1346 2.69769 20.9341 2.69769ZM20.9341 22.4099C20.9341 22.5557 20.8762 22.6955 20.7731 22.7986C20.67 22.9017 20.5301 22.9597 20.3843 22.9597H1.97778C1.83198 22.9597 1.69213 22.9017 1.58903 22.7986C1.48594 22.6955 1.42804 22.5557 1.42804 22.4099V3.99346C1.43061 3.84937 1.48963 3.71206 1.59245 3.61107C1.69527 3.51009 1.83366 3.45359 1.97778 3.45361H20.3843C20.5284 3.45359 20.6669 3.51009 20.7697 3.61107C20.8725 3.71206 20.9315 3.84937 20.9341 3.99346V22.4099Z" fill="url(#paint1_linear_83_1459)"/>
<path d="M24.9885 10.6494H22.1023V15.7934H24.9885C25.1109 15.7934 25.2282 15.7449 25.3147 15.6584C25.4012 15.5719 25.4499 15.4544 25.4499 15.3321V11.1108C25.4499 10.9884 25.4012 10.8711 25.3147 10.7846C25.2282 10.6981 25.1109 10.6494 24.9885 10.6494Z" fill="url(#paint2_linear_83_1459)"/>
<path d="M12.8356 6.72257C13.2087 6.72257 13.6013 6.78148 13.9744 6.85019C14.5812 6.96394 15.2087 6.84479 15.7316 6.51645C15.9811 6.3528 16.2759 6.27227 16.5739 6.28637C16.8719 6.30048 17.1578 6.40846 17.3907 6.59495C17.5731 6.72146 17.7287 6.88293 17.8483 7.06997C17.9679 7.25701 18.0493 7.4659 18.0876 7.6846C18.1369 8.00458 18.0708 8.33172 17.9012 8.60745C17.5479 9.16062 17.4214 9.82863 17.5478 10.4727C17.7754 11.7347 17.6251 13.0359 17.1158 14.2128C16.6289 15.4863 15.8463 16.6258 14.8324 17.5373C13.8186 18.4487 12.6025 19.106 11.2845 19.455C10.3263 19.7268 9.31768 19.7705 8.33949 19.5826C7.75787 19.4795 7.15878 19.5987 6.66085 19.9165C6.43794 20.0634 6.17682 20.1416 5.90984 20.1416C5.64287 20.1416 5.38175 20.0634 5.15884 19.9165C4.89408 19.7854 4.67167 19.5823 4.51713 19.3305C4.36258 19.0787 4.28215 18.7884 4.28513 18.493C4.28056 18.2433 4.3488 17.9977 4.48148 17.7862C4.83545 17.2406 4.96225 16.5783 4.83487 15.9406C4.59599 14.5901 4.77764 13.1989 5.35519 11.955C5.8583 10.7559 6.62532 9.68558 7.59921 8.82387C8.5731 7.96216 9.72877 7.33117 10.9802 6.97782C11.586 6.81762 12.2091 6.7319 12.8356 6.72257ZM13.7093 13.6827C13.7749 13.6923 13.8418 13.6878 13.9054 13.6693C13.969 13.6507 14.0279 13.6187 14.078 13.5754C14.1282 13.5321 14.1684 13.4785 14.196 13.4182C14.2236 13.358 14.2378 13.2925 14.2378 13.2262C14.2378 13.16 14.2236 13.0945 14.196 13.0343C14.1684 12.974 14.1282 12.9203 14.078 12.877C14.0279 12.8337 13.969 12.8017 13.9054 12.7832C13.8418 12.7647 13.7749 12.7601 13.7093 12.7698C13.5915 12.7716 13.4785 12.8166 13.3916 12.8962C13.3047 12.9758 13.2501 13.0845 13.2381 13.2017C13.2368 13.2652 13.2483 13.3284 13.272 13.3874C13.2957 13.4464 13.3311 13.4999 13.376 13.5449C13.421 13.5898 13.4745 13.6252 13.5335 13.6489C13.5924 13.6726 13.6556 13.684 13.7192 13.6827H13.7093ZM16.2715 13.241C16.2728 13.1796 16.2619 13.1185 16.2393 13.0613C16.2167 13.0042 16.1829 12.9522 16.1399 12.9083C16.0969 12.8644 16.0456 12.8297 15.989 12.8059C15.9324 12.7821 15.8716 12.7698 15.8102 12.7698C15.7446 12.7601 15.6777 12.7647 15.6141 12.7832C15.5505 12.8017 15.4916 12.8337 15.4414 12.877C15.3913 12.9203 15.351 12.974 15.3235 13.0343C15.2959 13.0945 15.2816 13.16 15.2816 13.2262C15.2816 13.2925 15.2959 13.358 15.3235 13.4182C15.351 13.4785 15.3913 13.5321 15.4414 13.5754C15.4916 13.6187 15.5505 13.6507 15.6141 13.6693C15.6777 13.6878 15.7446 13.6923 15.8102 13.6827C15.8703 13.6853 15.9303 13.6759 15.9867 13.655C16.0432 13.6341 16.0948 13.6022 16.1387 13.5611C16.1826 13.5199 16.2178 13.4704 16.2423 13.4155C16.2668 13.3605 16.2801 13.3011 16.2813 13.241H16.2715ZM15.2211 15.0865C15.2224 15.0251 15.2115 14.964 15.1889 14.9069C15.1663 14.8498 15.1324 14.7978 15.0895 14.7539C15.0465 14.71 14.9952 14.6752 14.9386 14.6514C14.882 14.6276 14.8212 14.6153 14.7597 14.6154C14.6415 14.6202 14.5294 14.6693 14.4458 14.7529C14.3621 14.8366 14.313 14.9487 14.3082 15.0669C14.3107 15.1911 14.3611 15.3094 14.449 15.3973C14.5368 15.4851 14.6552 15.5356 14.7793 15.5381C14.8386 15.5381 14.8974 15.5265 14.9521 15.5038C15.0069 15.4811 15.0568 15.4478 15.0987 15.4059C15.1406 15.364 15.1739 15.3141 15.1965 15.2593C15.2192 15.2046 15.2309 15.1458 15.2309 15.0865H15.2211Z" fill="url(#paint3_linear_83_1459)"/>
<path d="M24.6253 4.23886C25.612 4.23886 26.412 3.43894 26.412 2.45219C26.412 1.46545 25.612 0.665527 24.6253 0.665527C23.6385 0.665527 22.8386 1.46545 22.8386 2.45219C22.8386 3.43894 23.6385 4.23886 24.6253 4.23886Z" fill="url(#paint4_linear_83_1459)"/>
<path d="M4.79542 19.7102C8.31967 15.9602 17.4003 6.59495 17.4003 6.59495C17.1674 6.40846 16.8815 6.30048 16.5835 6.28637C16.2855 6.27227 15.9907 6.3528 15.7412 6.51645C15.2183 6.84479 14.5908 6.96394 13.984 6.85019C13.6109 6.78148 13.2183 6.76184 12.8453 6.72257C12.2039 6.74148 11.5674 6.84046 10.9506 7.01712C9.69914 7.37048 8.54348 8.00146 7.56959 8.86318C6.5957 9.72489 5.82862 10.7951 5.32551 11.9942C4.74796 13.2381 4.56637 14.6294 4.80525 15.9799C4.93263 16.6176 4.80582 17.2799 4.45185 17.8255C4.31917 18.037 4.25094 18.2826 4.25551 18.5323C4.25043 18.7567 4.29637 18.9794 4.3899 19.1835C4.48343 19.3875 4.6221 19.5676 4.79542 19.7102Z" fill="url(#paint5_linear_83_1459)"/>
<defs>
<linearGradient id="paint0_linear_83_1459" x1="24.6355" y1="10.0703" x2="24.6355" y2="1.14679" gradientUnits="userSpaceOnUse">
<stop offset="0.15" stop-color="#6176B8"/>
<stop offset="1" stop-color="#7BBFC9"/>
</linearGradient>
<linearGradient id="paint1_linear_83_1459" x1="11.1762" y1="25.463" x2="11.1762" y2="-0.797111" gradientUnits="userSpaceOnUse">
<stop offset="0.25" stop-color="#5688A4"/>
<stop offset="0.91" stop-color="#BFEDD6"/>
</linearGradient>
<linearGradient id="paint2_linear_83_1459" x1="23.7712" y1="17.0598" x2="23.7712" y2="10.3647" gradientUnits="userSpaceOnUse">
<stop offset="0.25" stop-color="#5688A4"/>
<stop offset="1" stop-color="#ADB5D6"/>
</linearGradient>
<linearGradient id="paint3_linear_83_1459" x1="13.6308" y1="-1.17012" x2="9.38992" y2="23.745" gradientUnits="userSpaceOnUse">
<stop offset="0.14" stop-color="#FFF423"/>
<stop offset="1" stop-color="#F88E13"/>
</linearGradient>
<linearGradient id="paint4_linear_83_1459" x1="23.5258" y1="0.420106" x2="26.3334" y2="5.62304" gradientUnits="userSpaceOnUse">
<stop offset="0.16" stop-color="#FF678C"/>
<stop offset="0.81" stop-color="#FF0003"/>
</linearGradient>
<linearGradient id="paint5_linear_83_1459" x1="13.022" y1="-1.15048" x2="8.85966" y2="23.313" gradientUnits="userSpaceOnUse">
<stop offset="0.14" stop-color="#FFF491"/>
<stop offset="1" stop-color="#FFFF03"/>
</linearGradient>
</defs>
</svg>
