<svg width="27" height="23" viewBox="0 0 27 23" fill="none" xmlns="http://www.w3.org/2000/svg">
<path d="M13.3523 19.6722C13.3523 19.6722 6.70378 15.4116 4.9851 13.6929C4.27578 12.9832 3.72019 12.1351 3.35292 11.2014C2.98564 10.2676 2.81452 9.26826 2.85028 8.26552C2.84994 7.03887 3.24049 5.84409 3.9652 4.85441C4.68991 3.86472 5.71112 3.13161 6.88064 2.7616C8.05015 2.39159 9.30712 2.40386 10.4692 2.79661C11.6313 3.18935 12.638 3.94221 13.3433 4.94583V1.95167C12.1884 1.1022 10.8255 0.580459 9.39856 0.441444C7.97165 0.302429 6.53373 0.551355 5.23658 1.16194C3.93944 1.77252 2.83123 2.72205 2.02908 3.91031C1.22694 5.09857 0.760637 6.48148 0.679357 7.91284C0.630864 9.16376 0.834946 10.4116 1.27944 11.5819C1.72393 12.7522 2.3997 13.8208 3.2664 14.7241C5.33786 16.8589 13.3071 22.2321 13.3433 22.223L13.3523 19.6722Z" fill="url(#paint0_linear_83_1401)"/>
<path d="M13.3521 19.6722C13.3521 19.6722 20.0005 15.4116 21.7102 13.6929C22.4202 12.9834 22.9769 12.1355 23.3457 11.2019C23.7145 10.2683 23.8875 9.26877 23.854 8.26551C23.8571 7.0364 23.4678 5.8385 22.7426 4.84611C22.0174 3.85372 20.9944 3.11869 19.8224 2.74823C18.6505 2.37777 17.3908 2.39117 16.227 2.78643C15.0632 3.1817 14.056 3.93826 13.3521 4.94582V1.95165C20.3986 -2.57118 26.0159 3.67041 26.0159 7.91282C26.0644 9.16374 25.8604 10.4116 25.4159 11.5819C24.9714 12.7522 24.2956 13.8208 23.4289 14.7241C21.3574 16.8589 13.3972 22.2321 13.3611 22.223L13.3521 19.6722Z" fill="url(#paint1_linear_83_1401)"/>
<path d="M13.3524 1.90663C12.1975 1.05715 10.8346 0.535307 9.40772 0.396292C7.98081 0.257277 6.54283 0.506203 5.24569 1.11679C3.94854 1.72737 2.84039 2.67701 2.03824 3.86527C1.2361 5.05353 0.769797 6.43632 0.688517 7.86768C0.686387 8.68799 0.768187 9.50632 0.932712 10.31C0.444247 2.16887 8.63058 2.44934 8.63058 2.44934C8.83235 2.43531 9.03485 2.43531 9.23662 2.44934C9.36326 2.44934 9.48993 2.44929 9.60752 2.50356L9.82461 2.54883L10.2136 2.63927H10.3312C11.5459 3.02809 12.6025 3.79915 13.3434 4.83741C14.0861 3.79712 15.1462 3.02577 16.3646 2.63927H16.4822L16.8622 2.54883L17.0792 2.50356C17.2059 2.50356 17.3235 2.50362 17.4501 2.44934C17.6519 2.43557 17.8544 2.43557 18.0561 2.44934C18.0561 2.44934 26.2516 2.12365 25.7541 10.31C25.9231 9.50701 26.0049 8.68821 25.9982 7.86768C26.0072 3.62527 20.399 -2.6162 13.3524 1.90663Z" fill="url(#paint2_linear_83_1401)"/>
<path d="M13.3522 7.65039C12.9268 7.04505 12.3196 6.59093 11.6188 6.35383C10.918 6.11673 10.1598 6.109 9.45428 6.33175C8.74875 6.55449 8.13249 6.9961 7.69484 7.59264C7.25719 8.18918 7.02092 8.90958 7.02023 9.64945C6.99547 10.258 7.0977 10.8651 7.3204 11.432C7.54311 11.9988 7.8814 12.5131 8.31375 12.9421C9.90247 14.2372 11.5867 15.4104 13.3522 16.4518V7.65039Z" fill="url(#paint3_linear_83_1401)"/>
<path d="M13.3521 7.65049C13.7741 7.03914 14.381 6.57914 15.0837 6.33814C15.7864 6.09714 16.5479 6.08787 17.2563 6.31153C17.9647 6.53519 18.5828 6.98001 19.0197 7.58081C19.4567 8.18161 19.6895 8.90668 19.684 9.64954C19.7082 10.2573 19.6067 10.8635 19.3857 11.4301C19.1646 11.9967 18.8289 12.5114 18.3995 12.9422C16.8091 14.2351 15.125 15.4082 13.3611 16.4519L13.3521 7.65049Z" fill="url(#paint4_linear_83_1401)"/>
<path d="M13.3524 1.90649C12.1975 1.05702 10.8346 0.535171 9.40772 0.396156C7.98081 0.257141 6.54283 0.506067 5.24569 1.11665C3.94854 1.72724 2.84039 2.67687 2.03824 3.86513C1.2361 5.05339 0.769797 6.43619 0.688517 7.86755C0.686387 8.68786 0.768187 9.50619 0.932712 10.3098C0.444247 2.16874 8.63058 2.44921 8.63058 2.44921C8.83235 2.43518 9.03485 2.43518 9.23662 2.44921C9.36326 2.44921 9.48993 2.44915 9.60752 2.50342L9.82461 2.5487L10.2136 2.63913H10.3312C11.5459 3.02795 12.6025 3.79901 13.3434 4.83728L13.3524 1.90649Z" fill="url(#paint5_linear_83_1401)"/>
<path d="M18.8789 7.92184C18.5647 7.5691 18.1463 7.3255 17.6845 7.2263C17.2226 7.1271 16.7412 7.17746 16.3099 7.37007C14.8716 7.95804 14.2927 8.67269 13.7952 7.98522C13.3972 7.44248 14.3651 6.33891 15.6948 6.17609C17.0245 6.01327 18.5894 6.78209 18.8789 7.92184Z" fill="url(#paint6_radial_83_1401)"/>
<path d="M13.7053 8.33797C13.3529 7.91062 12.8693 7.6116 12.3295 7.48729C11.7898 7.36298 11.224 7.42033 10.7202 7.65049C9.00153 8.34701 8.33217 9.29683 7.7442 8.47368C7.27382 7.82239 8.53117 6.37505 10.1142 6.17604C10.8694 6.07363 11.6371 6.23212 12.2901 6.62523C12.9431 7.01835 13.4423 7.62256 13.7053 8.33797Z" fill="url(#paint7_linear_83_1401)"/>
<defs>
<linearGradient id="paint0_linear_83_1401" x1="7.23746" y1="24.3578" x2="7.01132" y2="4.05032" gradientUnits="userSpaceOnUse">
<stop offset="0.01" stop-color="#DE06A7"/>
<stop offset="0.16" stop-color="#D407A5"/>
<stop offset="0.41" stop-color="#BA0AA0"/>
<stop offset="0.73" stop-color="#900F98"/>
<stop offset="0.99" stop-color="#681390"/>
</linearGradient>
<linearGradient id="paint1_linear_83_1401" x1="19.4578" y1="24.3578" x2="19.684" y2="4.05026" gradientUnits="userSpaceOnUse">
<stop offset="0.01" stop-color="#DE06A7"/>
<stop offset="0.16" stop-color="#D407A5"/>
<stop offset="0.41" stop-color="#BA0AA0"/>
<stop offset="0.73" stop-color="#900F98"/>
<stop offset="0.99" stop-color="#681390"/>
</linearGradient>
<linearGradient id="paint2_linear_83_1401" x1="13.3524" y1="-3.64739" x2="13.3524" y2="11.1783" gradientUnits="userSpaceOnUse">
<stop offset="0.01" stop-color="#DE06A7"/>
<stop offset="0.34" stop-color="#DC10A2"/>
<stop offset="0.88" stop-color="#D62994"/>
<stop offset="1" stop-color="#D43090"/>
</linearGradient>
<linearGradient id="paint3_linear_83_1401" x1="10.1862" y1="2.0602" x2="10.1862" y2="17.3473" gradientUnits="userSpaceOnUse">
<stop offset="0.01" stop-color="#DE0655"/>
<stop offset="0.26" stop-color="#DC0D5F"/>
<stop offset="0.68" stop-color="#D81F78"/>
<stop offset="1" stop-color="#D43090"/>
</linearGradient>
<linearGradient id="paint4_linear_83_1401" x1="10.4303" y1="9.21537" x2="29.3085" y2="17.6096" gradientUnits="userSpaceOnUse">
<stop offset="0.11" stop-color="#B5063F"/>
<stop offset="0.19" stop-color="#BA0749"/>
<stop offset="0.32" stop-color="#C80B63"/>
<stop offset="0.49" stop-color="#DE118D"/>
<stop offset="0.55" stop-color="#E7139D"/>
</linearGradient>
<linearGradient id="paint5_linear_83_1401" x1="4.5872" y1="-0.62634" x2="11.7061" y2="18.1524" gradientUnits="userSpaceOnUse">
<stop offset="0.11" stop-color="#B5063F"/>
<stop offset="0.19" stop-color="#BA0749"/>
<stop offset="0.32" stop-color="#C80B63"/>
<stop offset="0.49" stop-color="#DE118D"/>
<stop offset="0.55" stop-color="#E7139D"/>
</linearGradient>
<radialGradient id="paint6_radial_83_1401" cx="0" cy="0" r="1" gradientUnits="userSpaceOnUse" gradientTransform="translate(13.8766 4.76497) scale(4.45046)">
<stop offset="0.3" stop-color="white"/>
<stop offset="1" stop-color="white" stop-opacity="0"/>
</radialGradient>
<linearGradient id="paint7_linear_83_1401" x1="9.71614" y1="5.89563" x2="11.8148" y2="11.106" gradientUnits="userSpaceOnUse">
<stop stop-color="#F2F2F2"/>
<stop offset="0.05" stop-color="#F4F4F4" stop-opacity="0.85"/>
<stop offset="0.15" stop-color="#F8F8F8" stop-opacity="0.55"/>
<stop offset="0.24" stop-color="#FBFBFB" stop-opacity="0.31"/>
<stop offset="0.32" stop-color="#FDFDFD" stop-opacity="0.14"/>
<stop offset="0.38" stop-color="#FEFEFE" stop-opacity="0.04"/>
<stop offset="0.42" stop-color="white" stop-opacity="0"/>
</linearGradient>
</defs>
</svg>
