<svg width="24" height="27" viewBox="0 0 24 27" fill="none" xmlns="http://www.w3.org/2000/svg">
<path d="M0.672135 8.42514V18.815C0.670632 19.2092 0.77309 19.5969 0.969179 19.9389C1.16527 20.2809 1.44809 20.5652 1.78907 20.763L10.8196 25.958C11.1623 26.1539 11.5503 26.2568 11.9451 26.2568C12.3399 26.2568 12.7279 26.1539 13.0707 25.958L22.0925 20.763C22.4357 20.5669 22.7206 20.2832 22.9184 19.941C23.1161 19.5987 23.2195 19.2102 23.218 18.815V8.42514C23.2187 8.03005 23.1149 7.64173 22.9172 7.29964C22.7196 6.95755 22.4351 6.67383 22.0925 6.47705L13.0707 1.28214C12.7279 1.08624 12.3399 0.983139 11.9451 0.983139C11.5503 0.983139 11.1623 1.08624 10.8196 1.28214L1.78907 6.47705C1.44868 6.6756 1.16634 6.95999 0.970342 7.30186C0.77434 7.64372 0.671509 8.03107 0.672135 8.42514Z" fill="url(#paint0_linear_83_1425)"/>
<path d="M0.672135 8.42514V18.815C0.670632 19.2092 0.77309 19.5969 0.969179 19.9389C1.16527 20.2809 1.44809 20.5652 1.78907 20.763L10.8196 25.958C11.1623 26.1539 11.5503 26.2568 11.9451 26.2568C12.3399 26.2568 12.7279 26.1539 13.0707 25.958L22.0925 20.763C22.4357 20.5669 22.7206 20.2832 22.9184 19.941C23.1161 19.5987 23.2195 19.2102 23.218 18.815V8.42514C23.2187 8.03005 23.1149 7.64173 22.9172 7.29964C22.7196 6.95755 22.4351 6.67383 22.0925 6.47705L13.0707 1.28214C12.7279 1.08624 12.3399 0.983139 11.9451 0.983139C11.5503 0.983139 11.1623 1.08624 10.8196 1.28214L1.78907 6.47705C1.44868 6.6756 1.16634 6.95999 0.970342 7.30186C0.77434 7.64372 0.671509 8.03107 0.672135 8.42514Z" fill="url(#paint1_linear_83_1425)"/>
<path d="M11.9189 13.6373C11.9189 13.6373 21.616 8.02687 22.8801 7.23032C22.7082 6.9517 22.4704 6.71972 22.1875 6.55496L12.9319 1.20415C12.6273 1.03476 12.2847 0.945459 11.9362 0.944473C11.5874 0.943132 11.2442 1.03259 10.9405 1.20415L1.67629 6.55496C1.37509 6.73048 1.12449 6.98102 0.948975 7.28222C4.75857 9.53334 11.9189 13.6373 11.9189 13.6373Z" fill="url(#paint2_linear_83_1425)"/>
<path d="M11.9103 13.6373C11.9103 13.6373 2.21307 19.2478 0.948975 20.0444C1.12084 20.323 1.35873 20.555 1.64162 20.7197L10.8972 26.0705C11.2028 26.2386 11.5443 26.3306 11.8929 26.3389C12.2419 26.333 12.584 26.2409 12.8886 26.0705L22.1529 20.7197C22.4558 20.5465 22.7069 20.2954 22.8801 19.9925C19.0705 17.7413 11.9103 13.6373 11.9103 13.6373Z" fill="url(#paint3_linear_83_1425)"/>
<path d="M22.8975 7.3081C23.0687 7.60881 23.1583 7.9491 23.1573 8.29514V18.9966C23.1566 19.3767 23.0486 19.7489 22.8456 20.0702L11.9189 13.6892L22.8975 7.3081Z" fill="url(#paint4_linear_83_1425)"/>
<path d="M0.931854 7.3081C0.764219 7.61026 0.674932 7.94961 0.672119 8.29514V18.9966C0.672803 19.3767 0.780838 19.7489 0.983801 20.0702L11.9105 13.6892L0.931854 7.3081Z" fill="url(#paint5_linear_83_1425)"/>
<path d="M3.26074 9.99222V17.3777C3.261 17.7726 3.36514 18.1605 3.5627 18.5024C3.76027 18.8444 4.04435 19.1283 4.38635 19.3258L10.7847 23.0228C11.1259 23.2188 11.5125 23.3219 11.906 23.3219C12.2994 23.3219 12.686 23.2188 13.0272 23.0228L19.4256 19.3258C19.7687 19.1297 20.0538 18.8461 20.2515 18.5038C20.4493 18.1616 20.5527 17.7729 20.5512 17.3777V9.99222C20.5511 9.59842 20.447 9.21164 20.2493 8.87105C20.0516 8.53046 19.7675 8.24816 19.4256 8.05279L13.0272 4.35573C12.686 4.15976 12.2994 4.05663 11.906 4.05663C11.5125 4.05663 11.1259 4.15976 10.7847 4.35573L4.38635 8.05279C4.04561 8.24951 3.76236 8.53213 3.56487 8.87242C3.36738 9.21271 3.26251 9.59877 3.26074 9.99222Z" fill="url(#paint6_linear_83_1425)"/>
<path d="M3.26074 9.99222V17.3777C3.261 17.7726 3.36514 18.1605 3.5627 18.5024C3.76027 18.8444 4.04435 19.1283 4.38635 19.3258L10.7847 23.0228C11.1259 23.2188 11.5125 23.3219 11.906 23.3219C12.2994 23.3219 12.686 23.2188 13.0272 23.0228L19.4256 19.3258C19.7687 19.1297 20.0538 18.8461 20.2515 18.5038C20.4493 18.1616 20.5527 17.7729 20.5512 17.3777V9.99222C20.5511 9.59842 20.447 9.21164 20.2493 8.87105C20.0516 8.53046 19.7675 8.24816 19.4256 8.05279L13.0272 4.35573C12.686 4.15976 12.2994 4.05663 11.906 4.05663C11.5125 4.05663 11.1259 4.15976 10.7847 4.35573L4.38635 8.05279C4.04561 8.24951 3.76236 8.53213 3.56487 8.87242C3.36738 9.21271 3.26251 9.59877 3.26074 9.99222Z" fill="url(#paint7_linear_83_1425)"/>
<path d="M10.317 21.5854L9.91003 21.2997C9.91843 20.5378 9.97628 19.7771 10.0832 19.0226C10.2224 18.0839 10.4455 17.1595 10.7499 16.2606C11.1213 15.1808 11.6029 14.1421 12.1871 13.161C12.8944 11.9856 13.7245 10.8885 14.6634 9.88822H10.7066C10.3743 9.86969 10.0423 9.92905 9.73691 10.0614C9.47848 10.2063 9.28153 10.4401 9.18278 10.7194C8.99095 11.1682 8.83464 11.6315 8.71525 12.1048H7.17407L7.55503 7.77567H16.828L17.0011 9.18696C16.1974 10.2554 15.4822 11.3875 14.8625 12.5722C14.3666 13.5331 13.9636 14.5392 13.659 15.5767C13.3956 16.5016 13.2217 17.4496 13.1396 18.4078C13.0612 19.3552 13.0352 20.3062 13.0616 21.2564L10.317 21.5854Z" fill="url(#paint8_linear_83_1425)"/>
<path d="M9.18283 10.7194C9.28158 10.4401 9.47854 10.2063 9.73697 10.0614C10.0423 9.92905 10.3744 9.8697 10.7067 9.88822H14.6981L16.88 7.78434H7.60704L7.22607 12.1134H8.76726C8.86931 11.6387 9.00825 11.1725 9.18283 10.7194Z" fill="url(#paint9_linear_83_1425)"/>
<defs>
<linearGradient id="paint0_linear_83_1425" x1="20.9582" y1="-0.735278" x2="7.20903" y2="21.1959" gradientUnits="userSpaceOnUse">
<stop stop-color="#0087FF"/>
<stop offset="0.05" stop-color="#0488FF" stop-opacity="0.91"/>
<stop offset="0.23" stop-color="#0F8CFD" stop-opacity="0.64"/>
<stop offset="0.39" stop-color="#188FFC" stop-opacity="0.41"/>
<stop offset="0.54" stop-color="#1F92FB" stop-opacity="0.23"/>
<stop offset="0.67" stop-color="#2494FB" stop-opacity="0.11"/>
<stop offset="0.78" stop-color="#2795FA" stop-opacity="0.03"/>
<stop offset="0.85" stop-color="#2895FA" stop-opacity="0"/>
</linearGradient>
<linearGradient id="paint1_linear_83_1425" x1="4.55966" y1="41.5253" x2="13.8326" y2="6.52029" gradientUnits="userSpaceOnUse">
<stop offset="0.01" stop-color="#7106D5"/>
<stop offset="0.11" stop-color="#6E0AD5" stop-opacity="0.95"/>
<stop offset="0.27" stop-color="#6514D5" stop-opacity="0.83"/>
<stop offset="0.48" stop-color="#5724D5" stop-opacity="0.63"/>
<stop offset="0.72" stop-color="#443AD5" stop-opacity="0.36"/>
<stop offset="0.99" stop-color="#2C56D5" stop-opacity="0.01"/>
<stop offset="1" stop-color="#2B57D5" stop-opacity="0"/>
</linearGradient>
<linearGradient id="paint2_linear_83_1425" x1="18.196" y1="-8.54484" x2="6.51626" y2="20.8409" gradientUnits="userSpaceOnUse">
<stop offset="0.31" stop-color="#27A8D5"/>
<stop offset="0.42" stop-color="#27A5D5" stop-opacity="0.99"/>
<stop offset="0.54" stop-color="#289BD5" stop-opacity="0.94"/>
<stop offset="0.66" stop-color="#288BD5" stop-opacity="0.88"/>
<stop offset="0.79" stop-color="#2A75D5" stop-opacity="0.78"/>
<stop offset="0.92" stop-color="#2B59D5" stop-opacity="0.66"/>
<stop offset="0.93" stop-color="#2B57D5" stop-opacity="0.65"/>
</linearGradient>
<linearGradient id="paint3_linear_83_1425" x1="5.73694" y1="31.5165" x2="14.9233" y2="14.4166" gradientUnits="userSpaceOnUse">
<stop offset="0.3" stop-color="#7106D5"/>
<stop offset="0.44" stop-color="#6D0AD5" stop-opacity="0.98"/>
<stop offset="0.6" stop-color="#6217D5" stop-opacity="0.93"/>
<stop offset="0.76" stop-color="#502CD5" stop-opacity="0.84"/>
<stop offset="0.93" stop-color="#3749D5" stop-opacity="0.71"/>
<stop offset="1" stop-color="#2B57D5" stop-opacity="0.65"/>
</linearGradient>
<linearGradient id="paint4_linear_83_1425" x1="18.3" y1="26.434" x2="17.2697" y2="5.2994" gradientUnits="userSpaceOnUse">
<stop offset="0.31" stop-color="#0087FF"/>
<stop offset="0.41" stop-color="#1F87FA" stop-opacity="0.91"/>
<stop offset="0.62" stop-color="#7086EB" stop-opacity="0.68"/>
<stop offset="0.86" stop-color="#D385DA" stop-opacity="0.39"/>
</linearGradient>
<linearGradient id="paint5_linear_83_1425" x1="-0.00322094" y1="22.8149" x2="8.87139" y2="5.80155" gradientUnits="userSpaceOnUse">
<stop offset="0.14" stop-color="#58B2FF"/>
<stop offset="0.22" stop-color="#55ADFD" stop-opacity="0.97"/>
<stop offset="0.34" stop-color="#4F9FF6" stop-opacity="0.87"/>
<stop offset="0.5" stop-color="#4489EC" stop-opacity="0.72"/>
<stop offset="0.69" stop-color="#346ADE" stop-opacity="0.52"/>
<stop offset="0.8" stop-color="#2B57D5" stop-opacity="0.39"/>
</linearGradient>
<linearGradient id="paint6_linear_83_1425" x1="-1.45797" y1="48.7031" x2="13.6333" y2="9.17836" gradientUnits="userSpaceOnUse">
<stop offset="0.55" stop-color="#27A8D5"/>
<stop offset="0.6" stop-color="#27A7D5" stop-opacity="0.98"/>
<stop offset="0.65" stop-color="#27A4D5" stop-opacity="0.92"/>
<stop offset="0.7" stop-color="#28A0D5" stop-opacity="0.81"/>
<stop offset="0.76" stop-color="#2899D5" stop-opacity="0.67"/>
<stop offset="0.82" stop-color="#2991D5" stop-opacity="0.48"/>
<stop offset="0.87" stop-color="#2A87D5" stop-opacity="0.26"/>
<stop offset="0.93" stop-color="#2B7BD5" stop-opacity="0"/>
</linearGradient>
<linearGradient id="paint7_linear_83_1425" x1="-1.45797" y1="48.7031" x2="13.6333" y2="9.17836" gradientUnits="userSpaceOnUse">
<stop offset="0.31" stop-color="#27A8D5"/>
<stop offset="0.42" stop-color="#27A5D5" stop-opacity="0.99"/>
<stop offset="0.54" stop-color="#289BD5" stop-opacity="0.94"/>
<stop offset="0.66" stop-color="#288BD5" stop-opacity="0.88"/>
<stop offset="0.79" stop-color="#2A75D5" stop-opacity="0.78"/>
<stop offset="0.92" stop-color="#2B59D5" stop-opacity="0.66"/>
<stop offset="0.93" stop-color="#2B57D5" stop-opacity="0.65"/>
</linearGradient>
<linearGradient id="paint8_linear_83_1425" x1="19.2176" y1="42.036" x2="9.66764" y2="-0.414945" gradientUnits="userSpaceOnUse">
<stop offset="0.18" stop-color="#FF2D73"/>
<stop offset="0.99" stop-color="#FEFF2A"/>
</linearGradient>
<linearGradient id="paint9_linear_83_1425" x1="12.9318" y1="12.226" x2="9.30406" y2="3.38598" gradientUnits="userSpaceOnUse">
<stop offset="0.14" stop-color="#FFE222"/>
<stop offset="0.61" stop-color="#FFFF89"/>
</linearGradient>
</defs>
</svg>
