<svg width="27" height="28" viewBox="0 0 27 28" fill="none" xmlns="http://www.w3.org/2000/svg">
<path d="M13.7061 7.50298C12.7968 7.48296 11.8928 7.647 11.0485 7.9853C10.2042 8.3236 9.43705 8.82911 8.79313 9.4715C8.1492 10.1139 7.64179 10.8799 7.30149 11.7234C6.96118 12.5669 6.79496 13.4705 6.81282 14.3799C6.86647 16.1643 7.61118 17.8583 8.8898 19.1042C10.1684 20.3501 11.881 21.0507 13.6663 21.0581C15.4515 21.0656 17.1699 20.3793 18.4588 19.144C19.7477 17.9088 20.5065 16.2211 20.575 14.4372C20.6006 13.5251 20.4409 12.6174 20.1056 11.7688C19.7703 10.9203 19.2664 10.1486 18.6243 9.50035C17.9822 8.85214 17.2153 8.3409 16.37 7.99758C15.5246 7.65426 14.6184 7.48603 13.7061 7.50298Z" fill="url(#paint0_linear_83_1375)"/>
<path d="M13.8535 14.331L9.04529 9.26111C8.35719 9.8949 7.80459 10.6615 7.42089 11.5147C7.03719 12.3679 6.83032 13.29 6.81275 14.2254C6.79517 15.1607 6.96725 16.0899 7.31863 16.9569C7.67 17.8239 8.19338 18.6107 8.85718 19.2699L13.8535 14.3636L18.5389 19.2699C19.1783 18.6438 19.6875 17.8973 20.037 17.0735C20.3864 16.2497 20.5693 15.3648 20.5751 14.4699C20.6073 12.6496 19.9264 10.8888 18.6779 9.56366L13.8535 14.331Z" fill="url(#paint1_linear_83_1375)"/>
<path d="M21.6709 27.1199L21.9243 26.3022C21.7444 26.3022 21.5646 26.3021 21.3929 26.2367C20.9623 26.1481 20.5713 25.9242 20.277 25.5976C19.9828 25.271 19.8008 24.8589 19.7575 24.4214C19.7189 24.0039 19.8095 23.5846 20.0172 23.2204C20.2249 22.8562 20.5396 22.5646 20.9186 22.3853C20.9541 22.3658 20.984 22.3375 21.0055 22.3031C21.027 22.2688 21.0393 22.2295 21.0412 22.1891C21.1358 21.7168 21.3947 21.2932 21.772 20.9938C22.1493 20.6944 22.6205 20.5385 23.1019 20.5536C23.5769 20.5667 24.0329 20.743 24.3932 21.0527C24.7536 21.3625 24.9964 21.7868 25.0807 22.2544C25.0903 22.3133 25.1227 22.3662 25.1707 22.4017C25.4892 22.5525 25.7643 22.7817 25.9702 23.0677C26.1761 23.3537 26.3061 23.6872 26.3482 24.0371V24.4786C26.3482 24.4786 26.3482 24.544 26.3482 24.5849C26.2682 25.0963 25.9927 25.5567 25.5796 25.8688C25.1781 26.1851 24.6753 26.3449 24.1649 26.3184L24.4266 27.1362L21.6709 27.1199Z" fill="url(#paint2_linear_83_1375)"/>
<path d="M4.10631 21.4612L4.21261 21.3385C4.40511 21.1051 4.65196 20.9225 4.93151 20.8068C5.21106 20.691 5.51474 20.6457 5.8159 20.6748C6.11706 20.7039 6.40651 20.8064 6.65877 20.9735C6.91103 21.1405 7.11842 21.3669 7.26272 21.6329C7.48762 22.0075 7.59672 22.4403 7.57635 22.8768C7.55598 23.3133 7.40704 23.7339 7.14823 24.086C6.77902 24.6131 6.33562 25.0841 5.83172 25.4844L4.19629 26.8908L4.12268 26.948C3.77924 26.6618 3.44398 26.3838 3.10872 26.1303C2.5445 25.6233 1.9721 25.1245 1.47329 24.593C1.09107 24.229 0.826268 23.7593 0.712826 23.2438C0.607514 22.7171 0.70708 22.1701 0.99122 21.7142C1.27536 21.2584 1.72267 20.9281 2.24195 20.7907C2.57146 20.7074 2.91799 20.7209 3.23998 20.8297C3.56198 20.9385 3.84574 21.1379 4.05725 21.404L4.10631 21.4612Z" fill="url(#paint3_linear_83_1375)"/>
<path d="M26.389 3.92963L23.1182 7.20048L19.8064 3.92963L23.1344 0.658771L23.0854 0.585205L23.2081 0.699697L26.2909 3.79068C26.3325 3.82597 26.3761 3.85874 26.4217 3.8888L26.389 3.92963Z" fill="url(#paint4_linear_83_1375)"/>
<path d="M2.70819 7.30675L2.96987 6.44003C2.79837 6.45228 2.62621 6.45228 2.4547 6.44003C1.98248 6.36774 1.55384 6.12285 1.25174 5.75278C0.949641 5.3827 0.795558 4.9138 0.819276 4.43667C0.845278 3.84051 1.09661 3.27641 1.5225 2.85844C1.88229 2.47411 2.27477 2.11435 2.66727 1.76273C3.05977 1.41111 3.57497 0.944971 4.03289 0.593355L4.14733 0.503418C5.06078 1.24123 5.93168 2.03024 6.75584 2.86662C7.0956 3.23367 7.32272 3.69065 7.41005 4.18313C7.49495 4.66819 7.3928 5.16745 7.12422 5.58019C6.85563 5.99293 6.44056 6.28845 5.96268 6.40729C5.73544 6.44326 5.50583 6.46245 5.27578 6.46458L5.53745 7.2823L2.70819 7.30675Z" fill="url(#paint5_linear_83_1375)"/>
<path d="M9.48676 14.2574C9.48676 14.4591 9.40663 14.6526 9.26401 14.7952C9.12139 14.9378 8.92798 15.0179 8.72629 15.0179C8.5246 15.0179 8.33118 14.9378 8.18857 14.7952C8.04595 14.6526 7.96582 14.4591 7.96582 14.2574C7.96582 14.0557 8.04595 13.8623 8.18857 13.7196C8.33118 13.577 8.5246 13.4969 8.72629 13.4969C8.92798 13.4969 9.12139 13.577 9.26401 13.7196C9.40663 13.8623 9.48676 14.0557 9.48676 14.2574Z" fill="url(#paint6_linear_83_1375)"/>
<path d="M18.6862 15.0259C18.4874 15.026 18.2964 14.9481 18.1542 14.809C18.0121 14.6699 17.9301 14.4806 17.9258 14.2818C17.9258 14.0801 18.0059 13.8867 18.1485 13.7441C18.2911 13.6014 18.4846 13.5214 18.6862 13.5214C18.8879 13.5214 19.0814 13.6014 19.224 13.7441C19.3666 13.8867 19.4467 14.0801 19.4467 14.2818C19.4424 14.4806 19.3604 14.6699 19.2183 14.809C19.0761 14.9481 18.8851 15.026 18.6862 15.0259Z" fill="url(#paint7_linear_83_1375)"/>
<path d="M13.6819 20.333C13.5778 20.3321 13.4749 20.3099 13.3796 20.2677C13.2844 20.2254 13.1988 20.1641 13.1283 20.0874C13.0578 20.0107 13.0037 19.9204 12.9695 19.822C12.9354 19.7236 12.9218 19.6191 12.9297 19.5153C12.9492 19.3261 13.0382 19.151 13.1794 19.0236C13.3207 18.8963 13.5041 18.8258 13.6942 18.8258C13.8844 18.8258 14.0678 18.8963 14.209 19.0236C14.3502 19.151 14.4392 19.3261 14.4588 19.5153C14.4668 19.6212 14.4525 19.7277 14.4169 19.8278C14.3813 19.9279 14.325 20.0195 14.2518 20.0965C14.1786 20.1735 14.0901 20.2343 13.9919 20.2751C13.8938 20.3158 13.7882 20.3356 13.6819 20.333Z" fill="url(#paint8_linear_83_1375)"/>
<path d="M13.6818 10.2095C13.5322 10.2 13.3887 10.1469 13.2689 10.0568C13.1491 9.96675 13.0583 9.84368 13.0075 9.70266C12.9568 9.56163 12.9484 9.40879 12.9834 9.26305C13.0183 9.11732 13.0952 8.98499 13.2044 8.88235C13.3136 8.7797 13.4504 8.7113 13.598 8.6854C13.7456 8.65951 13.8976 8.67727 14.0352 8.73661C14.1728 8.79596 14.2901 8.89427 14.3726 9.0194C14.455 9.14452 14.4992 9.29106 14.4995 9.44093C14.4997 9.54614 14.4783 9.65027 14.4366 9.74688C14.395 9.84348 14.3339 9.93045 14.2573 10.0025C14.1806 10.0746 14.09 10.1301 13.991 10.1657C13.892 10.2013 13.7867 10.2162 13.6818 10.2095Z" fill="url(#paint9_linear_83_1375)"/>
<path d="M12.9623 11.7388C12.9623 11.011 12.9623 10.2832 12.9623 9.55547C12.9623 9.01578 13.2485 8.68874 13.7146 8.68056C14.1807 8.67239 14.4833 9.0158 14.4833 9.57184C14.4833 10.8066 14.4833 12.025 14.4833 13.2843C14.4728 13.3838 14.4941 13.4839 14.5441 13.5706C14.594 13.6572 14.67 13.7259 14.7613 13.7667C15.2601 14.0366 15.7589 14.3309 16.2496 14.5844C16.349 14.6274 16.4381 14.6909 16.5113 14.7707C16.5844 14.8505 16.6399 14.9448 16.6741 15.0476C16.7082 15.1503 16.7203 15.2592 16.7094 15.3669C16.6986 15.4746 16.6651 15.5789 16.6112 15.6728C16.5573 15.7667 16.4842 15.8481 16.3967 15.9117C16.3091 15.9754 16.209 16.0199 16.1031 16.0422C15.9971 16.0645 15.8877 16.0642 15.7819 16.0413C15.6761 16.0184 15.5763 15.9733 15.4891 15.9091C14.7859 15.5166 14.099 15.0914 13.4039 14.7071C13.2545 14.633 13.1313 14.5149 13.0509 14.3687C12.9705 14.2226 12.9368 14.0553 12.9542 13.8894C12.9623 13.2189 12.9623 12.4829 12.9623 11.7388Z" fill="url(#paint10_linear_83_1375)"/>
<path d="M1.9802 2.38403C1.81665 2.5394 1.64491 2.68654 1.49772 2.85009C1.06547 3.26361 0.812944 3.8304 0.794501 4.42832C0.768919 4.90588 0.922337 5.37574 1.22477 5.74622C1.5272 6.1167 1.95691 6.36113 2.42993 6.43168C2.60143 6.44401 2.77359 6.44401 2.94509 6.43168L2.68342 7.2985H5.47999L5.21836 6.48079C5.39826 6.48079 5.57813 6.48079 5.75803 6.48079L1.9802 2.38403Z" fill="url(#paint11_linear_83_1375)"/>
<path d="M24.5245 26.2533L20.8856 22.4019C20.5236 22.588 20.2258 22.8783 20.0305 23.2354C19.8352 23.5925 19.7514 24 19.7899 24.4052C19.8332 24.8427 20.0153 25.2549 20.3096 25.5815C20.6038 25.9081 20.9948 26.1319 21.4253 26.2205C21.5971 26.2205 21.7688 26.2206 21.9569 26.286C21.8669 26.564 21.7851 26.842 21.7033 27.1037H24.4754C24.3854 26.8257 24.3037 26.5395 24.2138 26.286L24.5245 26.2533Z" fill="url(#paint12_linear_83_1375)"/>
<path d="M26.3072 3.79865L24.7862 2.27771L21.5154 5.54857L23.1508 7.18399L26.4217 3.91314C26.378 3.88086 26.3395 3.84226 26.3072 3.79865Z" fill="url(#paint13_linear_83_1375)"/>
<path d="M6.2895 20.7747L2.00464 25.0595L3.14127 26.098C3.46836 26.3924 3.81178 26.6704 4.14704 26.9157C4.14704 26.9157 4.20431 26.9156 4.22066 26.8584C4.77671 26.3923 5.33275 25.9262 5.85609 25.452C6.36198 25.0539 6.80569 24.5826 7.1726 24.0537C7.43344 23.7025 7.58367 23.2816 7.60406 22.8446C7.62445 22.4076 7.5141 21.9745 7.28709 21.6006C7.06393 21.2149 6.71004 20.9219 6.2895 20.7747Z" fill="url(#paint14_linear_83_1375)"/>
<defs>
<linearGradient id="paint0_linear_83_1375" x1="11.2939" y1="36.4582" x2="15.0963" y2="1.51731" gradientUnits="userSpaceOnUse">
<stop offset="0.18" stop-color="#FF2D73"/>
<stop offset="0.99" stop-color="#FEFF2A"/>
</linearGradient>
<linearGradient id="paint1_linear_83_1375" x1="6.42858" y1="6.17833" x2="26.8223" y2="29.1071" gradientUnits="userSpaceOnUse">
<stop offset="0.14" stop-color="#FFD800"/>
<stop offset="1" stop-color="#FFE935"/>
</linearGradient>
<linearGradient id="paint2_linear_83_1375" x1="26.7162" y1="11.6815" x2="20.0846" y2="34.5282" gradientUnits="userSpaceOnUse">
<stop stop-color="#27A8D5"/>
<stop offset="0.15" stop-color="#27A3D5" stop-opacity="0.98"/>
<stop offset="0.38" stop-color="#2894D5" stop-opacity="0.92"/>
<stop offset="0.65" stop-color="#297DD5" stop-opacity="0.81"/>
<stop offset="0.96" stop-color="#2B5CD5" stop-opacity="0.67"/>
<stop offset="1" stop-color="#2B57D5" stop-opacity="0.65"/>
</linearGradient>
<linearGradient id="paint3_linear_83_1375" x1="2.37278" y1="34.2011" x2="5.09574" y2="16.1215" gradientUnits="userSpaceOnUse">
<stop offset="0.19" stop-color="#7E0E3B"/>
<stop offset="1" stop-color="#FF004C"/>
</linearGradient>
<linearGradient id="paint4_linear_83_1375" x1="19.9127" y1="18.3459" x2="23.8541" y2="0.405308" gradientUnits="userSpaceOnUse">
<stop offset="0.19" stop-color="#7E0E3B"/>
<stop offset="1" stop-color="#FF004C"/>
</linearGradient>
<linearGradient id="paint5_linear_83_1375" x1="4.09831" y1="-5.48221" x2="4.09831" y2="14.6661" gradientUnits="userSpaceOnUse">
<stop stop-color="#27A8D5"/>
<stop offset="0.15" stop-color="#27A3D5" stop-opacity="0.98"/>
<stop offset="0.38" stop-color="#2894D5" stop-opacity="0.92"/>
<stop offset="0.65" stop-color="#297DD5" stop-opacity="0.81"/>
<stop offset="0.96" stop-color="#2B5CD5" stop-opacity="0.67"/>
<stop offset="1" stop-color="#2B57D5" stop-opacity="0.65"/>
</linearGradient>
<linearGradient id="paint6_linear_83_1375" x1="7.96582" y1="14.2656" x2="9.48676" y2="14.2656" gradientUnits="userSpaceOnUse">
<stop/>
<stop offset="1" stop-color="#1E1E1E"/>
</linearGradient>
<linearGradient id="paint7_linear_83_1375" x1="17.9013" y1="14.2655" x2="19.4222" y2="14.2655" gradientUnits="userSpaceOnUse">
<stop/>
<stop offset="1" stop-color="#1E1E1E"/>
</linearGradient>
<linearGradient id="paint8_linear_83_1375" x1="12.9296" y1="19.548" x2="14.4588" y2="19.548" gradientUnits="userSpaceOnUse">
<stop/>
<stop offset="1" stop-color="#1E1E1E"/>
</linearGradient>
<linearGradient id="paint9_linear_83_1375" x1="12.9294" y1="9.4409" x2="14.4586" y2="9.4409" gradientUnits="userSpaceOnUse">
<stop/>
<stop offset="1" stop-color="#1E1E1E"/>
</linearGradient>
<linearGradient id="paint10_linear_83_1375" x1="12.9296" y1="12.3848" x2="16.683" y2="12.3848" gradientUnits="userSpaceOnUse">
<stop/>
<stop offset="1" stop-color="#1E1E1E"/>
</linearGradient>
<linearGradient id="paint11_linear_83_1375" x1="9.82207" y1="-2.54679" x2="-6.4014" y2="17.0293" gradientUnits="userSpaceOnUse">
<stop stop-color="#00B1F2"/>
<stop offset="0.15" stop-color="#03ACF0" stop-opacity="0.98"/>
<stop offset="0.36" stop-color="#0A9DEC" stop-opacity="0.92"/>
<stop offset="0.62" stop-color="#1585E4" stop-opacity="0.83"/>
<stop offset="0.91" stop-color="#2563D9" stop-opacity="0.7"/>
<stop offset="1" stop-color="#2B57D5" stop-opacity="0.65"/>
</linearGradient>
<linearGradient id="paint12_linear_83_1375" x1="30.7964" y1="14.8298" x2="14.5648" y2="34.406" gradientUnits="userSpaceOnUse">
<stop stop-color="#27A8D5"/>
<stop offset="0.15" stop-color="#27A3D5" stop-opacity="0.98"/>
<stop offset="0.38" stop-color="#2894D5" stop-opacity="0.92"/>
<stop offset="0.65" stop-color="#297DD5" stop-opacity="0.81"/>
<stop offset="0.96" stop-color="#2B5CD5" stop-opacity="0.67"/>
<stop offset="1" stop-color="#2B57D5" stop-opacity="0.65"/>
</linearGradient>
<linearGradient id="paint13_linear_83_1375" x1="18.359" y1="-7.47762" x2="26.4298" y2="10.1032" gradientUnits="userSpaceOnUse">
<stop offset="0.19" stop-color="#7E0E3B"/>
<stop offset="1" stop-color="#FF004C"/>
</linearGradient>
<linearGradient id="paint14_linear_83_1375" x1="-4.64339" y1="3.07113" x2="3.42745" y2="20.6602" gradientUnits="userSpaceOnUse">
<stop offset="0.19" stop-color="#7E0E3B"/>
<stop offset="1" stop-color="#FF004C"/>
</linearGradient>
</defs>
</svg>
