<svg width="23" height="23" viewBox="0 0 23 23" fill="none" xmlns="http://www.w3.org/2000/svg">
<path d="M9.12595 22.1907V12.1107C9.12582 12.0863 9.13314 12.0624 9.14695 12.0422C9.16076 12.0221 9.18039 12.0066 9.20322 11.9979C9.22605 11.9892 9.25098 11.9878 9.27469 11.9937C9.29841 11.9995 9.31982 12.0124 9.33597 12.0308L12.5459 15.4507C12.5572 15.4635 12.5711 15.4737 12.5866 15.4807C12.6021 15.4877 12.6189 15.4913 12.636 15.4913C12.653 15.4913 12.6698 15.4877 12.6853 15.4807C12.7009 15.4737 12.7147 15.4635 12.726 15.4507L15.726 11.7407C15.7416 11.7229 15.762 11.7102 15.7848 11.704C15.8077 11.6978 15.8318 11.6985 15.8542 11.7059C15.8767 11.7134 15.8964 11.7273 15.9109 11.746C15.9255 11.7646 15.9342 11.7872 15.9359 11.8108V22.1907C15.9372 22.2078 15.9418 22.2245 15.9496 22.2397C15.9573 22.255 15.968 22.2688 15.981 22.2799C15.994 22.2911 16.0091 22.2995 16.0254 22.3048C16.0417 22.3101 16.0589 22.3122 16.076 22.3108L22.1759 21.6508C22.2068 21.6459 22.235 21.6301 22.2552 21.6062C22.2754 21.5823 22.2863 21.552 22.2859 21.5208V2.01074C22.284 1.98121 22.2721 1.95322 22.2521 1.9314C22.2321 1.90958 22.2052 1.89524 22.1759 1.89075L16.006 1.18079C15.9704 1.16779 15.9315 1.16779 15.896 1.18079L12.7359 4.96069C12.7247 4.97346 12.7109 4.98372 12.6953 4.99072C12.6798 4.99773 12.663 5.00134 12.646 5.00134C12.6289 5.00134 12.6121 4.99773 12.5966 4.99072C12.5811 4.98372 12.5672 4.97346 12.5559 4.96069L8.82596 0.830688C8.81028 0.823498 8.79323 0.819824 8.77598 0.819824C8.75872 0.819824 8.74168 0.823498 8.72599 0.830688L2.37595 1.43079C2.35042 1.43211 2.32597 1.44145 2.30619 1.45764C2.2864 1.47383 2.27232 1.49599 2.26597 1.52075L0.675939 8.05078C0.671269 8.06883 0.670879 8.08773 0.674779 8.10596C0.67868 8.12419 0.686754 8.1412 0.6984 8.15576C0.710046 8.17032 0.724928 8.18201 0.741857 8.18982C0.758786 8.19763 0.777301 8.20128 0.795934 8.20068H2.12595C2.15778 8.20068 2.18829 8.21334 2.21079 8.23584C2.23329 8.25834 2.24595 8.28885 2.24595 8.32068V21.7007C2.24595 21.7325 2.2586 21.7631 2.2811 21.7856C2.30361 21.8081 2.33412 21.8207 2.36594 21.8207L9.00596 22.3008C9.03612 22.3009 9.0652 22.2895 9.08744 22.2692C9.10968 22.2488 9.12344 22.2207 9.12595 22.1907Z" fill="url(#paint0_linear_83_1455)"/>
<path d="M2.43609 1.40991L8.73608 0.819824C8.73608 0.819824 8.78609 0.819824 8.80609 0.819824L12.5661 4.98987C12.5745 5.00031 12.5852 5.00874 12.5973 5.01453C12.6094 5.02031 12.6227 5.02332 12.6361 5.02332C12.6495 5.02332 12.6628 5.02031 12.6749 5.01453C12.687 5.00874 12.6977 5.00031 12.7061 4.98987L15.8961 1.17981C15.9085 1.17364 15.9222 1.17053 15.9361 1.17053C15.95 1.17053 15.9637 1.17364 15.9761 1.17981L22.1262 1.87988C22.1423 1.88247 22.1574 1.88896 22.1705 1.8988C22.1835 1.90864 22.194 1.92148 22.2009 1.93628C22.2078 1.95108 22.211 1.96733 22.2101 1.98364C22.2093 1.99995 22.2045 2.01589 22.1961 2.02991L15.9361 11.4598L12.7061 15.4598C12.6977 15.4703 12.687 15.4787 12.6749 15.4845C12.6628 15.4903 12.6495 15.4933 12.6361 15.4933C12.6227 15.4933 12.6094 15.4903 12.5973 15.4845C12.5852 15.4787 12.5745 15.4703 12.5661 15.4598C12.5661 15.4598 9.12609 11.7799 9.11609 11.7799L2.36609 1.5498C2.35723 1.53659 2.35202 1.52137 2.35101 1.50549C2.35 1.48962 2.35324 1.4737 2.36035 1.45947C2.36746 1.44524 2.37823 1.43316 2.39154 1.42444C2.40484 1.41572 2.42021 1.41075 2.43609 1.40991Z" fill="url(#paint1_linear_83_1455)"/>
<defs>
<linearGradient id="paint0_linear_83_1455" x1="11.4759" y1="3.25074" x2="11.4759" y2="36.5108" gradientUnits="userSpaceOnUse">
<stop offset="0.17" stop-color="#BF2D73"/>
<stop offset="1" stop-color="#F88E13"/>
</linearGradient>
<linearGradient id="paint1_linear_83_1455" x1="12.2761" y1="25.2699" x2="12.2761" y2="-5.36019" gradientUnits="userSpaceOnUse">
<stop offset="0.14" stop-color="#CD00FF"/>
<stop offset="0.9" stop-color="#F8786D"/>
</linearGradient>
</defs>
</svg>
