<svg width="27" height="27" viewBox="0 0 27 27" fill="none" xmlns="http://www.w3.org/2000/svg">
<path d="M2.86032 20.6294C2.93679 19.6735 3.02284 18.7177 3.07064 17.8288C3.07425 17.6548 3.00897 17.4865 2.88902 17.3604C2.22949 16.7009 1.55084 16.0509 0.862636 15.4488C0.811136 15.4151 0.767605 15.3705 0.735162 15.3183C0.70272 15.2661 0.682129 15.2074 0.674839 15.1463C0.667548 15.0853 0.673752 15.0234 0.692982 14.965C0.712213 14.9066 0.744012 14.8531 0.786152 14.8083C1.30231 14.0245 1.74201 13.2216 2.2964 12.4378C2.35395 12.3625 2.39048 12.2732 2.40223 12.1791C2.41399 12.0851 2.40055 11.9896 2.36332 11.9025C2.05745 11.0422 1.78977 10.1724 1.4839 9.31218C1.44555 9.24984 1.42177 9.17962 1.41424 9.10682C1.40672 9.03402 1.4157 8.96053 1.4405 8.89166C1.46529 8.8228 1.50527 8.76036 1.55747 8.70906C1.60967 8.65776 1.67271 8.61889 1.742 8.59529C2.55447 8.15561 3.34783 7.68717 4.14118 7.20925C4.2864 7.11457 4.38919 6.96728 4.42792 6.7983C4.59042 5.84245 4.7338 4.97265 4.85806 4.0646C4.91541 3.71093 5.05882 3.58666 5.42204 3.5771C6.37788 3.5771 7.28593 3.51976 8.22266 3.46241C8.3711 3.4469 8.5079 3.37509 8.60496 3.26172C9.19759 2.49704 9.77109 1.73233 10.335 0.958097C10.3622 0.904764 10.4006 0.857931 10.4477 0.820998C10.4948 0.784064 10.5493 0.757876 10.6076 0.744222C10.6659 0.730568 10.7264 0.729836 10.785 0.742005C10.8436 0.754174 10.8988 0.778972 10.9468 0.814697C11.7784 1.22571 12.6291 1.61763 13.4702 2.02864C13.5577 2.07806 13.6565 2.10402 13.757 2.10402C13.8575 2.10402 13.9562 2.07806 14.0437 2.02864C14.8753 1.62718 15.7164 1.24485 16.5385 0.833833C16.5929 0.793383 16.6558 0.765544 16.7223 0.752273C16.7888 0.739002 16.8575 0.740601 16.9233 0.757057C16.9891 0.773513 17.0504 0.804345 17.1029 0.847367C17.1554 0.89039 17.1977 0.944494 17.2267 1.00582C17.762 1.76094 18.3164 2.497 18.8899 3.22345C19.0006 3.3562 19.1579 3.44167 19.3296 3.46241C20.2854 3.51976 21.2413 3.56756 22.1971 3.58667C22.5221 3.58667 22.6368 3.73 22.675 4.01676C22.8184 4.9726 22.9713 5.84242 23.1051 6.76003C23.1157 6.8603 23.151 6.95645 23.2077 7.03983C23.2644 7.12321 23.3408 7.19124 23.4302 7.23795C24.2427 7.69676 25.0455 8.19388 25.8675 8.63357C25.9261 8.65445 25.9793 8.68802 26.0233 8.73193C26.0673 8.77583 26.1011 8.82896 26.1221 8.88746C26.1432 8.94596 26.1509 9.00831 26.1449 9.07018C26.1389 9.13206 26.1192 9.19183 26.0874 9.2452C25.7815 10.1246 25.4948 11.0135 25.1889 11.9025C25.1545 11.9902 25.1425 12.0852 25.1542 12.1787C25.1658 12.2722 25.2008 12.3613 25.2558 12.4378C25.7624 13.2216 26.2117 14.0245 26.7661 14.7987C26.8084 14.8444 26.8403 14.8986 26.8596 14.9578C26.8788 15.0169 26.885 15.0795 26.8778 15.1413C26.8705 15.2031 26.8499 15.2626 26.8174 15.3156C26.7849 15.3687 26.7413 15.4142 26.6895 15.4488C26.0013 16.0892 25.3227 16.7391 24.6632 17.3604C24.5432 17.4865 24.478 17.6548 24.4816 17.8288C24.539 18.7846 24.6154 19.7405 24.7014 20.6963C24.7139 20.7512 24.7146 20.808 24.7036 20.8632C24.6927 20.9184 24.6703 20.9707 24.6378 21.0166C24.6054 21.0626 24.5637 21.1012 24.5153 21.13C24.467 21.1588 24.4132 21.1772 24.3573 21.1838C23.4015 21.4323 22.5125 21.6999 21.5949 21.9867C21.4458 22.0417 21.3229 22.1509 21.2508 22.2925C20.8685 23.1528 20.4957 24.0036 20.1516 24.8734C20.137 24.9397 20.1082 25.0021 20.0671 25.0562C20.026 25.1103 19.9736 25.1547 19.9136 25.1865C19.8535 25.2184 19.7874 25.2368 19.7195 25.2405C19.6517 25.2441 19.5838 25.233 19.5207 25.2079C18.6222 25.0072 17.7142 24.8159 16.8061 24.6534C16.6245 24.6273 16.4398 24.6717 16.29 24.7777C15.554 25.3512 14.8275 25.9439 14.1202 26.5557C14.0789 26.6025 14.0282 26.6399 13.9713 26.6656C13.9145 26.6913 13.8528 26.7044 13.7904 26.7044C13.728 26.7044 13.6664 26.6913 13.6096 26.6656C13.5527 26.6399 13.5019 26.6025 13.4607 26.5557C12.7533 25.9439 12.0173 25.3609 11.3005 24.7682C11.2327 24.7011 11.1483 24.6533 11.0558 24.6297C10.9634 24.6062 10.8664 24.6079 10.7748 24.6344C9.8667 24.8351 8.95862 25.0072 8.06012 25.2079C7.99702 25.233 7.92919 25.2441 7.86136 25.2405C7.79352 25.2368 7.72734 25.2184 7.66732 25.1865C7.6073 25.1547 7.55493 25.1103 7.51383 25.0562C7.47272 25.0021 7.44387 24.9397 7.42929 24.8734C7.08519 24.0227 6.70285 23.1719 6.35875 22.3212C6.32691 22.2323 6.2736 22.1526 6.20356 22.0893C6.13353 22.0259 6.04896 21.9808 5.95731 21.958C5.09705 21.7286 4.24634 21.4705 3.38608 21.222C2.83169 21.0786 2.83165 21.069 2.86032 20.6294Z" fill="url(#paint0_linear_83_1395)"/>
<path d="M3.04179 17.4273C3.32855 16.6053 3.5962 15.8693 3.83516 15.1333C3.89199 14.9955 3.89199 14.841 3.83516 14.7032C3.43371 14.0054 3.01313 13.3076 2.57344 12.629C2.53717 12.5887 2.51014 12.5411 2.49415 12.4893C2.47817 12.4376 2.47363 12.383 2.48091 12.3293C2.48819 12.2757 2.50709 12.2241 2.53628 12.1785C2.56546 12.1328 2.60425 12.0942 2.64992 12.0651C3.25211 11.5298 3.83517 10.9659 4.43735 10.421C4.50161 10.3711 4.55139 10.3048 4.58163 10.2292C4.61186 10.1536 4.62146 10.0713 4.6094 9.99084C4.55204 9.20704 4.52339 8.41372 4.44692 7.62993C4.42984 7.56932 4.42628 7.50572 4.43647 7.44359C4.44667 7.38146 4.47035 7.32228 4.5059 7.27032C4.54145 7.21835 4.58802 7.17491 4.64224 7.1429C4.69646 7.11089 4.75704 7.09118 4.81971 7.08514C5.6035 6.90353 6.36817 6.68367 7.13284 6.46382C7.27757 6.41567 7.39765 6.31268 7.46736 6.17702C7.80191 5.45058 8.1269 4.7241 8.42321 3.9881C8.43735 3.92878 8.46451 3.87343 8.50273 3.82591C8.54094 3.77839 8.5893 3.73997 8.6442 3.71343C8.69911 3.6869 8.75918 3.6729 8.82016 3.67248C8.88114 3.67205 8.94149 3.68521 8.99675 3.71098C9.78055 3.90215 10.5739 4.07412 11.3672 4.22706C11.4967 4.24998 11.63 4.22267 11.74 4.15063C12.3773 3.64722 13.0145 3.13107 13.6517 2.60217C13.6858 2.56352 13.7277 2.53259 13.7747 2.51139C13.8217 2.49019 13.8726 2.47919 13.9241 2.47919C13.9756 2.47919 14.0266 2.49019 14.0736 2.51139C14.1205 2.53259 14.1625 2.56352 14.1966 2.60217C14.7987 3.12788 15.4296 3.64405 16.0413 4.16977C16.1002 4.23202 16.1748 4.27726 16.2572 4.3008C16.3396 4.32434 16.4268 4.32534 16.5097 4.3036C17.2935 4.14111 18.0869 4.01688 18.8611 3.85438C18.9154 3.83205 18.9741 3.82217 19.0327 3.82556C19.0914 3.82895 19.1484 3.84553 19.1998 3.87398C19.2512 3.90243 19.2956 3.94207 19.3296 3.98996C19.3636 4.03786 19.3864 4.09273 19.3963 4.15063C19.6831 4.89619 19.9794 5.64171 20.2949 6.37771C20.3622 6.50802 20.4741 6.60984 20.6102 6.66451C21.3845 6.92259 22.1682 7.17113 22.9616 7.40053C23.0147 7.40657 23.0658 7.42429 23.1113 7.45234C23.1568 7.48039 23.1955 7.51811 23.2247 7.56283C23.2539 7.60756 23.2728 7.65811 23.2802 7.71102C23.2876 7.76392 23.2833 7.81786 23.2675 7.86889C23.1815 8.66224 23.105 9.46515 23.019 10.2585C23.0046 10.3439 23.0119 10.4316 23.0403 10.5134C23.0687 10.5953 23.1173 10.6687 23.1815 10.7269L24.9115 12.4283C24.952 12.4633 24.9845 12.5066 25.0068 12.5552C25.029 12.6039 25.0405 12.6567 25.0405 12.7102C25.0405 12.7637 25.029 12.8166 25.0068 12.8653C24.9845 12.9139 24.952 12.9572 24.9115 12.9922C24.4623 13.6613 24.0321 14.3399 23.5733 15.009C23.5249 15.0759 23.4943 15.1539 23.4843 15.2359C23.4743 15.3178 23.4852 15.4008 23.5161 15.4774C23.7646 16.2421 23.994 17.0163 24.2521 17.7906C24.277 17.8382 24.2912 17.8907 24.294 17.9445C24.2967 17.9982 24.2878 18.0518 24.2678 18.1018C24.2478 18.1517 24.2174 18.1968 24.1783 18.2338C24.1393 18.2709 24.0926 18.299 24.0417 18.3163C23.328 18.6923 22.6207 19.0842 21.9197 19.492C21.7955 19.5723 21.704 19.6943 21.6616 19.8361C21.4992 20.6486 21.3462 21.4705 21.2124 22.283C21.1646 22.522 21.0595 22.6176 20.8205 22.6176C19.9889 22.6176 19.1574 22.6176 18.3353 22.6749C18.194 22.6889 18.0636 22.7574 17.9721 22.866C17.4655 23.4873 17.0163 24.1278 16.4906 24.7777C16.4636 24.8301 16.4254 24.8759 16.3788 24.9118C16.3322 24.9477 16.2783 24.973 16.2208 24.9858C16.1634 24.9985 16.1038 24.9985 16.0463 24.9857C15.9889 24.9729 15.935 24.9475 15.8884 24.9116C15.181 24.5483 14.4642 24.1851 13.7377 23.8506C13.6652 23.8196 13.5872 23.8036 13.5083 23.8036C13.4295 23.8036 13.3514 23.8196 13.2789 23.8506C12.5334 24.1692 11.7974 24.5038 11.0709 24.8543C11.0268 24.8844 10.9767 24.9047 10.9241 24.9138C10.8714 24.9229 10.8174 24.9205 10.7657 24.9069C10.7141 24.8933 10.666 24.8689 10.6246 24.835C10.5833 24.8012 10.5496 24.7588 10.5261 24.7109C10.0577 24.0418 9.57026 23.3919 9.11145 22.7323C9.06524 22.6635 9.00253 22.6074 8.92908 22.569C8.85562 22.5306 8.77375 22.5111 8.69088 22.5124C7.89752 22.5124 7.10417 22.4168 6.30126 22.3881C6.01451 22.3881 5.88071 22.2735 5.84247 21.9676C5.74689 21.1743 5.6226 20.3905 5.51746 19.5971C5.51271 19.5149 5.48635 19.4353 5.44103 19.3665C5.39572 19.2976 5.33305 19.2421 5.25936 19.2052L3.28076 18.0295C2.94621 17.7906 2.94621 17.7906 3.04179 17.4273Z" fill="url(#paint1_linear_83_1395)"/>
<path d="M15.5444 10.899H15.6305C16.5863 10.8321 16.5863 10.8321 16.787 11.7306C16.9877 12.6291 17.3032 13.8238 17.5708 14.8657C17.5708 14.9613 17.6377 15.0569 17.6855 15.2289C18.0774 13.8525 18.4502 12.5526 18.7943 11.2527C18.8708 10.9659 18.9759 10.8512 19.2722 10.8799C19.5173 10.8945 19.7631 10.8945 20.0082 10.8799L21.1743 15.2576L21.8339 12.6482C21.9582 12.1511 22.1016 11.6923 22.2067 11.157C22.2067 10.9276 22.3501 10.8608 22.5699 10.8703C22.7898 10.8799 23.0669 10.8703 23.3728 10.8703L21.7669 16.5289C20.7442 16.6531 20.7442 16.6532 20.4861 15.7355C20.1707 14.6076 19.8458 13.4893 19.4539 12.3518L18.2017 16.5289H18.1348C17.112 16.6149 17.1121 16.6149 16.8349 15.573C16.4047 14.0532 15.9841 12.4762 15.5444 10.899Z" fill="white"/>
<path d="M5.12577 12.476V16.5193H4.16992V10.8511C4.48827 10.8326 4.80742 10.8326 5.12577 10.8511C5.26701 10.9002 5.38577 10.9987 5.46029 11.1283C6.2632 12.2944 7.05654 13.4796 7.84034 14.6553L8.09843 15.009V10.8511H9.05428V16.5861C8.73591 16.6039 8.4168 16.6039 8.09843 16.5861C7.98373 16.5861 7.86902 16.4332 7.79256 16.3281L5.43159 12.8296L5.21176 12.5142L5.12577 12.476Z" fill="white"/>
<path d="M11.5966 15.6878H14.7892V16.5098H10.593V10.8512H14.8083V11.6828H11.6158V12.954H14.5598V13.7761H11.6158L11.5966 15.6878Z" fill="white"/>
<defs>
<linearGradient id="paint0_linear_83_1395" x1="19.8553" y1="-8.69595" x2="4.3133" y2="47.6033" gradientUnits="userSpaceOnUse">
<stop offset="0.13" stop-color="#71D800"/>
<stop offset="0.86" stop-color="#1A7035"/>
</linearGradient>
<linearGradient id="paint1_linear_83_1395" x1="31.0003" y1="-8.15319" x2="2.13741" y2="28.6242" gradientUnits="userSpaceOnUse">
<stop offset="0.11" stop-color="#71D800" stop-opacity="0.5"/>
<stop offset="0.86" stop-color="#1A7035"/>
</linearGradient>
</defs>
</svg>
