<svg width="28" height="21" viewBox="0 0 28 21" fill="none" xmlns="http://www.w3.org/2000/svg">
<path d="M14.3885 14.7671C12.9839 11.845 11.5761 8.91666 10.1653 5.98202C10.0646 5.74188 9.91524 5.52523 9.72655 5.34582C9.53785 5.1664 9.31395 5.02812 9.06904 4.9397C8.82414 4.85129 8.56351 4.81472 8.30372 4.83223C8.04394 4.84975 7.79064 4.92095 7.55982 5.04143C5.64102 5.95067 3.72851 6.87251 1.82225 7.80682C1.58335 7.90759 1.36787 8.05662 1.18931 8.24462C1.01076 8.43263 0.87296 8.65543 0.784638 8.8992C0.696315 9.14297 0.659331 9.40239 0.67602 9.66113C0.692709 9.91987 0.762752 10.1723 0.881659 10.4027C2.29254 13.3437 3.70966 16.2846 5.13308 19.2255C5.22653 19.4635 5.36923 19.6791 5.55177 19.8581C5.7343 20.0371 5.95258 20.1755 6.19233 20.2643C6.43209 20.3531 6.68791 20.3902 6.94301 20.3733C7.19812 20.3564 7.44676 20.2858 7.67268 20.1661C9.62911 19.2255 11.5667 18.2849 13.5138 17.3443C13.8367 17.2008 14.1104 16.9656 14.301 16.668C14.4916 16.3704 14.5907 16.0235 14.586 15.6701C14.594 15.3576 14.5262 15.0477 14.3885 14.7671ZM7.99251 5.7657L9.35632 6.26424C9.35632 6.26424 9.01773 7.20478 8.84842 7.61864L7.49397 7.10138C7.53159 7.01673 7.99251 5.7657 7.99251 5.7657ZM8.78257 15.0117L5.17074 13.6573L6.49695 10.083L10.137 11.4187C10.137 11.4187 9.23405 13.8359 8.78257 15.0117Z" fill="url(#paint0_linear_83_1412)"/>
<path d="M15.1593 12.0017C15.1593 9.61265 15.1279 7.22356 15.0652 4.83447C15.0811 4.58069 15.0437 4.32642 14.9555 4.08792C14.8674 3.84942 14.7303 3.63197 14.5532 3.44953C14.3761 3.2671 14.1628 3.12367 13.927 3.0285C13.6912 2.93332 13.4381 2.88844 13.184 2.8968C11.0113 2.8968 8.82908 2.89687 6.65632 2.97212C6.41835 2.96204 6.18077 2.99906 5.9572 3.0812C5.73363 3.16333 5.52851 3.28894 5.35366 3.45068C5.17881 3.61242 5.03764 3.80712 4.93836 4.02362C4.83908 4.24013 4.78362 4.47415 4.77515 4.71219L5.06673 4.58049C5.74395 4.26069 6.4118 3.91267 7.09843 3.6399C7.83865 3.32886 8.66734 3.30077 9.42694 3.56091C10.1865 3.82104 10.8241 4.35126 11.2182 5.05078C11.8202 6.17949 12.3469 7.35528 12.9113 8.5122L15.0558 12.9518C15.1592 12.6131 15.1687 12.3027 15.1593 12.0017ZM13.9835 5.7374H12.8454V5.55874L13.1652 5.21073L13.3816 4.94733C13.4309 4.88526 13.4749 4.81922 13.5133 4.74985C13.5442 4.69949 13.5694 4.64582 13.5885 4.5899C13.593 4.5367 13.593 4.48317 13.5885 4.42996C13.5926 4.35962 13.5727 4.29 13.532 4.23248C13.5117 4.20457 13.4846 4.18216 13.4534 4.16737C13.4222 4.15259 13.3878 4.14593 13.3533 4.14786H13.231H13.137L13.2028 4.25131C13.2066 4.26993 13.2066 4.28906 13.2028 4.30768C13.2104 4.32388 13.2143 4.34159 13.2143 4.35947C13.2143 4.37734 13.2104 4.39494 13.2028 4.41113C13.1576 4.42944 13.107 4.42944 13.0617 4.41113C13.0312 4.41373 13.0004 4.41016 12.9713 4.40046C12.9421 4.39075 12.9153 4.37518 12.8924 4.35476C12.8805 4.30849 12.8805 4.25992 12.8924 4.21365C12.8933 4.17961 12.9013 4.14614 12.9159 4.11536C12.9305 4.08459 12.9513 4.05724 12.9771 4.03499C13.0299 3.96772 13.1021 3.91841 13.184 3.89388C13.2796 3.85538 13.3819 3.83614 13.485 3.83739C13.5882 3.8351 13.6907 3.85437 13.786 3.89388C13.8637 3.93543 13.9287 3.99711 13.9741 4.07253C14.0243 4.15114 14.0504 4.24269 14.0494 4.33593C14.0472 4.40126 14.0312 4.46534 14.0023 4.524C13.9705 4.6028 13.9261 4.67597 13.8707 4.74043C13.7978 4.83873 13.7159 4.92997 13.6261 5.01312C13.5321 5.11659 13.4098 5.22946 13.2593 5.37055H13.7296H13.7954C13.799 5.3456 13.799 5.3203 13.7954 5.29535C13.8189 5.24706 13.8378 5.19664 13.8519 5.14482H14.04L13.9835 5.7374Z" fill="url(#paint1_linear_83_1412)"/>
<path d="M19.1381 3.31079C17.1628 2.40783 15.1845 1.51744 13.2029 0.639552C12.8243 0.45389 12.3928 0.405774 11.9826 0.503608C11.5724 0.601441 11.209 0.839068 10.9549 1.17564C10.8985 1.25088 10.8138 1.32613 10.8232 1.41078H13.0807C13.3553 1.40782 13.6295 1.433 13.899 1.48599C14.6482 1.64208 15.3205 2.05217 15.8021 2.64691C16.2837 3.24166 16.5451 3.98463 16.542 4.74992C16.542 7.57169 16.6173 10.3934 16.6549 13.2904C16.6549 13.2904 16.7113 13.234 16.7113 13.2152C17.8306 10.7415 18.9593 8.2677 20.0598 5.78455C20.1718 5.56329 20.2368 5.32119 20.2506 5.07359C20.2645 4.826 20.227 4.57825 20.1404 4.34588C20.0538 4.1135 19.9201 3.90159 19.7476 3.72345C19.5751 3.5453 19.3675 3.40481 19.1381 3.31079ZM19.392 4.95682C19.3517 5.04403 19.2817 5.11402 19.1945 5.15431C19.0932 5.18436 18.9854 5.18436 18.8841 5.15431C18.9468 5.19692 19.0037 5.24755 19.0534 5.30484C19.0918 5.36133 19.1175 5.42548 19.1286 5.49291C19.1512 5.56647 19.1512 5.64508 19.1286 5.71864C19.0892 5.81343 19.0198 5.8927 18.9311 5.94437C18.841 5.99049 18.7407 6.0132 18.6395 6.01028C18.5288 6.00788 18.4199 5.98217 18.3198 5.93496C18.2471 5.90223 18.1804 5.85784 18.1222 5.80338C18.0737 5.76004 18.0324 5.7092 17.9999 5.65285C17.9656 5.60784 17.9402 5.55676 17.9247 5.50232C17.9209 5.46166 17.9209 5.42071 17.9247 5.38004L18.1316 5.31425C18.1404 5.36762 18.1596 5.41867 18.1881 5.46466C18.2116 5.51366 18.2434 5.55823 18.2822 5.59636C18.3221 5.63293 18.3662 5.66461 18.4138 5.69051C18.469 5.70726 18.5279 5.70726 18.5831 5.69051C18.626 5.7036 18.6719 5.7036 18.7148 5.69051C18.7562 5.65861 18.7887 5.61647 18.8089 5.56823C18.832 5.52819 18.8441 5.48276 18.8441 5.43653C18.8441 5.3903 18.832 5.34487 18.8089 5.30484C18.7334 5.21578 18.6362 5.14777 18.5267 5.10735L18.6113 4.95682C18.7181 4.99267 18.8337 4.99267 18.9405 4.95682C18.9806 4.94028 19.017 4.91596 19.0477 4.88529C19.0784 4.85462 19.1027 4.81814 19.1192 4.77805C19.1454 4.71156 19.1454 4.63764 19.1192 4.57115C19.1079 4.5411 19.0903 4.51383 19.0676 4.49112C19.0449 4.46841 19.0176 4.45077 18.9876 4.43945H18.8747H18.7618C18.7655 4.48013 18.7655 4.52106 18.7618 4.56173C18.7618 4.56173 18.7618 4.5618 18.7618 4.62764C18.742 4.65868 18.7121 4.68188 18.6772 4.69343C18.6253 4.71065 18.5692 4.71065 18.5173 4.69343C18.49 4.68373 18.4654 4.66754 18.4457 4.64624C18.426 4.62494 18.4119 4.59916 18.4044 4.57115C18.3928 4.54776 18.3868 4.52205 18.3868 4.49594C18.3868 4.46984 18.3928 4.44401 18.4044 4.42062C18.4161 4.38925 18.4349 4.36103 18.4594 4.33818C18.4839 4.31533 18.5134 4.29846 18.5455 4.28893C18.6257 4.26862 18.7098 4.26862 18.79 4.28893C18.8979 4.29727 19.0033 4.32608 19.1005 4.37366C19.189 4.41021 19.2691 4.46458 19.3356 4.53349C19.3912 4.59467 19.4301 4.66929 19.4485 4.74992C19.4618 4.8193 19.4552 4.89098 19.4296 4.95682H19.392Z" fill="url(#paint2_linear_83_1412)"/>
<path d="M22.468 7.62808L22.8066 8.02314L23.371 7.54343V7.53403L22.468 7.62808Z" fill="url(#paint3_linear_83_1412)"/>
<path d="M24.321 6.15152L20.173 1.32629C19.9315 1.02075 19.6038 0.794612 19.2324 0.677228C18.9618 0.599376 18.6766 0.586981 18.4002 0.640946C18.1239 0.69491 17.8643 0.813763 17.6428 0.987696C18.4423 1.35453 19.2136 1.67433 19.9661 2.05057C20.7043 2.42227 21.2751 3.05872 21.5645 3.83289C21.854 4.60705 21.8407 5.4619 21.5275 6.22673C21.2077 6.99801 20.8503 7.75052 20.5117 8.50299L17.9721 14.1465C18.0661 14.1465 18.1037 14.1465 18.1414 14.0806C20.1542 12.3499 22.164 10.6161 24.1706 8.87914C24.3656 8.71384 24.5249 8.51055 24.6387 8.28162C24.7525 8.0527 24.8185 7.80298 24.8326 7.54771C24.8467 7.29243 24.8086 7.03697 24.7207 6.79691C24.6327 6.55685 24.4967 6.33727 24.321 6.15152ZM23.2017 8.48416L23.0324 8.63469L22.8631 8.43709L22.7597 8.53112C22.7475 8.53601 22.737 8.54445 22.7296 8.55535C22.7222 8.56625 22.7182 8.57916 22.7182 8.59232C22.7182 8.60548 22.7222 8.61828 22.7296 8.62918C22.737 8.64007 22.7475 8.64852 22.7597 8.6534L22.8255 8.77568L22.7126 8.86983L22.1483 8.20194L22.2517 8.11732L22.4211 8.25843C22.4426 8.26445 22.4653 8.26445 22.4869 8.25843H22.5527L22.6562 8.17369L22.1671 7.59995L22.2706 7.46825L23.6814 7.30843L23.8978 7.4965V7.57182L23.0512 8.29598L23.2017 8.48416Z" fill="url(#paint4_linear_83_1412)"/>
<path d="M27.7824 10.9484C27.1993 8.9073 26.6067 6.87563 26.0141 4.83455C25.9142 4.44647 25.6975 4.09839 25.3933 3.83747C25.1792 3.65276 24.9243 3.52148 24.6496 3.45444C24.3749 3.3874 24.0883 3.3866 23.8132 3.45191C24.3964 4.11973 24.9606 4.74046 25.4873 5.38947C26.0042 6.03498 26.2585 6.85181 26.1992 7.67664C26.1399 8.50146 25.7715 9.27348 25.1676 9.83843C24.5656 10.4028 23.926 10.9389 23.2864 11.4845L18.6399 15.5479C18.7151 15.6043 18.7622 15.5479 18.8186 15.5479L26.4656 13.3375C26.7125 13.2729 26.9436 13.1587 27.145 13.0019C27.3463 12.8451 27.5138 12.6491 27.637 12.4256C27.7602 12.2021 27.8365 11.9559 27.8616 11.7019C27.8866 11.448 27.8597 11.1916 27.7824 10.9484ZM26.6819 12.0395H26.4844L26.2305 11.3904L25.8261 11.5033C25.8673 11.5378 25.9023 11.5792 25.9295 11.6256C25.9614 11.6769 25.9896 11.7303 26.0141 11.7855C26.0366 11.8814 26.0366 11.9811 26.0141 12.077C26.0037 12.1639 25.9677 12.2458 25.9107 12.3122C25.849 12.3888 25.7677 12.4473 25.6755 12.4815C25.5591 12.5171 25.4346 12.5171 25.3181 12.4815C25.2115 12.4657 25.1126 12.4162 25.0359 12.3404C24.9469 12.2573 24.8792 12.1542 24.8384 12.0395C24.8142 11.9343 24.8142 11.8248 24.8384 11.7196C24.8451 11.5984 24.8914 11.4828 24.9701 11.3904L25.1582 11.475C25.1152 11.5567 25.0896 11.6464 25.083 11.7384C25.0724 11.8039 25.0724 11.8705 25.083 11.9359C25.0959 11.9751 25.1169 12.0112 25.1444 12.0419C25.1719 12.0726 25.2054 12.0975 25.2429 12.1147C25.3277 12.1473 25.4214 12.1473 25.5062 12.1147C25.5497 12.103 25.59 12.0818 25.6242 12.0525C25.6584 12.0232 25.6856 11.9865 25.7038 11.9453C25.7221 11.9072 25.7316 11.8654 25.7316 11.8231C25.7316 11.7807 25.7221 11.7389 25.7038 11.7008L25.6379 11.5785C25.6013 11.5278 25.5568 11.4835 25.5062 11.4469L25.5721 11.287L26.3904 11.0612L26.7384 12.0018L26.6819 12.0395Z" fill="url(#paint5_linear_83_1412)"/>
<path d="M7.24938 14.438L5.17071 13.6573C5.27418 13.4128 6.50633 10.0924 6.50633 10.0924L7.91721 10.6098L8.45336 7.46816L7.51277 7.11073L8.02067 5.76575L8.72611 6.02914L8.91424 4.90037C8.46263 4.80561 7.9923 4.86528 7.57862 5.06972L1.84099 7.835C1.60209 7.93576 1.38661 8.08491 1.20806 8.27291C1.0295 8.46092 0.891759 8.68372 0.803436 8.92749C0.715114 9.17126 0.67813 9.43068 0.694819 9.68942C0.711508 9.94816 0.781493 10.2006 0.9004 10.431C2.31128 13.3719 3.72846 16.3129 5.15188 19.2538C5.36652 19.719 5.74977 20.0854 6.22417 20.279L7.24938 14.438Z" fill="url(#paint6_linear_83_1412)"/>
<defs>
<linearGradient id="paint0_linear_83_1412" x1="9.89245" y1="20.8339" x2="4.76628" y2="1.94694" gradientUnits="userSpaceOnUse">
<stop offset="0.21" stop-color="#960E3B"/>
<stop offset="0.81" stop-color="#FF0052"/>
</linearGradient>
<linearGradient id="paint1_linear_83_1412" x1="11.792" y1="18.6612" x2="8.02957" y2="-9.85766" gradientUnits="userSpaceOnUse">
<stop stop-color="#50BC3B"/>
<stop offset="0.08" stop-color="#4AB84A"/>
<stop offset="0.37" stop-color="#36A980"/>
<stop offset="0.63" stop-color="#279FA6"/>
<stop offset="0.84" stop-color="#1E98BE"/>
<stop offset="0.96" stop-color="#1B96C7"/>
</linearGradient>
<linearGradient id="paint2_linear_83_1412" x1="13.7861" y1="14.231" x2="16.6549" y2="-3.77187" gradientUnits="userSpaceOnUse">
<stop offset="0.31" stop-color="#27A8D5"/>
<stop offset="0.42" stop-color="#27A5D5" stop-opacity="0.99"/>
<stop offset="0.54" stop-color="#289BD5" stop-opacity="0.94"/>
<stop offset="0.66" stop-color="#288BD5" stop-opacity="0.88"/>
<stop offset="0.79" stop-color="#2A75D5" stop-opacity="0.78"/>
<stop offset="0.92" stop-color="#2B59D5" stop-opacity="0.66"/>
<stop offset="0.93" stop-color="#2B57D5" stop-opacity="0.65"/>
</linearGradient>
<linearGradient id="paint3_linear_83_1412" x1="16.373" y1="29.0925" x2="24.2553" y2="3.20732" gradientUnits="userSpaceOnUse">
<stop offset="0.02" stop-color="#9A06D5"/>
<stop offset="0.31" stop-color="#8221E0"/>
<stop offset="0.93" stop-color="#4467FC"/>
<stop offset="1" stop-color="#3C70FF"/>
</linearGradient>
<linearGradient id="paint4_linear_83_1412" x1="13.9087" y1="28.34" x2="21.7814" y2="2.45497" gradientUnits="userSpaceOnUse">
<stop offset="0.02" stop-color="#9A06D5"/>
<stop offset="0.31" stop-color="#8221E0"/>
<stop offset="0.93" stop-color="#4467FC"/>
<stop offset="1" stop-color="#3C70FF"/>
</linearGradient>
<linearGradient id="paint5_linear_83_1412" x1="22.1765" y1="17.2692" x2="29.4285" y2="-6.73474" gradientUnits="userSpaceOnUse">
<stop offset="0.02" stop-color="#9A06D5"/>
<stop offset="0.31" stop-color="#8221E0"/>
<stop offset="0.93" stop-color="#4467FC"/>
<stop offset="1" stop-color="#3C70FF"/>
</linearGradient>
<linearGradient id="paint6_linear_83_1412" x1="44.3933" y1="12.5662" x2="44.8636" y2="12.5662" gradientUnits="userSpaceOnUse">
<stop offset="0.24" stop-color="#FF0070"/>
<stop offset="0.81" stop-color="#FF3CA1"/>
</linearGradient>
</defs>
</svg>
