<svg width="26" height="25" viewBox="0 0 26 25" fill="none" xmlns="http://www.w3.org/2000/svg">
<path d="M13.0124 0.153564C10.5717 0.153564 8.18596 0.877218 6.15666 2.23315C4.12735 3.58909 2.54572 5.5164 1.61174 7.77124C0.67775 10.0261 0.433323 12.5073 0.909465 14.901C1.38561 17.2947 2.56088 19.4935 4.28666 21.2192C6.01244 22.945 8.2113 24.1203 10.605 24.5964C12.9987 25.0726 15.4798 24.8281 17.7347 23.8942C19.9895 22.9602 21.9168 21.3785 23.2727 19.3492C24.6287 17.3199 25.3523 14.9342 25.3523 12.4935C25.3497 9.22157 24.0488 6.08438 21.7351 3.77075C19.4215 1.45713 16.2843 0.156213 13.0124 0.153564ZM22.3623 5.15356C23.0471 6.01158 23.603 6.96492 24.0124 7.98352L22.3724 8.93347C21.9891 7.90141 21.4346 6.94133 20.7323 6.09351L22.3623 5.15356ZM11.3623 0.703491C12.4502 0.548541 13.5545 0.548541 14.6424 0.703491C14.6424 1.32349 14.6424 1.94347 14.6424 2.55347C14.1134 2.46586 13.5785 2.41917 13.0424 2.41357C12.4787 2.41632 11.9164 2.46978 11.3623 2.57349C11.3423 2.01349 11.3423 1.38353 11.3523 0.74353L11.3623 0.703491ZM3.6724 5.15356L5.30241 6.09351C4.6001 6.94133 4.04566 7.90141 3.66239 8.93347L2.02238 7.98352C2.4321 6.97953 2.98446 6.03982 3.66239 5.19348L3.6724 5.15356ZM3.6724 19.6935C2.98362 18.8383 2.42117 17.8886 2.00236 16.8735L3.61235 15.8735C3.99189 16.9062 4.53924 17.8691 5.23234 18.7235L3.6724 19.6935ZM14.5923 24.2035C13.5048 24.3634 12.3999 24.3634 11.3124 24.2035C11.3124 23.5835 11.3124 22.9635 11.3124 22.3435C11.8606 22.4396 12.4158 22.4898 12.9723 22.4935C13.5151 22.4875 14.0566 22.4407 14.5923 22.3535C14.6223 22.9835 14.6123 23.6135 14.6123 24.2435L14.5923 24.2035ZM12.9924 21.9136C11.1213 21.9136 9.29242 21.3587 7.73674 20.3192C6.18105 19.2797 4.96849 17.8023 4.25248 16.0737C3.53648 14.3451 3.34914 12.443 3.71415 10.6079C4.07917 8.77285 4.98014 7.08729 6.30314 5.76428C7.62615 4.44128 9.31171 3.54031 11.1468 3.17529C12.9818 2.81028 14.884 2.99762 16.6126 3.71362C18.3412 4.42963 19.8186 5.64219 20.8581 7.19788C21.8976 8.75356 22.4524 10.5825 22.4524 12.4535C22.4577 13.6975 22.2174 14.9304 21.7456 16.0814C21.2738 17.2325 20.5796 18.2791 19.7028 19.1615C18.826 20.0439 17.7837 20.7448 16.6357 21.2239C15.4876 21.703 14.2564 21.9509 13.0124 21.9535L12.9924 21.9136ZM20.7624 18.7535C21.4555 17.8991 22.0028 16.9362 22.3824 15.9036L24.0024 16.9036C23.562 17.9114 22.9794 18.8509 22.2724 19.6935L20.7624 18.7535Z" fill="url(#paint0_linear_83_1366)"/>
<path d="M4.03285 15.4037C3.71975 14.4652 3.55775 13.483 3.55287 12.4937C3.55467 10.2818 4.33217 8.14067 5.75014 6.44313C7.16811 4.74559 9.13669 3.59919 11.3129 3.20363L11.6629 2.59365H11.3229C11.3229 1.96365 11.3229 1.33362 11.3229 0.693621C11.7999 0.625643 12.2811 0.592247 12.7628 0.593646L12.9928 0.213641L13.2128 0.603656C13.6782 0.613849 14.1425 0.653927 14.6028 0.723651C14.6028 1.34365 14.6028 1.96363 14.6028 2.57363H14.3528L14.7029 3.18361C16.3779 3.48952 17.9392 4.24196 19.2223 5.36135C20.5054 6.48073 21.4625 7.92566 21.9928 9.54372L24.7328 8.64369C24.2312 7.10395 23.4311 5.6781 22.3784 4.44753C21.3257 3.21696 20.041 2.20574 18.5976 1.4717C17.1541 0.73765 15.5801 0.295102 13.9656 0.169329C12.3511 0.0435567 10.7276 0.237016 9.18788 0.738665C7.64814 1.24031 6.22229 2.04034 4.99172 3.09304C3.76115 4.14574 2.74993 5.43055 2.01589 6.87404C1.28184 8.31753 0.839291 9.89136 0.713519 11.5059C0.587746 13.1204 0.781205 14.744 1.28285 16.2837L4.03285 15.4037ZM22.3528 5.19362C23.0376 6.05164 23.5935 7.0051 24.0028 8.0237L22.3628 8.97365C21.9792 7.94385 21.4285 6.98436 20.7328 6.13368L22.3528 5.19362ZM5.28285 6.13368C4.58717 6.98436 4.03645 7.94385 3.65285 8.97365L2.00283 8.0237C2.41219 7.0051 2.96807 6.05164 3.65285 5.19362L5.28285 6.13368Z" fill="url(#paint1_linear_83_1366)"/>
<path d="M8.57275 8.03357C9.8188 7.53492 10.9119 6.71764 11.7427 5.66357H14.9727V15.9236H16.6527V18.3335H9.40271V15.9236H11.2126V9.19348L9.40271 10.0436L8.57275 8.03357Z" fill="url(#paint2_linear_83_1366)"/>
<path d="M11.2126 9.19348V12.3936L14.9727 11.1736V5.66357H11.7427C10.9119 6.71764 9.8188 7.53492 8.57275 8.03357L9.40271 10.0336L11.2126 9.19348Z" fill="url(#paint3_linear_83_1366)"/>
<defs>
<linearGradient id="paint0_linear_83_1366" x1="4.23236" y1="44.8135" x2="19.6423" y2="-11.8864" gradientUnits="userSpaceOnUse">
<stop offset="0.14" stop-color="#FFF423"/>
<stop offset="1" stop-color="#F88E13"/>
</linearGradient>
<linearGradient id="paint1_linear_83_1366" x1="12.7028" y1="26.6837" x2="12.7028" y2="-3.32634" gradientUnits="userSpaceOnUse">
<stop offset="0.14" stop-color="#FFE222"/>
<stop offset="0.61" stop-color="#FFFF89"/>
</linearGradient>
<linearGradient id="paint2_linear_83_1366" x1="12.6127" y1="25.6735" x2="12.6127" y2="-0.12639" gradientUnits="userSpaceOnUse">
<stop offset="0.14" stop-color="#FFF423"/>
<stop offset="1" stop-color="#F88E13"/>
</linearGradient>
<linearGradient id="paint3_linear_83_1366" x1="11.7727" y1="16.2935" x2="11.7727" y2="2.58358" gradientUnits="userSpaceOnUse">
<stop offset="0.14" stop-color="#FFE222"/>
<stop offset="0.61" stop-color="#FFFF89"/>
</linearGradient>
</defs>
</svg>
