<svg width="1211" height="128" viewBox="0 0 1211 128" fill="none" xmlns="http://www.w3.org/2000/svg">
<rect width="54.4908" height="54.337" rx="15.7472" transform="matrix(0.827622 0.561287 -0.567273 0.82353 961.824 71.4419)" fill="#F5B300"/>
<path d="M969.363 91.6487C970.037 92.4344 970.762 93.1454 971.436 93.931C972.11 94.7167 972.835 95.4277 973.509 96.2134C973.683 96.4413 973.81 96.4176 974.039 96.2446C975.215 95.179 976.34 94.188 977.515 93.1224C977.745 92.9494 977.872 92.9257 978.046 93.1536C978.645 93.8882 979.219 94.4971 979.869 95.1571C980.044 95.3849 979.992 95.4596 979.814 95.558C978.69 96.5489 977.514 97.6145 976.389 98.6055C976.338 98.6802 976.286 98.7549 976.108 98.8532C976.608 99.411 977.182 100.02 977.682 100.578C977.757 100.629 977.935 100.53 978.062 100.507C978.957 99.6889 979.8 98.9457 980.77 98.1789C981.051 97.9311 981.332 97.6834 981.613 97.4357C981.716 97.2863 981.843 97.2626 981.942 97.4394C982.54 98.1741 983.19 98.834 983.864 99.6197C983.939 99.6708 983.888 99.7455 983.963 99.7965C983.068 100.614 982.225 101.358 981.382 102.101C981.049 102.423 980.717 102.746 980.309 103.017C980.079 103.19 980.103 103.316 980.277 103.544C980.848 104.479 981.419 105.414 981.99 106.349C982.434 107.308 982.7 108.365 982.712 109.469C982.618 111.049 981.87 112.295 980.746 113.286C979.954 113.955 979.138 114.497 978.124 114.687C977.364 114.828 976.556 114.719 975.799 114.534C975.724 114.483 975.597 114.507 975.447 114.405C975.593 114.833 975.792 115.187 975.938 115.615C976.379 116.9 976.415 118.13 975.996 119.38C975.58 120.304 974.887 121.149 974.096 121.818C973.074 122.659 972.08 123.3 970.837 123.663C969.34 124.072 967.926 123.88 966.618 123.213C964.883 122.365 963.48 121.194 962.129 119.949C961.955 119.721 961.753 119.694 961.523 119.867C960.399 120.858 959.223 121.923 958.098 122.914C957.817 123.162 957.766 123.237 957.492 122.832C956.918 122.223 956.319 121.488 955.745 120.88C955.57 120.652 955.622 120.577 955.8 120.479C956.976 119.413 958.152 118.347 959.351 117.408C959.454 117.258 959.581 117.234 959.482 117.058C958.983 116.5 958.483 115.942 957.909 115.333C957.295 115.903 956.606 116.422 955.992 116.993C955.379 117.563 954.69 118.082 954.076 118.652C953.898 118.75 953.847 118.825 953.672 118.597C953.074 117.863 952.424 117.203 951.774 116.543C951.6 116.315 951.651 116.24 951.829 116.142C953.005 115.076 954.181 114.01 955.38 113.071C955.432 112.996 955.559 112.972 955.662 112.823C954.239 111.2 952.816 109.578 951.318 107.904C951.674 107.708 951.904 107.535 952.26 107.338C953.025 106.87 953.789 106.402 954.426 105.958C954.656 105.785 954.731 105.836 954.957 105.989C955.381 106.496 955.881 107.053 956.356 107.485C956.855 108.043 957.513 108.051 957.948 107.579C961.551 104.433 965.154 101.287 968.733 98.0157C969.295 97.5203 969.382 96.5927 968.859 95.9091C968.335 95.2256 967.761 94.6167 967.261 94.0588C967.111 93.9567 967.087 93.831 967.265 93.7326C968.057 93.0641 968.9 92.3209 969.692 91.6524C969.237 91.6723 969.237 91.6723 969.363 91.6487ZM960.494 112.703C960.569 112.754 960.593 112.879 960.593 112.879C961.591 113.995 962.614 115.237 963.842 116.179C964.694 116.866 965.522 117.428 966.556 117.691C968.295 118.213 970.184 116.754 970.179 114.997C970.214 114.144 969.869 113.362 969.524 112.58C968.684 110.914 967.309 109.543 966.009 108.224C965.835 107.996 965.783 108.07 965.553 108.243C964.888 108.888 964.199 109.407 963.534 110.052C962.513 110.894 961.567 111.786 960.494 112.703ZM972.066 109.372C972.216 109.474 972.644 109.655 972.997 109.784C974.633 110.456 976.517 109.323 976.639 107.542C976.726 106.615 976.357 105.707 975.886 104.949C975.14 103.786 974.241 102.847 973.317 101.782C973.143 101.555 973.016 101.578 972.787 101.751C971.33 103.065 969.924 104.303 968.392 105.566C968.214 105.664 968.238 105.79 968.337 105.967C968.586 106.245 968.761 106.473 969.01 106.752C970.037 107.667 970.861 108.555 972.066 109.372Z" fill="white"/>
<rect width="52.3306" height="52.2432" rx="17.4967" transform="matrix(0.78177 -0.623566 0.62949 0.777009 62 21.7169)" fill="#E9E9E9"/>
<g clip-path="url(#clip0_25_151)">
<path d="M86.6452 10.4517L86.978 11.2697L102.45 30.3678L102.807 30.4012L107.738 17.8418L86.6452 10.4517Z" fill="#343434"/>
<path d="M86.6457 10.4514L89.3862 32.48L102.808 30.401L95.298 21.1314L86.6457 10.4514Z" fill="#8C8C8C"/>
<path d="M104.168 32.0796L104.162 32.3027L109.674 39.1059L110.045 39.3345L109.106 19.5184L104.168 32.0796Z" fill="#3C3C3B"/>
<path d="M110.045 39.3344L104.168 32.0795L90.7482 34.1612L110.045 39.3344Z" fill="#8C8C8C"/>
<path d="M102.808 30.4013L107.738 17.8421L95.2979 21.1318L102.808 30.4013Z" fill="#141414"/>
<path d="M89.3864 32.4801L102.808 30.4011L95.298 21.1316L89.3864 32.4801Z" fill="#393939"/>
</g>
<rect x="1113" y="44.0647" width="71.2854" height="71.2854" rx="17.9527" transform="rotate(-30.3924 1113 44.0647)" fill="#50AF95"/>
<path d="M1151.52 38.9463C1156.28 36.1568 1160.84 33.4789 1165.6 30.6894C1165.98 30.4663 1166.28 30.5474 1166.4 30.74C1172.56 35.1511 1178.62 39.3694 1184.86 43.4761C1185.16 43.5572 1185.09 43.8615 1185.01 44.1657C1183.7 49.3382 1182.38 54.5106 1180.88 59.7946C1179.07 66.2957 1177.18 73.101 1175.37 79.6021C1175.1 80.0179 1175.1 80.0179 1174.8 79.9368C1168.24 78.3452 1161.68 76.7537 1155.01 74.9695C1149.85 73.5907 1144.51 72.3236 1139.35 70.9449C1139.05 70.8638 1138.94 70.6711 1138.82 70.4784C1138.35 66.6144 1138.17 62.8316 1137.7 58.9676C1137.33 55.2964 1137.08 51.8178 1136.72 48.1465C1136.68 47.6495 1136.76 47.3453 1137.33 47.0105C1142.2 44.4137 1146.65 41.5431 1151.52 38.9463ZM1154.76 44.0371C1151.34 46.0456 1147.72 48.1656 1144.3 50.174C1144.11 50.2856 1144.11 50.2856 1143.92 50.3972C1143.73 50.5088 1143.73 50.5088 1143.84 50.7014C1144.86 52.4356 1145.88 54.1697 1146.82 56.2081C1146.93 56.4008 1146.93 56.4008 1147.12 56.2892C1147.69 55.9545 1148.26 55.6197 1148.83 55.285C1150.73 54.1692 1152.64 53.0534 1154.54 51.9376C1154.73 51.826 1154.73 51.826 1154.92 51.7144C1155.11 51.6028 1155.22 51.7955 1155.34 51.9882C1155.79 52.7589 1156.35 53.7223 1156.81 54.4931C1156.92 54.6857 1156.92 54.6857 1156.84 54.99C1155.62 55.9637 1154.29 56.7448 1153.07 57.7185C1151.47 58.9154 1149.99 60.305 1148.8 61.7757C1148.16 62.4147 1147.81 63.1348 1147.47 63.8549C1147.23 64.7677 1147.69 65.5384 1148.48 65.589C1149.09 65.7512 1149.58 65.7208 1150.08 65.6903C1151.75 65.4873 1153.19 64.8989 1154.75 64.5032C1156.88 63.7728 1158.89 62.8497 1160.91 61.9265C1161.29 61.7034 1161.29 61.7034 1161.52 62.0887C1163.55 65.557 1165.7 69.2179 1167.73 72.6862C1167.96 73.0716 1167.96 73.0716 1168.34 72.8484C1170.05 71.8442 1171.95 70.7284 1173.66 69.7242C1174.24 69.3894 1174.24 69.3894 1173.9 68.8114C1172.2 65.9212 1170.62 63.2236 1168.92 60.3334C1168.47 59.5627 1168.02 58.792 1167.57 58.0212C1167.34 57.6359 1167.53 57.5243 1167.72 57.4127C1169.62 56.2969 1171.22 55.1 1172.9 53.5989C1174.31 52.5136 1175.41 51.3471 1176.41 49.988C1176.67 49.5722 1176.83 48.9637 1177.1 48.5478C1177.25 47.9393 1177.03 47.5539 1176.42 47.3917C1175.93 47.4222 1175.51 47.1484 1175.02 47.1789C1171.94 47.1691 1168.94 48.1532 1166.16 49.5226C1165.4 49.9689 1164.64 50.4152 1163.77 50.6689C1163.58 50.7805 1163.58 50.7805 1163.35 50.3951C1162.9 49.6244 1162.33 48.661 1161.88 47.8902C1161.77 47.6976 1161.66 47.5049 1162.04 47.2817C1162.61 46.947 1163.18 46.6122 1163.75 46.2775C1165.65 45.1617 1167.36 44.1575 1169.26 43.0417C1169.65 42.8185 1169.53 42.6259 1169.42 42.4332C1169.31 42.2405 1169.31 42.2405 1169.19 42.0478C1168.29 40.5064 1167.39 38.9649 1166.37 37.2308C1166.14 36.8454 1166.14 36.8454 1165.76 37.0686C1161.8 39.9087 1158.19 42.0287 1154.76 44.0371Z" fill="white"/>
<path d="M1162.4 59.2391C1161.07 60.0202 1159.93 60.6897 1158.48 61.278C1156.28 62.3127 1153.88 63.459 1151.34 63.9157C1150.84 63.9461 1150.35 63.9766 1149.67 64.1187C1148.87 64.0681 1148.64 63.6827 1149.1 63.1553C1149.64 62.3236 1150.28 61.6846 1150.93 61.0456C1152.23 59.7676 1153.64 58.6823 1155.24 57.4854C1155.81 57.1506 1156.45 56.5116 1157.02 56.1769C1157.22 56.0653 1157.41 55.9537 1157.63 56.3391C1158.31 57.4952 1158.87 58.4586 1159.55 59.6147C1159.78 60 1159.97 59.8885 1160.16 59.7769C1161.68 58.8842 1163.2 57.9916 1164.53 57.2105C1164.92 56.9874 1165.3 56.7642 1165.68 56.5411C1166.06 56.3179 1166.06 56.3179 1165.83 55.9325C1165.27 54.9691 1164.7 54.0057 1164.14 53.0423C1163.8 52.4643 1163.8 52.4643 1164.37 52.1295C1166.95 50.8717 1169.54 49.6138 1172.46 48.934C1172.96 48.9035 1173.64 48.7615 1174.14 48.731C1174.63 48.7005 1174.85 49.0859 1174.59 49.5017C1174.17 50.5261 1173.52 51.1651 1172.68 51.9157C1171 53.4168 1169.33 54.918 1167.42 56.0338C1165.9 56.9264 1164.11 58.2349 1162.4 59.2391Z" fill="white"/>
<path d="M2.11029 83.5423C0.944809 79.2805 3.45486 74.8808 7.71665 73.7153L35.5259 66.1103C39.7876 64.9448 44.1873 67.4549 45.3528 71.7167L52.9578 99.5259C54.1233 103.788 51.6133 108.187 47.3515 109.353L19.5423 116.958C15.2805 118.123 10.8808 115.613 9.71533 111.351L2.11029 83.5423Z" fill="#EF0027"/>
<path d="M33.0875 81.576L12.6036 83.3203L29.9298 106.34L39.4659 85.0051L33.0875 81.576ZM33.2064 83.2428L36.9658 85.2633L29.2104 88.9716L33.2064 83.2428ZM27.3565 89.1606L16.8062 84.3801L31.57 83.1224L27.3565 89.1606ZM27.0896 90.5901L28.8576 102.568L16.0926 85.605L27.0892 90.5888L27.0896 90.5901ZM28.555 90.8502L37.1442 86.7439L30.2322 102.204L28.555 90.8502Z" fill="white"/>
<defs>
<clipPath id="clip0_25_151">
<rect width="23.4824" height="37.1804" fill="white" transform="matrix(0.78177 -0.623566 0.62949 0.777009 77.4695 17.7706)"/>
</clipPath>
</defs>
</svg>
