<svg width="1390" height="128" viewBox="0 0 1390 128" fill="none" xmlns="http://www.w3.org/2000/svg">
<g filter="url(#filter0_f_25_150)">
<rect width="164.326" height="163.862" rx="47.4884" transform="matrix(0.827622 0.561287 -0.567273 0.82353 102.955 76.4031)" fill="#F5B300"/>
<path d="M125.692 137.34C127.723 139.709 129.91 141.854 131.942 144.223C133.974 146.592 136.161 148.737 138.192 151.106C138.718 151.793 139.1 151.722 139.793 151.2C143.339 147.986 146.73 144.998 150.275 141.784C150.968 141.263 151.35 141.191 151.876 141.878C153.681 144.094 155.414 145.93 157.374 147.92C157.899 148.607 157.744 148.833 157.207 149.129C153.816 152.118 150.27 155.331 146.879 158.319C146.724 158.545 146.569 158.77 146.032 159.067C147.538 160.749 149.27 162.585 150.776 164.267C151.003 164.421 151.541 164.125 151.923 164.053C154.621 161.587 157.164 159.346 160.089 157.033C160.937 156.286 161.785 155.539 162.633 154.792C162.943 154.341 163.325 154.27 163.624 154.803C165.429 157.019 167.389 159.009 169.42 161.378C169.647 161.532 169.492 161.757 169.719 161.911C167.021 164.378 164.478 166.619 161.935 168.86C160.932 169.833 159.929 170.805 158.699 171.623C158.007 172.145 158.078 172.524 158.604 173.212C160.326 176.032 162.047 178.851 163.769 181.671C165.108 184.563 165.91 187.75 165.947 191.081C165.663 195.845 163.407 199.603 160.016 202.592C157.629 204.608 155.169 206.244 152.111 206.815C149.818 207.243 147.381 206.912 145.1 206.356C144.873 206.202 144.49 206.273 144.036 205.965C144.479 207.257 145.077 208.323 145.519 209.615C146.847 213.49 146.956 217.2 145.692 220.969C144.439 223.755 142.35 226.304 139.962 228.32C136.882 230.858 133.885 232.791 130.135 233.883C125.62 235.118 121.356 234.54 117.413 232.527C112.18 229.969 107.95 226.439 103.875 222.684C103.349 221.997 102.74 221.915 102.048 222.436C98.6569 225.425 95.111 228.638 91.7203 231.627C90.8726 232.374 90.7174 232.599 89.8926 231.379C88.1598 229.542 86.3551 227.327 84.6222 225.491C84.0963 224.804 84.2515 224.578 84.7888 224.282C88.3348 221.068 91.8807 217.855 95.4985 215.02C95.8088 214.57 96.191 214.498 95.8921 213.965C94.3863 212.283 92.8804 210.601 91.1476 208.765C89.297 210.484 87.2195 212.049 85.3689 213.769C83.5184 215.488 81.4408 217.054 79.5903 218.773C79.0529 219.07 78.8977 219.295 78.3719 218.608C76.5671 216.392 74.6073 214.402 72.6474 212.412C72.1215 211.725 72.2766 211.5 72.814 211.203C76.3599 207.99 79.9058 204.776 83.5236 201.942C83.6788 201.716 84.061 201.645 84.3713 201.194C80.0808 196.302 75.7903 191.409 71.2728 186.362C72.3475 185.769 73.0401 185.247 74.1148 184.654C76.4194 183.243 78.724 181.831 80.6464 180.491C81.3389 179.969 81.5659 180.123 82.247 180.585C83.5258 182.113 85.0316 183.796 86.4656 185.099C87.9714 186.781 89.9542 186.804 91.2674 185.381C102.132 175.894 112.997 166.407 123.79 156.541C125.485 155.047 125.747 152.25 124.169 150.188C122.591 148.127 120.858 146.291 119.353 144.608C118.899 144.3 118.827 143.921 119.364 143.625C121.752 141.609 124.295 139.367 126.683 137.351C125.309 137.411 125.309 137.411 125.692 137.34ZM98.9434 200.832C99.1704 200.986 99.2423 201.365 99.2423 201.365C102.254 204.729 105.337 208.473 109.042 211.316C111.611 213.389 114.108 215.082 117.226 215.875C122.47 217.449 128.166 213.049 128.151 207.751C128.257 205.179 127.217 202.821 126.177 200.463C123.642 195.439 119.495 191.305 115.575 187.324C115.049 186.637 114.894 186.863 114.202 187.384C112.196 189.329 110.119 190.895 108.113 192.839C105.032 195.377 102.179 198.069 98.9434 200.832ZM133.84 190.788C134.294 191.096 135.585 191.641 136.648 192.031C141.582 194.056 147.266 190.639 147.633 185.27C147.895 182.473 146.783 179.736 145.36 177.449C143.113 173.942 140.4 171.111 137.615 167.9C137.089 167.213 136.707 167.284 136.015 167.806C131.621 171.767 127.383 175.502 122.762 179.309C122.225 179.606 122.297 179.985 122.595 180.518C123.348 181.359 123.874 182.046 124.627 182.887C127.722 185.647 130.208 188.325 133.84 190.788Z" fill="white"/>
</g>
<g filter="url(#filter1_f_25_150)">
<rect width="146.576" height="145.86" rx="48.9287" transform="matrix(0.903898 0.427749 -0.433207 0.901294 1245.19 -128.992)" fill="#E9E9E9"/>
<g clip-path="url(#clip0_25_150)">
<path d="M1269.85 -10.9076L1269.28 -10.6489L1258.67 11.4189L1258.54 12.6255L1307.7 -13.848L1269.85 -10.9076Z" fill="#3C3C3B"/>
<path d="M1258.54 12.6254L1269.85 -10.908L1248.35 -41.9377L1258.54 12.6254Z" fill="#8C8C8C"/>
</g>
</g>
<g filter="url(#filter2_f_25_150)">
<rect x="530" y="-90.5945" width="154.976" height="154.976" rx="39.0295" transform="rotate(-30.3924 530 -90.5945)" fill="#50AF95"/>
<path d="M613.747 -101.722C624.087 -107.786 634.013 -113.608 644.353 -119.673C645.18 -120.158 645.839 -119.981 646.085 -119.563C659.492 -109.973 672.652 -100.802 686.227 -91.8741C686.886 -91.6977 686.718 -91.0363 686.55 -90.3748C683.696 -79.1298 680.842 -67.8848 677.574 -56.3972C673.634 -42.2638 669.527 -27.4688 665.588 -13.3354C665.006 -12.4313 665.006 -12.4313 664.347 -12.6076C650.088 -16.0677 635.83 -19.5278 621.326 -23.4068C610.118 -26.4041 598.497 -29.159 587.289 -32.1563C586.63 -32.3327 586.384 -32.7515 586.139 -33.1704C585.103 -41.5708 584.726 -49.7948 583.69 -58.1951C582.9 -66.1766 582.355 -73.7391 581.565 -81.7206C581.487 -82.8009 581.655 -83.4624 582.896 -84.1901C593.481 -89.8357 603.162 -96.0764 613.747 -101.722ZM620.794 -90.6544C613.35 -86.288 605.492 -81.679 598.047 -77.3127C597.634 -77.0701 597.634 -77.0701 597.22 -76.8275C596.806 -76.5849 596.806 -76.5849 597.052 -76.166C599.263 -72.396 601.474 -68.6259 603.518 -64.1944C603.763 -63.7755 603.763 -63.7755 604.177 -64.0181C605.418 -64.7458 606.659 -65.4736 607.899 -66.2013C612.035 -68.6271 616.171 -71.0528 620.307 -73.4786C620.721 -73.7212 620.721 -73.7212 621.134 -73.9638C621.548 -74.2063 621.793 -73.7874 622.039 -73.3686C623.022 -71.693 624.25 -69.5985 625.233 -67.9229C625.479 -67.504 625.479 -67.504 625.311 -66.8426C622.661 -64.7256 619.766 -63.0276 617.117 -60.9107C613.64 -58.3086 610.409 -55.2876 607.838 -52.0903C606.429 -50.7011 605.68 -49.1356 604.93 -47.5701C604.427 -45.5857 605.409 -43.9101 607.142 -43.8C608.46 -43.4474 609.533 -43.5137 610.606 -43.5799C614.238 -44.0213 617.379 -45.3004 620.765 -46.1607C625.393 -47.7487 629.774 -49.7555 634.156 -51.7624C634.983 -52.2476 634.983 -52.2476 635.474 -51.4098C639.897 -43.8697 644.565 -35.9107 648.987 -28.3706C649.478 -27.5328 649.478 -27.5328 650.306 -28.018C654.028 -30.2012 658.164 -32.6269 661.886 -34.8101C663.127 -35.5379 663.127 -35.5379 662.39 -36.7946C658.704 -43.078 655.265 -48.9425 651.58 -55.2259C650.597 -56.9015 649.614 -58.577 648.631 -60.2526C648.14 -61.0904 648.553 -61.333 648.967 -61.5755C653.103 -64.0013 656.58 -66.6034 660.224 -69.8669C663.287 -72.2265 665.691 -74.7623 667.849 -77.717C668.43 -78.6211 668.766 -79.944 669.348 -80.848C669.683 -82.171 669.192 -83.0088 667.873 -83.3614C666.801 -83.2951 665.896 -83.8903 664.823 -83.8241C658.14 -83.8454 651.613 -81.706 645.577 -78.7288C643.922 -77.7585 642.268 -76.7882 640.368 -76.2368C639.954 -75.9942 639.954 -75.9942 639.463 -76.832C638.48 -78.5076 637.252 -80.6021 636.269 -82.2776C636.023 -82.6965 635.778 -83.1154 636.605 -83.6006C637.846 -84.3283 639.086 -85.0561 640.327 -85.7838C644.463 -88.2096 648.185 -90.3927 652.321 -92.8185C653.148 -93.3037 652.903 -93.7226 652.657 -94.1415C652.411 -94.5603 652.411 -94.5603 652.166 -94.9792C650.2 -98.3304 648.235 -101.682 646.023 -105.452C645.532 -106.289 645.532 -106.289 644.705 -105.804C636.097 -99.6297 628.239 -95.0208 620.794 -90.6544Z" fill="white"/>
</g>
<g filter="url(#filter3_f_25_150)">
<path d="M831.077 110.848C831.934 106.514 836.142 103.694 840.476 104.551L924.086 121.077C928.421 121.934 931.24 126.142 930.383 130.476L913.858 214.086C913.001 218.421 908.793 221.24 904.458 220.383L820.848 203.858C816.514 203.001 813.694 198.793 814.551 194.458L831.077 110.848Z" fill="#EF0027"/>
</g>
<defs>
<filter id="filter0_f_25_150" x="-18.4517" y="47.9516" width="285.858" height="284.083" filterUnits="userSpaceOnUse" color-interpolation-filters="sRGB">
<feFlood flood-opacity="0" result="BackgroundImageFix"/>
<feBlend mode="normal" in="SourceGraphic" in2="BackgroundImageFix" result="shape"/>
<feGaussianBlur stdDeviation="14.2258" result="effect1_foregroundBlur_25_150"/>
</filter>
<filter id="filter1_f_25_150" x="1153.55" y="-157.444" width="252.58" height="251.063" filterUnits="userSpaceOnUse" color-interpolation-filters="sRGB">
<feFlood flood-opacity="0" result="BackgroundImageFix"/>
<feBlend mode="normal" in="SourceGraphic" in2="BackgroundImageFix" result="shape"/>
<feGaussianBlur stdDeviation="14.2258" result="effect1_foregroundBlur_25_150"/>
</filter>
<filter id="filter2_f_25_150" x="501.548" y="-197.452" width="268.988" height="268.988" filterUnits="userSpaceOnUse" color-interpolation-filters="sRGB">
<feFlood flood-opacity="0" result="BackgroundImageFix"/>
<feBlend mode="normal" in="SourceGraphic" in2="BackgroundImageFix" result="shape"/>
<feGaussianBlur stdDeviation="14.2258" result="effect1_foregroundBlur_25_150"/>
</filter>
<filter id="filter3_f_25_150" x="784.548" y="74.5485" width="175.838" height="175.838" filterUnits="userSpaceOnUse" color-interpolation-filters="sRGB">
<feFlood flood-opacity="0" result="BackgroundImageFix"/>
<feBlend mode="normal" in="SourceGraphic" in2="BackgroundImageFix" result="shape"/>
<feGaussianBlur stdDeviation="14.2258" result="effect1_foregroundBlur_25_150"/>
</filter>
<clipPath id="clip0_25_150">
<rect width="65.6675" height="103.974" fill="white" transform="matrix(0.903898 0.427749 -0.433207 0.901294 1273.9 -95.1048)"/>
</clipPath>
</defs>
</svg>
