<svg width="69" height="28" viewBox="0 0 69 28" fill="none" xmlns="http://www.w3.org/2000/svg">
<path d="M32.4939 4.81146V11.6568H36.7087C37.1714 11.6694 37.6317 11.5859 38.0604 11.4115C38.4891 11.237 38.877 10.9754 39.1993 10.6433C39.6722 10.1573 39.9908 9.54226 40.1149 8.87564C40.239 8.20901 40.1632 7.52056 39.8969 6.89693C39.6307 6.27331 39.1859 5.74237 38.6186 5.37094C38.0513 4.99951 37.3868 4.80418 36.7087 4.80955H32.4939V4.81146ZM32.4939 14.0669V22.008H29.9727V2.409H36.6609C37.4588 2.39256 38.2522 2.53406 38.9952 2.82537C39.7383 3.11669 40.4165 3.55206 40.9906 4.10643C41.5618 4.63586 42.0175 5.27755 42.3291 5.99128C42.6407 6.70502 42.8016 7.47543 42.8016 8.25423C42.8016 9.03302 42.6407 9.80343 42.3291 10.5172C42.0175 11.2309 41.5618 11.8726 40.9906 12.402C39.822 13.517 38.3787 14.0739 36.6609 14.0726H32.4939V14.0669Z" fill="white"/>
<path d="M45.3549 17.8985C45.3531 18.2197 45.4282 18.5367 45.5738 18.823C45.7194 19.1093 45.9315 19.3566 46.1922 19.5442C46.75 19.9814 47.4416 20.2128 48.1502 20.1995C49.2143 20.198 50.2345 19.7751 50.9875 19.0231C51.3796 18.6772 51.6936 18.2517 51.9086 17.7751C52.1237 17.2984 52.2348 16.7815 52.2347 16.2586C51.4492 15.6366 50.3527 15.3262 48.9452 15.3275C47.9234 15.3275 47.0696 15.574 46.3837 16.067C45.6979 16.56 45.3549 17.1705 45.3549 17.8985ZM48.6119 8.15649C50.4766 8.15649 51.9454 8.65397 53.0183 9.64893C54.0912 10.6439 54.6295 12.008 54.6334 13.7412V22.008H52.2309V20.1458H52.1198C51.0788 21.6785 49.6905 22.4448 47.9547 22.4448C46.4757 22.4448 45.2342 22.008 44.2399 21.1306C43.7618 20.7284 43.3795 20.2246 43.1209 19.6558C42.8624 19.087 42.7342 18.4677 42.7456 17.843C42.7456 16.4585 43.2705 15.3549 44.3204 14.5324C45.3703 13.7099 46.7752 13.2992 48.5352 13.3005C50.0334 13.3005 51.2672 13.5739 52.2366 14.1205V13.5458C52.2392 13.1197 52.1471 12.6985 51.9668 12.3124C51.7865 11.9264 51.5227 11.5853 51.1944 11.3138C50.5257 10.7125 49.6548 10.3855 48.7556 10.398C47.3506 10.398 46.2362 10.9913 45.4124 12.1778L43.19 10.7812C44.4111 9.03139 46.2184 8.15649 48.6119 8.15649Z" fill="white"/>
<path d="M68.4849 8.58948L60.0687 27.9203H57.465L60.5898 21.1574L55.053 8.58948H57.7946L61.7967 18.2281H61.8504L65.7434 8.58948H68.4849Z" fill="white"/>
<path d="M22.3036 12.3541C22.3056 11.5837 22.2415 10.8145 22.112 10.0551H11.4734V14.4021H17.5753C17.451 15.0955 17.1872 15.7565 16.7999 16.345C16.4127 16.9334 15.91 17.4372 15.3223 17.8257V20.6439H18.9624C21.0909 18.6821 22.317 15.7834 22.317 12.3541" fill="#4285F4"/>
<path d="M11.4736 23.3645C14.5179 23.3645 17.0793 22.3663 18.9454 20.644L15.3053 17.8258C14.2937 18.5078 12.9909 18.9044 11.4736 18.9044C8.53278 18.9044 6.03644 16.9234 5.15132 14.2546H1.39819V17.161C2.33792 19.0273 3.77755 20.5959 5.55656 21.6919C7.33558 22.7879 9.38406 23.3683 11.4736 23.3683" fill="#34A853"/>
<path d="M5.14336 14.2546C4.67077 12.8559 4.67077 11.3407 5.14336 9.94205V7.03955H1.39789C0.608128 8.60893 0.196777 10.3414 0.196777 12.0983C0.196777 13.8552 0.608128 15.5877 1.39789 17.1571L5.14336 14.2546Z" fill="#FABB05"/>
<path d="M11.4736 5.29231C13.082 5.26594 14.6364 5.87283 15.8015 6.98208L19.0201 3.76538C16.9777 1.84965 14.2736 0.797951 11.4736 0.830315C9.38406 0.8303 7.33558 1.41066 5.55656 2.50669C3.77755 3.60272 2.33792 5.17133 1.39819 7.03764L5.14366 9.94013C6.03644 7.26945 8.53278 5.29039 11.4659 5.29039" fill="#E94235"/>
</svg>
