<svg width="45" height="27" viewBox="0 0 45 27" fill="none" xmlns="http://www.w3.org/2000/svg">
<path d="M28.1426 3.05896H16.2407V23.7013H28.1426V3.05896Z" fill="#FF5F00"/>
<path d="M16.9963 13.3783C16.9923 11.3917 17.4566 9.43029 18.3541 7.64246C19.2515 5.85464 20.5586 4.28725 22.1764 3.05893C19.3429 0.905194 15.7389 -0.0742255 12.1572 0.336058C8.57543 0.746342 5.3092 2.51273 3.07676 5.24677C1.9709 6.60359 1.15321 8.15757 0.670476 9.81977C0.187748 11.482 0.0494607 13.2197 0.263547 14.9336C0.477633 16.6474 1.03989 18.3037 1.91811 19.8075C2.79633 21.3114 3.97327 22.6333 5.38156 23.6976C7.77702 25.5118 10.734 26.4979 13.779 26.4979C16.824 26.4979 19.781 25.5118 22.1764 23.6976C20.5591 22.4689 19.2523 20.9014 18.3548 19.1137C17.4574 17.326 16.9929 15.3647 16.9963 13.3783Z" fill="#EB001B"/>
<path d="M44.1969 13.3783C44.1969 15.1022 43.8451 16.8092 43.1615 18.4018C42.4779 19.9945 41.476 21.4416 40.2129 22.6606C38.9498 23.8795 37.4503 24.8465 35.8001 25.5062C34.1498 26.1659 32.381 26.5054 30.5947 26.5054C27.5417 26.5078 24.5766 25.5188 22.1765 23.6977C23.5812 22.6322 24.7547 21.31 25.6298 19.8068C26.5049 18.3035 27.0646 16.6486 27.2769 14.9365C27.4892 13.2245 27.3499 11.4889 26.867 9.82878C26.3841 8.1687 25.567 6.61669 24.4624 5.26142C23.7938 4.44657 23.0264 3.71204 22.1765 3.07357C25.0101 0.919842 28.6141 -0.0595771 32.1958 0.350707C35.7775 0.760991 39.0438 2.52738 41.2762 5.26142C43.1657 7.57424 44.1944 10.4331 44.1969 13.3783Z" fill="#F79E1B"/>
<path d="M42.9006 21.5096V21.0867H43.0781V20.9993H42.6287V21.0867H42.8024V21.5096H42.9006ZM43.7731 21.5096V20.9993H43.6372L43.4785 21.3638L43.3199 20.9993H43.1801V21.5096H43.2783V21.1451L43.4256 21.4768H43.5276L43.6749 21.1451V21.5096H43.7731Z" fill="#F79E1B"/>
</svg>
