<svg width="83" height="19" viewBox="0 0 83 19" fill="none" xmlns="http://www.w3.org/2000/svg">
<path d="M53.3971 6.8715C52.0226 5.66055 50.3629 5.06881 48.4435 5.06881C46.5514 5.06881 44.8917 5.66144 43.5155 6.8715C42.141 8.05676 41.4423 9.7062 41.4423 11.8198C41.4423 13.9334 42.141 15.5811 43.5155 16.792C44.8908 17.9773 46.5514 18.5708 48.4435 18.5708C50.3629 18.5708 52.0226 17.9773 53.3971 16.792C54.7989 15.5811 55.4976 13.9326 55.4976 11.8198C55.4976 9.70708 54.798 8.05676 53.3971 6.8715ZM45.8518 14.5243C45.1269 13.8286 44.7636 12.9271 44.7618 11.8198C44.7618 10.7116 45.124 9.80984 45.8518 9.13926C46.1937 8.80349 46.5989 8.53944 47.0438 8.36255C47.4886 8.18565 47.9641 8.09947 48.4426 8.10902C49.4531 8.10902 50.3355 8.44476 51.0616 9.13926C51.8124 9.80984 52.1772 10.7116 52.1772 11.8198C52.1772 12.928 51.8151 13.8289 51.0616 14.5243C50.3513 15.1868 49.4124 15.5472 48.4426 15.5297C47.4812 15.5466 46.5514 15.1858 45.8518 14.5243ZM60.4009 18.2085V0.527099H57.1326V18.2085H60.4009ZM70.9476 5.42846V12.4833C70.9476 14.1832 70.0228 15.31 68.2624 15.31C66.4728 15.31 65.5718 14.1841 65.5718 12.4833V5.42846H62.3035V13.0246C62.3035 15.9673 64.1708 18.569 68.2668 18.569H68.2915C72.3636 18.569 74.2274 15.9115 74.2274 13.0246V5.42846H70.9476ZM37.9638 5.42846L34.6956 14.0858L31.4273 5.42846H27.9541L33.1657 18.2094H36.2264L41.4379 5.42846H37.9638ZM27.9709 11.4584C27.9709 9.60344 27.3756 8.08333 26.2043 6.8715C25.033 5.65967 23.5349 5.06881 21.6932 5.06881C19.8047 5.06881 18.1988 5.71282 16.8739 6.97957C15.5763 8.24279 14.9306 9.83907 14.9306 11.8242C14.9306 13.8094 15.5789 15.4314 16.85 16.6964C18.1476 17.9596 19.7031 18.5779 21.5439 18.5779C24.3705 18.5779 26.3686 17.3377 27.5849 14.8414L25.1452 13.4462C24.3431 15.0177 23.1745 15.791 21.5934 15.791C19.6501 15.791 18.2739 14.5509 18.0663 12.5958H27.97V11.4619L27.9709 11.4584ZM21.5916 7.54208C23.4316 7.54208 24.6523 8.57232 24.9623 10.2218H18.0646C18.5583 8.70165 19.9054 7.54208 21.5916 7.54208ZM14.9306 18.2094L10.5458 10.5823C13.3194 9.57775 14.6974 7.82555 14.6974 5.27433C14.6974 2.15705 12.2082 0.171875 8.24123 0.171875H0.484863V18.2094H3.9077V10.8915H6.81292L11.0131 18.2094H14.9306ZM8.23682 3.16071C10.2596 3.16071 11.2719 3.95797 11.2719 5.53122C11.2719 7.10448 10.2587 7.90085 8.23682 7.90085H3.90858V3.16071H8.23682ZM79.7657 18.569C79.2677 18.5711 78.7741 18.4748 78.3132 18.2856C77.8522 18.0964 77.433 17.8179 77.0794 17.4662C76.7258 17.1144 76.4447 16.6963 76.2523 16.2356C76.0598 15.7749 75.9597 15.2807 75.9578 14.7812V1.97545H79.226V5.43024H82.0279V8.05765H79.226V14.5695C79.2266 14.716 79.256 14.8611 79.3126 14.9962C79.3691 15.1314 79.4517 15.254 79.5556 15.3571C79.6594 15.4602 79.7826 15.5418 79.9179 15.5971C80.0533 15.6524 80.1982 15.6804 80.3443 15.6794H82.0279V18.5655L79.7657 18.569Z" fill="white"/>
</svg>
