<svg width="72" height="24" viewBox="0 0 72 24" fill="none" xmlns="http://www.w3.org/2000/svg">
<path d="M20.8787 1.20557L15.3104 16.5021L14.7006 13.3942C13.2499 9.41797 10.4572 6.09706 6.82202 4.02551L11.9128 23.6155H17.9366L26.8951 1.20557H20.8787Z" fill="white"/>
<path d="M25.6499 23.623L29.2091 1.18311H34.9022L31.3431 23.623H25.6499Z" fill="white"/>
<path d="M51.9816 1.7367C50.3546 1.10197 48.6258 0.781098 46.8835 0.790483C41.2527 0.790483 37.2969 3.83482 37.2638 8.1919C37.2271 11.427 40.0921 13.2222 42.2481 14.2993C44.4519 15.3951 45.2086 16.102 45.1865 17.0856C45.1682 18.5816 43.4088 19.266 41.7743 19.266C39.9237 19.3263 38.087 18.9217 36.4264 18.0879L35.6918 17.7363L34.9021 22.7554C36.2317 23.3912 38.6853 23.926 41.2417 23.9597C47.2177 23.9597 51.1001 20.9452 51.1589 16.289C51.1846 13.7308 49.6639 11.801 46.3839 10.189C44.4005 9.15307 43.1701 8.46492 43.1884 7.41024C43.1884 6.47525 44.2205 5.48041 46.4537 5.48041C47.9134 5.44286 49.3629 5.73803 50.6961 6.34435L51.2029 6.60241L51.9779 1.74044" fill="white"/>
<path d="M66.571 1.20557H62.1633C60.797 1.20557 59.7796 1.60948 59.1772 3.07556L50.7292 23.6454H56.7089C56.7089 23.6454 57.6859 20.8816 57.9026 20.2795H65.1862C65.3625 21.0649 65.8841 23.6454 65.8841 23.6454H71.1659L66.5563 1.20557H66.571ZM59.5408 15.6681C60.0183 14.3815 61.8107 9.39612 61.8107 9.39612C61.774 9.45596 62.2735 8.0946 62.5674 7.25311L62.9347 9.19416C62.9347 9.19416 64.0366 14.5461 64.2533 15.6681H59.5408Z" fill="white"/>
<path d="M10.1424 1.19434H0.959864L0.908447 1.56833C8.04145 3.43832 12.7466 7.99362 14.7043 13.3867L12.7135 3.07554C12.3793 1.66183 11.3949 1.2467 10.1424 1.19434Z" fill="#F7A600"/>
</svg>
