<svg width="24" height="24" viewBox="0 0 24 24" fill="none" xmlns="http://www.w3.org/2000/svg">
<path d="M11.5381 3.12247C11.8239 2.95918 12.1761 2.95918 12.4619 3.12247L19.5381 7.1654C19.8239 7.3287 20 7.63048 20 7.95707V16.0429C20 16.3695 19.8239 16.6713 19.5381 16.8346L12.4619 20.8775C12.1761 21.0408 11.8239 21.0408 11.5381 20.8775L4.46188 16.8346C4.17607 16.6713 4 16.3695 4 16.0429V7.95707C4 7.63048 4.17607 7.3287 4.46188 7.1654L11.5381 3.12247Z" stroke="#E3DFEF" stroke-width="1.6"/>
<path d="M11.8268 8.05443C11.934 7.98186 12.066 7.98186 12.1732 8.05443L14.8268 9.85129C14.934 9.92387 15 10.058 15 10.2031V13.7969C15 13.942 14.934 14.0761 14.8268 14.1487L12.1732 15.9456C12.066 16.0181 11.934 16.0181 11.8268 15.9456L9.17321 14.1487C9.06603 14.0761 9 13.942 9 13.7969V10.2031C9 10.058 9.06603 9.92387 9.17321 9.85129L11.8268 8.05443Z" stroke="#E3DFEF" stroke-width="1.6"/>
</svg>
