<svg width="24" height="24" viewBox="0 0 24 24" fill="none" xmlns="http://www.w3.org/2000/svg">
<path d="M20 8V6C20 4.89543 19.1046 4 18 4H4C2.89543 4 2 4.89543 2 6V18C2 19.1046 2.89543 20 4 20H18C19.1046 20 20 19.1046 20 18V16" stroke="#E3DFEF" stroke-width="1.6" stroke-linecap="round" stroke-linejoin="round"/>
<path d="M13 9.5C13 8.94772 13.4477 8.5 14 8.5H21C21.5523 8.5 22 8.94772 22 9.5V14.5C22 15.0523 21.5523 15.5 21 15.5H14C13.4477 15.5 13 15.0523 13 14.5V9.5Z" stroke="#E3DFEF" stroke-width="1.6" stroke-linecap="round" stroke-linejoin="round"/>
<circle cx="17.5" cy="12" r="1.5" fill="#E3DFEF"/>
</svg>
