<svg width="19" height="18" viewBox="0 0 19 18" fill="none" xmlns="http://www.w3.org/2000/svg">
<path d="M1.39551 13.0761V1.77105C1.39551 1.43744 1.52803 1.1175 1.76393 0.881604C1.99982 0.645708 2.31977 0.513184 2.65337 0.513184H13.2006C13.5342 0.513184 13.8541 0.645708 14.09 0.881604C14.3259 1.1175 14.4584 1.43744 14.4584 1.77105V8.80251C14.4584 9.13612 14.3259 9.45606 14.09 9.69196C13.8541 9.92785 13.5342 10.0604 13.2006 10.0604H6.1691C5.68064 10.0604 5.2051 10.2183 4.81402 10.5122L1.39551 13.0761ZM2.15337 10.5604V11.5602L2.95331 10.9604L4.82896 9.55413L4.83009 9.55328C5.04678 9.38985 5.31098 9.30178 5.58239 9.30251H5.58374H13.2006H13.7006V8.80251V1.77105V1.27105H13.2006H2.65337H2.15337V1.77105V10.5604ZM12.7006 8.80251H5.58374L2.65337 9.93545V2.27105V1.77105H3.15337H12.7006H13.2006V2.27105V8.30251V8.80251H12.7006Z" stroke="white"/>
<path d="M17.2162 5.01154C17.3601 5.0739 17.4925 5.16323 17.6056 5.27632C17.8415 5.51221 17.974 5.83216 17.974 6.16576V16.5919L14.5555 14.028C14.1644 13.7341 13.6889 13.5762 13.2004 13.5762H7.0479C6.88272 13.5762 6.71915 13.5436 6.56654 13.4804C6.41393 13.4172 6.27526 13.3245 6.15846 13.2077C6.04643 13.0957 5.95661 12.9636 5.89368 12.8183L13.7858 12.8183L13.7871 12.8183C14.0586 12.8176 14.3228 12.9056 14.5394 13.0691L14.5406 13.0699L16.4162 14.4762L17.2162 15.076V14.0762V5.01154Z" stroke="white"/>
</svg>
