<svg width="23" height="23" viewBox="0 0 23 23" fill="none" xmlns="http://www.w3.org/2000/svg">
<path fill-rule="evenodd" clip-rule="evenodd" d="M20.716 1.19548C21.1065 0.804957 21.7397 0.804957 22.1302 1.19548C22.5207 1.58601 22.5207 2.21917 22.1302 2.60969L12.8373 11.9026L22.1302 21.1955C22.5207 21.586 22.5207 22.2192 22.1302 22.6097C21.7397 23.0002 21.1065 23.0002 20.716 22.6097L11.4231 13.3168L2.1302 22.6097C1.73968 23.0002 1.10651 23.0002 0.715989 22.6097C0.325465 22.2192 0.325465 21.586 0.715989 21.1955L10.0089 11.9026L0.715989 2.60969C0.325465 2.21917 0.325465 1.58601 0.715989 1.19548C1.10651 0.804957 1.73968 0.804957 2.1302 1.19548L11.4231 10.4884L20.716 1.19548Z" fill="#C4C4C4"/>
</svg>
