<svg width="24" height="24" viewBox="0 0 24 24" fill="none" xmlns="http://www.w3.org/2000/svg">
<path d="M20.8 15C20.8 14.5582 20.4418 14.2 20 14.2C19.5582 14.2 19.2 14.5582 19.2 15H20.8ZM4.8 15C4.8 14.5582 4.44183 14.2 4 14.2C3.55817 14.2 3.2 14.5582 3.2 15H4.8ZM12.8 3C12.8 2.55817 12.4418 2.2 12 2.2C11.5582 2.2 11.2 2.55817 11.2 3H12.8ZM12 15L11.4343 15.5657C11.7467 15.8781 12.2533 15.8781 12.5657 15.5657L12 15ZM8.56569 10.4343C8.25327 10.1219 7.74673 10.1219 7.43431 10.4343C7.1219 10.7467 7.1219 11.2533 7.43431 11.5657L8.56569 10.4343ZM16.5657 11.5657C16.8781 11.2533 16.8781 10.7467 16.5657 10.4343C16.2533 10.1219 15.7467 10.1219 15.4343 10.4343L16.5657 11.5657ZM17.7143 18.2H6.28571V19.8H17.7143V18.2ZM20.8 16.7143V15H19.2V16.7143H20.8ZM4.8 16.7143V15H3.2V16.7143H4.8ZM6.28571 18.2C5.46518 18.2 4.8 17.5348 4.8 16.7143H3.2C3.2 18.4185 4.58152 19.8 6.28571 19.8V18.2ZM17.7143 19.8C19.4185 19.8 20.8 18.4185 20.8 16.7143H19.2C19.2 17.5348 18.5348 18.2 17.7143 18.2V19.8ZM11.2 3V15H12.8V3H11.2ZM12.5657 14.4343L8.56569 10.4343L7.43431 11.5657L11.4343 15.5657L12.5657 14.4343ZM12.5657 15.5657L16.5657 11.5657L15.4343 10.4343L11.4343 14.4343L12.5657 15.5657Z" fill="#E3DFEF"/>
</svg>
