<svg width="22" height="17" viewBox="0 0 22 17" fill="none" xmlns="http://www.w3.org/2000/svg">
<path d="M18.3734 1.76152C17.0301 1.1336 15.6099 0.685743 14.1494 0.429565C13.9492 0.79553 13.7678 1.17148 13.6059 1.55595C12.0494 1.31658 10.4655 1.31658 8.90893 1.55595C8.74056 1.17111 8.55258 0.795159 8.34573 0.429565C6.8787 0.68391 5.45239 1.13378 4.1049 1.76715C1.42129 5.81931 0.689144 9.7701 1.05803 13.6674C2.62375 14.8492 4.38257 15.7505 6.25629 16.3313C6.67642 15.7516 7.04843 15.1385 7.3686 14.4981C6.76111 14.2684 6.17501 13.9857 5.61707 13.6533C5.7635 13.5435 5.89867 13.4308 6.0451 13.3126C7.66615 14.0938 9.44247 14.4995 11.2419 14.4995C13.0414 14.4995 14.8177 14.0938 16.4388 13.3126C16.5796 13.4308 16.7204 13.5435 16.8668 13.6533C16.3088 13.9874 15.7216 14.2702 15.1125 14.4981C15.4361 15.1404 15.8129 15.7546 16.2389 16.3341C18.1136 15.7523 19.8733 14.85 21.4399 13.6674C21.8663 9.46035 20.779 5.23912 18.3734 1.76152ZM7.83041 11.271C6.81385 11.271 5.98314 10.3248 5.98314 9.1703C5.98314 8.01576 6.79696 7.06959 7.83041 7.06959C8.86387 7.06959 9.69458 8.01576 9.67768 9.1703C9.66079 10.3248 8.85542 11.271 7.83041 11.271ZM14.6535 11.271C13.6397 11.271 12.8062 10.3248 12.8062 9.1703C12.8062 8.01576 13.6228 7.06959 14.6535 7.06959C15.6841 7.06959 16.5176 8.01576 16.5007 9.1703C16.4839 10.3248 15.6869 11.271 14.6535 11.271Z" fill="#5865F2"/>
</svg>
