<svg width="24" height="24" viewBox="0 0 24 24" fill="none" xmlns="http://www.w3.org/2000/svg">
<path d="M12 6.48406L11.4453 7.06054C11.755 7.35856 12.2449 7.35856 12.5546 7.06054L12 6.48406ZM12.9524 5.56772L13.507 6.14421V6.14421L12.9524 5.56772ZM11.0476 5.56772L11.6023 4.99123L11.6023 4.99123L11.0476 5.56772ZM3.42857 12.8984L3.98325 12.3219L3.98325 12.3219L3.42857 12.8984ZM10.0952 19.3127L9.54055 19.8892L10.0952 19.3127ZM13.9047 19.3127L13.3501 18.7363L13.9047 19.3127ZM20.5714 12.8984L20.0167 12.3219V12.3219L20.5714 12.8984ZM20.5714 5.56759L21.126 4.9911V4.99109L20.5714 5.56759ZM16.7619 6.60039C16.32 6.60039 15.9619 6.95856 15.9619 7.40039C15.9619 7.84222 16.32 8.20039 16.7619 8.20039V6.60039ZM17.8666 9.23306C17.8666 9.67489 18.2248 10.0331 18.6666 10.0331C19.1085 10.0331 19.4666 9.67489 19.4666 9.23306H17.8666ZM12.5546 7.06054L13.507 6.14421L12.3977 4.99123L11.4453 5.90757L12.5546 7.06054ZM10.4929 6.14421L11.4453 7.06054L12.5546 5.90757L11.6023 4.99123L10.4929 6.14421ZM2.8739 13.4749L9.54055 19.8892L10.6499 18.7363L3.98325 12.3219L2.8739 13.4749ZM14.4594 19.8892L21.1261 13.4749L20.0167 12.3219L13.3501 18.7363L14.4594 19.8892ZM20.0167 6.14407C20.7798 6.87831 21.2 8.02625 21.2 9.23304C21.2 10.4398 20.7798 11.5878 20.0167 12.3219L21.1261 13.4749C22.2678 12.3764 22.8 10.7753 22.8 9.23306C22.8 7.6908 22.2678 6.08967 21.126 4.9911L20.0167 6.14407ZM21.126 4.99109C18.9571 2.90423 15.1319 2.36045 12.3977 4.99123L13.507 6.14421C15.5346 4.19334 18.3762 4.56563 20.0167 6.14408L21.126 4.99109ZM3.99046 6.13699C5.62009 4.52903 8.45749 4.18582 10.4929 6.14421L11.6023 4.99123C8.87581 2.36797 5.04657 2.84717 2.86668 4.99807L3.99046 6.13699ZM9.54055 19.8892C10.2021 20.5257 11.1354 20.8 12 20.8C12.8646 20.8 13.7979 20.5257 14.4594 19.8892L13.3501 18.7363C13.0592 19.0161 12.564 19.2 12 19.2C11.436 19.2 10.9407 19.0161 10.6499 18.7363L9.54055 19.8892ZM2.86668 4.99807C1.73372 6.11598 1.2 7.71099 1.2 9.2505C1.2 10.7894 1.73363 12.3778 2.8739 13.4749L3.98325 12.3219C3.21875 11.5864 2.8 10.4491 2.8 9.25051C2.8 8.05261 3.21867 6.89852 3.99046 6.13699L2.86668 4.99807ZM16.7619 8.20039C16.9886 8.20039 17.2748 8.3168 17.5167 8.54959C17.7606 8.78426 17.8666 9.04619 17.8666 9.23306H19.4666C19.4666 8.5036 19.0964 7.84919 18.6261 7.39661C18.1537 6.94215 17.4875 6.60039 16.7619 6.60039V8.20039Z" fill="#E3DFEF"/>
</svg>
