<svg width="33" height="37" viewBox="0 0 33 37" fill="none" xmlns="http://www.w3.org/2000/svg">
<path d="M0.58374 11.3216V25.123C0.585822 25.8606 0.779258 26.5847 1.14474 27.2235C1.51022 27.8622 2.03507 28.3932 2.66694 28.7634L14.5085 35.656C15.1378 36.0286 15.8542 36.225 16.5837 36.225C17.3132 36.225 18.0296 36.0286 18.6589 35.656L30.5007 28.7634C31.1326 28.3932 31.6572 27.8622 32.0227 27.2235C32.3882 26.5847 32.5816 25.8606 32.5837 25.123V11.3216C32.5832 10.5836 32.3905 9.85869 32.0248 9.2197C31.6592 8.58071 31.1336 8.05011 30.5007 7.68112L18.6589 0.772324C18.0275 0.406102 17.3119 0.213379 16.5837 0.213379C15.8555 0.213379 15.14 0.406102 14.5085 0.772324L2.66694 7.68112C2.03399 8.05011 1.50823 8.58071 1.14259 9.2197C0.776945 9.85869 0.584209 10.5836 0.58374 11.3216Z" fill="url(#paint0_linear_2_9801)"/>
<mask id="path-2-inside-1_2_9801" fill="white">
<path fill-rule="evenodd" clip-rule="evenodd" d="M16.7683 8.83147C19.1407 10.9968 21.5148 13.1594 23.8905 15.3191C24.0994 15.509 24.297 15.701 24.3865 15.9759V16.2999C24.3552 16.3508 24.3258 16.4034 24.2964 16.4561C24.2297 16.5759 24.1628 16.6958 24.0731 16.7947C23.9132 16.9709 23.6787 16.9992 23.4463 16.9992H22.3501V17.2057V24.5163C22.3497 24.9087 22.1703 25.0893 21.7783 25.0893H17.8823C17.4818 25.0893 17.3057 24.9091 17.3057 24.5041V20.5025H14.9132V24.49C14.9128 24.916 14.7419 25.0893 14.3184 25.0893H10.4714C10.0369 25.0893 9.86923 24.92 9.86923 24.4819V16.9992H9.64367C9.53744 16.998 9.43109 16.9981 9.32472 16.9981C9.07552 16.9983 8.82619 16.9984 8.57786 16.9822C8.26929 16.962 8.04859 16.7842 7.91658 16.5052C7.74124 16.1322 7.83883 15.7686 8.20004 15.4394C10.6214 13.2324 13.0432 11.0263 15.4656 8.82094C15.5391 8.75074 15.6207 8.68944 15.7085 8.63831C16.0621 8.44312 16.4168 8.51156 16.7683 8.83147ZM22.7081 10.095V12.7295L22.7085 12.9134C21.4528 11.7731 20.2241 10.6566 18.9656 9.51184C19.0005 9.51042 19.029 9.50892 19.0535 9.50764C19.0915 9.50565 19.1201 9.50415 19.1486 9.50415H22.1221C22.5344 9.50456 22.7081 9.6799 22.7081 10.095Z"/>
</mask>
<path d="M23.8905 15.3191L22.8815 16.429L22.8816 16.4291L23.8905 15.3191ZM16.7683 8.83147L17.7795 7.72356L17.7779 7.72213L16.7683 8.83147ZM24.3865 15.9759H25.8865V15.738L25.8129 15.5117L24.3865 15.9759ZM24.3865 16.2999L25.6639 17.0862L25.8865 16.7246V16.2999H24.3865ZM24.2964 16.4561L22.9864 15.7255V15.7255L24.2964 16.4561ZM24.0731 16.7947L25.1836 17.8031L25.1846 17.802L24.0731 16.7947ZM22.3501 16.9992V15.4992H20.8501V16.9992H22.3501ZM22.3501 24.5163L23.8501 24.5178V24.5163H22.3501ZM17.3057 20.5025H18.8057V19.0025H17.3057V20.5025ZM14.9132 20.5025V19.0025H13.4132V20.5025H14.9132ZM14.9132 24.49L16.4132 24.4914V24.49H14.9132ZM9.86923 16.9992H11.3692V15.4992H9.86923V16.9992ZM9.64367 16.9992L9.62658 18.4991L9.63512 18.4992H9.64367V16.9992ZM9.32472 16.9981L9.32553 18.4981H9.32553L9.32472 16.9981ZM8.57786 16.9822L8.47964 18.479L8.48035 18.479L8.57786 16.9822ZM7.91658 16.5052L6.55912 17.1434L6.5607 17.1467L7.91658 16.5052ZM8.20004 15.4394L9.21048 16.548L9.2105 16.548L8.20004 15.4394ZM15.4656 8.82094L16.4754 9.93013L16.4885 9.91822L16.5013 9.906L15.4656 8.82094ZM15.7085 8.63831L14.9835 7.32516L14.9687 7.33333L14.9541 7.34184L15.7085 8.63831ZM22.7081 12.7295H21.2081L21.2081 12.7329L22.7081 12.7295ZM22.7085 12.9134L21.7001 14.0239L24.216 16.3085L24.2085 12.9101L22.7085 12.9134ZM18.9656 9.51184L18.9043 8.0131L15.2528 8.16247L17.9563 10.6215L18.9656 9.51184ZM19.0535 9.50764L18.975 8.00969L18.975 8.00969L19.0535 9.50764ZM22.1221 9.50415L22.1236 8.00415H22.1221V9.50415ZM24.8995 14.2092C22.5245 12.0501 20.1512 9.88827 17.7795 7.72356L15.7571 9.93937C18.1303 12.1054 20.5051 14.2686 22.8815 16.429L24.8995 14.2092ZM25.8129 15.5117C25.5865 14.8162 25.0954 14.3873 24.8994 14.2091L22.8816 16.4291C22.9296 16.4728 22.9613 16.5024 22.9862 16.5272C23.0103 16.5511 23.0201 16.5626 23.0219 16.5648C23.0231 16.5664 23.014 16.5555 23.0011 16.5332C22.9878 16.51 22.9726 16.4784 22.9602 16.4402L25.8129 15.5117ZM25.8865 16.2999V15.9759H22.8865V16.2999H25.8865ZM25.6065 17.1868C25.6386 17.1292 25.6524 17.1049 25.6639 17.0862L23.1092 15.5135C23.0581 15.5966 23.0131 15.6777 22.9864 15.7255L25.6065 17.1868ZM25.1846 17.802C25.4093 17.554 25.5558 17.2777 25.6065 17.1868L22.9864 15.7255C22.9689 15.757 22.9572 15.7779 22.9461 15.797C22.9356 15.8153 22.9294 15.8255 22.9259 15.831C22.9226 15.8363 22.9238 15.834 22.9291 15.8268C22.9345 15.8195 22.9453 15.8055 22.9616 15.7874L25.1846 17.802ZM23.4463 18.4992C23.7113 18.4992 24.5543 18.4961 25.1836 17.8031L22.9626 15.7863C23.116 15.6174 23.2911 15.5432 23.3954 15.515C23.4783 15.4926 23.517 15.4992 23.4463 15.4992V18.4992ZM22.3501 18.4992H23.4463V15.4992H22.3501V18.4992ZM23.8501 17.2057V16.9992H20.8501V17.2057H23.8501ZM23.8501 24.5163V17.2057H20.8501V24.5163H23.8501ZM21.7783 26.5893C22.1747 26.5893 22.7836 26.5002 23.2734 26.0089C23.7619 25.5188 23.8497 24.9113 23.8501 24.5178L20.8501 24.5147C20.8501 24.5136 20.848 24.1926 21.1486 23.891C21.4506 23.588 21.7739 23.5893 21.7783 23.5893V26.5893ZM17.8823 26.5893H21.7783V23.5893H17.8823V26.5893ZM15.8057 24.5041C15.8057 24.8861 15.8838 25.5016 16.3744 26.0004C16.8703 26.5046 17.491 26.5893 17.8823 26.5893V23.5893C17.8879 23.5893 17.9641 23.5891 18.0789 23.6257C18.204 23.6656 18.3658 23.7469 18.5132 23.8967C18.6599 24.0459 18.7363 24.206 18.7728 24.3244C18.8064 24.4333 18.8057 24.5035 18.8057 24.5041H15.8057ZM15.8057 20.5025V24.5041H18.8057V20.5025H15.8057ZM14.9132 22.0025H17.3057V19.0025H14.9132V22.0025ZM16.4132 24.49V20.5025H13.4132V24.49H16.4132ZM14.3184 26.5893C14.6861 26.5893 15.3277 26.5221 15.8399 26.0053C16.3486 25.492 16.4129 24.8538 16.4132 24.4914L13.4132 24.4886C13.4132 24.5522 13.3918 24.2136 13.7091 23.8935C14.0299 23.5698 14.3742 23.5893 14.3184 23.5893V26.5893ZM10.4714 26.5893H14.3184V23.5893H10.4714V26.5893ZM8.36923 24.4819C8.36923 24.8333 8.42502 25.4842 8.942 26.0058C9.46235 26.5308 10.1163 26.5893 10.4714 26.5893V23.5893C10.392 23.5893 10.7448 23.5631 11.0727 23.894C11.3973 24.2214 11.3692 24.5686 11.3692 24.4819H8.36923ZM8.36923 16.9992V24.4819H11.3692V16.9992H8.36923ZM9.64367 18.4992H9.86923V15.4992H9.64367V18.4992ZM9.32553 18.4981C9.4334 18.4981 9.53078 18.498 9.62658 18.4991L9.66077 15.4993C9.54409 15.498 9.42878 15.4981 9.32392 15.4981L9.32553 18.4981ZM8.48035 18.479C8.78599 18.499 9.08461 18.4983 9.32553 18.4981L9.32392 15.4981C9.06642 15.4983 8.86639 15.4978 8.67537 15.4854L8.48035 18.479ZM6.5607 17.1467C6.88304 17.828 7.53513 18.417 8.47964 18.479L8.67607 15.4854C8.7977 15.4934 8.94427 15.5392 9.07516 15.6364C9.19772 15.7274 9.25349 15.8235 9.27247 15.8636L6.5607 17.1467ZM7.18961 14.3308C6.86178 14.6296 6.54929 15.0384 6.40772 15.5695C6.25953 16.1254 6.33742 16.6718 6.55912 17.1434L9.27404 15.867C9.29341 15.9082 9.31772 15.9763 9.3275 16.0671C9.33748 16.1599 9.32987 16.2546 9.30649 16.3422C9.26018 16.516 9.1771 16.5784 9.21048 16.548L7.18961 14.3308ZM14.4558 7.71175C12.0332 9.91728 9.61111 12.1236 7.18959 14.3308L9.2105 16.548C11.6316 14.3412 14.0532 12.1353 16.4754 9.93013L14.4558 7.71175ZM14.9541 7.34184C14.7645 7.45217 14.5886 7.58442 14.4299 7.73587L16.5013 9.906C16.4897 9.91706 16.4768 9.92672 16.463 9.93477L14.9541 7.34184ZM17.7779 7.72213C17.4627 7.4352 17.0411 7.1646 16.512 7.06674C15.9562 6.96396 15.4289 7.07929 14.9835 7.32516L16.4336 9.95145C16.3956 9.9724 16.3306 10.0009 16.2414 10.0171C16.1501 10.0337 16.0555 10.0332 15.9664 10.0167C15.7909 9.98425 15.7224 9.90782 15.7586 9.9408L17.7779 7.72213ZM24.2081 12.7295V10.095H21.2081V12.7295H24.2081ZM24.2085 12.9101L24.2081 12.7262L21.2081 12.7329L21.2085 12.9167L24.2085 12.9101ZM17.9563 10.6215C19.2152 11.7666 20.4441 12.8833 21.7001 14.0239L23.7169 11.8029C22.4614 10.6628 21.2331 9.54667 19.9749 8.40221L17.9563 10.6215ZM18.975 8.00969C18.9507 8.01097 18.9298 8.01205 18.9043 8.0131L19.0269 11.0106C19.0712 11.0088 19.1072 11.0069 19.132 11.0056L18.975 8.00969ZM19.1486 8.00415C19.0733 8.00415 19.0034 8.00821 18.975 8.00969L19.132 11.0056C19.1419 11.0051 19.1487 11.0047 19.1547 11.0044C19.1605 11.0041 19.1636 11.004 19.165 11.0039C19.1677 11.0038 19.1607 11.0042 19.1486 11.0042V8.00415ZM22.1221 8.00415H19.1486V11.0042H22.1221V8.00415ZM24.2081 10.095C24.2081 9.72239 24.1369 9.09424 23.6349 8.58792C23.1302 8.07897 22.4998 8.00452 22.1236 8.00415L22.1207 11.0041C22.12 11.0041 22.1039 11.0042 22.0757 11.0005C22.0474 10.9969 22.0018 10.9891 21.9441 10.9712C21.8223 10.9335 21.6568 10.8538 21.5045 10.7002C21.3526 10.547 21.2753 10.3823 21.2393 10.2636C21.2222 10.2073 21.2147 10.1631 21.2114 10.1362C21.2096 10.1224 21.2088 10.112 21.2085 10.1053C21.2081 10.0986 21.2081 10.0951 21.2081 10.095H24.2081Z" fill="white" mask="url(#path-2-inside-1_2_9801)"/>
<defs>
<linearGradient id="paint0_linear_2_9801" x1="0.619562" y1="51.7435" x2="62.6314" y2="-52.2494" gradientUnits="userSpaceOnUse">
<stop offset="0.133413" stop-color="#40AFFF"/>
<stop offset="0.563974" stop-color="#B725FE"/>
</linearGradient>
</defs>
</svg>
