<svg width="24" height="24" viewBox="0 0 24 24" fill="none" xmlns="http://www.w3.org/2000/svg">
<rect x="2.8" y="6.02554" width="18.4" height="11.9489" rx="1.2" stroke="#E3DFEF" stroke-width="1.6"/>
<path d="M5.55148 9.48627H8.022V10.6745C8.022 11.2018 7.81489 11.708 7.44527 12.0841L7.11642 12.4187C6.7468 12.7947 6.53969 13.301 6.53969 13.8283V14.5137" stroke="#E3DFEF" stroke-width="1.6" stroke-linecap="round" stroke-linejoin="round"/>
<path d="M10.6121 9.48627H13.0826V10.6745C13.0826 11.2018 12.8755 11.708 12.5059 12.0841L12.177 12.4187C11.8074 12.7947 11.6003 13.301 11.6003 13.8283V14.5137" stroke="#E3DFEF" stroke-width="1.6" stroke-linecap="round" stroke-linejoin="round"/>
<path d="M15.6806 9.48627H18.1512V10.6745C18.1512 11.2018 17.944 11.708 17.5744 12.0841L17.2456 12.4187C16.8759 12.7947 16.6688 13.301 16.6688 13.8283V14.5137" stroke="#E3DFEF" stroke-width="1.6" stroke-linecap="round" stroke-linejoin="round"/>
<rect x="4.24751" y="2.30864" width="15.505" height="1.6" rx="0.8" fill="#E3DFEF"/>
<rect x="4.24751" y="20.0914" width="15.505" height="1.6" rx="0.8" fill="#E3DFEF"/>
</svg>
