<svg width="33" height="37" viewBox="0 0 33 37" fill="none" xmlns="http://www.w3.org/2000/svg">
<path d="M0.583984 12.0896V25.891C0.586066 26.6287 0.779502 27.3528 1.14498 27.9915C1.51046 28.6302 2.03532 29.1612 2.66719 29.5315L14.5088 36.4241C15.1381 36.7967 15.8545 36.9931 16.584 36.9931C17.3135 36.9931 18.0299 36.7967 18.6591 36.4241L30.5009 29.5315C31.1328 29.1612 31.6575 28.6302 32.0229 27.9915C32.3884 27.3528 32.5819 26.6287 32.5839 25.891V12.0896C32.5835 11.3517 32.3907 10.6268 32.0251 9.98777C31.6595 9.34877 31.1339 8.81818 30.5009 8.44919L18.6591 1.54039C18.0277 1.17417 17.3122 0.981445 16.584 0.981445C15.8558 0.981445 15.1402 1.17417 14.5088 1.54039L2.66719 8.44919C2.03423 8.81818 1.50847 9.34877 1.14283 9.98777C0.777189 10.6268 0.584453 11.3517 0.583984 12.0896Z" fill="url(#paint0_linear_2_10494)"/>
<mask id="path-2-inside-1_2_10494" fill="white">
<path fill-rule="evenodd" clip-rule="evenodd" d="M16.5056 18.1897C18.7242 18.1707 20.4967 16.3941 20.4894 14.1966H20.4902C20.4883 13.1382 20.066 12.1239 19.3162 11.3768C18.5665 10.6298 17.5506 10.2112 16.4922 10.2131C15.4338 10.2151 14.4195 10.6374 13.6725 11.3872C13.3026 11.7584 13.0094 12.1989 12.8098 12.6834C12.6101 13.168 12.5078 13.6871 12.5088 14.2112C12.5201 16.4196 14.3178 18.208 16.5056 18.1897ZM12.0606 26.7357C12.1235 26.7477 12.1864 26.7597 12.2489 26.7731L20.9487 26.7723C20.9828 26.7591 21.0181 26.7489 21.0541 26.742C22.4911 26.5835 23.4825 25.5083 23.4999 24.0635C23.5052 23.5787 23.4841 23.094 23.4367 22.6115C23.3452 21.6739 23.1398 20.7636 22.6828 19.9257C22.1715 18.987 21.4126 18.3987 20.3386 18.2407C19.9448 18.1828 19.5805 18.214 19.2491 18.4623C19.1019 18.5738 18.9428 18.6713 18.7837 18.7688C18.7497 18.7896 18.7158 18.8105 18.6819 18.8314C17.2974 19.689 15.9123 19.6901 14.5267 18.8347C14.4363 18.7792 14.3471 18.7208 14.258 18.6624C14.1122 18.567 13.9665 18.4717 13.8157 18.389C13.6633 18.3063 13.4875 18.2217 13.3206 18.2184C12.7956 18.2061 12.2764 18.3306 11.8142 18.5798C11.0497 18.9886 10.5939 19.6579 10.2799 20.4318C9.79333 21.6306 9.65274 22.8918 9.70663 24.1721C9.76092 25.4118 10.5048 26.321 11.6854 26.6516C11.8084 26.6876 11.9345 26.7116 12.0606 26.7357Z"/>
</mask>
<path d="M20.4894 14.1966V12.6966H18.9844L18.9894 14.2015L20.4894 14.1966ZM16.5056 18.1897L16.5181 19.6897L16.5185 19.6897L16.5056 18.1897ZM20.4902 14.1966V15.6966H21.993L21.9902 14.1938L20.4902 14.1966ZM19.3162 11.3768L20.3749 10.3142V10.3142L19.3162 11.3768ZM16.4922 10.2131L16.4895 8.71314L16.4922 10.2131ZM13.6725 11.3872L14.7351 12.4459L14.7351 12.4459L13.6725 11.3872ZM12.8098 12.6834L11.4229 12.1119L11.4229 12.1119L12.8098 12.6834ZM12.5088 14.2112L11.0088 14.2139L11.0088 14.2189L12.5088 14.2112ZM12.2489 26.7731L11.9329 28.2395L12.0892 28.2732L12.2491 28.2731L12.2489 26.7731ZM12.0606 26.7357L12.3416 25.2622L12.0606 26.7357ZM20.9487 26.7723L20.9489 28.2723L21.23 28.2723L21.492 28.1705L20.9487 26.7723ZM21.0541 26.742L20.8897 25.251L20.8291 25.2577L20.7692 25.2692L21.0541 26.742ZM23.4999 24.0635L24.9998 24.0816L24.9998 24.0798L23.4999 24.0635ZM23.4367 22.6115L21.9438 22.7573L21.9439 22.758L23.4367 22.6115ZM22.6828 19.9257L21.3655 20.6432L21.3659 20.644L22.6828 19.9257ZM20.3386 18.2407L20.1202 19.7247L20.1202 19.7247L20.3386 18.2407ZM19.2491 18.4623L18.3496 17.262L18.3435 17.2666L19.2491 18.4623ZM18.7837 18.7688L17.9999 17.4899L17.9999 17.4899L18.7837 18.7688ZM18.6819 18.8314L17.8925 17.556L17.8921 17.5562L18.6819 18.8314ZM14.5267 18.8347L15.3147 17.5583L15.3115 17.5563L14.5267 18.8347ZM14.258 18.6624L13.4366 19.9176L13.4366 19.9176L14.258 18.6624ZM13.8157 18.389L14.5369 17.0737L14.531 17.0705L13.8157 18.389ZM13.3206 18.2184L13.2852 19.718L13.2914 19.7181L13.3206 18.2184ZM11.8142 18.5798L12.5215 19.9026L12.5261 19.9001L11.8142 18.5798ZM10.2799 20.4318L11.6698 20.9959L11.6699 20.9957L10.2799 20.4318ZM9.70663 24.1721L8.20795 24.2352L8.20806 24.2377L9.70663 24.1721ZM11.6854 26.6516L12.1062 25.2119L12.0981 25.2095L12.0899 25.2072L11.6854 26.6516ZM18.9894 14.2015C18.9939 15.5603 17.8995 16.6777 16.4927 16.6898L16.5185 19.6897C19.5488 19.6637 21.9995 17.2279 21.9894 14.1916L18.9894 14.2015ZM20.4902 12.6966H20.4894V15.6966H20.4902V12.6966ZM18.2575 12.4394C18.7255 12.9057 18.989 13.5387 18.9902 14.1993L21.9902 14.1938C21.9876 12.7376 21.4065 11.3421 20.3749 10.3142L18.2575 12.4394ZM16.495 11.7131C17.1555 11.7119 17.7895 11.9732 18.2575 12.4394L20.3749 10.3142C19.3434 9.28642 17.9457 8.71048 16.4895 8.71314L16.495 11.7131ZM14.7351 12.4459C15.2013 11.9779 15.8344 11.7143 16.495 11.7131L16.4895 8.71314C15.0333 8.71581 13.6377 9.29684 12.6099 10.3284L14.7351 12.4459ZM14.1966 13.2549C14.3213 12.9525 14.5042 12.6776 14.7351 12.4459L12.6099 10.3284C12.101 10.8392 11.6976 11.4453 11.4229 12.1119L14.1966 13.2549ZM14.0088 14.2084C14.0082 13.8813 14.072 13.5573 14.1966 13.2549L11.4229 12.1119C11.1482 12.7786 11.0075 13.4928 11.0088 14.2139L14.0088 14.2084ZM16.4931 16.6898C15.1479 16.701 14.0159 15.594 14.0088 14.2035L11.0088 14.2189C11.0244 17.2453 13.4877 19.7149 16.5181 19.6897L16.4931 16.6898ZM12.565 25.3068C12.4821 25.289 12.4016 25.2737 12.3416 25.2622L11.7795 28.2091C11.8453 28.2217 11.8907 28.2304 11.9329 28.2395L12.565 25.3068ZM20.9486 25.2723L12.2488 25.2731L12.2491 28.2731L20.9489 28.2723L20.9486 25.2723ZM20.7692 25.2692C20.6451 25.2933 20.5233 25.3284 20.4054 25.3742L21.492 28.1705C21.4424 28.1898 21.3911 28.2046 21.3389 28.2147L20.7692 25.2692ZM22 24.0454C21.9919 24.7193 21.5864 25.1742 20.8897 25.251L21.2184 28.2329C23.3958 27.9929 24.9731 26.2972 24.9998 24.0816L22 24.0454ZM21.9439 22.758C21.986 23.1864 22.0047 23.6168 22 24.0472L24.9998 24.0798C25.0057 23.5406 24.9822 23.0015 24.9296 22.4649L21.9439 22.758ZM21.3659 20.644C21.693 21.2436 21.8637 21.937 21.9438 22.7573L24.9296 22.4656C24.8266 21.4109 24.5866 20.2835 23.9996 19.2074L21.3659 20.644ZM20.1202 19.7247C20.6777 19.8067 21.0543 20.0719 21.3655 20.6432L24 19.2082C23.2886 17.9021 22.1475 16.9907 20.5569 16.7567L20.1202 19.7247ZM20.1486 19.6627C20.1367 19.6716 20.1168 19.6841 20.0906 19.6952C20.0647 19.7062 20.0421 19.7119 20.0274 19.7145C20.0138 19.7168 20.0123 19.7156 20.0275 19.7158C20.0434 19.716 20.073 19.7178 20.1202 19.7247L20.5569 16.7567C19.946 16.6668 19.121 16.6839 18.3496 17.262L20.1486 19.6627ZM19.5675 20.0478C19.7156 19.957 19.9387 19.8217 20.1547 19.6581L18.3435 17.2666C18.2651 17.3259 18.1701 17.3856 17.9999 17.4899L19.5675 20.0478ZM19.4713 20.1069C19.5019 20.0879 19.533 20.0689 19.5675 20.0478L17.9999 17.4899C17.9664 17.5104 17.9296 17.533 17.8925 17.556L19.4713 20.1069ZM13.7387 20.111C14.6265 20.6591 15.5888 20.9762 16.6059 20.9754C17.6229 20.9746 18.5848 20.656 19.4717 20.1066L17.8921 17.5562C17.3945 17.8644 16.9716 17.9751 16.6035 17.9754C16.2355 17.9757 15.8125 17.8656 15.3147 17.5583L13.7387 20.111ZM13.4366 19.9176C13.5226 19.9739 13.6299 20.0442 13.7419 20.113L15.3115 17.5563C15.2427 17.5141 15.1716 17.4677 15.0794 17.4073L13.4366 19.9176ZM13.0945 19.7042C13.1853 19.7541 13.2822 19.8165 13.4366 19.9176L15.0794 17.4073C14.9422 17.3176 14.7477 17.1893 14.5368 17.0737L13.0945 19.7042ZM13.2914 19.7181C13.2125 19.7166 13.1513 19.7059 13.1124 19.697C13.0736 19.6882 13.0486 19.6791 13.0402 19.6759C13.0316 19.6726 13.032 19.6723 13.044 19.6781C13.0559 19.6838 13.0733 19.6928 13.1003 19.7074L14.531 17.0705C14.3989 16.9989 13.926 16.7299 13.3497 16.7187L13.2914 19.7181ZM12.5261 19.9001C12.759 19.7745 13.0207 19.7118 13.2852 19.718L13.3559 16.7188C12.5705 16.7003 11.7938 16.8867 11.1024 17.2595L12.5261 19.9001ZM11.6699 20.9957C11.908 20.4087 12.1762 20.0872 12.5215 19.9026L11.1069 17.257C9.92317 17.89 9.27976 18.9071 8.88998 19.8678L11.6699 20.9957ZM11.2053 24.109C11.1577 22.9777 11.2854 21.9429 11.6698 20.9959L8.89003 19.8676C8.30125 21.3183 8.1478 22.806 8.20795 24.2352L11.2053 24.109ZM12.0899 25.2072C11.5191 25.0473 11.2305 24.6835 11.2052 24.1065L8.20806 24.2377C8.29137 26.1402 9.49044 27.5947 11.2809 28.096L12.0899 25.2072ZM12.3416 25.2622C12.2036 25.2359 12.1486 25.2242 12.1062 25.2119L11.2645 28.0913C11.4682 28.1509 11.6653 28.1873 11.7795 28.2091L12.3416 25.2622Z" fill="white" mask="url(#path-2-inside-1_2_10494)"/>
<defs>
<linearGradient id="paint0_linear_2_10494" x1="-4.9275" y1="28.9308" x2="41.0725" y2="-24.0692" gradientUnits="userSpaceOnUse">
<stop stop-color="#40AFFF"/>
<stop offset="1" stop-color="#B725FE"/>
</linearGradient>
</defs>
</svg>
