<svg width="24" height="24" viewBox="0 0 24 24" fill="none" xmlns="http://www.w3.org/2000/svg">
<rect x="3" y="8" width="18" height="4" rx="2" stroke="#E3DFEF" stroke-width="1.6" stroke-linecap="round" stroke-linejoin="round"/>
<path d="M5 12H19V18C19 19.1046 18.1046 20 17 20H7C5.89543 20 5 19.1046 5 18V12Z" stroke="#E3DFEF" stroke-width="1.6" stroke-linecap="round" stroke-linejoin="round"/>
<path d="M12 8V20" stroke="#E3DFEF" stroke-width="1.6" stroke-linecap="round" stroke-linejoin="round"/>
<path d="M6 5.90909C6 4.85473 6.85473 4 7.90909 4H8.12903C10.2669 4 12 5.73309 12 7.87097V7.87097C12 7.94223 11.9422 8 11.871 8H7.76C6.78798 8 6 7.21202 6 6.24V5.90909Z" stroke="#E3DFEF" stroke-width="1.6" stroke-linecap="round" stroke-linejoin="round"/>
<path d="M18 5.90909C18 4.85473 17.1453 4 16.0909 4H15.871C13.7331 4 12 5.73309 12 7.87097V7.87097C12 7.94223 12.0578 8 12.129 8H16.24C17.212 8 18 7.21202 18 6.24V5.90909Z" stroke="#E3DFEF" stroke-width="1.6" stroke-linecap="round" stroke-linejoin="round"/>
</svg>
