<svg width="24" height="24" viewBox="0 0 24 24" fill="none" xmlns="http://www.w3.org/2000/svg">
<path d="M22 12L19.73 14.07L20.66 17L17.66 17.66L17 20.66L14.07 19.73L12 22L9.93 19.73L7 20.66L6.34 17.66L3.34 17L4.27 14.07L2 12L4.27 9.93L3.34 7L6.34 6.34L7 3.34L9.93 4.27L12 2L14.07 4.27L17 3.34L17.66 6.34L20.66 7L19.73 9.93L22 12Z" stroke="#E3DFEF" stroke-width="1.6" stroke-miterlimit="10" stroke-linejoin="round"/>
<path d="M15.3904 13.246L14.7294 13.4231C14.6872 13.4344 14.6428 13.4174 14.6204 13.3813L12.5332 10.0078C12.5173 9.98229 12.515 9.95079 12.5267 9.92283C12.5384 9.89486 12.5629 9.87369 12.5928 9.86568L13.3551 9.66143C13.3585 9.66052 13.3619 9.65979 13.3653 9.65924L13.3812 9.655L13.3829 9.65798C13.4166 9.6585 13.4482 9.67596 13.4653 9.70542L14.6205 11.6909L14.6739 9.3686C14.6749 9.32591 14.7049 9.28859 14.7474 9.2772L15.4166 9.0979L15.4313 9.12257C15.4455 9.13041 15.4578 9.14182 15.4665 9.15622L16.674 11.1407L16.6816 8.84362C16.6818 8.80025 16.712 8.76196 16.7551 8.75039L17.4989 8.5511C17.5023 8.55019 17.5057 8.54946 17.5091 8.54892L17.594 8.52616L17.593 8.57456C17.612 8.59274 17.6225 8.61796 17.6217 8.64439L17.5169 12.0783L17.5039 12.6797L16.8083 12.8661C16.7662 12.8774 16.7219 12.8605 16.6995 12.8247L15.5017 10.9096L15.4219 13.167C15.421 13.193 15.4093 13.2169 15.3907 13.234L15.3904 13.246Z" fill="#E3DFEF"/>
<path d="M9.1205 14.6487L7.35791 13.1201L7.89586 15.1277C7.90947 15.1785 7.87797 15.2311 7.8255 15.2451L7.12331 15.4333C7.11785 15.4347 7.11238 15.4357 7.10695 15.4363L7.02795 15.4574L6.00293 11.632L6.08777 11.6093C6.09102 11.608 6.09436 11.6069 6.0978 11.606L6.75379 11.4302C6.78585 11.4217 6.81995 11.4293 6.84446 11.4506L8.71702 13.0762L8.19867 11.1417C8.19082 11.1124 8.19797 11.0825 8.2155 11.0597L8.21035 11.0405L8.259 11.0275C8.26225 11.0262 8.26559 11.0252 8.26903 11.0242L8.97121 10.8361C9.02369 10.822 9.07726 10.8518 9.09087 10.9026L10.0671 14.5459C10.0807 14.5967 10.0492 14.6493 9.99673 14.6634L9.39156 14.8255C9.38617 14.827 9.38072 14.8279 9.37527 14.8285L9.334 14.8395L9.1205 14.6487Z" fill="#E3DFEF"/>
<path d="M9.73747 10.6313C9.74072 10.6301 9.74406 10.629 9.74749 10.6281L12.1867 9.97451C12.2391 9.96045 12.2927 9.99024 12.3063 10.041L12.4974 10.7541C12.511 10.8049 12.4795 10.8575 12.427 10.8715L10.7897 11.3103L10.9384 11.8653L12.3679 11.4823C12.4203 11.4683 12.4739 11.498 12.4875 11.5489L12.6786 12.2619C12.6922 12.3127 12.6607 12.3653 12.6082 12.3793L11.1788 12.7624L11.3345 13.3435L12.9949 12.8986C13.0474 12.8845 13.101 12.9143 13.1146 12.9651L13.3056 13.6781C13.3192 13.7289 13.2877 13.7815 13.2353 13.7956L10.773 14.4554C10.7675 14.4568 10.7621 14.4578 10.7566 14.4583L10.7385 14.4632L10.7372 14.4584C10.698 14.4546 10.6638 14.428 10.6533 14.3888L9.67713 10.7455C9.66665 10.7064 9.68293 10.6662 9.71496 10.6434L9.71345 10.6378L9.73747 10.6313Z" fill="#E3DFEF"/>
</svg>
