<svg width="33" height="37" viewBox="0 0 33 37" fill="none" xmlns="http://www.w3.org/2000/svg">
<path d="M0.583984 11.5326V25.334C0.586066 26.0717 0.779502 26.7958 1.14498 27.4345C1.51046 28.0732 2.03532 28.6042 2.66719 28.9745L14.5088 35.8671C15.1381 36.2397 15.8545 36.4361 16.584 36.4361C17.3135 36.4361 18.0299 36.2397 18.6591 35.8671L30.5009 28.9745C31.1328 28.6042 31.6575 28.0732 32.0229 27.4345C32.3884 26.7958 32.5819 26.0717 32.5839 25.334V11.5326C32.5835 10.7946 32.3907 10.0698 32.0251 9.43076C31.6595 8.79177 31.1339 8.26117 30.5009 7.89218L18.6591 0.983383C18.0277 0.617161 17.3122 0.424438 16.584 0.424438C15.8558 0.424438 15.1402 0.617161 14.5088 0.983383L2.66719 7.89218C2.03423 8.26117 1.50847 8.79177 1.14283 9.43076C0.777189 10.0698 0.584453 10.7946 0.583984 11.5326Z" fill="url(#paint0_linear_2_10385)"/>
<path fill-rule="evenodd" clip-rule="evenodd" d="M20.3522 11.7436L20.3526 11.7448L20.3544 11.7502L20.3546 11.751L20.355 11.7521C20.7451 12.9588 21.1358 14.1672 21.5236 15.3757L21.563 15.4985L21.5632 15.4991C22.2185 17.5398 22.866 19.5561 23.5217 21.548C23.6308 21.8345 23.6382 22.1498 23.5427 22.4411C23.4471 22.7324 23.2544 22.982 22.9968 23.1482C22.8394 23.2486 22.6623 23.314 22.4775 23.3401C22.2926 23.3662 22.1043 23.3523 21.9253 23.2993C21.7463 23.2463 21.5808 23.1555 21.4399 23.0331C21.299 22.9106 21.1861 22.7593 21.1087 22.5894C21.0661 22.5055 21.0321 22.4175 21.0071 22.3268C19.6807 18.2346 18.357 14.1396 17.0362 10.0417C16.9508 9.84056 16.9166 9.62138 16.9367 9.40378C16.9567 9.18619 17.0305 8.97701 17.1513 8.79493C17.2721 8.61285 17.4363 8.46359 17.629 8.36054C17.8217 8.25748 18.0369 8.20388 18.2554 8.20447C18.4994 8.2065 18.738 8.27651 18.9444 8.40663C19.1508 8.53675 19.3168 8.72181 19.4238 8.94107C19.4745 9.05082 19.5167 9.16901 19.5589 9.28719L19.5589 9.28721L19.5593 9.28823C19.8224 10.105 20.0869 10.9231 20.3517 11.742L20.3522 11.7436ZM10.221 14.6307L12.8118 22.6401L19.7206 22.6995C18.4083 18.627 17.1044 14.5968 15.7921 10.5413L10.221 14.6307ZM17.841 21.3279H13.7854L11.8043 15.181L15.0724 12.7765L16.9774 18.7032L17.841 21.3279ZM11.4572 22.8012C10.6444 20.2951 9.83729 17.7974 9.03578 15.3082H8.96803L8.62905 15.4157L8.62895 15.4157C7.69912 15.7103 6.76479 16.0062 5.84387 16.3157C5.55069 16.4034 5.28475 16.5645 5.07136 16.7838C4.85797 17.0031 4.70423 17.2733 4.62467 17.5688C4.55937 17.9006 4.52812 18.2382 4.5315 18.5764L5.87772 22.7504C6.04039 23.0869 6.29566 23.37 6.6136 23.5665C6.93154 23.7629 7.29895 23.8646 7.67266 23.8596C7.9436 23.8586 8.21253 23.8128 8.46853 23.7241C9.13909 23.476 9.85213 23.2597 10.5572 23.0459L10.5578 23.0457C10.7427 22.9896 10.9272 22.9337 11.1101 22.8774L11.4572 22.8012ZM8.07057 22.488C7.96204 22.5275 7.84743 22.5475 7.73193 22.5472C7.61016 22.5531 7.48937 22.5224 7.38523 22.459C7.28109 22.3956 7.19838 22.3026 7.14773 22.1917L6.6228 20.5745L5.92852 18.4324V18.3308C5.91758 18.2097 5.91758 18.0879 5.92852 17.9668C5.92852 17.8567 6.01316 17.7297 6.27563 17.6366L8.16374 17.0184L9.75548 21.9546C9.19668 22.0985 8.62093 22.2848 8.04519 22.488H8.07057ZM13.5656 24.9059L13.5655 24.9059L13.5654 24.906C13.4563 24.9398 13.3463 24.9739 13.2353 25.0109L13.1917 24.906L13.1917 24.9059C13.0808 24.6385 12.9742 24.3815 12.8543 24.1643C12.8543 24.105 12.7527 24.0203 12.7019 24.0203C12.4632 24.0052 12.2236 24.0252 11.9907 24.0796C11.3527 24.2716 10.7222 24.4786 10.0917 24.6856C9.77675 24.789 9.46179 24.8924 9.14589 24.994L8.92575 25.0617C8.94179 25.1249 8.96159 25.1872 8.98502 25.248C9.09295 25.4935 9.19981 25.739 9.30667 25.9844L9.30678 25.9847L9.30681 25.9847C9.62746 26.7213 9.94812 27.4579 10.2974 28.1944C10.3708 28.3577 10.4408 28.5237 10.511 28.69L10.511 28.69C10.659 29.041 10.8078 29.3936 10.9916 29.7268C11.1638 30.0202 11.4121 30.2617 11.7101 30.4256C12.0082 30.5895 12.345 30.67 12.685 30.6583C12.8884 30.6593 13.0909 30.6307 13.2861 30.5735C13.6896 30.4388 14.0407 30.1809 14.2898 29.8361C14.5389 29.4913 14.6735 29.077 14.6747 28.6517C14.6311 28.2501 14.5073 27.8613 14.3106 27.5086C14.2771 27.4283 14.2434 27.3466 14.2092 27.2642L14.2091 27.2639L14.2091 27.2639C14.0706 26.9293 13.9266 26.5815 13.7772 26.2555C14.9879 25.9846 15.9193 25.4596 15.9447 24.0372H14.6239C14.6313 24.1767 14.5943 24.315 14.5182 24.4322C14.4422 24.5493 14.331 24.6393 14.2005 24.6892C13.9927 24.7735 13.781 24.8391 13.5657 24.9059L13.5657 24.9059L13.5656 24.9059ZM12.8797 29.2273C12.8069 29.2396 12.7325 29.2396 12.6596 29.2273C12.5676 29.2327 12.4758 29.2145 12.3929 29.1745C12.3099 29.1345 12.2385 29.074 12.1855 28.9987C12.0205 28.6914 11.8735 28.3748 11.7452 28.0504L11.5335 27.5594C11.3786 27.2195 11.2266 26.8767 11.074 26.5326L11.074 26.5326L11.074 26.5325L11.074 26.5325L11.074 26.5325L11.074 26.5325L11.074 26.5324C10.9682 26.2938 10.8621 26.0545 10.7546 25.8152L11.9568 25.4343V25.5104C12.0482 25.7202 12.1908 25.9037 12.3717 26.0438C12.3464 26.2691 12.3815 26.497 12.4733 26.7043L12.6426 27.1022L13.0067 27.9489L13.1083 28.169C13.1728 28.2989 13.2238 28.4351 13.2607 28.5754C13.2646 28.7066 13.2308 28.8362 13.1633 28.9488C13.0957 29.0614 12.9974 29.1521 12.8797 29.2104V29.2273ZM27.4075 16.6237C27.5097 16.7198 27.5781 16.8463 27.6027 16.9844C27.6293 17.1169 27.6124 17.2544 27.5544 17.3765C27.4964 17.4986 27.4005 17.5986 27.281 17.6617C27.1679 17.7079 27.0475 17.7338 26.9254 17.7379H26.8407C25.8755 17.6109 24.9019 17.4755 23.9367 17.3231C23.7828 17.3073 23.6395 17.2372 23.5325 17.1256C23.4255 17.0139 23.3617 16.8678 23.3525 16.7134C23.3476 16.5574 23.3962 16.4044 23.4901 16.2797C23.584 16.155 23.7176 16.0661 23.8689 16.0276H24.1144L27.0355 16.451C27.1748 16.467 27.3053 16.5276 27.4075 16.6237ZM22.3956 12.3279C22.5569 12.3256 22.7113 12.262 22.8274 12.15C23.4175 11.5938 23.9968 11.0267 24.5782 10.4575C24.7225 10.3162 24.867 10.1748 25.0118 10.0334C25.0901 9.95504 25.1462 9.85736 25.1745 9.75028C25.2027 9.64319 25.2021 9.53055 25.1726 9.42378C25.1302 9.28492 25.0453 9.16285 24.9299 9.07476C24.8144 8.98667 24.6743 8.93704 24.5292 8.93275C24.3653 8.93457 24.2081 8.99802 24.0889 9.11052C23.3523 9.79632 22.6327 10.499 21.9214 11.2102C21.8613 11.2693 21.8135 11.3399 21.7809 11.4177C21.7483 11.4954 21.7314 11.5789 21.7314 11.6632C21.7314 11.7476 21.7483 11.831 21.7809 11.9088C21.8135 11.9866 21.8613 12.0571 21.9214 12.1162C21.9818 12.1821 22.055 12.2349 22.1365 12.2713C22.2181 12.3077 22.3063 12.327 22.3956 12.3279ZM22.8008 13.6433C22.8742 13.5886 22.9583 13.5499 23.0476 13.5298L24.2922 13.1235L25.5029 12.734C25.5822 12.7079 25.665 12.6936 25.7485 12.6916C25.8862 12.6893 26.021 12.7318 26.1325 12.8128C26.244 12.8937 26.3262 13.0087 26.3666 13.1404C26.3963 13.2259 26.4079 13.3166 26.4007 13.4069C26.3934 13.4971 26.3675 13.5849 26.3245 13.6645C26.2815 13.7442 26.2223 13.8139 26.1509 13.8695C26.0794 13.925 25.9971 13.9651 25.9093 13.9871L23.4371 14.8337C23.3557 14.8457 23.273 14.8457 23.1915 14.8337C23.0524 14.837 22.9161 14.7939 22.8041 14.7111C22.6922 14.6283 22.611 14.5106 22.5734 14.3765C22.5439 14.2899 22.5329 14.198 22.5412 14.1069C22.5495 14.0157 22.5769 13.9273 22.6217 13.8474C22.6664 13.7676 22.7274 13.698 22.8008 13.6433Z" fill="white"/>
<defs>
<linearGradient id="paint0_linear_2_10385" x1="0.591938" y1="55.7111" x2="46.0209" y2="0.440559" gradientUnits="userSpaceOnUse">
<stop stop-color="#40AFFF"/>
<stop offset="1" stop-color="#B725FE"/>
</linearGradient>
</defs>
</svg>
