<svg width="20" height="20" viewBox="0 0 20 20" fill="none" xmlns="http://www.w3.org/2000/svg">
<g clip-path="url(#clip0_2_9836)">
<path d="M4.06882 12.893C4.06882 13.2879 3.95181 13.674 3.73257 14.0024C3.51333 14.3307 3.20172 14.5867 2.83714 14.7378C2.47256 14.8889 2.07138 14.9285 1.68435 14.8514C1.29731 14.7744 0.941796 14.5842 0.662758 14.305C0.383721 14.0257 0.193694 13.6699 0.116708 13.2826C0.0397215 12.8952 0.0792336 12.4937 0.230248 12.1288C0.381262 11.764 0.636995 11.4521 0.965108 11.2327C1.29322 11.0133 1.67898 10.8962 2.0736 10.8962H4.06882V12.893ZM5.06644 12.893C5.06644 12.3634 5.27665 11.8555 5.65083 11.481C6.025 11.1066 6.5325 10.8962 7.06166 10.8962C7.59083 10.8962 8.09832 11.1066 8.4725 11.481C8.84668 11.8555 9.05689 12.3634 9.05689 12.893V17.885C9.05689 18.4146 8.84668 18.9225 8.4725 19.297C8.09832 19.6715 7.59083 19.8818 7.06166 19.8818C6.5325 19.8818 6.025 19.6715 5.65083 19.297C5.27665 18.9225 5.06644 18.4146 5.06644 17.885V12.893Z" fill="#E01E5A"/>
<path d="M7.06164 4.87547C6.66702 4.87547 6.28127 4.75836 5.95315 4.53894C5.62504 4.31953 5.36931 4.00767 5.21829 3.6428C5.06728 3.27793 5.02777 2.87644 5.10475 2.48909C5.18174 2.10175 5.37177 1.74595 5.6508 1.46669C5.92984 1.18743 6.28536 0.997253 6.67239 0.920205C7.05943 0.843158 7.4606 0.882701 7.82518 1.03384C8.18976 1.18497 8.50137 1.44091 8.72061 1.76928C8.93985 2.09766 9.05687 2.48372 9.05687 2.87865V4.87547H7.06164ZM7.06164 5.889C7.59081 5.889 8.0983 6.09938 8.47248 6.47386C8.84666 6.84833 9.05687 7.35623 9.05687 7.88582C9.05687 8.41541 8.84666 8.9233 8.47248 9.29778C8.0983 9.67226 7.59081 9.88263 7.06164 9.88263H2.05846C1.52929 9.88263 1.0218 9.67226 0.647621 9.29778C0.273443 8.9233 0.0632324 8.41541 0.0632324 7.88582C0.0632324 7.35623 0.273443 6.84833 0.647621 6.47386C1.0218 6.09938 1.52929 5.889 2.05846 5.889H7.06164Z" fill="#36C5F0"/>
<path d="M15.0576 7.88582C15.0576 7.49088 15.1747 7.10482 15.3939 6.77645C15.6131 6.44807 15.9248 6.19213 16.2893 6.041C16.6539 5.88987 17.0551 5.85032 17.4421 5.92737C17.8292 6.00442 18.1847 6.1946 18.4637 6.47386C18.7427 6.75312 18.9328 7.10891 19.0098 7.49626C19.0867 7.8836 19.0472 8.28509 18.8962 8.64997C18.7452 9.01484 18.4895 9.3267 18.1614 9.54611C17.8332 9.76552 17.4475 9.88263 17.0529 9.88263H15.0576V7.88582ZM14.06 7.88582C14.06 8.41541 13.8498 8.9233 13.4756 9.29778C13.1015 9.67225 12.594 9.88263 12.0648 9.88263C11.5356 9.88263 11.0281 9.67225 10.654 9.29778C10.2798 8.9233 10.0696 8.41541 10.0696 7.88582V2.87865C10.0696 2.34906 10.2798 1.84117 10.654 1.46669C11.0281 1.09221 11.5356 0.881836 12.0648 0.881836C12.594 0.881836 13.1015 1.09221 13.4756 1.46669C13.8498 1.84117 14.06 2.34906 14.06 2.87865V7.88582Z" fill="#2EB67D"/>
<path d="M12.0648 15.8882C12.4594 15.8882 12.8452 16.0053 13.1733 16.2247C13.5014 16.4442 13.7571 16.756 13.9082 17.1209C14.0592 17.4858 14.0987 17.8872 14.0217 18.2746C13.9447 18.6619 13.7547 19.0177 13.4756 19.297C13.1966 19.5763 12.8411 19.7664 12.4541 19.8435C12.067 19.9205 11.6658 19.881 11.3013 19.7298C10.9367 19.5787 10.6251 19.3228 10.4058 18.9944C10.1866 18.666 10.0696 18.28 10.0696 17.885V15.8882H12.0648ZM12.0648 14.8898C11.5356 14.8898 11.0281 14.6794 10.654 14.305C10.2798 13.9305 10.0696 13.4226 10.0696 12.893C10.0696 12.3634 10.2798 11.8555 10.654 11.481C11.0281 11.1066 11.5356 10.8962 12.0648 10.8962H17.068C17.5972 10.8962 18.1046 11.1066 18.4788 11.481C18.853 11.8555 19.0632 12.3634 19.0632 12.893C19.0632 13.4226 18.853 13.9305 18.4788 14.305C18.1046 14.6794 17.5972 14.8898 17.068 14.8898H12.0648Z" fill="#ECB22E"/>
</g>
<defs>
<clipPath id="clip0_2_9836">
<rect width="19" height="19" fill="white" transform="translate(0.0632324 0.881836)"/>
</clipPath>
</defs>
</svg>
