<svg width="24" height="24" viewBox="0 0 24 24" fill="none" xmlns="http://www.w3.org/2000/svg">
<g clip-path="url(#clip0_1_51)">
<g clip-path="url(#clip1_1_51)">
<path d="M12.4775 4.60668L12.8774 2.99818C13.0576 2.29247 13.7734 1.8607 14.4792 2.04089L21.5104 3.80003C22.2161 3.98022 22.6479 4.69609 22.4677 5.40181L19.7533 16.3079C19.5731 17.0136 18.8572 17.4454 18.1515 17.2652L16.8078 16.9316" stroke="#E3DFEF" stroke-width="1.6" stroke-miterlimit="10" stroke-linejoin="round"/>
<path d="M6.92824 7.787L6.9318 5.91831C6.93286 5.19492 7.52415 4.60012 8.25749 4.60216L15.5014 4.61375C16.2347 4.61579 16.8196 5.20609 16.8175 5.93943L16.8021 17.1923C16.8001 17.9257 16.2098 18.5105 15.4765 18.5085L14.17 18.5102" stroke="#E3DFEF" stroke-width="1.6" stroke-miterlimit="10" stroke-linejoin="round"/>
<path d="M13.3069 20.5352L6.26423 22.2517C5.554 22.4228 4.84298 21.9909 4.67192 21.2806L2.0031 10.3456C1.83203 9.63536 2.27489 8.91538 2.97518 8.74333L10.0178 7.02679C10.7281 6.85573 11.4391 7.28765 11.6102 7.99789L14.269 18.9319C14.45 19.6431 14.0171 20.3641 13.3069 20.5352Z" stroke="#E3DFEF" stroke-width="1.6" stroke-miterlimit="10" stroke-linejoin="round"/>
<path d="M7.80307 13.6194C7.79023 13.6636 7.72354 13.6811 7.69062 13.649C7.48653 13.4495 7.09515 13.2575 6.63955 13.3773C5.7886 13.601 5.69007 14.8431 6.38944 15.3919C6.78437 15.7018 7.82762 16.1972 8.28362 16.4074C8.41136 16.4663 8.56123 16.4269 8.6435 16.3128C8.93715 15.9055 9.60179 14.961 9.79324 14.4969C10.1323 13.6752 9.43553 12.6421 8.58458 12.8659C8.12898 12.9856 7.88267 13.3454 7.80307 13.6194Z" fill="#E3DFEF"/>
</g>
</g>
<defs>
<clipPath id="clip0_1_51">
<rect width="24" height="24" fill="white"/>
</clipPath>
<clipPath id="clip1_1_51">
<rect width="21.57" height="22.61" fill="white" transform="translate(2.15) rotate(5.63693)"/>
</clipPath>
</defs>
</svg>
