<svg width="20" height="19" viewBox="0 0 20 19" fill="none" xmlns="http://www.w3.org/2000/svg">
<path d="M9.78091 18.6322C14.8898 18.6322 19.0313 14.4907 19.0313 9.38181C19.0313 4.27295 14.8898 0.131409 9.78091 0.131409C4.67206 0.131409 0.530518 4.27295 0.530518 9.38181C0.530518 14.4907 4.67206 18.6322 9.78091 18.6322Z" fill="url(#paint0_linear_2_9830)"/>
<path d="M5.67554 10.3103L7.2189 14.5821C7.2189 14.5821 7.41182 14.9812 7.61796 14.9812C7.82411 14.9812 10.8976 11.7842 10.8976 11.7842L14.315 5.18414L5.73066 9.20791L5.67554 10.3103Z" fill="#C8DAEA"/>
<path d="M7.72135 11.4061L7.42481 14.5512C7.42481 14.5512 7.30134 15.5158 8.26594 14.5512C9.23054 13.5866 10.1532 12.8425 10.1532 12.8425" fill="#A9C6D8"/>
<path d="M5.69959 10.4624L2.52578 9.42836C2.52578 9.42836 2.14655 9.27403 2.26782 8.92567C2.29317 8.85291 2.34388 8.79228 2.49601 8.68645C3.19935 8.19588 15.5154 3.76864 15.5154 3.76864C15.5154 3.76864 15.8626 3.65179 16.0666 3.73006C16.1169 3.74563 16.1623 3.77421 16.1981 3.81292C16.2339 3.85163 16.2589 3.8991 16.2705 3.95054C16.2927 4.04214 16.3019 4.13638 16.2981 4.23055C16.2981 4.31212 16.287 4.38819 16.2804 4.50615C16.2044 5.71879 13.9654 14.7496 13.9654 14.7496C13.9654 14.7496 13.8309 15.2777 13.3491 15.3008C13.2309 15.3047 13.113 15.2848 13.0026 15.2422C12.8922 15.1996 12.7914 15.1352 12.7064 15.0528C11.7617 14.2403 8.49858 12.0466 7.77761 11.5648C7.76135 11.5538 7.74763 11.5395 7.73736 11.5227C7.7271 11.506 7.72052 11.4873 7.71808 11.4678C7.70816 11.4171 7.76328 11.3576 7.76328 11.3576C7.76328 11.3576 13.4462 6.30637 13.5972 5.77611C13.6093 5.73532 13.5652 5.71438 13.5057 5.73201C13.1276 5.87092 6.58482 10.0038 5.86274 10.4591C5.80944 10.4735 5.75343 10.4746 5.69959 10.4624Z" fill="white"/>
<defs>
<linearGradient id="paint0_linear_2_9830" x1="9.78091" y1="18.6322" x2="9.78091" y2="0.131409" gradientUnits="userSpaceOnUse">
<stop stop-color="#1D93D2"/>
<stop offset="1" stop-color="#38B0E3"/>
</linearGradient>
</defs>
</svg>
