<svg width="20" height="19" viewBox="0 0 20 19" fill="none" xmlns="http://www.w3.org/2000/svg">
<path fill-rule="evenodd" clip-rule="evenodd" d="M4.2071 2.01115C4.19227 1.00378 5.01011 0.199997 6.00006 0.199997H14C14.9909 0.199997 15.8068 1.005 15.7939 2.01018L15.7912 2.2H18C18.9689 2.2 19.8576 3.00464 19.7351 4.0864C19.5661 5.57838 19.0487 7.46349 18.01 8.99977C17.0854 10.3672 15.7181 11.4907 13.8249 11.7457C13.6185 12.0436 13.3888 12.3189 13.1324 12.5653C12.8954 12.7932 12.6388 12.9933 12.3623 13.1623C12.5921 13.9516 13.0171 14.3754 13.469 14.7771C13.5122 14.8155 13.5587 14.8556 13.6076 14.8978C14.0891 15.3132 14.8 15.9266 14.8 17V17.007V17.014V17.0209V17.0278V17.0347V17.0415V17.0483V17.0551V17.0618V17.0685V17.0752V17.0818V17.0884V17.095V17.1015V17.108V17.1144V17.1208V17.1272V17.1336V17.1399V17.1462V17.1524V17.1586V17.1648V17.171V17.1771V17.1832V17.1892V17.1952V17.2012V17.2071V17.2131V17.2189V17.2248V17.2306V17.2364V17.2422V17.2479V17.2536V17.2592V17.2648V17.2704V17.276V17.2815V17.287V17.2925V17.2979V17.3033V17.3087V17.314V17.3193V17.3246V17.3299V17.3351V17.3403V17.3454V17.3505V17.3556V17.3607V17.3657V17.3707V17.3757V17.3807V17.3856V17.3905V17.3953V17.4001V17.4049V17.4097V17.4144V17.4191V17.4238V17.4285V17.4331V17.4377V17.4422V17.4468V17.4513V17.4558V17.4602V17.4646V17.469V17.4734V17.4777V17.482V17.4863V17.4906V17.4948V17.499V17.5032V17.5073V17.5114V17.5155V17.5196V17.5236V17.5276V17.5316V17.5355V17.5395V17.5434V17.5473V17.5511V17.5549V17.5587V17.5625V17.5662V17.57V17.5737V17.5773V17.581V17.5846V17.5882V17.5917V17.5953V17.5988V17.6023V17.6057V17.6092V17.6126V17.616V17.6194V17.6227V17.626V17.6293V17.6326V17.6358V17.6391V17.6423V17.6454V17.6486V17.6517V17.6548V17.6579V17.661V17.664V17.667V17.67V17.673V17.6759V17.6788V17.6817V17.6846V17.6874V17.6903V17.6931V17.6959V17.6986V17.7014V17.7041V17.7068V17.7095V17.7121V17.7147V17.7174V17.7199V17.7225V17.7251V17.7276V17.7301V17.7326V17.735V17.7375V17.7399V17.7423V17.7447V17.7471V17.7494V17.7517V17.754V17.7563V17.7586V17.7608V17.763V17.7652V17.7674V17.7696V17.7717V17.7739V17.776V17.7781V17.7801V17.7822V17.7842V17.7862V17.7882V17.7902V17.7922V17.7941V17.796V17.7979V17.7998V17.8017V17.8035V17.8054V17.8072V17.809V17.8107V17.8125V17.8143V17.816V17.8177V17.8194V17.8211V17.8227V17.8244V17.826V17.8276V17.8292V17.8308V17.8323V17.8339V17.8354V17.8369V17.8384V17.8399V17.8414V17.8428V17.8443V17.8457V17.8471V17.8485V17.8499V17.8512V17.8526V17.8539V17.8552V17.8565V17.8578V17.8591V17.8604V17.8616V17.8628V17.8641V17.8653V17.8665V17.8676V17.8688V17.8699V17.8711V17.8722V17.8733V17.8744V17.8755V17.8766V17.8776V17.8787V17.8797V17.8807V17.8817V17.8827V17.8837V17.8847V17.8856V17.8866V17.8875V17.8884V17.8893V17.8902V17.8911V17.892V17.8929V17.8937V17.8945V17.8954V17.8962V17.897V17.8978V17.8986V17.8994V17.9001V17.9009V17.9016V17.9024V17.9031V17.9038V17.9045V17.9052V17.9059V17.9066V17.9072V17.9079V17.9085V17.9092V17.9098V17.9104V17.911V17.9116V17.9122V17.9128V17.9134V17.914V17.9145V17.9151V17.9156V17.9161V17.9167V17.9172V17.9177V17.9182V17.9187V17.9192V17.9197V17.9201V17.9206V17.9211V17.9215V17.922V17.9224V17.9228V17.9232V17.9237V17.9241V17.9245V17.9249V17.9253V17.9256V17.926V17.9264V17.9268V17.9271V17.9275V17.9278V17.9282V17.9285V17.9288V17.9292V17.9295V17.9298V17.9301V17.9304V17.9307V17.931V17.9313V17.9316V17.9319V17.9322V17.9324V17.9327V17.933V17.9332V17.9335V17.9338V17.934V17.9343V17.9345V17.9347V17.935V17.9352V17.9355V17.9357V17.9359V17.9361V17.9364V17.9366V17.9368V17.937V17.9372V17.9374V17.9376V17.9378V17.938V17.9382V17.9384V17.9386V17.9388V17.939V17.9392V17.9394V17.9396V17.9398V17.94V17.9402V17.9403V17.9405V17.9407V17.9409V17.9411V17.9413V17.9415V17.9416V17.9418V17.942V17.9422V17.9424V17.9426V17.9427V17.9429V17.9431V17.9433V17.9435V17.9437V17.9439V17.944V17.9442V17.9444V17.9446V17.9448V17.945V17.9452V17.9454V17.9456V17.9458V17.946V17.9462V17.9464V17.9466V17.9468V17.9471V17.9473V17.9475V17.9477V17.948V17.9482V17.9484V17.9487V17.9489V17.9491V17.9494V17.9496V17.9499V17.9501V17.9504V17.9507V17.9509V17.9512V17.9515V17.9518V17.952V17.9523V17.9526V17.9529V17.9532V17.9535V17.9538V17.9542V17.9545V17.9548V17.9551V17.9555V17.9558V17.9562V17.9565V17.9569V17.9573V17.9576V17.958V17.9584V17.9588V17.9592V17.9596V17.96V17.9604V17.9608V17.9613V17.9617V17.9621V17.9626V17.9631V17.9635V17.964V17.9645V17.965V17.9655V17.966V17.9665V17.967V17.9675V17.968V17.9686V17.9691V17.9697V17.9703V17.9708V17.9714V17.972V17.9726V17.9732V17.9739V17.9745V17.9751V17.9758V17.9764V17.9771V17.9778V17.9785V17.9792V17.9799V17.9806V17.9813V17.982V17.9828V17.9835V17.9843V17.9851V17.9859V17.9867V17.9875V17.9883V17.9891V17.99V17.9908V17.9917V17.9926V17.9935V17.9944V17.9953V17.9962V17.9971V17.9981V17.999V18C14.8 18.4418 14.4418 18.8 14 18.8H10H6C5.55817 18.8 5.2 18.4418 5.2 18V17.999V17.9981V17.9971V17.9962V17.9953V17.9944V17.9935V17.9926V17.9917V17.9908V17.99V17.9891V17.9883V17.9875V17.9867V17.9859V17.9851V17.9843V17.9835V17.9828V17.982V17.9813V17.9806V17.9799V17.9792V17.9785V17.9778V17.9771V17.9764V17.9758V17.9751V17.9745V17.9739V17.9732V17.9726V17.972V17.9714V17.9708V17.9703V17.9697V17.9691V17.9686V17.968V17.9675V17.967V17.9665V17.966V17.9655V17.965V17.9645V17.964V17.9635V17.9631V17.9626V17.9621V17.9617V17.9613V17.9608V17.9604V17.96V17.9596V17.9592V17.9588V17.9584V17.958V17.9576V17.9573V17.9569V17.9565V17.9562V17.9558V17.9555V17.9551V17.9548V17.9545V17.9542V17.9538V17.9535V17.9532V17.9529V17.9526V17.9523V17.952V17.9518V17.9515V17.9512V17.9509V17.9507V17.9504V17.9501V17.9499V17.9496V17.9494V17.9491V17.9489V17.9487V17.9484V17.9482V17.948V17.9477V17.9475V17.9473V17.9471V17.9468V17.9466V17.9464V17.9462V17.946V17.9458V17.9456V17.9454V17.9452V17.945V17.9448V17.9446V17.9444V17.9442V17.944V17.9439V17.9437V17.9435V17.9433V17.9431V17.9429V17.9427V17.9426V17.9424V17.9422V17.942V17.9418V17.9416V17.9415V17.9413V17.9411V17.9409V17.9407V17.9405V17.9403V17.9402V17.94V17.9398V17.9396V17.9394V17.9392V17.939V17.9388V17.9386V17.9384V17.9382V17.938V17.9378V17.9376V17.9374V17.9372V17.937V17.9368V17.9366V17.9364V17.9361V17.9359V17.9357V17.9355V17.9352V17.935V17.9347V17.9345V17.9343V17.934V17.9338V17.9335V17.9332V17.933V17.9327V17.9324V17.9322V17.9319V17.9316V17.9313V17.931V17.9307V17.9304V17.9301V17.9298V17.9295V17.9292V17.9288V17.9285V17.9282V17.9278V17.9275V17.9271V17.9268V17.9264V17.926V17.9256V17.9253V17.9249V17.9245V17.9241V17.9237V17.9232V17.9228V17.9224V17.922V17.9215V17.9211V17.9206V17.9201V17.9197V17.9192V17.9187V17.9182V17.9177V17.9172V17.9167V17.9161V17.9156V17.9151V17.9145V17.914V17.9134V17.9128V17.9122V17.9116V17.911V17.9104V17.9098V17.9092V17.9085V17.9079V17.9072V17.9066V17.9059V17.9052V17.9045V17.9038V17.9031V17.9024V17.9016V17.9009V17.9001V17.8994V17.8986V17.8978V17.897V17.8962V17.8954V17.8945V17.8937V17.8929V17.892V17.8911V17.8902V17.8893V17.8884V17.8875V17.8866V17.8856V17.8847V17.8837V17.8827V17.8817V17.8807V17.8797V17.8787V17.8776V17.8766V17.8755V17.8744V17.8733V17.8722V17.8711V17.8699V17.8688V17.8676V17.8665V17.8653V17.8641V17.8628V17.8616V17.8604V17.8591V17.8578V17.8565V17.8552V17.8539V17.8526V17.8512V17.8499V17.8485V17.8471V17.8457V17.8443V17.8428V17.8414V17.8399V17.8384V17.8369V17.8354V17.8339V17.8323V17.8308V17.8292V17.8276V17.826V17.8244V17.8227V17.8211V17.8194V17.8177V17.816V17.8143V17.8125V17.8107V17.809V17.8072V17.8054V17.8035V17.8017V17.7998V17.7979V17.796V17.7941V17.7922V17.7902V17.7882V17.7862V17.7842V17.7822V17.7801V17.7781V17.776V17.7739V17.7717V17.7696V17.7674V17.7652V17.763V17.7608V17.7586V17.7563V17.754V17.7517V17.7494V17.7471V17.7447V17.7423V17.7399V17.7375V17.735V17.7326V17.7301V17.7276V17.7251V17.7225V17.7199V17.7174V17.7147V17.7121V17.7095V17.7068V17.7041V17.7014V17.6986V17.6959V17.6931V17.6903V17.6874V17.6846V17.6817V17.6788V17.6759V17.673V17.67V17.667V17.664V17.661V17.6579V17.6548V17.6517V17.6486V17.6454V17.6423V17.6391V17.6358V17.6326V17.6293V17.626V17.6227V17.6194V17.616V17.6126V17.6092V17.6057V17.6023V17.5988V17.5953V17.5917V17.5882V17.5846V17.581V17.5773V17.5737V17.57V17.5662V17.5625V17.5587V17.5549V17.5511V17.5473V17.5434V17.5395V17.5355V17.5316V17.5276V17.5236V17.5196V17.5155V17.5114V17.5073V17.5032V17.499V17.4948V17.4906V17.4863V17.482V17.4777V17.4734V17.469V17.4646V17.4602V17.4558V17.4513V17.4468V17.4422V17.4377V17.4331V17.4285V17.4238V17.4191V17.4144V17.4097V17.4049V17.4001V17.3953V17.3905V17.3856V17.3807V17.3757V17.3707V17.3657V17.3607V17.3556V17.3505V17.3454V17.3403V17.3351V17.3299V17.3246V17.3193V17.314V17.3087V17.3033V17.2979V17.2925V17.287V17.2815V17.276V17.2704V17.2648V17.2592V17.2536V17.2479V17.2422V17.2364V17.2306V17.2248V17.2189V17.2131V17.2071V17.2012V17.1952V17.1892V17.1832V17.1771V17.171V17.1648V17.1586V17.1524V17.1462V17.1399V17.1336V17.1272V17.1208V17.1144V17.108V17.1015V17.095V17.0884V17.0818V17.0752V17.0685V17.0618V17.0551V17.0483V17.0415V17.0347V17.0278V17.0209V17.014V17.007V17C5.2 15.9266 5.91093 15.3132 6.39237 14.8978L6.39244 14.8978C6.44133 14.8556 6.48784 14.8154 6.53101 14.7771C6.98717 14.3716 7.41599 13.9435 7.64426 13.1396C7.3638 12.962 7.10431 12.7519 6.86554 12.5136C6.63412 12.2826 6.42437 12.0275 6.23402 11.7533C4.31025 11.5139 2.92416 10.3814 1.99 8.99977C0.951243 7.46349 0.433879 5.57838 0.264904 4.0864C0.142388 3.00464 1.03113 2.2 2 2.2H4.21018C4.20904 2.13673 4.20802 2.07378 4.2071 2.01115ZM9.13927 13.7234C8.77908 14.8592 8.12695 15.4992 7.59399 15.9729C6.93728 16.5567 6.8 16.6824 6.8 17V17.007V17.014V17.0209V17.0278V17.0347V17.0415V17.0483V17.0551V17.0618V17.0685V17.0752V17.0818V17.0884V17.095V17.1015V17.108V17.1144V17.1208V17.1272V17.1336V17.1399V17.1462V17.1524V17.1586V17.1648V17.171V17.1771V17.1832V17.1892V17.1952V17.2H10H13.2V17.1952V17.1892V17.1832V17.1771V17.171V17.1648V17.1586V17.1524V17.1462V17.1399V17.1336V17.1272V17.1208V17.1144V17.108V17.1015V17.095V17.0884V17.0818V17.0752V17.0685V17.0618V17.0551V17.0483V17.0415V17.0347V17.0278V17.0209V17.014V17.007V17C13.2 16.6824 13.0627 16.5567 12.406 15.9729C11.8735 15.4996 11.2221 14.8604 10.8617 13.7265C10.5874 13.7749 10.3001 13.8 9.99968 13.8C9.69954 13.8 9.41278 13.7738 9.13927 13.7234ZM4.26383 3.8H2C1.94102 3.8 1.89859 3.82359 1.87581 3.84725C1.86488 3.8586 1.85964 3.86862 1.85716 3.87562C1.85508 3.88152 1.85295 3.89055 1.85474 3.90635C2.00393 5.22365 2.46132 6.84035 3.31545 8.10356C3.83039 8.86514 4.47452 9.48156 5.27984 9.84413C5.24188 9.73866 5.20541 9.6323 5.17035 9.52522C4.6036 7.79411 4.36246 5.73281 4.26383 3.8ZM14.8381 9.63856C15.4128 7.90951 15.6497 5.8196 15.7432 3.8H18C18.059 3.8 18.1014 3.82359 18.1242 3.84725C18.1351 3.8586 18.1404 3.86862 18.1428 3.87562C18.1449 3.88152 18.147 3.89055 18.1453 3.90635C17.9961 5.22365 17.5387 6.84035 16.6845 8.10356C16.1817 8.84723 15.5557 9.45248 14.7767 9.81813C14.7976 9.75855 14.8181 9.69869 14.8381 9.63856ZM6.00006 1.8C5.8854 1.8 5.8055 1.89048 5.80693 1.98761C5.84165 4.34691 6.02478 6.99266 6.69093 9.02739C7.02296 10.0415 7.45588 10.8423 7.99581 11.3811C8.51523 11.8996 9.15529 12.2 9.99968 12.2C10.8619 12.2 11.5073 11.9082 12.0236 11.4119C12.5599 10.8963 12.99 10.126 13.3198 9.13388C13.9825 7.13995 14.1619 4.49881 14.194 1.98968C14.1953 1.89037 14.1136 1.8 14 1.8H6.00006Z" fill="#E3DFEF"/>
</svg>
