<svg width="18" height="20" viewBox="0 0 18 20" fill="none" xmlns="http://www.w3.org/2000/svg">
<path d="M15.9654 2.43544C15.5027 1.99936 13.6327 0.612931 9.46752 0.594095C9.46752 0.594095 4.55568 0.29158 2.16124 2.53476C0.828349 3.89636 0.359463 5.88868 0.310004 8.35875C0.260545 10.8288 0.196554 15.4579 4.56546 16.713H4.56965L4.56686 18.6283C4.56686 18.6283 4.53892 19.4037 5.03882 19.5618C5.64351 19.7536 5.99838 19.1642 6.57569 18.529C6.89256 18.1802 7.33015 17.6679 7.65988 17.2764C10.6478 17.5332 12.9459 16.9462 13.2069 16.8594C13.8102 16.6596 17.224 16.213 17.7792 11.5842C18.3523 6.81335 17.502 3.79562 15.9654 2.43544Z" fill="white"/>
<path d="M14.9937 3.39917C14.6025 3.03615 12.9139 1.95252 9.39051 1.93682C9.39051 1.93682 5.21832 1.65685 3.193 3.53045C2.06578 4.66716 1.68603 6.35754 1.64439 8.42035C1.60276 10.4832 1.38704 14.4238 5.0814 15.4721C5.0814 15.4721 5.06687 18.3976 5.06519 18.6548C5.06519 18.8346 5.09313 18.9576 5.19373 18.983C5.2661 19.001 5.37452 18.9627 5.46673 18.8688C6.05745 18.2629 7.94864 15.9327 7.94864 15.9327C10.4862 16.102 12.505 15.5902 12.7222 15.5178C13.2341 15.3497 16.003 15.1068 16.4716 11.2409C16.9558 7.25595 16.2936 4.53588 14.9937 3.39917Z" fill="#7360F2"/>
<path d="M11.1819 8.4914C11.1215 8.4914 11.0635 8.4677 11.0197 8.42521C10.976 8.38271 10.9499 8.32467 10.9469 8.26308C10.9072 7.44544 10.5308 7.0456 9.76213 7.00479C9.69972 7.00146 9.64118 6.97295 9.59936 6.92553C9.55754 6.87811 9.53588 6.81567 9.53914 6.75194C9.5424 6.6882 9.57032 6.62841 9.61675 6.5857C9.66318 6.54299 9.72431 6.52086 9.78672 6.52419C10.8016 6.57842 11.3655 7.17146 11.4175 8.23911C11.419 8.27067 11.4145 8.30223 11.4041 8.33198C11.3937 8.36174 11.3776 8.38912 11.3569 8.41254C11.3361 8.43597 11.311 8.45499 11.2831 8.46852C11.2551 8.48205 11.2248 8.48983 11.1939 8.4914H11.1819Z" fill="white"/>
<path d="M12.3907 8.90521H12.3856C12.3547 8.90454 12.3242 8.89765 12.2959 8.88494C12.2675 8.87223 12.2419 8.85394 12.2205 8.83113C12.1991 8.80831 12.1823 8.7814 12.1711 8.75195C12.1599 8.7225 12.1544 8.69108 12.1551 8.65949C12.1727 7.83699 11.9427 7.17117 11.4521 6.62379C10.9614 6.07641 10.2907 5.7796 9.39964 5.7131C9.3372 5.70841 9.27915 5.67858 9.23825 5.63017C9.19735 5.58176 9.17695 5.51874 9.18155 5.45497C9.18614 5.3912 9.21535 5.3319 9.26275 5.29013C9.31015 5.24836 9.37185 5.22753 9.43429 5.23222C10.4366 5.30728 11.2324 5.66573 11.7997 6.29816C12.3669 6.93058 12.6461 7.72997 12.6262 8.6689C12.6251 8.73194 12.5997 8.792 12.5557 8.83618C12.5117 8.88036 12.4524 8.90515 12.3907 8.90521Z" fill="white"/>
<path d="M13.628 9.39891C13.5659 9.39891 13.5062 9.3738 13.4621 9.32905C13.4179 9.2843 13.3929 9.22355 13.3925 9.16004C13.3816 7.70853 12.9552 6.55327 12.125 5.72677C11.2948 4.90028 10.2416 4.47391 9.0001 4.46506C8.96917 4.46495 8.93856 4.45861 8.91002 4.44642C8.88149 4.43422 8.85558 4.41641 8.83378 4.39399C8.78976 4.34871 8.76516 4.28742 8.76538 4.22362C8.7656 4.15981 8.79064 4.09871 8.83497 4.05375C8.8793 4.00879 8.93931 3.98366 9.00178 3.98389H9.00346C10.3707 3.99359 11.5318 4.46392 12.4536 5.38231C13.3754 6.3007 13.8516 7.5724 13.8636 9.15718C13.864 9.22097 13.8396 9.2823 13.7957 9.32772C13.7519 9.37315 13.6922 9.39895 13.6297 9.39948L13.628 9.39891Z" fill="white"/>
<path d="M9.82092 11.4731C9.82092 11.4731 10.152 11.5017 10.3303 11.2774L10.6779 10.8307C10.8456 10.6093 11.2502 10.468 11.6464 10.6934C11.9434 10.8664 12.2316 11.0544 12.5102 11.2568C12.7731 11.4543 13.3116 11.9132 13.3132 11.9132C13.5698 12.1344 13.629 12.4592 13.4544 12.8016C13.4544 12.8036 13.453 12.8071 13.453 12.8088C13.2606 13.1493 13.0164 13.4564 12.7295 13.7186C12.7262 13.7203 12.7262 13.722 12.7231 13.7237C12.4738 13.9364 12.229 14.0574 11.9885 14.0865C11.953 14.0927 11.9171 14.095 11.8812 14.0933C11.7751 14.0945 11.6696 14.0779 11.5688 14.0442L11.5609 14.0325C11.1904 13.9258 10.5717 13.6587 9.54148 13.0782C8.94487 12.7463 8.37689 12.3634 7.84366 11.9335C7.57649 11.7182 7.3217 11.4874 7.08053 11.2422L7.05483 11.216L7.02912 11.1897L7.00341 11.1635L6.9777 11.1372C6.73763 10.8909 6.51167 10.6307 6.30092 10.3578C5.88011 9.81363 5.50517 9.23402 5.18012 8.62521C4.61176 7.57268 4.35021 6.9414 4.2457 6.5624L4.23425 6.55441C4.20153 6.45139 4.18539 6.34363 4.18646 6.23534C4.18455 6.19868 4.18671 6.16191 4.19289 6.12575C4.22363 5.88069 4.34257 5.6304 4.54973 5.37488C4.5514 5.37174 4.55308 5.37174 4.55476 5.36832C4.81131 5.07526 5.11204 4.82592 5.44558 4.62972C5.44726 4.62972 5.45061 4.62801 5.45257 4.62801C5.78788 4.44964 6.10588 4.51015 6.32216 4.77071C6.32383 4.77242 6.77232 5.32237 6.96485 5.59092C7.16287 5.87632 7.34674 6.17065 7.51645 6.47393C7.7372 6.87832 7.59888 7.29243 7.38204 7.46309L6.94473 7.81812C6.72398 8.0002 6.75304 8.33839 6.75304 8.33839C6.75304 8.33839 7.40076 10.8421 9.82092 11.4731Z" fill="white"/>
</svg>
