<svg width="19" height="18" viewBox="0 0 19 18" fill="none" xmlns="http://www.w3.org/2000/svg">
<path d="M5.72653 14.9983L5.98728 15.1508C7.08007 15.7993 8.32681 16.1428 9.59755 16.1456C11.1766 16.1481 12.7116 15.6256 13.9613 14.6604C15.2109 13.6951 16.1043 12.3419 16.5008 10.8135C16.8974 9.28508 16.7746 7.66821 16.1519 6.21718C15.5291 4.76616 14.4417 3.56329 13.0607 2.79778C11.6796 2.03227 10.0833 1.74754 8.52274 1.98838C6.96219 2.22922 5.52597 2.98195 4.43997 4.1282C3.35396 5.27445 2.67977 6.74917 2.52345 8.32044C2.36713 9.8917 2.73754 11.4703 3.57642 12.8081L3.74891 13.0769L3.02685 15.7043L5.72653 14.9983ZM0.968994 17.7421L2.17242 13.3015C1.22851 11.6656 0.850736 9.76394 1.09767 7.89146C1.34461 6.01897 2.20246 4.28028 3.53819 2.94499C4.87393 1.60971 6.61292 0.752448 8.48548 0.506147C10.3581 0.259845 12.2596 0.638267 13.8952 1.58273C15.5308 2.52719 16.809 3.98491 17.5318 5.72986C18.2545 7.4748 18.3813 9.40945 17.8926 11.2338C17.4038 13.0582 16.3267 14.6703 14.8284 15.8202C13.3301 16.9701 11.4943 17.5935 9.60558 17.5937C8.17344 17.5933 6.76413 17.2348 5.50591 16.5507L0.968994 17.7421Z" fill="white"/>
<path d="M1.33807 9.0173C1.32932 10.4694 1.70582 11.8979 2.42918 13.1571L1.26587 17.4453L5.63831 16.294C6.8535 16.9544 8.21453 17.3006 9.59758 17.3009C11.2356 17.3041 12.8378 16.8213 14.2014 15.9136C15.565 15.0059 16.6287 13.7142 17.258 12.2018C17.8872 10.6894 18.0537 9.02441 17.7363 7.41739C17.419 5.81036 16.6321 4.33358 15.4753 3.17389C14.3184 2.01421 12.8435 1.22375 11.2373 0.902523C9.63101 0.581298 7.96557 0.743749 6.45167 1.36932C4.93778 1.99489 3.64346 3.05547 2.73249 4.41685C1.82153 5.77824 1.33486 7.37925 1.33406 9.0173H1.33807Z" fill="url(#paint0_linear_2_9825)"/>
<path d="M1.04137 9.01735C1.03976 10.521 1.43406 11.9986 2.18463 13.3015L0.981201 17.7462L5.52614 16.5428C6.78406 17.228 8.19334 17.5879 9.6258 17.5897C11.8967 17.5844 14.073 16.68 15.6787 15.0743C17.2845 13.4685 18.1889 11.2922 18.1942 9.02136C18.1942 6.74675 17.2906 4.56531 15.6822 2.95692C14.0738 1.34853 11.8924 0.444946 9.61778 0.444946C7.34318 0.444946 5.16173 1.34853 3.55334 2.95692C1.94496 4.56531 1.04137 6.74675 1.04137 9.02136V9.01735ZM3.74908 13.0769L3.57659 12.8081C2.73712 11.4693 2.36632 9.88953 2.52245 8.31704C2.67859 6.74455 3.35281 5.26852 4.43915 4.12093C5.5255 2.97334 6.96237 2.21925 8.52395 1.97719C10.0855 1.73514 11.6833 2.01883 13.0661 2.78368C14.4488 3.54853 15.5383 4.75118 16.1632 6.2026C16.788 7.65403 16.9129 9.27195 16.5181 10.8021C16.1234 12.3322 15.2314 13.6878 13.9823 14.6557C12.7333 15.6237 11.198 16.1492 9.61778 16.1496C8.34723 16.1455 7.10084 15.8021 6.00751 15.1548L5.74677 14.9984L3.04708 15.7084L3.74908 13.0769Z" fill="url(#paint1_linear_2_9825)"/>
<path fill-rule="evenodd" clip-rule="evenodd" d="M7.47546 5.43114C7.315 5.07412 7.14251 5.0661 6.99008 5.06209C6.83764 5.05807 6.72532 5.06209 6.58894 5.06209C6.48077 5.06614 6.37454 5.09204 6.27665 5.13823C6.17875 5.18442 6.09122 5.24994 6.01931 5.33085C5.77699 5.56069 5.58515 5.83846 5.45601 6.14647C5.32686 6.45448 5.26324 6.786 5.26918 7.11994C5.33734 7.9278 5.64144 8.69781 6.14367 9.33425C6.24797 9.47866 7.62388 11.709 9.80208 12.5715C11.6152 13.2855 11.9803 13.1411 12.3734 13.105C12.7665 13.0689 13.641 12.5875 13.8215 12.0861C13.9598 11.7654 14.003 11.4117 13.9459 11.0672C13.8937 10.9789 13.7493 10.9268 13.5447 10.8185C13.3402 10.7102 12.2771 10.1927 12.0806 10.1205C11.884 10.0483 11.7396 10.0122 11.5952 10.2288C11.4508 10.4454 11.0416 10.9268 10.9173 11.0672C10.7929 11.2076 10.6685 11.2276 10.4559 11.1233C9.82339 10.8723 9.23963 10.5125 8.73103 10.0603C8.25873 9.62777 7.85318 9.12759 7.52761 8.57609C7.504 8.54163 7.48762 8.50274 7.47947 8.46177C7.47132 8.4208 7.47156 8.3786 7.48019 8.33772C7.48881 8.29685 7.50564 8.25815 7.52965 8.22397C7.55365 8.18978 7.58435 8.16082 7.61987 8.13884C7.71614 8.04257 7.83649 7.88612 7.94078 7.76177C8.03024 7.65412 8.10324 7.53381 8.1574 7.40475C8.1883 7.34672 8.20447 7.28197 8.20447 7.21622C8.20447 7.15046 8.1883 7.08572 8.1574 7.02768C8.10525 6.92338 7.68806 5.86437 7.49953 5.42311" fill="white"/>
<defs>
<linearGradient id="paint0_linear_2_9825" x1="9.79655" y1="17.035" x2="9.79655" y2="0.331461" gradientUnits="userSpaceOnUse">
<stop stop-color="#20B038"/>
<stop offset="1" stop-color="#60D66A"/>
</linearGradient>
<linearGradient id="paint1_linear_2_9825" x1="10.273" y1="16.7416" x2="10.273" y2="-0.559673" gradientUnits="userSpaceOnUse">
<stop stop-color="#F9F9F9"/>
<stop offset="1" stop-color="white"/>
</linearGradient>
</defs>
</svg>
