<svg width="23" height="19" viewBox="0 0 23 19" fill="none" xmlns="http://www.w3.org/2000/svg">
<path d="M0.194092 6.78172C0.194092 8.78976 1.28046 10.624 2.95945 11.8386C3.10682 11.9378 3.1805 12.0866 3.1805 12.2851C3.1805 12.3344 3.15586 12.4089 3.15586 12.4586C3.03268 12.9543 2.81028 13.7724 2.78463 13.797C2.75999 13.8713 2.73502 13.9209 2.73502 13.9955C2.73554 14.0675 2.7643 14.1364 2.81511 14.1873C2.86592 14.2383 2.93471 14.2674 3.00669 14.2682C3.05991 14.2632 3.11127 14.2461 3.15687 14.2182L4.91011 13.2017C5.11101 13.0833 5.35031 13.0484 5.57664 13.1045C6.39167 13.3522 7.28061 13.4757 8.19418 13.4757C12.6152 13.4757 16.1943 10.4765 16.1943 6.78273C16.1943 3.08895 12.6139 0.0897217 8.19587 0.0897217C3.77785 0.0897217 0.197466 3.08929 0.197466 6.78273" fill="url(#paint0_linear_2_9850)"/>
<path d="M15.6481 17.4135C16.4115 17.4135 17.1506 17.3139 17.8158 17.1138C17.8651 17.0892 17.939 17.0892 18.0129 17.0892C18.1361 17.0892 18.2589 17.1391 18.3575 17.1904L19.811 18.0395C19.8603 18.0645 19.8849 18.0895 19.9342 18.0895C19.9637 18.0894 19.9929 18.0834 20.0201 18.072C20.0472 18.0605 20.0718 18.0437 20.0925 18.0227C20.1131 18.0016 20.1293 17.9766 20.1402 17.9492C20.1511 17.9218 20.1565 17.8925 20.1559 17.863C20.1559 17.8131 20.1313 17.7618 20.1313 17.6882C20.1313 17.6632 19.9342 16.9889 19.8357 16.564C19.8156 16.5168 19.8071 16.4654 19.811 16.4142C19.811 16.2644 19.8849 16.1395 20.0081 16.0396C21.4121 15.0157 22.299 13.4923 22.299 11.794C22.299 8.69693 19.3183 6.17456 15.6481 6.17456C11.978 6.17456 8.99731 8.67195 8.99731 11.794C8.99731 14.8908 11.9776 17.4132 15.6481 17.4132V17.4135Z" fill="url(#paint1_linear_2_9850)"/>
<path d="M6.5552 4.62117C6.5536 4.82413 6.49195 5.02208 6.37803 5.19006C6.2641 5.35804 6.103 5.48854 5.91503 5.56511C5.72705 5.64167 5.52062 5.66088 5.32175 5.6203C5.12288 5.57973 4.94047 5.48119 4.79751 5.3371C4.65455 5.19302 4.55745 5.00984 4.51844 4.81066C4.47942 4.61147 4.50025 4.4052 4.57829 4.21783C4.65632 4.03046 4.78808 3.87039 4.95695 3.75779C5.12582 3.64519 5.32425 3.5851 5.52722 3.58509C5.66304 3.58459 5.7976 3.61111 5.92308 3.6631C6.04855 3.71509 6.16244 3.79152 6.2581 3.88793C6.35376 3.98435 6.42929 4.09883 6.4803 4.22471C6.5313 4.35059 6.55676 4.48536 6.5552 4.62117ZM11.8875 4.62117C11.8859 4.82423 11.8243 5.02229 11.7104 5.19038C11.5964 5.35847 11.4353 5.48906 11.2472 5.56569C11.0592 5.64232 10.8527 5.66156 10.6537 5.62099C10.4547 5.58041 10.2722 5.48183 10.1292 5.33768C9.98617 5.19353 9.88903 5.01026 9.85002 4.81098C9.811 4.6117 9.83186 4.40532 9.90997 4.21788C9.98807 4.03044 10.1199 3.87032 10.2889 3.7577C10.4579 3.64509 10.6564 3.58503 10.8595 3.58509C10.9953 3.58459 11.1299 3.61111 11.2553 3.6631C11.3808 3.71509 11.4947 3.79152 11.5904 3.88793C11.686 3.98435 11.7616 4.09883 11.8126 4.22471C11.8636 4.35059 11.889 4.48536 11.8875 4.62117Z" fill="#187E28"/>
<path d="M17.0297 10.0597C17.031 10.2374 17.0849 10.4107 17.1846 10.5578C17.2843 10.7049 17.4254 10.8191 17.5899 10.8862C17.7545 10.9532 17.9352 10.97 18.1093 10.9345C18.2834 10.899 18.4431 10.8127 18.5682 10.6865C18.6933 10.5604 18.7783 10.4 18.8124 10.2256C18.8465 10.0512 18.8282 9.87061 18.7598 9.70661C18.6914 9.54261 18.576 9.40254 18.4281 9.30405C18.2802 9.20556 18.1064 9.15307 17.9287 9.1532C17.81 9.15315 17.6924 9.17661 17.5828 9.22224C17.4732 9.26786 17.3737 9.33473 17.29 9.41901C17.2064 9.50328 17.1403 9.60328 17.0955 9.71324C17.0507 9.82321 17.0281 9.94095 17.029 10.0597H17.0297ZM12.5955 10.0597C12.5968 10.2374 12.6507 10.4107 12.7504 10.5577C12.8501 10.7048 12.9911 10.8191 13.1556 10.8861C13.3201 10.9532 13.5009 10.97 13.675 10.9345C13.849 10.899 14.0087 10.8128 14.1339 10.6866C14.259 10.5605 14.344 10.4002 14.3781 10.2258C14.4123 10.0514 14.394 9.87085 14.3257 9.70685C14.2573 9.54284 14.142 9.40274 13.9941 9.30421C13.8463 9.20568 13.6725 9.15314 13.4949 9.1532C13.3762 9.15328 13.2588 9.17685 13.1493 9.22253C13.0398 9.26822 12.9404 9.33512 12.8569 9.41939C12.7734 9.50365 12.7074 9.60361 12.6627 9.7135C12.618 9.8234 12.5955 9.94105 12.5965 10.0597" fill="#858C8C"/>
<defs>
<linearGradient id="paint0_linear_2_9850" x1="8.20042" y1="13.3627" x2="8.20042" y2="0.0720377" gradientUnits="userSpaceOnUse">
<stop stop-color="#78D431"/>
<stop offset="1" stop-color="#9EEE69"/>
</linearGradient>
<linearGradient id="paint1_linear_2_9850" x1="15.6493" y1="17.3647" x2="15.6493" y2="6.21809" gradientUnits="userSpaceOnUse">
<stop stop-color="#E4E6E6"/>
<stop offset="1" stop-color="#F5F5FF"/>
</linearGradient>
</defs>
</svg>
