<svg width="14" height="18" viewBox="0 0 14 18" fill="none" xmlns="http://www.w3.org/2000/svg">
<path fill-rule="evenodd" clip-rule="evenodd" d="M6.87901 8.6863C9.0976 8.66726 10.8701 6.89068 10.8628 4.69315H10.8637C10.8617 3.63475 10.4394 2.62046 9.68964 1.87342C8.93987 1.12638 7.92404 0.707789 6.86564 0.709723C5.80723 0.711658 4.79295 1.13396 4.04591 1.88374C3.67601 2.25499 3.38286 2.69546 3.18319 3.18C2.98352 3.66454 2.88125 4.18367 2.88221 4.70774C2.89355 6.91621 4.6912 8.70454 6.87901 8.6863ZM2.434 17.2323C2.49689 17.2442 2.5598 17.2562 2.62235 17.2697L11.3221 17.2689C11.3563 17.2557 11.3915 17.2455 11.4275 17.2385C12.8645 17.0801 13.8559 16.0049 13.8734 14.5601C13.8786 14.0753 13.8575 13.5906 13.8101 13.108C13.7186 12.1705 13.5132 11.2601 13.0562 10.4223C12.5449 9.48357 11.786 8.89529 10.712 8.73729C10.3182 8.67935 9.95393 8.71055 9.62252 8.9589C9.47529 9.07041 9.31623 9.16789 9.15712 9.26539C9.12315 9.28621 9.08918 9.30703 9.05531 9.32799C7.67078 10.1856 6.28571 10.1866 4.9001 9.33123C4.8097 9.27573 4.72052 9.21737 4.63138 9.15903C4.4856 9.06363 4.33991 8.96828 4.18907 8.88557C4.03673 8.80292 3.86089 8.71824 3.69397 8.715C3.169 8.70264 2.64985 8.82719 2.18763 9.0764C1.42311 9.48519 0.967316 10.1545 0.653326 10.9283C0.166741 12.1272 0.0261535 13.3884 0.0800383 14.6687C0.134328 15.9084 0.878184 16.8176 2.05879 17.1482C2.18179 17.1841 2.30787 17.2082 2.434 17.2323Z" fill="white"/>
</svg>
