<svg width="16" height="16" viewBox="0 0 16 16" fill="none" xmlns="http://www.w3.org/2000/svg">
<path d="M7.97925 15.9553C12.2595 15.9553 15.7292 12.4855 15.7292 8.20532C15.7292 3.92512 12.2595 0.455322 7.97925 0.455322C3.69904 0.455322 0.229248 3.92512 0.229248 8.20532C0.229248 12.4855 3.69904 15.9553 7.97925 15.9553Z" fill="#627EEA"/>
<path d="M8.22046 2.39282V6.68942L11.8518 8.31213L8.22046 2.39282Z" fill="white" fill-opacity="0.6"/>
<path d="M8.22055 2.39282L4.58862 8.31195L8.22055 6.68924V2.39282Z" fill="white"/>
<path d="M8.22046 11.0961V14.0154L11.8542 8.98804L8.22046 11.0961Z" fill="white" fill-opacity="0.6"/>
<path d="M8.22055 14.0154V11.0956L4.58862 8.98779L8.22055 14.0154Z" fill="white"/>
<path d="M8.22046 10.4205L11.8518 8.31203L8.22046 6.69067V10.4205Z" fill="white" fill-opacity="0.2"/>
<path d="M4.58862 8.3119L8.22055 10.4204V6.69019L4.58862 8.3119Z" fill="white" fill-opacity="0.6"/>
</svg>
