<svg width="27" height="24" viewBox="0 0 27 24" fill="none" xmlns="http://www.w3.org/2000/svg">
<path d="M13.6816 23.0894H13.5774C13.5 23.0715 13.43 23.0298 13.3775 22.9702C13.0307 22.6299 12.6776 22.298 12.3287 21.9598L11.7416 21.3961C11.4196 21.0897 11.0991 20.7827 10.78 20.4749L10.1908 19.9112C9.86745 19.6006 9.5526 19.2922 9.22075 18.9794L8.64 18.4264L7.67421 17.4989L7.07646 16.9266L6.11918 16.0098L5.51715 15.4312C5.19947 15.1291 4.88323 14.8263 4.56839 14.5228L3.96212 13.9421L3.02611 13.038L2.41559 12.453L1.7774 11.8488C1.56468 11.651 1.36683 11.451 1.15836 11.2574C1.0286 11.1362 0.909477 11 0.769077 10.8894C0.737591 10.8641 0.712782 10.8316 0.696834 10.7945C0.680886 10.7574 0.674274 10.7169 0.677592 10.6767C0.68039 10.6031 0.69774 10.5308 0.728645 10.464C0.971154 9.96404 1.20728 9.45991 1.44767 8.95787C1.61998 8.60262 1.78804 8.24524 1.95822 7.89423L2.73042 6.2711L3.23458 5.20746L4.02592 3.54183C4.18902 3.20147 4.35141 2.86038 4.51308 2.5186C4.7875 1.93785 5.0683 1.35925 5.33846 0.778502C5.43632 0.565775 5.44695 0.565775 5.67456 0.565775H21.6802C21.7213 0.563333 21.7622 0.573897 21.797 0.596053C21.8318 0.618209 21.8586 0.650789 21.8738 0.689121C22.061 1.09543 22.2567 1.49535 22.4482 1.89953C22.5418 2.09949 22.6354 2.29734 22.7311 2.49518C23.0183 3.09294 23.3012 3.69075 23.582 4.28851C23.7451 4.62887 23.9075 4.9692 24.0692 5.30956C24.3329 5.86691 24.5981 6.42428 24.8648 6.98162C25.0321 7.33192 25.1994 7.68646 25.3668 8.04526C25.637 8.61325 25.9092 9.18123 26.1773 9.74709C26.2687 9.94279 26.3624 10.1364 26.456 10.33C26.511 10.4278 26.5491 10.5342 26.5687 10.6448V10.7341C26.5604 10.7779 26.5431 10.8194 26.5178 10.856C26.4925 10.8926 26.4599 10.9236 26.4219 10.9468C26.4082 10.957 26.3954 10.9685 26.3836 10.9809C26.2198 11.1532 26.0433 11.3106 25.8731 11.4765L24.9115 12.3977L24.3138 12.9699L23.3629 13.8825L22.7545 14.4654L22.1163 15.0781L21.51 15.6588L20.8718 16.2629L20.2592 16.8479L19.621 17.4521L19.0041 18.0435L18.3659 18.6476L17.7554 19.2326L17.1385 19.824L16.5322 20.4047L15.894 21.0131L15.2835 21.6003L14.6453 22.2087L14.0348 22.7937C13.9497 22.8745 13.8646 22.9511 13.7816 23.0362C13.7753 23.0723 13.7242 23.0681 13.6816 23.0894Z" fill="#4FAD93"/>
<path d="M13.64 3.63547H19.6899C19.7921 3.63547 19.7814 3.62056 19.7814 3.7248V6.55835C19.7814 6.64557 19.7814 6.64555 19.6942 6.64555H15.3652C15.2567 6.64555 15.2695 6.64554 15.2695 6.74339C15.2695 7.33903 15.2695 7.9347 15.2695 8.53034C15.2695 8.61756 15.2695 8.61541 15.3524 8.6218C16.3758 8.66669 17.3958 8.77038 18.4072 8.93237C19.0831 9.034 19.7492 9.19269 20.3983 9.40675C20.6877 9.5002 20.9653 9.62654 21.2259 9.78328C21.351 9.85643 21.4626 9.95073 21.5556 10.062C21.6402 10.1496 21.6875 10.2667 21.6875 10.3885C21.6875 10.5103 21.6402 10.6274 21.5556 10.7151C21.4141 10.8698 21.2444 10.9961 21.0557 11.0873C20.6394 11.2927 20.2012 11.4504 19.7495 11.5574C19.0577 11.7308 18.3558 11.8608 17.6478 11.9468C16.8968 12.0425 16.1438 12.1063 15.3865 12.1425C15.2503 12.1425 15.2758 12.1425 15.2758 12.2573V18.3775C15.2758 18.4732 15.2759 18.4732 15.1823 18.4732H12.102C12.0126 18.4732 12.0126 18.4732 12.0126 18.3818V12.2467C12.0126 12.1531 12.0126 12.151 11.9211 12.1467C11.5056 12.1254 11.0908 12.097 10.6767 12.0616C10.2959 12.0276 9.91724 11.985 9.53858 11.9361C8.96847 11.8595 8.40049 11.7638 7.83676 11.634C7.33729 11.5281 6.8498 11.372 6.38171 11.1681C6.18111 11.0822 5.99409 10.9676 5.82649 10.8278C5.74716 10.7608 5.68144 10.6792 5.6329 10.5874C5.59528 10.5163 5.57796 10.4362 5.58284 10.3559C5.58772 10.2756 5.61461 10.1982 5.66056 10.1322C5.74212 10.0098 5.8487 9.9061 5.97326 9.82795C6.27315 9.63592 6.59816 9.48633 6.93905 9.38338C7.54724 9.18887 8.16955 9.04163 8.80042 8.94302C9.30672 8.8558 9.81938 8.78985 10.3321 8.73029C10.8447 8.67073 11.2936 8.6452 11.7765 8.6218L11.9637 8.61115C12.002 8.61115 12.0105 8.59626 12.0105 8.5601C12.0105 8.4899 12.0105 8.4197 12.0105 8.34737C12.0105 7.80917 12.0105 7.26887 12.0105 6.73067C12.0105 6.62856 12.0233 6.63703 11.9169 6.63703H7.59212C7.48575 6.63703 7.49853 6.63704 7.49853 6.54344V3.70989C7.49853 3.62693 7.49854 3.62695 7.58363 3.62695L13.64 3.63547Z" fill="#FEFEFE"/>
<path d="M13.3239 11.6467C12.5326 11.6467 11.7816 11.6105 11.0307 11.5552C10.1981 11.4983 9.36933 11.3953 8.54815 11.2468C8.02965 11.1579 7.52098 11.0189 7.02927 10.8319C6.87947 10.7738 6.73674 10.6989 6.60382 10.6086C6.54147 10.5666 6.48497 10.5165 6.43578 10.4596C6.4051 10.4295 6.38072 10.3936 6.36408 10.354C6.34744 10.3144 6.33887 10.2718 6.33887 10.2288C6.33887 10.1858 6.34744 10.1433 6.36408 10.1037C6.38072 10.064 6.4051 10.0281 6.43578 9.99802C6.53303 9.89049 6.65096 9.80368 6.78253 9.74276C7.13314 9.57036 7.50305 9.44037 7.88444 9.35558C8.56411 9.19491 9.25334 9.07769 9.94792 9.0046C10.606 8.93086 11.2654 8.8791 11.9263 8.84932C11.9858 8.84932 12.0028 8.86205 12.0028 8.92161C12.0028 9.60234 12.0028 10.2852 12.0028 10.9659C12.0028 11.0298 12.0028 11.051 12.0837 11.0553C13.0208 11.1106 13.9603 11.117 14.8981 11.0744L15.2065 11.0553C15.2533 11.0553 15.264 11.0361 15.264 10.9936C15.264 10.7383 15.264 10.4831 15.264 10.2299C15.264 9.7917 15.264 9.35349 15.264 8.91527C15.264 8.86209 15.2789 8.84719 15.332 8.84932C15.8199 8.87342 16.3063 8.90746 16.7914 8.95142C17.3402 9.00248 17.889 9.06842 18.4315 9.16415C18.999 9.25105 19.5572 9.3899 20.0993 9.57896C20.2862 9.64421 20.4647 9.73132 20.6311 9.83848C20.7049 9.8846 20.7709 9.94203 20.8268 10.0087C20.8848 10.0686 20.9172 10.1487 20.9172 10.232C20.9172 10.3154 20.8848 10.3955 20.8268 10.4554C20.7224 10.571 20.5958 10.6643 20.4545 10.7298C20.1245 10.8891 19.7777 11.0111 19.4207 11.0936C18.83 11.2376 18.2311 11.3455 17.6274 11.4169C16.8531 11.5169 16.0745 11.5722 15.2874 11.6126C14.6237 11.6446 13.9536 11.6467 13.3239 11.6467Z" fill="#50AE94"/>
</svg>
