<svg width="9" height="8" viewBox="0 0 9 8" fill="none" xmlns="http://www.w3.org/2000/svg">
<path fill-rule="evenodd" clip-rule="evenodd" d="M0.951134 6.06971C0.755872 6.26497 0.755872 6.58156 0.951134 6.77682L1.80653 7.63221C2.00179 7.82747 2.31837 7.82747 2.51363 7.63221L4.62102 5.52483L6.7284 7.63221C6.92366 7.82747 7.24025 7.82747 7.43551 7.63221L8.2909 6.77682C8.48616 6.58156 8.48616 6.26497 8.2909 6.06971L6.18352 3.96233L8.2909 1.85494C8.48616 1.65968 8.48616 1.3431 8.2909 1.14784L7.43551 0.292443C7.24025 0.0971806 6.92366 0.0971805 6.7284 0.292443L4.62102 2.39983L2.51363 0.292443C2.31837 0.0971805 2.00179 0.0971806 1.80653 0.292443L0.951134 1.14784C0.755872 1.3431 0.755872 1.65968 0.951134 1.85494L3.05852 3.96233L0.951134 6.06971Z" fill="#FF0000"/>
</svg>
