<svg width="10" height="9" viewBox="0 0 10 9" fill="none" xmlns="http://www.w3.org/2000/svg">
<path d="M3.39124 5.39079C3.4317 5.33449 3.47504 5.28032 3.52108 5.22849C4.94465 3.80394 6.36846 2.37976 7.79251 0.955954C8.14478 0.60369 8.41958 0.604059 8.77221 0.955954C8.98394 1.16694 9.19603 1.3772 9.40592 1.59003C9.69363 1.8818 9.69658 2.18832 9.41034 2.4753C7.54513 4.34199 5.67905 6.20794 3.81211 8.07316C3.53178 8.35313 3.22193 8.35239 2.94012 8.07316C2.22699 7.36322 1.51484 6.65144 0.803671 5.93781C0.522229 5.65526 0.523335 5.34763 0.801826 5.06508C1.03495 4.82852 1.26979 4.5938 1.50635 4.36093C1.78226 4.09018 2.091 4.09129 2.36728 4.36535C2.70073 4.69438 3.03086 5.02857 3.39124 5.39079Z" fill="url(#paint0_linear_392_22680)"/>
<defs>
<linearGradient id="paint0_linear_392_22680" x1="11.4385" y1="17.1761" x2="4.27729" y2="-2.3928" gradientUnits="userSpaceOnUse">
<stop stop-color="#4EBFFF"/>
<stop offset="1" stop-color="#00FFFF"/>
</linearGradient>
</defs>
</svg>
