<svg width="23" height="19" viewBox="0 0 23 19" fill="none" xmlns="http://www.w3.org/2000/svg">
<path fill-rule="evenodd" clip-rule="evenodd" d="M0.642578 5.84659V15.7273C0.667345 15.794 0.680745 15.8633 0.694419 15.934C0.710531 16.0173 0.727024 16.1026 0.762939 16.1879C0.915939 16.7078 1.22715 17.167 1.65334 17.5017C2.07952 17.8364 2.59947 18.0299 3.14078 18.0554H3.39806H19.8147C20.3372 18.0801 20.8549 17.9458 21.2994 17.6702C21.744 17.3946 22.0945 16.9906 22.3046 16.5116C22.4708 16.1401 22.5503 15.7357 22.537 15.3289V6.30722C22.5419 6.07991 22.5196 5.85283 22.4706 5.6308C22.3421 5.03247 22.0064 4.49873 21.5228 4.12369C21.0392 3.74865 20.4387 3.55638 19.8272 3.58079H17.8395C17.7736 3.58501 17.7079 3.57 17.6505 3.53758C17.593 3.50516 17.5462 3.45674 17.5158 3.3982C17.3013 3.06375 17.0806 2.73244 16.8593 2.40041C16.721 2.19275 16.5824 1.9848 16.4451 1.77562C16.2018 1.38264 15.8594 1.06067 15.4521 0.842122C15.0449 0.623572 14.5873 0.51615 14.1253 0.53067H9.05842C8.59641 0.515726 8.13862 0.622962 7.73131 0.841552C7.32401 1.06014 6.98162 1.38234 6.73869 1.77562C6.62877 1.94177 6.51806 2.10753 6.40729 2.27338C6.15841 2.64603 5.90923 3.01913 5.668 3.3982C5.63739 3.45631 5.59043 3.50419 5.5329 3.53591C5.47537 3.56762 5.40979 3.58177 5.3443 3.57664L5.34013 3.57652C4.59042 3.55581 3.84487 3.53521 3.09929 3.57664C2.50629 3.60186 1.94052 3.83265 1.49909 4.22941C1.05765 4.62618 0.768022 5.16419 0.679912 5.75115C0.671809 5.7845 0.659261 5.8166 0.642578 5.84659ZM8.32643 5.0995C9.29503 4.45291 10.4335 4.10782 11.5981 4.10781V4.10367C12.3739 4.10421 13.142 4.25782 13.8583 4.55571C14.5746 4.8536 15.2251 5.2899 15.7725 5.83962C16.3199 6.38934 16.7535 7.04169 17.0483 7.75926C17.3432 8.47682 17.4936 9.24552 17.4908 10.0213C17.4867 11.1859 17.1377 12.3231 16.4877 13.2895C15.8377 14.2558 14.9159 15.0079 13.8388 15.4507C12.7617 15.8935 11.5775 16.0072 10.4358 15.7775C9.29413 15.5478 8.24607 14.985 7.42403 14.16C6.60199 13.3351 6.04283 12.2851 5.81714 11.1426C5.59144 10.0001 5.70932 8.81629 6.15593 7.74074C6.60254 6.66519 7.35783 5.74609 8.32643 5.0995ZM19.7317 7.22018C19.5116 7.24956 19.2899 7.26481 19.0678 7.26583V7.26168C18.8501 7.26367 18.6325 7.25259 18.4162 7.22848C18.2383 7.19077 18.0797 7.09078 17.969 6.94653C17.8582 6.80227 17.8026 6.62323 17.8121 6.4416C17.8216 6.25998 17.8956 6.08772 18.0208 5.95582C18.146 5.82391 18.3142 5.74103 18.4951 5.7221C18.8779 5.69927 19.2618 5.69927 19.6446 5.7221C19.8234 5.74393 19.9884 5.82928 20.1095 5.96258C20.2306 6.09588 20.2998 6.26827 20.3044 6.44832C20.3176 6.62431 20.267 6.79918 20.1619 6.94092C20.0567 7.08266 19.904 7.18178 19.7317 7.22018ZM9.25859 12.302C9.87173 12.9175 10.704 13.2644 11.5728 13.2666C12.2249 13.2707 12.8635 13.081 13.4076 12.7216C13.9517 12.3621 14.3767 11.8491 14.6287 11.2477C14.8807 10.6462 14.9484 9.9835 14.8231 9.34356C14.6978 8.70361 14.3851 8.11532 13.9249 7.65335C13.4647 7.19137 12.8776 6.87653 12.2381 6.7488C11.5987 6.62108 10.9357 6.68622 10.3333 6.93594C9.73095 7.18567 9.21633 7.60873 8.8548 8.15143C8.49328 8.69414 8.30111 9.33201 8.30274 9.9841C8.30164 10.8529 8.64545 11.6865 9.25859 12.302Z" fill="#C4C4C4"/>
</svg>
