<svg width="18" height="18" viewBox="0 0 18 18" fill="none" xmlns="http://www.w3.org/2000/svg">
<path d="M8.11053 0.290039H9.10646C9.39085 0.326925 9.67709 0.35164 9.95963 0.398854C11.7353 0.693944 13.2827 1.45933 14.5564 2.73228C16.4667 4.64114 17.3074 6.96092 17.0647 9.64772C16.9005 11.4511 16.1949 13.0449 14.9891 14.3994C13.3875 16.1976 11.372 17.1659 8.96703 17.2839C7.28981 17.3654 5.71292 16.9744 4.27731 16.0991C2.06929 14.7531 0.71483 12.803 0.23826 10.256C0.178504 9.93727 0.148995 9.61267 0.105469 9.29066V8.29473C0.119117 8.17522 0.133133 8.05571 0.146413 7.93619C0.349656 6.10664 1.04865 4.49286 2.28176 3.12438C3.59122 1.67143 5.21348 0.763659 7.14374 0.42283C7.46391 0.365656 7.78814 0.333565 8.11053 0.290039ZM8.61624 14.5916C11.8821 14.5584 14.417 11.945 14.4015 8.78089C14.3852 5.55998 11.7958 2.98606 8.61034 2.99675C5.38832 3.00745 2.81255 5.58801 2.81624 8.79601C2.8203 12.0409 5.43111 14.5746 8.61624 14.5916Z" fill="url(#paint0_linear_392_22659)"/>
<path d="M6.89124 9.81584C6.9317 9.75954 6.97504 9.70537 7.02108 9.65354C8.44465 8.22899 9.86846 6.80481 11.2925 5.381C11.6448 5.02874 11.9196 5.02911 12.2722 5.381C12.4839 5.59199 12.696 5.80224 12.9059 6.01508C13.1936 6.30685 13.1966 6.61337 12.9103 6.90035C11.0451 8.76704 9.17905 10.633 7.31211 12.4982C7.03178 12.7782 6.72193 12.7774 6.44012 12.4982C5.72699 11.7883 5.01484 11.0765 4.30367 10.3629C4.02223 10.0803 4.02333 9.77268 4.30183 9.49013C4.53495 9.25357 4.76979 9.01885 5.00635 8.78597C5.28226 8.51523 5.591 8.51634 5.86728 8.7904C6.20073 9.11943 6.53086 9.45362 6.89124 9.81584Z" fill="url(#paint1_linear_392_22659)"/>
<defs>
<linearGradient id="paint0_linear_392_22659" x1="20.5224" y1="37.2161" x2="2.32735" y2="-4.56708" gradientUnits="userSpaceOnUse">
<stop stop-color="#4EBFFF"/>
<stop offset="1" stop-color="#00FFFF"/>
</linearGradient>
<linearGradient id="paint1_linear_392_22659" x1="14.9385" y1="21.6012" x2="7.77729" y2="2.03225" gradientUnits="userSpaceOnUse">
<stop stop-color="#4EBFFF"/>
<stop offset="1" stop-color="#00FFFF"/>
</linearGradient>
</defs>
</svg>
