<svg width="12" height="13" viewBox="0 0 12 13" fill="none" xmlns="http://www.w3.org/2000/svg">
<path d="M10.9973 9.40692L9.90726 8.85242L6.18971 10.7424C5.90471 10.8874 5.5682 10.8874 5.2832 10.7424L1.56565 8.85242L0.475642 9.40692C0.393352 9.44874 0.324243 9.51252 0.275971 9.59119C0.2277 9.66987 0.202148 9.76037 0.202148 9.85268C0.202148 9.94498 0.2277 10.0355 0.275971 10.1142C0.324243 10.1928 0.393352 10.2566 0.475642 10.2984L5.2832 12.743C5.5682 12.888 5.90471 12.888 6.18971 12.743L10.9973 10.2984C11.0796 10.2566 11.1487 10.1928 11.1969 10.1142C11.2452 10.0355 11.2708 9.94498 11.2708 9.85268C11.2708 9.76037 11.2452 9.66987 11.1969 9.59119C11.1487 9.51252 11.0796 9.44874 10.9973 9.40692Z" fill="#DBE1EE"/>
<path d="M10.9973 6.40692L9.90726 5.85242L6.18971 7.74244C5.90471 7.88744 5.5682 7.88744 5.2832 7.74244L1.56565 5.85242L0.475642 6.40692C0.393352 6.44874 0.324243 6.51252 0.275971 6.59119C0.2277 6.66987 0.202148 6.76037 0.202148 6.85268C0.202148 6.94498 0.2277 7.03549 0.275971 7.11416C0.324243 7.19284 0.393352 7.25662 0.475642 7.29843L5.2832 9.74296C5.5682 9.88797 5.90471 9.88797 6.18971 9.74296L10.9973 7.29843C11.0796 7.25662 11.1487 7.19284 11.1969 7.11416C11.2452 7.03549 11.2708 6.94498 11.2708 6.85268C11.2708 6.76037 11.2452 6.66987 11.1969 6.59119C11.1487 6.51252 11.0796 6.44874 10.9973 6.40692Z" fill="#DBE1EE"/>
<path d="M5.28272 0.962617L0.474665 3.40715C0.392375 3.44896 0.323267 3.51274 0.274995 3.59142C0.226723 3.67009 0.201172 3.7606 0.201172 3.8529C0.201172 3.94521 0.226723 4.03571 0.274995 4.11439C0.323267 4.19306 0.392375 4.25684 0.474665 4.29866L5.28222 6.74319C5.56723 6.88819 5.90373 6.88819 6.18874 6.74319L10.9963 4.29866C11.0786 4.25684 11.1477 4.19306 11.196 4.11439C11.2442 4.03571 11.2698 3.94521 11.2698 3.8529C11.2698 3.7606 11.2442 3.67009 11.196 3.59142C11.1477 3.51274 11.0786 3.44896 10.9963 3.40715L6.18874 0.962617C6.04843 0.891142 5.89319 0.853882 5.73573 0.853882C5.57826 0.853882 5.42303 0.891142 5.28272 0.962617Z" fill="#DBE1EE"/>
</svg>
