<svg width="32" height="30" viewBox="0 0 32 30" fill="none" xmlns="http://www.w3.org/2000/svg">
<path d="M29.6365 0.953857L17.9736 9.74521L20.1304 4.55843L29.6365 0.953857Z" fill="#E2761B" stroke="#E2761B" stroke-linecap="round" stroke-linejoin="round"/>
<path d="M2.71289 0.953857L14.2819 9.82848L12.2307 4.55843L2.71289 0.953857Z" fill="#E4761B" stroke="#E4761B" stroke-linecap="round" stroke-linejoin="round"/>
<path d="M25.4402 21.3324L22.334 26.1622L28.98 28.0181L30.8906 21.4394L25.4402 21.3324Z" fill="#E4761B" stroke="#E4761B" stroke-linecap="round" stroke-linejoin="round"/>
<path d="M1.48145 21.4394L3.38032 28.0181L10.0264 26.1622L6.92019 21.3324L1.48145 21.4394Z" fill="#E4761B" stroke="#E4761B" stroke-linecap="round" stroke-linejoin="round"/>
<path d="M9.65179 13.1715L7.7998 16.0147L14.399 16.3121L14.1645 9.1149L9.65179 13.1715Z" fill="#E4761B" stroke="#E4761B" stroke-linecap="round" stroke-linejoin="round"/>
<path d="M22.6974 13.1712L18.126 9.03131L17.9736 16.3118L24.5611 16.0144L22.6974 13.1712Z" fill="#E4761B" stroke="#E4761B" stroke-linecap="round" stroke-linejoin="round"/>
<path d="M10.0264 26.1623L13.9882 24.1994L10.5656 21.4871L10.0264 26.1623Z" fill="#E4761B" stroke="#E4761B" stroke-linecap="round" stroke-linejoin="round"/>
<path d="M18.3604 24.1994L22.3339 26.1623L21.783 21.4871L18.3604 24.1994Z" fill="#E4761B" stroke="#E4761B" stroke-linecap="round" stroke-linejoin="round"/>
<path d="M22.3339 26.1622L18.3604 24.1994L18.6768 26.8284L18.6417 27.9348L22.3339 26.1622Z" fill="#D7C1B3" stroke="#D7C1B3" stroke-linecap="round" stroke-linejoin="round"/>
<path d="M10.0264 26.1622L13.7186 27.9348L13.6952 26.8284L13.9882 24.1994L10.0264 26.1622Z" fill="#D7C1B3" stroke="#D7C1B3" stroke-linecap="round" stroke-linejoin="round"/>
<path d="M13.7771 19.7501L10.4717 18.7627L12.8042 17.6802L13.7771 19.7501Z" fill="#233447" stroke="#233447" stroke-linecap="round" stroke-linejoin="round"/>
<path d="M18.5713 19.7501L19.5442 17.6802L21.8885 18.7627L18.5713 19.7501Z" fill="#233447" stroke="#233447" stroke-linecap="round" stroke-linejoin="round"/>
<path d="M10.0261 26.1622L10.5887 21.3324L6.91992 21.4394L10.0261 26.1622Z" fill="#CD6116" stroke="#CD6116" stroke-linecap="round" stroke-linejoin="round"/>
<path d="M21.7715 21.3324L22.3341 26.1622L25.4403 21.4394L21.7715 21.3324Z" fill="#CD6116" stroke="#CD6116" stroke-linecap="round" stroke-linejoin="round"/>
<path d="M24.5611 16.0146L17.9736 16.312L18.5831 19.75L19.556 17.6801L21.9003 18.7626L24.5611 16.0146Z" fill="#CD6116" stroke="#CD6116" stroke-linecap="round" stroke-linejoin="round"/>
<path d="M10.4723 18.7626L12.8166 17.6801L13.7777 19.75L14.399 16.312L7.7998 16.0146L10.4723 18.7626Z" fill="#CD6116" stroke="#CD6116" stroke-linecap="round" stroke-linejoin="round"/>
<path d="M7.7998 16.0146L10.5661 21.4869L10.4723 18.7626L7.7998 16.0146Z" fill="#E4751F" stroke="#E4751F" stroke-linecap="round" stroke-linejoin="round"/>
<path d="M21.9004 18.7626L21.7832 21.4869L24.5612 16.0146L21.9004 18.7626Z" fill="#E4751F" stroke="#E4751F" stroke-linecap="round" stroke-linejoin="round"/>
<path d="M14.3986 16.312L13.7773 19.75L14.551 23.8066L14.7268 18.4652L14.3986 16.312Z" fill="#E4751F" stroke="#E4751F" stroke-linecap="round" stroke-linejoin="round"/>
<path d="M17.9737 16.312L17.6572 18.4533L17.7979 23.8066L18.5832 19.75L17.9737 16.312Z" fill="#E4751F" stroke="#E4751F" stroke-linecap="round" stroke-linejoin="round"/>
<path d="M18.5832 19.7501L17.7979 23.8067L18.3605 24.1993L21.7831 21.4869L21.9004 18.7627L18.5832 19.7501Z" fill="#F6851B" stroke="#F6851B" stroke-linecap="round" stroke-linejoin="round"/>
<path d="M10.4717 18.7627L10.5655 21.4869L13.9881 24.1993L14.5507 23.8067L13.7771 19.7501L10.4717 18.7627Z" fill="#F6851B" stroke="#F6851B" stroke-linecap="round" stroke-linejoin="round"/>
<path d="M18.6416 27.9348L18.6768 26.8285L18.3838 26.5667H13.9648L13.6952 26.8285L13.7186 27.9348L10.0264 26.1623L11.3157 27.2329L13.9296 29.0769H18.4189L21.0445 27.2329L22.3339 26.1623L18.6416 27.9348Z" fill="#C0AD9E" stroke="#C0AD9E" stroke-linecap="round" stroke-linejoin="round"/>
<path d="M18.3604 24.1994L17.7978 23.8068H14.551L13.9883 24.1994L13.6953 26.8284L13.9649 26.5667H18.3839L18.6769 26.8284L18.3604 24.1994Z" fill="#161616" stroke="#161616" stroke-linecap="round" stroke-linejoin="round"/>
<path d="M30.1287 10.3162L31.125 5.46255L29.6364 0.953857L18.3604 9.4478L22.6973 13.1713L28.8276 14.9915L30.1873 13.3855L29.6012 12.9572L30.5389 12.0888L29.8122 11.5178L30.7499 10.7921L30.1287 10.3162Z" fill="#763D16" stroke="#763D16" stroke-linecap="round" stroke-linejoin="round"/>
<path d="M1.23535 5.46255L2.23167 10.3162L1.59872 10.7921L2.53643 11.5178L1.82142 12.0888L2.75914 12.9572L2.17307 13.3855L3.52103 14.9915L9.65134 13.1713L13.9883 9.4478L2.71225 0.953857L1.23535 5.46255Z" fill="#763D16" stroke="#763D16" stroke-linecap="round" stroke-linejoin="round"/>
<path d="M28.8278 14.9914L22.6975 13.1713L24.5612 16.0145L21.7832 21.4868L25.4403 21.4392H30.8908L28.8278 14.9914Z" fill="#F6851B" stroke="#F6851B" stroke-linecap="round" stroke-linejoin="round"/>
<path d="M9.65129 13.1713L3.52098 14.9914L1.48145 21.4392H6.92019L10.5656 21.4868L7.7993 16.0145L9.65129 13.1713Z" fill="#F6851B" stroke="#F6851B" stroke-linecap="round" stroke-linejoin="round"/>
<path d="M17.974 16.3121L18.3608 9.44799L20.1424 4.55862H12.2305L13.9887 9.44799L14.3989 16.3121L14.5396 18.4773L14.5513 23.8068H17.7982L17.8216 18.4773L17.974 16.3121Z" fill="#F6851B" stroke="#F6851B" stroke-linecap="round" stroke-linejoin="round"/>
</svg>
