<svg width="35" height="22" viewBox="0 0 35 22" fill="none" xmlns="http://www.w3.org/2000/svg">
<path d="M7.15188 4.67367C12.6929 -0.753365 21.6705 -0.753365 27.2207 4.67367L27.8878 5.32609C27.954 5.38955 28.0066 5.46574 28.0426 5.55006C28.0785 5.63439 28.0971 5.72511 28.0971 5.81678C28.0971 5.90845 28.0785 5.99918 28.0426 6.0835C28.0066 6.16783 27.954 6.24402 27.8878 6.30748L25.6089 8.54408C25.5409 8.60765 25.4512 8.643 25.3581 8.643C25.2649 8.643 25.1753 8.60765 25.1072 8.54408L24.1883 7.64723C22.3131 5.82697 19.8025 4.80886 17.189 4.80886C14.5756 4.80886 12.065 5.82697 10.1898 7.64723L9.20838 8.60841C9.14031 8.67197 9.05065 8.70732 8.95752 8.70732C8.86438 8.70732 8.77473 8.67197 8.70666 8.60841L6.42962 6.37364C6.36347 6.31017 6.31083 6.23399 6.27487 6.14967C6.23891 6.06534 6.22038 5.97461 6.22038 5.88294C6.22038 5.79127 6.23891 5.70055 6.27487 5.61622C6.31083 5.5319 6.36347 5.45571 6.42962 5.39225L7.15188 4.67367ZM31.9383 9.28839L33.9599 11.2751C34.0261 11.3385 34.0787 11.4147 34.1147 11.499C34.1506 11.5834 34.1692 11.6741 34.1692 11.7658C34.1692 11.8574 34.1506 11.9482 34.1147 12.0325C34.0787 12.1168 34.0261 12.193 33.9599 12.2564L24.8077 21.2231C24.6734 21.354 24.4934 21.4272 24.3059 21.4272C24.1185 21.4272 23.9384 21.354 23.8042 21.2231L17.3094 14.8588C17.2753 14.8267 17.2303 14.8089 17.1835 14.8089C17.1367 14.8089 17.0917 14.8267 17.0576 14.8588L10.5647 21.2231C10.4305 21.354 10.2504 21.4272 10.063 21.4272C9.87549 21.4272 9.69544 21.354 9.56124 21.2231L0.401623 12.2638C0.335471 12.2003 0.282834 12.1241 0.246877 12.0398C0.210919 11.9555 0.192383 11.8648 0.192383 11.7731C0.192383 11.6814 0.210919 11.5907 0.246877 11.5064C0.282834 11.4221 0.335471 11.3459 0.401623 11.2824L2.42321 9.29574C2.55741 9.16485 2.73746 9.09159 2.92493 9.09159C3.1124 9.09159 3.29244 9.16485 3.42665 9.29574L9.9288 15.6601C9.96278 15.6916 10.0074 15.7091 10.0538 15.7091C10.1001 15.7091 10.1448 15.6916 10.1787 15.6601L16.6735 9.29574C16.8077 9.16485 16.9878 9.09159 17.1753 9.09159C17.3627 9.09159 17.5428 9.16485 17.677 9.29574L24.1773 15.6601C24.2113 15.6916 24.2559 15.7091 24.3023 15.7091C24.3486 15.7091 24.3932 15.6916 24.4272 15.6601L30.9294 9.29574C30.995 9.22875 31.0732 9.17539 31.1595 9.13874C31.2458 9.10209 31.3386 9.08287 31.4323 9.08218C31.5261 9.0815 31.6191 9.09937 31.7059 9.13476C31.7928 9.17015 31.8717 9.22236 31.9383 9.28839Z" fill="#3A99FB"/>
</svg>
