<svg width="12" height="13" viewBox="0 0 12 13" fill="none" xmlns="http://www.w3.org/2000/svg">
<path d="M11.3547 9.40775L10.2647 8.85324L6.54713 10.7433C6.26213 10.8883 5.92563 10.8883 5.64062 10.7433L1.92308 8.85324L0.833063 9.40775C0.750774 9.44956 0.681665 9.51334 0.633393 9.59202C0.585121 9.6707 0.55957 9.7612 0.55957 9.8535C0.55957 9.94581 0.585121 10.0363 0.633393 10.115C0.681665 10.1937 0.750774 10.2574 0.833063 10.2993L5.64062 12.7438C5.92563 12.8888 6.26213 12.8888 6.54713 12.7438L11.3547 10.2993C11.437 10.2574 11.5061 10.1937 11.5544 10.115C11.6026 10.0363 11.6282 9.94581 11.6282 9.8535C11.6282 9.7612 11.6026 9.6707 11.5544 9.59202C11.5061 9.51334 11.437 9.44956 11.3547 9.40775Z" fill="white"/>
<path d="M11.3547 6.40772L10.2647 5.85321L6.54713 7.74323C6.26213 7.88824 5.92563 7.88824 5.64062 7.74323L1.92308 5.85321L0.833063 6.40772C0.750774 6.44953 0.681665 6.51331 0.633393 6.59199C0.585121 6.67066 0.55957 6.76117 0.55957 6.85347C0.55957 6.94578 0.585121 7.03628 0.633393 7.11496C0.681665 7.19363 0.750774 7.25741 0.833063 7.29923L5.64062 9.74376C5.92563 9.88876 6.26213 9.88876 6.54713 9.74376L11.3547 7.29923C11.437 7.25741 11.5061 7.19363 11.5544 7.11496C11.6026 7.03628 11.6282 6.94578 11.6282 6.85347C11.6282 6.76117 11.6026 6.67066 11.5544 6.59199C11.5061 6.51331 11.437 6.44953 11.3547 6.40772Z" fill="white"/>
<path d="M5.64051 0.963105L0.832453 3.40763C0.750163 3.44945 0.681055 3.51323 0.632783 3.59191C0.584511 3.67058 0.55896 3.76109 0.55896 3.85339C0.55896 3.9457 0.584511 4.0362 0.632783 4.11487C0.681055 4.19355 0.750163 4.25733 0.832453 4.29915L5.64001 6.74368C5.92502 6.88868 6.26152 6.88868 6.54652 6.74368L11.3541 4.29915C11.4364 4.25733 11.5055 4.19355 11.5538 4.11487C11.602 4.0362 11.6276 3.9457 11.6276 3.85339C11.6276 3.76109 11.602 3.67058 11.5538 3.59191C11.5055 3.51323 11.4364 3.44945 11.3541 3.40763L6.54652 0.963105C6.40621 0.89163 6.25098 0.85437 6.09352 0.85437C5.93605 0.85437 5.78082 0.89163 5.64051 0.963105Z" fill="white"/>
</svg>
