<svg width="23" height="23" viewBox="0 0 23 23" fill="none" xmlns="http://www.w3.org/2000/svg">
<path fill-rule="evenodd" clip-rule="evenodd" d="M7.23577 0.986083L6.4728 0.986083C6.39747 0.99633 6.32204 1.00593 6.24663 1.01553C6.09481 1.03485 5.94308 1.05416 5.79248 1.07871C3.41042 1.45569 1.39205 3.33257 0.909153 5.63553C0.51813 7.4874 0.911695 9.17255 2.1299 10.6478C3.11096 11.8355 4.3972 12.5391 5.94794 12.7756C6.06973 12.7941 6.19213 12.8088 6.31451 12.8235C6.36846 12.83 6.42241 12.8365 6.47629 12.8433L7.23926 12.8433C7.29223 12.8366 7.3452 12.8301 7.39816 12.8237C7.56773 12.8032 7.7373 12.7826 7.90686 12.7534C9.32768 12.5066 10.5104 11.8559 11.455 10.8012C12.3337 9.81907 12.8229 8.673 12.9298 7.37409C12.9343 7.34386 12.9409 7.31395 12.9495 7.28455L12.9495 6.54356C12.9389 6.47121 12.9298 6.39855 12.9207 6.32589C12.9026 6.18057 12.8844 6.03525 12.8541 5.89241C12.3389 3.48664 10.8781 1.92355 8.47178 1.20314C8.22061 1.12793 7.95701 1.09297 7.6937 1.05805C7.57109 1.04179 7.44853 1.02553 7.32732 1.00523C7.30813 1.00212 7.28943 0.997911 7.27029 0.993603C7.259 0.991064 7.24756 0.988489 7.23577 0.986083ZM1.61395 6.91004C1.61776 4.09364 3.9693 1.80921 6.85937 1.81569C9.75675 1.82217 12.1029 4.11155 12.0927 6.92177C12.0825 9.7425 9.72718 12.0254 6.84125 12.0115C3.94482 11.9976 1.61045 9.71965 1.61395 6.91004ZM6.87894 4.67553C6.59508 4.67553 6.36607 4.58285 6.1857 4.3846C6.06627 4.25896 6.00037 4.09181 6.00192 3.91847C6.00347 3.74513 6.07235 3.57919 6.19401 3.45571C6.5319 3.09246 7.16446 3.08581 7.50527 3.44532C7.69105 3.64107 7.76087 3.87298 7.67151 4.13274C7.56137 4.44653 7.32032 4.6082 7.00321 4.66722C6.96199 4.67255 6.92049 4.67533 6.87894 4.67553ZM7.67574 8.67503L7.67574 8.67505C7.67464 9.13313 7.67354 9.59123 7.67951 10.0489C7.68242 10.2505 7.60179 10.3914 7.43804 10.4853C7.06856 10.6969 6.68994 10.706 6.31339 10.5036C6.13634 10.4084 6.04989 10.2605 6.05072 10.0464C6.05627 8.76966 6.05627 7.4929 6.05072 6.21614C6.05072 5.9809 6.15255 5.82754 6.35786 5.74317C6.52025 5.67368 6.69534 5.63883 6.87195 5.64083C7.04857 5.64283 7.22283 5.68165 7.38359 5.75481C7.58101 5.84125 7.682 5.98838 7.67909 6.21821C7.6732 6.6707 7.67441 7.12298 7.67561 7.5752L7.67561 7.57523C7.6761 7.76142 7.6766 7.94759 7.6766 8.13377C7.6766 8.31417 7.67617 8.4946 7.67574 8.67503Z" fill="white"/>
<path fill-rule="evenodd" clip-rule="evenodd" d="M13.006 16.0573C14.3309 16.4671 15.7123 16.6651 17.099 16.6439C18.4583 16.6746 19.8131 16.4762 21.1066 16.0573C21.5399 15.8946 21.9505 15.6771 22.3284 15.4099C22.7927 15.0922 22.7683 14.75 22.3284 14.3957C21.8374 14.0207 21.2702 13.758 20.6668 13.6259C18.8038 13.1484 16.8653 13.0404 14.9608 13.3082C14.0271 13.4051 13.1152 13.6528 12.2607 14.0414C12.0345 14.1614 11.8216 14.3047 11.6253 14.469C11.2832 14.7623 11.2954 15.0433 11.6253 15.3609C12.0308 15.6886 12.5015 15.926 13.006 16.0573ZM12.3074 18.709C13.1821 19.1033 14.1144 19.3549 15.0687 19.4543C16.6624 19.6601 18.2785 19.6148 19.8582 19.3199C20.5451 19.2109 21.2121 19.001 21.8375 18.6967C21.9801 18.6226 22.1188 18.5411 22.253 18.4524C22.4068 18.3661 22.5325 18.2371 22.6149 18.0811C22.6972 17.925 22.7328 17.7484 22.7173 17.5726V16.2164C22.5861 16.2736 22.4558 16.3326 22.326 16.3915L22.326 16.3915C21.9842 16.5464 21.6452 16.7 21.2999 16.8151C19.9801 17.2291 18.6021 17.4273 17.2191 17.4017C15.7038 17.4522 14.191 17.2414 12.7472 16.7786C12.4504 16.6714 12.1648 16.5419 11.8715 16.409C11.7302 16.3449 11.587 16.28 11.44 16.2164C11.4643 16.5785 11.4643 16.9418 11.44 17.3039C11.3826 17.6041 11.4398 17.9151 11.6004 18.1752C11.761 18.4353 12.0132 18.6258 12.3074 18.709ZM15.0687 22.3271C14.1144 22.2277 13.1821 21.9761 12.3074 21.5818C12.0132 21.4986 11.761 21.3081 11.6004 21.048C11.4398 20.7879 11.3826 20.4769 11.44 20.1767C11.4643 19.8146 11.4643 19.4513 11.44 19.0892C11.587 19.1528 11.7302 19.2177 11.8716 19.2818C12.1648 19.4147 12.4504 19.5442 12.7472 19.6514C14.191 20.1142 15.7038 20.325 17.2191 20.2745C18.6021 20.3001 19.9801 20.1019 21.2999 19.6879C21.6452 19.5728 21.9842 19.4192 22.326 19.2643C22.4558 19.2055 22.5861 19.1464 22.7173 19.0892V20.4454C22.7328 20.6212 22.6972 20.7978 22.6149 20.9539C22.5325 21.1099 22.4068 21.2389 22.253 21.3252C22.1188 21.4139 21.9801 21.4954 21.8375 21.5695C21.2121 21.8738 20.5451 22.0837 19.8582 22.1927C18.2785 22.4876 16.6624 22.5329 15.0687 22.3271Z" fill="white"/>
</svg>
