<svg width="17" height="16" viewBox="0 0 17 16" fill="none" xmlns="http://www.w3.org/2000/svg">
<path fill-rule="evenodd" clip-rule="evenodd" d="M16.0615 4.66147C16.0615 4.22 15.8052 3.9648 15.3643 3.96428H12.8044H12.5624C12.8939 3.35285 13.0033 2.73248 12.8307 2.07897C12.6715 1.44652 12.2716 0.901248 11.7163 0.559356C10.8175 -0.0104981 9.5021 -0.0194423 8.50183 1.03713C7.49261 -0.0194423 6.21557 -0.00839287 5.40841 0.49411C4.06033 1.336 3.78198 2.52254 4.40866 3.96428H1.66042C1.18686 3.96428 0.939552 4.20842 0.939026 4.67672V7.04454C0.939026 7.49968 1.19159 7.75225 1.64569 7.75225H15.3511C15.8094 7.75225 16.062 7.50284 16.063 7.04927C16.063 6.25509 16.0625 5.45916 16.0615 4.66147ZM7.41955 3.96227L7.41953 3.96227C7.0925 3.96931 6.77225 3.97621 6.45498 3.94796C5.7741 3.88798 5.30317 3.28392 5.35 2.60041C5.37378 2.27516 5.52324 1.97194 5.76672 1.75498C6.0102 1.53802 6.32857 1.42436 6.6544 1.43808C6.97636 1.44757 7.28216 1.58128 7.50775 1.81118C7.73334 2.04109 7.86123 2.34937 7.86462 2.67145C7.87214 2.97219 7.87079 3.27266 7.86941 3.5813L7.86941 3.58154C7.86886 3.70483 7.8683 3.82942 7.8683 3.95586C7.7171 3.95586 7.56763 3.95908 7.41955 3.96227ZM9.56864 3.96539H9.56863L9.56861 3.96539C9.42497 3.96326 9.28 3.96112 9.13324 3.96112C9.13324 3.81223 9.13137 3.6661 9.12952 3.52188C9.12549 3.20737 9.12158 2.90193 9.13745 2.59673C9.17271 1.92848 9.74467 1.42755 10.4213 1.43913C10.7398 1.44591 11.0437 1.57363 11.2714 1.79635C11.4991 2.01906 11.6335 2.32009 11.6473 2.6383C11.6763 3.32444 11.1822 3.91113 10.5061 3.95428V3.95586C10.1967 3.97469 9.88593 3.97009 9.56864 3.96539ZM2.19684 9.23289V14.5957C2.19684 15.0882 2.44046 15.3292 2.93718 15.3292H7.85802V9.02295H2.19684V9.23289ZM14.0558 15.3292H9.14395V9.02822H14.8014V14.581C14.8014 15.0925 14.5657 15.3292 14.0558 15.3292Z" fill="white"/>
</svg>
