<svg width="18" height="16" viewBox="0 0 18 16" fill="none" xmlns="http://www.w3.org/2000/svg">
<path d="M17.3573 4.89775V5.67665C17.3448 5.7138 17.3351 5.75183 17.3284 5.79044C17.2739 6.284 17.1523 6.76784 16.9671 7.22858C16.5278 8.3529 15.8437 9.32189 15.0486 10.2146C13.3007 12.1787 11.2268 13.7397 9.00386 15.1137C8.80203 15.2379 8.602 15.2307 8.39926 15.1069C6.51681 13.9591 4.75176 12.6569 3.17816 11.1059C2.2042 10.1468 1.32778 9.11147 0.712334 7.88104C-0.230018 6.00221 -0.197508 4.14685 0.938102 2.36419C1.72784 1.12202 2.87157 0.366154 4.35441 0.234757C5.92801 0.0956844 7.21172 0.704352 8.23129 1.89369C8.40197 2.09282 8.54736 2.31407 8.71217 2.53578C8.74062 2.49559 8.7641 2.45992 8.79074 2.42605C8.99845 2.15965 9.18222 1.86931 9.41928 1.63226C10.6655 0.385117 12.1533 -0.100282 13.8655 0.394149C15.6003 0.894901 16.6393 2.12443 17.1504 3.82581C17.2529 4.17124 17.2895 4.53924 17.3573 4.89775Z" fill="white"/>
</svg>
