<svg width="23" height="13" viewBox="0 0 23 13" fill="none" xmlns="http://www.w3.org/2000/svg">
<path d="M21.0259 0.933803C20.7572 0.962688 20.5061 1.08146 20.3134 1.27086L16.3778 5.20759L13.6418 2.46915C13.5108 2.3347 13.35 2.23289 13.1725 2.1719C12.9949 2.11091 12.8055 2.09245 12.6195 2.118C12.4335 2.14355 12.2561 2.21241 12.1016 2.31902C11.9471 2.42564 11.8197 2.56704 11.7298 2.73184L8.16853 8.9548L6.70635 5.28076C6.63534 5.09106 6.51746 4.92243 6.36368 4.79059C6.2099 4.65876 6.02525 4.56801 5.82693 4.52681C5.62861 4.48561 5.42308 4.49531 5.22952 4.55499C5.03596 4.61468 4.86067 4.72241 4.71999 4.86813L1.12151 8.46661C1.0081 8.57994 0.918119 8.71451 0.856709 8.86262C0.7953 9.01073 0.763664 9.16948 0.763609 9.32982C0.763553 9.49015 0.795078 9.64893 0.856385 9.79708C0.917691 9.94524 1.00758 10.0799 1.12091 10.1933C1.23425 10.3067 1.36881 10.3967 1.51692 10.4581C1.66503 10.5195 1.82379 10.5511 1.98412 10.5512C2.14446 10.5512 2.30324 10.5197 2.45139 10.4584C2.59954 10.3971 2.73417 10.3072 2.84758 10.1939L5.13381 7.90765L6.85868 12.1802C6.94009 12.3945 7.08119 12.581 7.26528 12.7176C7.44937 12.8541 7.66875 12.9351 7.89743 12.9509C8.12611 12.9667 8.35452 12.9166 8.55562 12.8066C8.75673 12.6966 8.9221 12.5312 9.03216 12.3302L13.0433 5.32034L15.5166 7.79489C15.6285 7.91061 15.7625 8.00264 15.9106 8.06549C16.0588 8.12834 16.2181 8.16073 16.379 8.16073C16.54 8.16073 16.6993 8.12834 16.8475 8.06549C16.9956 8.00264 17.1296 7.91061 17.2415 7.79489L22.0394 2.99693C22.2289 2.82151 22.3567 2.58963 22.4039 2.33576C22.451 2.08189 22.415 1.81957 22.3012 1.58782C22.1873 1.35606 22.0017 1.16723 21.7719 1.0494C21.5422 0.931572 21.2805 0.89103 21.0259 0.933803Z" fill="white"/>
</svg>
