<svg width="35" height="35" viewBox="0 0 35 35" fill="none" xmlns="http://www.w3.org/2000/svg">
<rect x="1.26361" y="0.876709" width="33" height="33" rx="10.5" fill="#093E4F" stroke="#1BEAFF"/>
<path fill-rule="evenodd" clip-rule="evenodd" d="M17.5346 18.0422H16.979V17.9728C16.1126 17.8234 15.3034 17.4405 14.6385 16.8654C13.9735 16.2902 13.478 15.5446 13.2053 14.7088C12.9327 13.8729 12.8932 12.9786 13.0911 12.1219C13.289 11.2653 13.7168 10.4789 14.3284 9.84739C14.9401 9.21586 15.7124 8.76312 16.5623 8.53794C17.4121 8.31275 18.3073 8.32363 19.1514 8.56943C19.9956 8.81523 20.7566 9.28663 21.3527 9.93286C21.9489 10.5791 22.3574 11.3757 22.5344 12.2368C22.6455 12.473 22.6455 12.7091 22.6455 12.9452V13.4729L22.5622 14.0423C22.3933 14.9976 21.9416 15.8801 21.2657 16.5759C20.5897 17.2716 19.7206 17.7485 18.7706 17.945L18.0623 18.0422H17.5346ZM16.8957 16.5839H18.6595L18.604 12.6257H16.8957V16.5839ZM18.2628 10.2534C18.1255 10.1612 17.9639 10.112 17.7985 10.1119C17.5798 10.1119 17.37 10.1978 17.2141 10.3511C17.0582 10.5043 16.9688 10.7127 16.9652 10.9313C16.9624 11.0967 17.0089 11.2592 17.0988 11.398C17.1887 11.5369 17.3178 11.6458 17.4698 11.7111C17.6218 11.7763 17.7898 11.7948 17.9523 11.7642C18.1149 11.7336 18.2647 11.6554 18.3826 11.5394C18.5005 11.4234 18.5813 11.275 18.6146 11.113C18.6479 10.951 18.6322 10.7827 18.5696 10.6296C18.5069 10.4766 18.4002 10.3456 18.2628 10.2534ZM23.4213 18.9983C23.8177 19.3034 24.141 19.6932 24.3676 20.1392C24.8394 21.2065 25.1169 22.3494 25.1871 23.5141C25.2097 24.2439 24.944 24.9533 24.4476 25.4888C23.9511 26.0242 23.2638 26.3426 22.5344 26.3751H21.8677H13.5347C12.8252 26.3968 12.1265 26.1978 11.5348 25.8057C11.2058 25.5793 10.9316 25.2822 10.7321 24.9362C10.5327 24.5902 10.4131 24.204 10.3821 23.8058C10.2396 22.727 10.4491 21.6311 10.9793 20.6809C11.2693 19.8429 11.8576 19.1409 12.632 18.7087C13.1339 18.4355 13.6996 18.3012 14.2708 18.3199C14.4551 18.3334 14.6324 18.3957 14.7847 18.5004C14.9662 18.596 15.1412 18.7113 15.3186 18.8282C15.3991 18.8812 15.4801 18.9345 15.5624 18.9865C16.2245 19.4349 17.0058 19.6746 17.8054 19.6746C18.605 19.6746 19.3863 19.4349 20.0484 18.9865C20.2325 18.8838 20.4089 18.7678 20.5761 18.6393C20.7867 18.4783 21.0328 18.3702 21.2939 18.3243C21.5549 18.2784 21.8232 18.2959 22.0761 18.3754C22.5652 18.4803 23.0248 18.6931 23.4213 18.9983Z" fill="url(#paint0_linear_393_1322)"/>
<defs>
<linearGradient id="paint0_linear_393_1322" x1="28.1732" y1="47.4647" x2="6.45501" y2="6.30878" gradientUnits="userSpaceOnUse">
<stop stop-color="#4EBFFF"/>
<stop offset="1" stop-color="#00FFFF"/>
</linearGradient>
</defs>
</svg>
