<svg width="25" height="25" viewBox="0 0 25 25" fill="none" xmlns="http://www.w3.org/2000/svg">
<path opacity="0.4" d="M21.3634 9.39717C20.8734 8.61717 20.3134 7.91717 19.7334 7.28717L15.9634 11.0572C16.0834 11.4272 16.1534 11.8272 16.1534 12.2472C16.1534 14.4872 14.3434 16.2872 12.1134 16.2872C11.6934 16.2872 11.2934 16.2172 10.9234 16.0972L7.46338 19.5572C8.92338 20.3772 10.5034 20.8072 12.1134 20.8072C13.8934 20.8072 15.6234 20.2872 17.2034 19.3172C18.7834 18.3372 20.2034 16.9072 21.3634 15.0872C22.3634 13.5272 22.3634 10.9672 21.3634 9.39717Z" fill="#777777"/>
<path d="M14.1332 10.2272L10.0932 14.2672C9.58317 13.7472 9.25317 13.0272 9.25317 12.2472C9.25317 10.6772 10.5332 9.38721 12.1132 9.38721C12.8932 9.38721 13.6132 9.71721 14.1332 10.2272Z" fill="#777777"/>
<path opacity="0.4" d="M18.3633 5.99718L14.9733 9.38719C14.2433 8.64719 13.2333 8.20718 12.1133 8.20718C9.87328 8.20718 8.07328 10.0172 8.07328 12.2472C8.07328 13.3672 8.52328 14.3772 9.25328 15.1072L5.87328 18.4972H5.86328C4.75328 17.5972 3.73328 16.4472 2.86328 15.0872C1.86328 13.5172 1.86328 10.9672 2.86328 9.39718C4.02328 7.57718 5.44328 6.14719 7.02328 5.16719C8.60328 4.20719 10.3333 3.67719 12.1133 3.67719C14.3433 3.67719 16.5033 4.49718 18.3633 5.99718Z" fill="#777777"/>
<path d="M14.9734 12.2472C14.9734 13.8172 13.6934 15.1072 12.1134 15.1072C12.0534 15.1072 12.0034 15.1072 11.9434 15.0872L14.9534 12.0772C14.9734 12.1372 14.9734 12.1872 14.9734 12.2472Z" fill="#777777"/>
<path d="M21.8832 2.4772C21.5832 2.1772 21.0932 2.1772 20.7932 2.4772L2.34316 20.9372C2.04316 21.2372 2.04316 21.7272 2.34316 22.0272C2.49316 22.1672 2.68316 22.2472 2.88316 22.2472C3.08316 22.2472 3.27316 22.1672 3.42316 22.0172L21.8832 3.5572C22.1932 3.2572 22.1932 2.7772 21.8832 2.4772Z" fill="#777777"/>
</svg>
