<svg width="29" height="28" viewBox="0 0 29 28" fill="none" xmlns="http://www.w3.org/2000/svg">
<path d="M26.8343 0.733521L16.1384 8.79602L18.1164 4.03925L26.8343 0.733521Z" fill="#E2761B" stroke="#E2761B" stroke-linecap="round" stroke-linejoin="round"/>
<path d="M2.14258 0.733521L12.7525 8.87239L10.8713 4.03925L2.14258 0.733521Z" fill="#E4761B" stroke="#E4761B" stroke-linecap="round" stroke-linejoin="round"/>
<path d="M22.9861 19.4225L20.1375 23.852L26.2325 25.554L27.9847 19.5207L22.9861 19.4225Z" fill="#E4761B" stroke="#E4761B" stroke-linecap="round" stroke-linejoin="round"/>
<path d="M1.01367 19.5207L2.75512 25.554L8.85018 23.852L6.00152 19.4225L1.01367 19.5207Z" fill="#E4761B" stroke="#E4761B" stroke-linecap="round" stroke-linejoin="round"/>
<path d="M8.50631 11.9383L6.80786 14.5458L12.8599 14.8185L12.6449 8.21797L8.50631 11.9383Z" fill="#E4761B" stroke="#E4761B" stroke-linecap="round" stroke-linejoin="round"/>
<path d="M20.4705 11.938L16.2782 8.14131L16.1384 14.8182L22.1797 14.5455L20.4705 11.938Z" fill="#E4761B" stroke="#E4761B" stroke-linecap="round" stroke-linejoin="round"/>
<path d="M8.85034 23.852L12.4837 22.0519L9.34483 19.5644L8.85034 23.852Z" fill="#E4761B" stroke="#E4761B" stroke-linecap="round" stroke-linejoin="round"/>
<path d="M16.4932 22.0519L20.1373 23.852L19.6321 19.5644L16.4932 22.0519Z" fill="#E4761B" stroke="#E4761B" stroke-linecap="round" stroke-linejoin="round"/>
<path d="M20.1373 23.852L16.4932 22.0518L16.7834 24.463L16.7512 25.4776L20.1373 23.852Z" fill="#D7C1B3" stroke="#D7C1B3" stroke-linecap="round" stroke-linejoin="round"/>
<path d="M8.85034 23.852L12.2365 25.4776L12.215 24.463L12.4837 22.0518L8.85034 23.852Z" fill="#D7C1B3" stroke="#D7C1B3" stroke-linecap="round" stroke-linejoin="round"/>
<path d="M12.29 17.9715L9.25854 17.0659L11.3977 16.0731L12.29 17.9715Z" fill="#233447" stroke="#233447" stroke-linecap="round" stroke-linejoin="round"/>
<path d="M16.687 17.9715L17.5792 16.0731L19.7292 17.0659L16.687 17.9715Z" fill="#233447" stroke="#233447" stroke-linecap="round" stroke-linejoin="round"/>
<path d="M8.85037 23.852L9.36636 19.4225L6.00171 19.5207L8.85037 23.852Z" fill="#CD6116" stroke="#CD6116" stroke-linecap="round" stroke-linejoin="round"/>
<path d="M19.6218 19.4225L20.1378 23.852L22.9865 19.5207L19.6218 19.4225Z" fill="#CD6116" stroke="#CD6116" stroke-linecap="round" stroke-linejoin="round"/>
<path d="M22.1797 14.5457L16.1384 14.8184L16.6974 17.9714L17.5896 16.0731L19.7396 17.0659L22.1797 14.5457Z" fill="#CD6116" stroke="#CD6116" stroke-linecap="round" stroke-linejoin="round"/>
<path d="M9.25879 17.0659L11.4087 16.0731L12.2902 17.9714L12.8599 14.8184L6.80786 14.5457L9.25879 17.0659Z" fill="#CD6116" stroke="#CD6116" stroke-linecap="round" stroke-linejoin="round"/>
<path d="M6.80786 14.5457L9.34478 19.5643L9.25879 17.0659L6.80786 14.5457Z" fill="#E4751F" stroke="#E4751F" stroke-linecap="round" stroke-linejoin="round"/>
<path d="M19.7396 17.0659L19.6321 19.5643L22.1798 14.5457L19.7396 17.0659Z" fill="#E4751F" stroke="#E4751F" stroke-linecap="round" stroke-linejoin="round"/>
<path d="M12.86 14.8183L12.2903 17.9713L12.9998 21.6917L13.161 16.7931L12.86 14.8183Z" fill="#E4751F" stroke="#E4751F" stroke-linecap="round" stroke-linejoin="round"/>
<path d="M16.1386 14.8183L15.8484 16.7821L15.9774 21.6917L16.6976 17.9713L16.1386 14.8183Z" fill="#E4751F" stroke="#E4751F" stroke-linecap="round" stroke-linejoin="round"/>
<path d="M16.6973 17.9714L15.9771 21.6917L16.493 22.0518L19.6319 19.5643L19.7394 17.0659L16.6973 17.9714Z" fill="#F6851B" stroke="#F6851B" stroke-linecap="round" stroke-linejoin="round"/>
<path d="M9.25854 17.0659L9.34454 19.5643L12.4834 22.0518L12.9994 21.6917L12.29 17.9714L9.25854 17.0659Z" fill="#F6851B" stroke="#F6851B" stroke-linecap="round" stroke-linejoin="round"/>
<path d="M16.7513 25.4776L16.7836 24.463L16.5149 24.223H12.4622L12.215 24.463L12.2365 25.4776L8.85034 23.852L10.0328 24.8339L12.43 26.525H16.5471L18.955 24.8339L20.1375 23.852L16.7513 25.4776Z" fill="#C0AD9E" stroke="#C0AD9E" stroke-linecap="round" stroke-linejoin="round"/>
<path d="M16.4932 22.0518L15.9772 21.6918H12.9996L12.4836 22.0518L12.2148 24.463L12.4621 24.2229H16.5147L16.7835 24.463L16.4932 22.0518Z" fill="#161616" stroke="#161616" stroke-linecap="round" stroke-linejoin="round"/>
<path d="M27.2858 9.3197L28.1995 4.86842L26.8343 0.733521L16.4932 8.52327L20.4705 11.9381L26.0926 13.6073L27.3396 12.1345L26.8021 11.7417L27.6621 10.9453L26.9956 10.4216L27.8556 9.7561L27.2858 9.3197Z" fill="#763D16" stroke="#763D16" stroke-linecap="round" stroke-linejoin="round"/>
<path d="M0.788086 4.86842L1.70181 9.3197L1.12133 9.7561L1.9813 10.4216L1.32557 10.9453L2.18554 11.7417L1.64806 12.1345L2.88427 13.6073L8.50635 11.9381L12.4837 8.52327L2.14254 0.733521L0.788086 4.86842Z" fill="#763D16" stroke="#763D16" stroke-linecap="round" stroke-linejoin="round"/>
<path d="M26.0926 13.6073L20.4706 11.9381L22.1798 14.5456L19.6321 19.5642L22.986 19.5205H27.9846L26.0926 13.6073Z" fill="#F6851B" stroke="#F6851B" stroke-linecap="round" stroke-linejoin="round"/>
<path d="M8.50619 11.9381L2.88411 13.6073L1.01367 19.5205H6.00152L9.34466 19.5642L6.80774 14.5456L8.50619 11.9381Z" fill="#F6851B" stroke="#F6851B" stroke-linecap="round" stroke-linejoin="round"/>
<path d="M16.1384 14.8185L16.4932 8.52346L18.1271 4.03944H10.8711L12.4835 8.52346L12.8598 14.8185L12.9888 16.8042L12.9995 21.6918H15.9772L15.9987 16.8042L16.1384 14.8185Z" fill="#F6851B" stroke="#F6851B" stroke-linecap="round" stroke-linejoin="round"/>
</svg>
