<svg width="34" height="21" viewBox="0 0 34 21" fill="none" xmlns="http://www.w3.org/2000/svg">
<path d="M7.45275 4.46995C12.7506 -0.718988 21.3344 -0.718988 26.6411 4.46995L27.279 5.09375C27.3422 5.15443 27.3925 5.22727 27.4269 5.3079C27.4613 5.38853 27.479 5.47527 27.479 5.56292C27.479 5.65057 27.4613 5.73731 27.4269 5.81794C27.3925 5.89856 27.3422 5.97141 27.279 6.03209L25.1001 8.17057C25.035 8.23134 24.9493 8.26514 24.8602 8.26514C24.7712 8.26514 24.6854 8.23134 24.6204 8.17057L23.7418 7.31306C21.9488 5.57266 19.5483 4.59922 17.0496 4.59922C14.5508 4.59922 12.1503 5.57266 10.3574 7.31306L9.41903 8.23207C9.35395 8.29284 9.26822 8.32665 9.17918 8.32665C9.09013 8.32665 9.00441 8.29284 8.93932 8.23207L6.76218 6.09534C6.69893 6.03466 6.64861 5.96182 6.61423 5.8812C6.57985 5.80057 6.56212 5.71382 6.56212 5.62617C6.56212 5.53852 6.57985 5.45178 6.61423 5.37116C6.64861 5.29053 6.69893 5.21769 6.76218 5.15701L7.45275 4.46995ZM31.1518 8.88222L33.0847 10.7817C33.1479 10.8424 33.1983 10.9153 33.2326 10.9959C33.267 11.0765 33.2847 11.1632 33.2847 11.2509C33.2847 11.3385 33.267 11.4253 33.2326 11.5059C33.1983 11.5865 33.1479 11.6594 33.0847 11.7201L24.3339 20.2933C24.2056 20.4185 24.0335 20.4885 23.8542 20.4885C23.675 20.4885 23.5028 20.4185 23.3745 20.2933L17.1647 14.2082C17.1321 14.1776 17.089 14.1605 17.0443 14.1605C16.9996 14.1605 16.9565 14.1776 16.9239 14.2082L10.7158 20.2933C10.5875 20.4185 10.4154 20.4885 10.2361 20.4885C10.0569 20.4885 9.88473 20.4185 9.75641 20.2933L0.998645 11.7271C0.935395 11.6664 0.885067 11.5936 0.850687 11.5129C0.816307 11.4323 0.798584 11.3456 0.798584 11.2579C0.798584 11.1703 0.816307 11.0835 0.850687 11.0029C0.885067 10.9223 0.935395 10.8494 0.998645 10.7888L2.93154 8.88925C3.05986 8.7641 3.232 8.69406 3.41125 8.69406C3.59049 8.69406 3.76264 8.7641 3.89096 8.88925L10.1078 14.9744C10.1403 15.0045 10.183 15.0212 10.2273 15.0212C10.2717 15.0212 10.3143 15.0045 10.3468 14.9744L16.5567 8.88925C16.685 8.7641 16.8571 8.69406 17.0364 8.69406C17.2156 8.69406 17.3878 8.7641 17.5161 8.88925L23.7312 14.9744C23.7637 15.0045 23.8064 15.0212 23.8507 15.0212C23.895 15.0212 23.9377 15.0045 23.9702 14.9744L30.1871 8.88925C30.2498 8.82519 30.3246 8.77418 30.4071 8.73913C30.4897 8.70409 30.5783 8.68571 30.668 8.68506C30.7576 8.68441 30.8465 8.70149 30.9296 8.73533C31.0126 8.76916 31.0881 8.81908 31.1518 8.88222Z" fill="#3A99FB"/>
</svg>
