<svg width="10" height="10" viewBox="0 0 10 10" fill="none" xmlns="http://www.w3.org/2000/svg">
<path fill-rule="evenodd" clip-rule="evenodd" d="M2.17976 0.317307C1.78924 -0.073217 1.15607 -0.073217 0.765549 0.317307C0.375025 0.707832 0.375025 1.341 0.765549 1.73152L3.71476 4.68073L0.766158 7.62933C0.375634 8.01985 0.375634 8.65302 0.766158 9.04354C1.15668 9.43406 1.78985 9.43406 2.18037 9.04354L5.12897 6.09494L8.07757 9.04354C8.46809 9.43406 9.10126 9.43406 9.49178 9.04354C9.88231 8.65302 9.88231 8.01985 9.49178 7.62933L6.54318 4.68073L9.49239 1.73152C9.88292 1.341 9.88292 0.707832 9.49239 0.317307C9.10187 -0.073217 8.4687 -0.073217 8.07818 0.317307L5.12897 3.26651L2.17976 0.317307Z" fill="#DBE1EE"/>
</svg>
